<svg width="192" height="192" viewBox="0 0 192 192" fill="none" xmlns="http://www.w3.org/2000/svg" xmlns:xlink="http://www.w3.org/1999/xlink">
<path d="M192 96C192 42.9797 149.02 0 95.9985 0C42.9801 0 0 42.9797 0 96C0 149.017 42.9801 192 95.9985 192C149.02 192 192 149.017 192 96Z" fill="url(#paint0_linear_863_120752)"/>
<path d="M9.60037 96C9.60038 143.719 48.284 182.4 96.0019 182.4C143.72 182.4 182.4 143.719 182.4 96C182.4 48.2815 143.72 9.60002 96.0019 9.60003C48.2839 9.60003 9.60037 48.2815 9.60037 96V96Z" fill="url(#paint1_linear_863_120752)"/>
<path d="M172.8 96C172.8 53.5837 138.416 19.2 95.999 19.2C53.5843 19.2 19.2002 53.5837 19.2002 96C19.2002 138.413 53.5843 172.8 95.999 172.8C138.416 172.8 172.8 138.413 172.8 96Z" fill="url(#paint2_linear_863_120752)"/>
<path d="M172.8 96C172.8 53.5837 138.416 19.2 95.999 19.2C53.5843 19.2 19.2002 53.5837 19.2002 96C19.2002 138.413 53.5843 172.8 95.999 172.8C138.416 172.8 172.8 138.413 172.8 96Z" fill="white" fill-opacity="0.32"/>
<mask id="mask0_863_120752" style="mask-type:alpha" maskUnits="userSpaceOnUse" x="28" y="28" width="136" height="136">
<path d="M163.2 96C163.2 58.8881 133.112 28.8 95.9985 28.8C58.8877 28.8 28.7998 58.8881 28.7998 96C28.7998 133.112 58.8877 163.2 95.9985 163.2C133.112 163.2 163.2 133.112 163.2 96Z" fill="url(#paint3_linear_863_120752)"/>
<path d="M163.2 96C163.2 58.8881 133.112 28.8 95.9985 28.8C58.8877 28.8 28.7998 58.8881 28.7998 96C28.7998 133.112 58.8877 163.2 95.9985 163.2C133.112 163.2 163.2 133.112 163.2 96Z" fill="white"/>
</mask>
<g mask="url(#mask0_863_120752)">
<g clip-path="url(#clip0_863_120752)">
<rect width="134.4" height="134.4" transform="translate(28.7998 28.8)" fill="url(#pattern0)"/>
<path d="M95.9996 43.7333C67.1308 43.7333 43.7329 67.1338 43.7329 95.9982C43.7329 124.863 67.1308 148.267 95.9996 148.267C124.868 148.267 148.266 124.864 148.266 95.9982C148.266 67.1321 124.867 43.7333 95.9996 43.7333ZM94.6984 137.735C71.6156 137.735 52.8803 119.119 52.6905 96.083C52.4991 72.9433 71.2988 53.8613 94.4375 53.7275C98.7531 53.6976 103.048 54.3325 107.17 55.6098C104.231 54.8326 101.204 54.4408 98.1649 54.4441C78.7451 54.4374 64.1591 67.305 61.6651 85.4195C61.6041 85.8668 61.2822 90.8021 61.3025 91.2494C61.5567 98.0398 63.7525 105.467 67.3291 110.743C72.5237 118.403 79.3787 123.35 86.3439 125.178C103.824 129.767 116.905 119.914 121.234 107.693C122.857 103.119 123.776 94.1753 119.596 87.3374C115.624 80.8519 110.459 77.1501 102.072 77.1501C101.892 77.1501 101.711 77.1501 101.533 77.1602C99.2023 77.2205 96.9035 77.7176 94.756 78.6257H94.739C92.5318 79.7302 90.6538 81.3954 89.2931 83.4546C87.9324 85.5137 87.1369 87.8943 86.9864 90.3578C86.8359 92.8212 87.3357 95.281 88.4355 97.4904C89.5354 99.6998 91.1968 101.581 93.2532 102.946C91.3514 100.965 90.2779 98.333 90.2519 95.5872C90.2259 92.8413 91.2494 90.1892 93.1133 88.1726C94.9772 86.1561 97.5408 84.9273 100.28 84.7375C103.02 84.5476 105.728 85.4109 107.853 87.151C107.853 87.151 107.853 87.151 107.863 87.151C109.124 88.1835 110.135 89.4878 110.821 90.9664C112.151 93.354 112.847 96.0423 112.842 98.7751V98.87C112.795 106.833 107.297 114.689 95.0999 114.748C87.125 114.787 79.0806 109.666 74.9381 101.679C73.1126 98.1521 72.1625 94.2379 72.1679 90.2667C72.1679 90.0617 72.1679 89.8567 72.1679 89.6517C72.3814 80.9417 75.9614 72.1284 85.8678 66.4409C90.8829 63.5607 97.1059 62.4019 103.27 62.2053C103.642 62.1918 104.015 62.185 104.386 62.185C112.788 62.185 120.25 66.2918 124.785 70.402C126.744 72.1775 129.021 74.5376 130.149 76.0471C135.078 82.6546 136.179 87.4272 137.009 94.8055C137.275 97.1774 136.987 102.035 136.501 104.273C133.584 124.62 115.85 137.735 94.6984 137.735Z" fill="white"/>
</g>
</g>
<defs>
<linearGradient id="paint0_linear_863_120752" x1="192" y1="-0.000765816" x2="-17.6528" y2="21.7357" gradientUnits="userSpaceOnUse">
<stop stop-color="#EF5C82"/>
<stop offset="1" stop-color="#A23E58"/>
</linearGradient>
<linearGradient id="paint1_linear_863_120752" x1="9.60046" y1="182.401" x2="198.288" y2="162.838" gradientUnits="userSpaceOnUse">
<stop stop-color="#EF5C82"/>
<stop offset="1" stop-color="#A23E58"/>
</linearGradient>
<linearGradient id="paint2_linear_863_120752" x1="172.8" y1="19.1993" x2="5.07793" y2="36.5885" gradientUnits="userSpaceOnUse">
<stop stop-color="#EF5C82"/>
<stop offset="1" stop-color="#A23E58"/>
</linearGradient>
<linearGradient id="paint3_linear_863_120752" x1="36.7057" y1="43.6236" x2="152.329" y2="147.388" gradientUnits="userSpaceOnUse">
<stop stop-color="#00E599"/>
<stop offset="1" stop-color="#00AF92"/>
</linearGradient>
<clipPath id="clip0_863_120752">
<rect width="134.4" height="134.4" fill="white" transform="translate(28.7998 28.8)"/>
</clipPath>
</defs>
</svg>
