<?xml version="1.0" encoding="UTF-8" standalone="no"?><!-- Created with Inkscape (http://www.inkscape.org/) -->

<svg width="24mm" height="24mm" viewBox="0 0 24 24" version="1.1" id="svg586"
    xmlns="http://www.w3.org/2000/svg" xmlns:svg="http://www.w3.org/2000/svg">
    <defs id="defs583" />
    <g id="layer1" transform="translate(-88.178347,-114.71443)">
        <g id="g292" transform="matrix(0.13516558,0,0,0.13516558,88.14861,114.68469)">
            <path d="M 1.72,89 A 87.28,87.28 0 1 0 89,1.72 87.28,87.28 0 0 0 1.72,89" fill="#ffe674"
                id="path70" />
            <circle cx="89" cy="89" r="87.279999" fill="none" stroke="#231f20" stroke-width="3"
                id="circle72" />
            <path d="M 16.8,89 A 72.2,72.2 0 1 0 89,16.81 72.2,72.2 0 0 0 16.8,89" fill="#c68945"
                id="path74" />
            <path
                d="m 45.8,151.43 c 27.75,23.88 70.55,17.63 95.58,-14 C 166.41,105.8 164.21,60.91 136.46,37 108.71,13.09 65.92,19.4 40.88,51 15.84,82.6 18.05,127.55 45.8,151.43"
                fill="#ffe674" id="path76" />
            <path
                d="m 57.87,69.82 a 33.77,33.77 0 0 1 13.36,-14 q 8.68,-5 20.46,-5 a 41.62,41.62 0 0 1 18.09,3.8 33.39,33.39 0 0 1 13,10.72 38.83,38.83 0 0 1 6.66,16.17 h -25.77 a 13.92,13.92 0 0 0 -5,-6 13.14,13.14 0 0 0 -7.42,-2.14 11.63,11.63 0 0 0 -9.73,4.63 q -3.58,4.62 -3.58,12.42 0,7.8 3.58,12.43 a 11.63,11.63 0 0 0 9.73,4.62 13.15,13.15 0 0 0 7.42,-2.15 13.89,13.89 0 0 0 5,-6 h 25.74 a 38.83,38.83 0 0 1 -6.66,16.17 33.48,33.48 0 0 1 -13,10.72 41.62,41.62 0 0 1 -18.06,3.79 q -11.77,0 -20.46,-5 A 33.83,33.83 0 0 1 57.87,111 44,44 0 0 1 53.2,90.38 44,44 0 0 1 57.87,69.82 Z"
                fill="#ed1c24" id="path78" />
        </g>
    </g>
</svg>
