<svg width="192" height="192" viewBox="0 0 192 192" fill="none" xmlns="http://www.w3.org/2000/svg">
    <path d="M192 96C192 42.9797 149.02 0 95.999 0C42.98 0 0 42.9797 0 96C0 149.017 42.98 192 95.999 192C149.02 192 192 149.017 192 96Z" fill="url(#paint0_linear_198_81)"/>
    <path d="M9.60004 96C9.60004 143.718 48.284 182.4 96.002 182.4C143.72 182.4 182.4 143.718 182.4 96C182.4 48.2816 143.72 9.60009 96.002 9.6001C48.284 9.6001 9.60004 48.2816 9.60004 96Z" fill="url(#paint1_linear_198_81)"/>
    <path d="M172.8 96.0002C172.8 53.584 138.416 19.2002 95.999 19.2002C53.584 19.2002 19.2 53.584 19.2 96.0002C19.2 138.414 53.584 172.8 95.999 172.8C138.416 172.8 172.8 138.414 172.8 96.0002Z" fill="url(#paint2_linear_198_81)"/>
    <path d="M172.8 96.0002C172.8 53.584 138.416 19.2002 95.999 19.2002C53.584 19.2002 19.2 53.584 19.2 96.0002C19.2 138.414 53.584 172.8 95.999 172.8C138.416 172.8 172.8 138.414 172.8 96.0002Z" fill="white" fill-opacity="0.64"/>
    <mask id="mask0_198_81" style="mask-type:alpha" maskUnits="userSpaceOnUse" x="28" y="28" width="136" height="136">
        <path d="M163.2 96.0003C163.2 58.8884 133.112 28.8003 95.9991 28.8003C58.8881 28.8003 28.8 58.8884 28.8 96.0003C28.8 133.112 58.8881 163.2 95.9991 163.2C133.112 163.2 163.2 133.112 163.2 96.0003Z" fill="url(#paint3_linear_198_81)"/>
        <path d="M163.2 96.0003C163.2 58.8884 133.112 28.8003 95.9991 28.8003C58.8881 28.8003 28.8 58.8884 28.8 96.0003C28.8 133.112 58.8881 163.2 95.9991 163.2C133.112 163.2 163.2 133.112 163.2 96.0003Z" fill="white"/>
    </mask>
    <g mask="url(#mask0_198_81)">
        <mask id="mask1_198_81" style="mask-type:luminance" maskUnits="userSpaceOnUse" x="28" y="28" width="136" height="136">
            <path d="M163.2 28.8003H28.8V163.2H163.2V28.8003Z" fill="white"/>
        </mask>
        <g mask="url(#mask1_198_81)">
            <path d="M163.2 28.8003H28.8V163.2H163.2V28.8003Z" fill="white"/>
            <path fill-rule="evenodd" clip-rule="evenodd" d="M96.0001 28.8003C133.117 28.8003 163.2 58.8841 163.2 96.0003C163.2 133.116 133.117 163.2 96.0001 163.2C58.8841 163.2 28.8 133.116 28.8 96.0003C28.8 58.8841 58.8841 28.8003 96.0001 28.8003Z" fill="white"/>
            <path d="M62.7951 96.0105L62.8481 115.504L79.4071 125.251V136.663L53.1561 121.263V90.3101L62.7951 96.0105ZM62.7951 76.517V87.8764L53.1501 82.1701V70.8108L62.7951 65.1045L72.4861 70.8108L62.7951 76.517ZM86.3231 70.8108L95.9671 65.1045L105.658 70.8108L95.9671 76.517L86.3231 70.8108Z" fill="#F0B90B"/>
            <path d="M69.7641 111.463V100.051L79.4081 105.757V117.117L69.7641 111.463ZM86.3231 129.338L95.9671 135.045L105.659 129.338V140.698L95.9671 146.404L86.3231 140.698V129.338ZM119.49 70.8108L129.134 65.1045L138.825 70.8108V82.1701L129.134 87.8764V76.517L119.49 70.8108ZM129.134 115.504L129.187 96.0105L138.831 90.3042V121.257L112.58 136.657V125.245L129.134 115.504Z" fill="#F0B90B"/>
            <path d="M122.221 111.469L112.575 117.122V105.762L122.221 100.056V111.469Z" fill="#F0B90B"/>
            <path d="M122.218 80.5543L122.271 91.9669L105.665 101.714V121.254L96.0211 126.907L86.3771 121.254V101.714L69.7701 91.9669V80.5543L79.455 74.8481L95.9611 84.6421L112.568 74.8481L122.26 80.5543H122.218ZM69.7641 61.0668L95.9671 45.6138L122.218 61.0668L112.574 66.7731L95.9671 56.9791L79.4081 66.7731L69.7641 61.0668Z" fill="#F0B90B"/>
        </g>
    </g>
    <defs>
        <linearGradient id="paint0_linear_198_81" x1="192" y1="-0.000770047" x2="-17.653" y2="21.7357" gradientUnits="userSpaceOnUse">
            <stop stop-color="#F0B90B"/>
            <stop offset="1" stop-color="#A37E07"/>
        </linearGradient>
        <linearGradient id="paint1_linear_198_81" x1="9.60104" y1="182.401" x2="198.288" y2="162.838" gradientUnits="userSpaceOnUse">
            <stop stop-color="#F0B90B"/>
            <stop offset="1" stop-color="#A37E07"/>
        </linearGradient>
        <linearGradient id="paint2_linear_198_81" x1="172.8" y1="19.1996" x2="5.07801" y2="36.5887" gradientUnits="userSpaceOnUse">
            <stop stop-color="#F0B90B"/>
            <stop offset="1" stop-color="#A37E07"/>
        </linearGradient>
        <linearGradient id="paint3_linear_198_81" x1="36.706" y1="43.6238" x2="152.33" y2="147.388" gradientUnits="userSpaceOnUse">
            <stop stop-color="#00E599"/>
            <stop offset="1" stop-color="#00AF92"/>
        </linearGradient>
    </defs>
</svg>
