<svg width="325" height="193" viewBox="0 0 325 193" fill="none" xmlns="http://www.w3.org/2000/svg" xmlns:xlink="http://www.w3.org/1999/xlink">
<path d="M324 97C324 43.9797 281.02 1 227.998 1C174.98 1 132 43.9797 132 97C132 150.017 174.98 193 227.998 193C281.02 193 324 150.017 324 97Z" fill="url(#paint0_linear_904_92)"/>
<path d="M141.6 97.0006C141.6 144.719 180.284 183.401 228.002 183.401C275.72 183.401 314.4 144.719 314.4 97.0006C314.4 49.2821 275.72 10.6006 228.002 10.6006C180.284 10.6006 141.6 49.2821 141.6 97.0006Z" fill="url(#paint1_linear_904_92)"/>
<path d="M304.799 97.0002C304.799 54.5839 270.415 20.2002 227.998 20.2002C185.583 20.2002 151.199 54.5839 151.199 97.0002C151.199 139.414 185.583 173.801 227.998 173.801C270.415 173.801 304.799 139.414 304.799 97.0002Z" fill="url(#paint2_linear_904_92)"/>
<path d="M304.799 97.0002C304.799 54.5839 270.415 20.2002 227.998 20.2002C185.583 20.2002 151.199 54.5839 151.199 97.0002C151.199 139.414 185.583 173.801 227.998 173.801C270.415 173.801 304.799 139.414 304.799 97.0002Z" fill="white" fill-opacity="0.64"/>
<mask id="mask0_904_92" style="mask-type:alpha" maskUnits="userSpaceOnUse" x="160" y="29" width="136" height="136">
<path d="M295.199 97.0008C295.199 59.8889 265.111 29.8008 227.997 29.8008C190.887 29.8008 160.799 59.8889 160.799 97.0008C160.799 134.113 190.887 164.201 227.997 164.201C265.111 164.201 295.199 134.113 295.199 97.0008Z" fill="url(#paint3_linear_904_92)"/>
<path d="M295.199 97.0008C295.199 59.8889 265.111 29.8008 227.997 29.8008C190.887 29.8008 160.799 59.8889 160.799 97.0008C160.799 134.113 190.887 164.201 227.997 164.201C265.111 164.201 295.199 134.113 295.199 97.0008Z" fill="white"/>
</mask>
<g mask="url(#mask0_904_92)">
<mask id="mask1_904_92" style="mask-type:luminance" maskUnits="userSpaceOnUse" x="160" y="29" width="136" height="136">
<path d="M295.199 29.8008H160.799V164.201H295.199V29.8008Z" fill="white"/>
</mask>
<g mask="url(#mask1_904_92)">
<path d="M295.199 29.8008H160.799V164.201H295.199V29.8008Z" fill="white"/>
<path d="M295.199 97.0008C295.199 59.8872 265.112 29.8008 227.999 29.8008C190.885 29.8008 160.799 59.8872 160.799 97.0008C160.799 134.114 190.885 164.201 227.999 164.201C265.112 164.201 295.199 134.114 295.199 97.0008Z" fill="white"/>
<path fill-rule="evenodd" clip-rule="evenodd" d="M227.999 153.862C259.402 153.862 284.86 128.404 284.86 97.0002C284.86 65.5964 259.402 40.1387 227.999 40.1387C196.595 40.1387 171.137 65.5964 171.137 97.0002C171.137 128.404 196.595 153.862 227.999 153.862ZM225.79 60.9058V50.4778H234.154V61.0593C237.128 61.468 239.83 62.2761 242.259 63.4837C245.93 65.3091 248.77 67.9494 250.779 71.4046C252.822 74.8272 253.844 78.9669 253.844 83.8238H238.206C238.206 80.01 237.375 77.1905 235.713 75.3651C234.05 73.5071 231.868 72.5781 229.167 72.5781C227.193 72.5781 225.582 72.9366 224.335 73.6537C223.088 74.3709 222.171 75.3488 221.582 76.5874C220.993 77.8261 220.699 79.2114 220.699 80.7434C220.699 82.3081 221.01 83.6771 221.634 84.8506C222.257 85.9915 223.331 87.0508 224.855 88.0287C226.379 89.0066 228.474 90.0008 231.141 91.0113C235.609 92.7063 239.54 94.5154 242.934 96.4386C246.363 98.3618 249.03 100.709 250.935 103.48C252.874 106.25 253.844 109.771 253.844 114.041C253.844 118.278 252.788 121.897 250.675 124.896C248.562 127.862 245.636 130.127 241.895 131.692C239.26 132.771 236.316 133.47 233.063 133.789V143.524H224.699V133.776C222.869 133.585 221.051 133.265 219.244 132.816C216.092 132.002 213.217 130.681 210.62 128.856C208.057 127.031 205.996 124.618 204.438 121.62C202.914 118.588 202.152 114.856 202.152 110.423H217.841C217.841 112.672 218.153 114.563 218.776 116.095C219.4 117.594 220.231 118.8 221.27 119.713C222.309 120.593 223.469 121.228 224.751 121.62C226.067 121.978 227.418 122.157 228.803 122.157C230.881 122.157 232.613 121.815 233.998 121.131C235.384 120.446 236.405 119.501 237.063 118.295C237.756 117.056 238.103 115.671 238.103 114.139C238.103 112.346 237.756 110.847 237.063 109.64C236.405 108.402 235.332 107.31 233.842 106.365C232.353 105.387 230.344 104.458 227.816 103.578C223.279 101.915 219.296 100.155 215.867 98.2966C212.438 96.406 209.771 94.0753 207.866 91.3047C205.962 88.534 205.009 84.9973 205.009 80.6946C205.009 76.62 206.031 73.0996 208.074 70.1333C210.118 67.1345 212.975 64.8202 216.646 63.1903C219.378 61.9777 222.426 61.2162 225.79 60.9058Z" fill="#D9D9D9"/>
<path fill-rule="evenodd" clip-rule="evenodd" d="M227.999 153.862C259.402 153.862 284.86 128.404 284.86 97.0002C284.86 65.5964 259.402 40.1387 227.999 40.1387C196.595 40.1387 171.137 65.5964 171.137 97.0002C171.137 128.404 196.595 153.862 227.999 153.862ZM225.79 60.9058V50.4778H234.154V61.0593C237.128 61.468 239.83 62.2761 242.259 63.4837C245.93 65.3091 248.77 67.9494 250.779 71.4046C252.822 74.8272 253.844 78.9669 253.844 83.8238H238.206C238.206 80.01 237.375 77.1905 235.713 75.3651C234.05 73.5071 231.868 72.5781 229.167 72.5781C227.193 72.5781 225.582 72.9366 224.335 73.6537C223.088 74.3709 222.171 75.3488 221.582 76.5874C220.993 77.8261 220.699 79.2114 220.699 80.7434C220.699 82.3081 221.01 83.6771 221.634 84.8506C222.257 85.9915 223.331 87.0508 224.855 88.0287C226.379 89.0066 228.474 90.0008 231.141 91.0113C235.609 92.7063 239.54 94.5154 242.934 96.4386C246.363 98.3618 249.03 100.709 250.935 103.48C252.874 106.25 253.844 109.771 253.844 114.041C253.844 118.278 252.788 121.897 250.675 124.896C248.562 127.862 245.636 130.127 241.895 131.692C239.26 132.771 236.316 133.47 233.063 133.789V143.524H224.699V133.776C222.869 133.585 221.051 133.265 219.244 132.816C216.092 132.002 213.217 130.681 210.62 128.856C208.057 127.031 205.996 124.618 204.438 121.62C202.914 118.588 202.152 114.856 202.152 110.423H217.841C217.841 112.672 218.153 114.563 218.776 116.095C219.4 117.594 220.231 118.8 221.27 119.713C222.309 120.593 223.469 121.228 224.751 121.62C226.067 121.978 227.418 122.157 228.803 122.157C230.881 122.157 232.613 121.815 233.998 121.131C235.384 120.446 236.405 119.501 237.063 118.295C237.756 117.056 238.103 115.671 238.103 114.139C238.103 112.346 237.756 110.847 237.063 109.64C236.405 108.402 235.332 107.31 233.842 106.365C232.353 105.387 230.344 104.458 227.816 103.578C223.279 101.915 219.296 100.155 215.867 98.2966C212.438 96.406 209.771 94.0753 207.866 91.3047C205.962 88.534 205.009 84.9973 205.009 80.6946C205.009 76.62 206.031 73.0996 208.074 70.1333C210.118 67.1345 212.975 64.8202 216.646 63.1903C219.378 61.9777 222.426 61.2162 225.79 60.9058Z" fill="url(#paint4_linear_904_92)"/>
</g>
</g>
<g clip-path="url(#clip0_904_92)">
<path d="M192 96C192 42.9797 149.02 0 95.9985 0C42.9801 0 0 42.9797 0 96C0 149.017 42.9801 192 95.9985 192C149.02 192 192 149.017 192 96Z" fill="url(#paint5_linear_904_92)"/>
<path d="M9.59961 95.9996C9.59962 143.719 48.2832 182.4 96.0011 182.4C143.719 182.4 182.399 143.719 182.399 95.9996C182.399 48.2811 143.719 9.5996 96.0011 9.59961C48.2831 9.59961 9.59961 48.2811 9.59961 95.9996Z" fill="url(#paint6_linear_904_92)"/>
<path d="M172.801 96.0002C172.801 53.5839 138.417 19.2002 96 19.2002C53.5853 19.2002 19.2012 53.5839 19.2012 96.0002C19.2012 138.413 53.5853 172.8 96 172.8C138.417 172.8 172.801 138.413 172.801 96.0002Z" fill="url(#paint7_linear_904_92)"/>
<path d="M172.801 96.0002C172.801 53.5839 138.417 19.2002 96 19.2002C53.5853 19.2002 19.2012 53.5839 19.2012 96.0002C19.2012 138.413 53.5853 172.8 96 172.8C138.417 172.8 172.801 138.413 172.801 96.0002Z" fill="white" fill-opacity="0.32"/>
<mask id="mask2_904_92" style="mask-type:alpha" maskUnits="userSpaceOnUse" x="28" y="28" width="136" height="136">
<path d="M163.199 95.9998C163.199 58.8879 133.111 28.7998 95.9975 28.7998C58.8867 28.7998 28.7988 58.8879 28.7988 95.9998C28.7988 133.112 58.8867 163.2 95.9975 163.2C133.111 163.2 163.199 133.112 163.199 95.9998Z" fill="url(#paint8_linear_904_92)"/>
<path d="M163.199 95.9998C163.199 58.8879 133.111 28.7998 95.9975 28.7998C58.8867 28.7998 28.7988 58.8879 28.7988 95.9998C28.7988 133.112 58.8867 163.2 95.9975 163.2C133.111 163.2 163.199 133.112 163.199 95.9998Z" fill="white"/>
</mask>
<g mask="url(#mask2_904_92)">
<mask id="mask3_904_92" style="mask-type:luminance" maskUnits="userSpaceOnUse" x="28" y="28" width="136" height="136">
<path d="M163.199 28.7998H28.7988V163.2H163.199V28.7998Z" fill="white"/>
</mask>
<g mask="url(#mask3_904_92)">
<path d="M163.199 28.7998H28.7988V163.2H163.199V28.7998Z" fill="url(#pattern0_904_92)"/>
<path d="M95.9991 43.7334C67.1303 43.7334 43.7324 67.1339 43.7324 95.9983C43.7324 124.863 67.1303 148.267 95.9991 148.267C124.868 148.267 148.266 124.864 148.266 95.9983C148.266 67.1322 124.867 43.7334 95.9991 43.7334ZM94.6979 137.735C71.6151 137.735 52.8798 119.119 52.69 96.0831C52.4986 72.9434 71.2983 53.8614 94.437 53.7276C98.7526 53.6977 103.048 54.3326 107.17 55.6099C104.231 54.8327 101.204 54.4409 98.1644 54.4442C78.7446 54.4375 64.1586 67.3051 61.6646 85.4196C61.6036 85.8669 61.2817 90.8022 61.302 91.2495C61.5562 98.0399 63.752 105.467 67.3286 110.743C72.5232 118.403 79.3782 123.35 86.3434 125.178C103.824 129.767 116.905 119.914 121.234 107.693C122.857 103.119 123.776 94.1754 119.596 87.3375C115.624 80.852 110.459 77.1502 102.072 77.1502C101.892 77.1502 101.711 77.1502 101.533 77.1603C99.2018 77.2206 96.903 77.7177 94.7555 78.6258H94.7385C92.5313 79.7303 90.6533 81.3955 89.2926 83.4547C87.9319 85.5138 87.1364 87.8944 86.9859 90.3579C86.8354 92.8213 87.3352 95.2811 88.435 97.4905C89.5349 99.6999 91.1963 101.581 93.2527 102.946C91.3509 100.965 90.2774 98.3331 90.2514 95.5873C90.2254 92.8414 91.2489 90.1893 93.1128 88.1727C94.9767 86.1562 97.5403 84.9274 100.28 84.7376C103.02 84.5477 105.728 85.411 107.853 87.1511C107.853 87.1511 107.853 87.1511 107.863 87.1511C109.124 88.1836 110.135 89.4879 110.821 90.9665C112.151 93.3541 112.847 96.0424 112.842 98.7752V98.8701C112.795 106.833 107.297 114.689 95.0994 114.748C87.1245 114.787 79.0801 109.666 74.9376 101.679C73.1121 98.1522 72.162 94.238 72.1674 90.2668C72.1674 90.0618 72.1674 89.8568 72.1674 89.6518C72.3809 80.9418 75.9609 72.1285 85.8673 66.441C90.8824 63.5608 97.1054 62.402 103.27 62.2054C103.642 62.1919 104.015 62.1851 104.386 62.1851C112.788 62.1851 120.25 66.2919 124.785 70.4021C126.744 72.1776 129.021 74.5377 130.149 76.0472C135.078 82.6547 136.179 87.4273 137.009 94.8056C137.275 97.1775 136.987 102.035 136.501 104.273C133.584 124.62 115.85 137.735 94.6979 137.735Z" fill="white"/>
</g>
</g>
</g>
<defs>
<linearGradient id="paint0_linear_904_92" x1="324" y1="0.999233" x2="114.347" y2="22.7356" gradientUnits="userSpaceOnUse">
<stop stop-color="#DC42C9"/>
<stop offset="1" stop-color="#952D88"/>
</linearGradient>
<linearGradient id="paint1_linear_904_92" x1="141.6" y1="183.401" x2="330.288" y2="163.839" gradientUnits="userSpaceOnUse">
<stop stop-color="#DC42C9"/>
<stop offset="1" stop-color="#952D88"/>
</linearGradient>
<linearGradient id="paint2_linear_904_92" x1="304.799" y1="20.1996" x2="137.077" y2="37.5887" gradientUnits="userSpaceOnUse">
<stop stop-color="#DC42C9"/>
<stop offset="1" stop-color="#952D88"/>
</linearGradient>
<linearGradient id="paint3_linear_904_92" x1="168.705" y1="44.6243" x2="284.328" y2="148.389" gradientUnits="userSpaceOnUse">
<stop stop-color="#00E599"/>
<stop offset="1" stop-color="#00AF92"/>
</linearGradient>
<linearGradient id="paint4_linear_904_92" x1="181.477" y1="97.0003" x2="274.522" y2="97.0003" gradientUnits="userSpaceOnUse">
<stop stop-color="#E96161"/>
<stop offset="0.2" stop-color="#E65B76"/>
<stop offset="0.61" stop-color="#DF4AAC"/>
<stop offset="1" stop-color="#D739E6"/>
</linearGradient>
<linearGradient id="paint5_linear_904_92" x1="192" y1="-0.000770047" x2="-17.6528" y2="21.7357" gradientUnits="userSpaceOnUse">
<stop stop-color="#EF5C82"/>
<stop offset="1" stop-color="#A23E58"/>
</linearGradient>
<linearGradient id="paint6_linear_904_92" x1="9.5997" y1="182.401" x2="198.287" y2="162.838" gradientUnits="userSpaceOnUse">
<stop stop-color="#EF5C82"/>
<stop offset="1" stop-color="#A23E58"/>
</linearGradient>
<linearGradient id="paint7_linear_904_92" x1="172.801" y1="19.1995" x2="5.0789" y2="36.5887" gradientUnits="userSpaceOnUse">
<stop stop-color="#EF5C82"/>
<stop offset="1" stop-color="#A23E58"/>
</linearGradient>
<linearGradient id="paint8_linear_904_92" x1="36.7047" y1="43.6234" x2="152.328" y2="147.388" gradientUnits="userSpaceOnUse">
<stop stop-color="#00E599"/>
<stop offset="1" stop-color="#00AF92"/>
</linearGradient>
<clipPath id="clip0_904_92">
<rect width="192" height="192" fill="white"/>
</clipPath>
</defs>
</svg>
