<svg width="325" height="193" viewBox="0 0 325 193" fill="none" xmlns="http://www.w3.org/2000/svg">
<path d="M324.9 96.3999C324.9 43.3796 281.92 0.399902 228.898 0.399902C175.88 0.399902 132.9 43.3796 132.9 96.3999C132.9 149.417 175.88 192.4 228.898 192.4C281.92 192.4 324.9 149.417 324.9 96.3999Z" fill="url(#paint0_linear_863_121803)"/>
<path d="M142.5 96.3998C142.5 144.118 181.184 182.8 228.902 182.8C276.62 182.8 315.3 144.118 315.3 96.3998C315.3 48.6813 276.62 9.9998 228.902 9.99981C181.184 9.99981 142.5 48.6813 142.5 96.3998V96.3998Z" fill="url(#paint1_linear_863_121803)"/>
<path d="M305.7 96.4001C305.7 53.9839 271.316 19.6001 228.899 19.6001C186.484 19.6001 152.1 53.9839 152.1 96.4001C152.1 138.814 186.484 173.2 228.899 173.2C271.316 173.2 305.7 138.814 305.7 96.4001Z" fill="url(#paint2_linear_863_121803)"/>
<path d="M305.7 96.4001C305.7 53.9839 271.316 19.6001 228.899 19.6001C186.484 19.6001 152.1 53.9839 152.1 96.4001C152.1 138.814 186.484 173.2 228.899 173.2C271.316 173.2 305.7 138.814 305.7 96.4001Z" fill="white" fill-opacity="0.64"/>
<mask id="mask0_863_121803" style="mask-type:alpha" maskUnits="userSpaceOnUse" x="161" y="29" width="136" height="135">
<path d="M296.1 96.3997C296.1 59.2878 266.012 29.1997 228.899 29.1997C191.788 29.1997 161.7 59.2878 161.7 96.3997C161.7 133.512 191.788 163.6 228.899 163.6C266.012 163.6 296.1 133.512 296.1 96.3997Z" fill="url(#paint3_linear_863_121803)"/>
<path d="M296.1 96.3997C296.1 59.2878 266.012 29.1997 228.899 29.1997C191.788 29.1997 161.7 59.2878 161.7 96.3997C161.7 133.512 191.788 163.6 228.899 163.6C266.012 163.6 296.1 133.512 296.1 96.3997Z" fill="white"/>
</mask>
<g mask="url(#mask0_863_121803)">
<g clip-path="url(#clip0_863_121803)">
<rect width="134.4" height="134.4" transform="translate(161.7 29.1992)" fill="white"/>
<rect x="161.7" y="29.1992" width="134.4" height="134.4" rx="67.2" fill="white"/>
<path fill-rule="evenodd" clip-rule="evenodd" d="M228.9 153.261C260.304 153.261 285.762 127.803 285.762 96.3991C285.762 64.9954 260.304 39.5376 228.9 39.5376C197.496 39.5376 172.039 64.9954 172.039 96.3991C172.039 127.803 197.496 153.261 228.9 153.261ZM226.691 60.3048V49.8767H235.056V60.4582C238.03 60.867 240.731 61.6751 243.16 62.8827C246.831 64.7081 249.672 67.3484 251.68 70.8036C253.724 74.2262 254.745 78.3659 254.745 83.2228H239.108C239.108 79.409 238.277 76.5894 236.614 74.764C234.952 72.906 232.77 71.977 230.068 71.977C228.094 71.977 226.484 72.3356 225.237 73.0527C223.99 73.7698 223.072 74.7477 222.483 75.9864C221.894 77.225 221.6 78.6104 221.6 80.1424C221.6 81.707 221.912 83.0761 222.535 84.2495C223.159 85.3904 224.232 86.4498 225.756 87.4277C227.28 88.4056 229.376 89.3998 232.042 90.4102C236.51 92.1053 240.441 93.9143 243.836 95.8375C247.264 97.7607 249.931 100.108 251.836 102.878C253.776 105.649 254.745 109.169 254.745 113.44C254.745 117.677 253.689 121.295 251.576 124.294C249.464 127.26 246.537 129.526 242.797 131.09C240.162 132.17 237.218 132.869 233.965 133.188V142.923H225.6V133.175C223.771 132.983 221.952 132.664 220.145 132.215C216.994 131.4 214.119 130.08 211.521 128.255C208.958 126.429 206.898 124.017 205.339 121.018C203.815 117.987 203.053 114.254 203.053 109.821H218.743C218.743 112.07 219.054 113.961 219.678 115.493C220.301 116.993 221.132 118.199 222.172 119.111C223.211 119.991 224.371 120.627 225.652 121.018C226.968 121.377 228.319 121.556 229.705 121.556C231.783 121.556 233.514 121.214 234.9 120.529C236.285 119.845 237.307 118.899 237.965 117.693C238.658 116.455 239.004 115.069 239.004 113.537C239.004 111.745 238.658 110.245 237.965 109.039C237.307 107.8 236.233 106.708 234.744 105.763C233.255 104.785 231.246 103.856 228.717 102.976C224.18 101.314 220.197 99.5535 216.769 97.6955C213.34 95.8049 210.673 93.4743 208.768 90.7036C206.863 87.9329 205.911 84.3962 205.911 80.0935C205.911 76.019 206.932 72.4986 208.976 69.5323C211.019 66.5334 213.877 64.2191 217.548 62.5893C220.279 61.3767 223.327 60.6152 226.691 60.3048Z" fill="#D9D9D9"/>
<path fill-rule="evenodd" clip-rule="evenodd" d="M228.9 153.261C260.304 153.261 285.762 127.803 285.762 96.3991C285.762 64.9954 260.304 39.5376 228.9 39.5376C197.496 39.5376 172.039 64.9954 172.039 96.3991C172.039 127.803 197.496 153.261 228.9 153.261ZM226.691 60.3048V49.8767H235.056V60.4582C238.03 60.867 240.731 61.6751 243.16 62.8827C246.831 64.7081 249.672 67.3484 251.68 70.8036C253.724 74.2262 254.745 78.3659 254.745 83.2228H239.108C239.108 79.409 238.277 76.5894 236.614 74.764C234.952 72.906 232.77 71.977 230.068 71.977C228.094 71.977 226.484 72.3356 225.237 73.0527C223.99 73.7698 223.072 74.7477 222.483 75.9864C221.894 77.225 221.6 78.6104 221.6 80.1424C221.6 81.707 221.912 83.0761 222.535 84.2495C223.159 85.3904 224.232 86.4498 225.756 87.4277C227.28 88.4056 229.376 89.3998 232.042 90.4102C236.51 92.1053 240.441 93.9143 243.836 95.8375C247.264 97.7607 249.931 100.108 251.836 102.878C253.776 105.649 254.745 109.169 254.745 113.44C254.745 117.677 253.689 121.295 251.576 124.294C249.464 127.26 246.537 129.526 242.797 131.09C240.162 132.17 237.218 132.869 233.965 133.188V142.923H225.6V133.175C223.771 132.983 221.952 132.664 220.145 132.215C216.994 131.4 214.119 130.08 211.521 128.255C208.958 126.429 206.898 124.017 205.339 121.018C203.815 117.987 203.053 114.254 203.053 109.821H218.743C218.743 112.07 219.054 113.961 219.678 115.493C220.301 116.993 221.132 118.199 222.172 119.111C223.211 119.991 224.371 120.627 225.652 121.018C226.968 121.377 228.319 121.556 229.705 121.556C231.783 121.556 233.514 121.214 234.9 120.529C236.285 119.845 237.307 118.899 237.965 117.693C238.658 116.455 239.004 115.069 239.004 113.537C239.004 111.745 238.658 110.245 237.965 109.039C237.307 107.8 236.233 106.708 234.744 105.763C233.255 104.785 231.246 103.856 228.717 102.976C224.18 101.314 220.197 99.5535 216.769 97.6955C213.34 95.8049 210.673 93.4743 208.768 90.7036C206.863 87.9329 205.911 84.3962 205.911 80.0935C205.911 76.019 206.932 72.4986 208.976 69.5323C211.019 66.5334 213.877 64.2191 217.548 62.5893C220.279 61.3767 223.327 60.6152 226.691 60.3048Z" fill="url(#paint4_linear_863_121803)"/>
</g>
</g>
<path d="M192.9 96.3999C192.9 43.3796 149.92 0.399902 96.8984 0.399902C43.88 0.399902 0.899902 43.3796 0.899902 96.3999C0.899902 149.417 43.88 192.4 96.8984 192.4C149.92 192.4 192.9 149.417 192.9 96.3999Z" fill="url(#paint5_linear_863_121803)"/>
<path d="M10.5003 96.3998C10.5003 144.118 49.1839 182.8 96.9018 182.8C144.62 182.8 183.3 144.118 183.3 96.3998C183.3 48.6813 144.62 9.9998 96.9018 9.99981C49.1838 9.99981 10.5003 48.6813 10.5003 96.3998V96.3998Z" fill="url(#paint6_linear_863_121803)"/>
<path d="M173.7 96.4001C173.7 53.9839 139.316 19.6001 96.8989 19.6001C54.4842 19.6001 20.1001 53.9839 20.1001 96.4001C20.1001 138.814 54.4842 173.2 96.8989 173.2C139.316 173.2 173.7 138.814 173.7 96.4001Z" fill="url(#paint7_linear_863_121803)"/>
<path d="M173.7 96.4001C173.7 53.9839 139.316 19.6001 96.8989 19.6001C54.4842 19.6001 20.1001 53.9839 20.1001 96.4001C20.1001 138.814 54.4842 173.2 96.8989 173.2C139.316 173.2 173.7 138.814 173.7 96.4001Z" fill="white" fill-opacity="0.64"/>
<mask id="mask1_863_121803" style="mask-type:alpha" maskUnits="userSpaceOnUse" x="29" y="29" width="136" height="135">
<path d="M164.1 96.3997C164.1 59.2878 134.012 29.1997 96.8989 29.1997C59.7881 29.1997 29.7002 59.2878 29.7002 96.3997C29.7002 133.512 59.7881 163.6 96.8989 163.6C134.012 163.6 164.1 133.512 164.1 96.3997Z" fill="url(#paint8_linear_863_121803)"/>
<path d="M164.1 96.3997C164.1 59.2878 134.012 29.1997 96.8989 29.1997C59.7881 29.1997 29.7002 59.2878 29.7002 96.3997C29.7002 133.512 59.7881 163.6 96.8989 163.6C134.012 163.6 164.1 133.512 164.1 96.3997Z" fill="white"/>
</mask>
<g mask="url(#mask1_863_121803)">
<g clip-path="url(#clip1_863_121803)">
<rect width="134.4" height="134.4" transform="translate(29.7002 29.1992)" fill="white"/>
<path d="M96.9002 163.599C134.014 163.599 164.1 133.513 164.1 96.3992C164.1 59.2857 134.014 29.1992 96.9002 29.1992C59.7867 29.1992 29.7002 59.2857 29.7002 96.3992C29.7002 133.513 59.7867 163.599 96.9002 163.599Z" fill="white"/>
<mask id="mask2_863_121803" style="mask-type:alpha" maskUnits="userSpaceOnUse" x="61" y="48" width="68" height="96">
<path d="M61.4644 48.7471H128.664V143.947H61.4644V48.7471Z" fill="white"/>
</mask>
<g mask="url(#mask2_863_121803)">
<path fill-rule="evenodd" clip-rule="evenodd" d="M113.263 86.8699C111.091 96.1868 97.6785 91.4535 93.3277 90.2929L97.165 73.8247C101.516 74.9854 115.527 77.1518 113.264 86.8699H113.263ZM110.88 113.445C108.498 123.688 92.3837 118.151 87.1592 116.763L91.3915 98.605C96.6156 100.001 113.369 102.763 110.88 113.445H110.88ZM128.489 87.0184C129.887 77.015 122.771 71.6378 113.04 68.0509L116.197 54.5004L108.49 52.4451L105.417 65.6388C103.39 65.0979 101.31 64.5882 99.2416 64.0831L102.337 50.8024L94.6344 48.7471L91.4759 62.293C89.7993 61.8844 88.1524 61.4806 86.5546 61.0551L86.5635 61.0127L75.9351 58.172L73.8847 66.9819C73.8847 66.9819 79.603 68.3848 79.4824 68.4712C82.6034 69.3048 83.1679 71.5159 83.0741 73.2685L79.4782 88.7054L79.465 88.765L74.4248 110.39C74.0433 111.405 73.0752 112.928 70.8932 112.35C70.9704 112.469 65.2914 110.853 65.2914 110.853L61.4648 120.295L71.4947 122.971C73.3605 123.472 75.189 123.996 76.9897 124.489L73.8004 138.195L81.4986 140.25L84.6571 126.69C86.7602 127.3 88.8012 127.864 90.7994 128.395L87.6514 141.892L95.3592 143.947L98.5482 130.267C111.691 132.929 121.573 131.856 125.732 119.134C129.084 108.891 125.566 102.983 118.651 99.1299C123.687 97.887 127.481 94.3422 128.492 87.0195L128.49 87.0177L128.489 87.0184Z" fill="#F7931A"/>
</g>
</g>
</g>
<defs>
<linearGradient id="paint0_linear_863_121803" x1="324.9" y1="0.399137" x2="115.247" y2="22.1356" gradientUnits="userSpaceOnUse">
<stop stop-color="#DC42C9"/>
<stop offset="1" stop-color="#952D88"/>
</linearGradient>
<linearGradient id="paint1_linear_863_121803" x1="142.5" y1="182.801" x2="331.188" y2="163.238" gradientUnits="userSpaceOnUse">
<stop stop-color="#DC42C9"/>
<stop offset="1" stop-color="#952D88"/>
</linearGradient>
<linearGradient id="paint2_linear_863_121803" x1="305.7" y1="19.5995" x2="137.978" y2="36.9886" gradientUnits="userSpaceOnUse">
<stop stop-color="#DC42C9"/>
<stop offset="1" stop-color="#952D88"/>
</linearGradient>
<linearGradient id="paint3_linear_863_121803" x1="169.606" y1="44.0232" x2="285.23" y2="147.788" gradientUnits="userSpaceOnUse">
<stop stop-color="#00E599"/>
<stop offset="1" stop-color="#00AF92"/>
</linearGradient>
<linearGradient id="paint4_linear_863_121803" x1="182.378" y1="96.3992" x2="275.423" y2="96.3992" gradientUnits="userSpaceOnUse">
<stop stop-color="#E96161"/>
<stop offset="0.2" stop-color="#E65B76"/>
<stop offset="0.61" stop-color="#DF4AAC"/>
<stop offset="1" stop-color="#D739E6"/>
</linearGradient>
<linearGradient id="paint5_linear_863_121803" x1="192.9" y1="0.399137" x2="-16.7529" y2="22.1356" gradientUnits="userSpaceOnUse">
<stop stop-color="#F7931A"/>
<stop offset="1" stop-color="#A86412"/>
</linearGradient>
<linearGradient id="paint6_linear_863_121803" x1="10.5004" y1="182.801" x2="199.188" y2="163.238" gradientUnits="userSpaceOnUse">
<stop stop-color="#F7931A"/>
<stop offset="1" stop-color="#A86412"/>
</linearGradient>
<linearGradient id="paint7_linear_863_121803" x1="173.7" y1="19.5995" x2="5.97783" y2="36.9886" gradientUnits="userSpaceOnUse">
<stop stop-color="#F7931A"/>
<stop offset="1" stop-color="#A86412"/>
</linearGradient>
<linearGradient id="paint8_linear_863_121803" x1="37.6061" y1="44.0232" x2="153.23" y2="147.788" gradientUnits="userSpaceOnUse">
<stop stop-color="#00E599"/>
<stop offset="1" stop-color="#00AF92"/>
</linearGradient>
<clipPath id="clip0_863_121803">
<rect width="134.4" height="134.4" fill="white" transform="translate(161.7 29.1992)"/>
</clipPath>
<clipPath id="clip1_863_121803">
<rect width="134.4" height="134.4" fill="white" transform="translate(29.7002 29.1992)"/>
</clipPath>
</defs>
</svg>
