<svg width="325" height="193" viewBox="0 0 325 193" fill="none" xmlns="http://www.w3.org/2000/svg">
<g clip-path="url(#clip0_106_1233)">
<path d="M324.9 96.3999C324.9 43.3796 281.92 0.399902 228.898 0.399902C175.88 0.399902 132.9 43.3796 132.9 96.3999C132.9 149.417 175.88 192.4 228.898 192.4C281.92 192.4 324.9 149.417 324.9 96.3999Z" fill="url(#paint0_linear_106_1233)"/>
<path d="M142.5 96.3997C142.5 144.118 181.184 182.8 228.902 182.8C276.62 182.8 315.3 144.118 315.3 96.3997C315.3 48.6813 276.62 9.99975 228.902 9.99976C181.184 9.99976 142.5 48.6813 142.5 96.3997Z" fill="url(#paint1_linear_106_1233)"/>
<path d="M305.7 96.4001C305.7 53.9839 271.316 19.6001 228.899 19.6001C186.484 19.6001 152.1 53.9839 152.1 96.4001C152.1 138.814 186.484 173.2 228.899 173.2C271.316 173.2 305.7 138.814 305.7 96.4001Z" fill="url(#paint2_linear_106_1233)"/>
<path d="M305.7 96.4001C305.7 53.9839 271.316 19.6001 228.899 19.6001C186.484 19.6001 152.1 53.9839 152.1 96.4001C152.1 138.814 186.484 173.2 228.899 173.2C271.316 173.2 305.7 138.814 305.7 96.4001Z" fill="white" fill-opacity="0.64"/>
<mask id="mask0_106_1233" style="mask-type:alpha" maskUnits="userSpaceOnUse" x="161" y="29" width="136" height="135">
<path d="M296.1 96.3997C296.1 59.2878 266.012 29.1997 228.899 29.1997C191.788 29.1997 161.7 59.2878 161.7 96.3997C161.7 133.512 191.788 163.6 228.899 163.6C266.012 163.6 296.1 133.512 296.1 96.3997Z" fill="url(#paint3_linear_106_1233)"/>
<path d="M296.1 96.3997C296.1 59.2878 266.012 29.1997 228.899 29.1997C191.788 29.1997 161.7 59.2878 161.7 96.3997C161.7 133.512 191.788 163.6 228.899 163.6C266.012 163.6 296.1 133.512 296.1 96.3997Z" fill="white"/>
</mask>
<g mask="url(#mask0_106_1233)">
<mask id="mask1_106_1233" style="mask-type:luminance" maskUnits="userSpaceOnUse" x="161" y="29" width="136" height="135">
<path d="M296.1 29.1992H161.7V163.599H296.1V29.1992Z" fill="white"/>
</mask>
<g mask="url(#mask1_106_1233)">
<path d="M296.1 29.1992H161.7V163.599H296.1V29.1992Z" fill="white"/>
<path d="M296.1 96.3992C296.1 59.2857 266.014 29.1992 228.9 29.1992C191.786 29.1992 161.7 59.2857 161.7 96.3992C161.7 133.513 191.786 163.599 228.9 163.599C266.014 163.599 296.1 133.513 296.1 96.3992Z" fill="white"/>
<path fill-rule="evenodd" clip-rule="evenodd" d="M228.9 153.261C260.304 153.261 285.762 127.803 285.762 96.3991C285.762 64.9954 260.304 39.5376 228.9 39.5376C197.496 39.5376 172.039 64.9954 172.039 96.3991C172.039 127.803 197.496 153.261 228.9 153.261ZM226.691 60.3048V49.8767H235.056V60.4582C238.03 60.867 240.731 61.6751 243.16 62.8827C246.831 64.7081 249.672 67.3484 251.68 70.8036C253.724 74.2262 254.745 78.3659 254.745 83.2228H239.108C239.108 79.409 238.277 76.5894 236.614 74.764C234.952 72.906 232.77 71.977 230.068 71.977C228.094 71.977 226.484 72.3356 225.237 73.0527C223.99 73.7698 223.072 74.7477 222.483 75.9864C221.894 77.225 221.6 78.6104 221.6 80.1424C221.6 81.707 221.912 83.0761 222.535 84.2495C223.159 85.3904 224.232 86.4498 225.756 87.4277C227.28 88.4056 229.376 89.3998 232.042 90.4102C236.51 92.1053 240.441 93.9143 243.836 95.8375C247.264 97.7607 249.931 100.108 251.836 102.878C253.776 105.649 254.745 109.169 254.745 113.44C254.745 117.677 253.689 121.295 251.576 124.294C249.464 127.26 246.537 129.526 242.797 131.09C240.162 132.17 237.218 132.869 233.965 133.188V142.923H225.6V133.175C223.771 132.983 221.952 132.664 220.145 132.215C216.994 131.4 214.119 130.08 211.521 128.255C208.958 126.429 206.898 124.017 205.339 121.018C203.815 117.987 203.053 114.254 203.053 109.821H218.743C218.743 112.07 219.054 113.961 219.678 115.493C220.301 116.993 221.132 118.199 222.172 119.111C223.211 119.991 224.371 120.627 225.652 121.018C226.968 121.377 228.319 121.556 229.705 121.556C231.783 121.556 233.514 121.214 234.9 120.529C236.285 119.845 237.307 118.899 237.965 117.693C238.658 116.455 239.004 115.069 239.004 113.537C239.004 111.745 238.658 110.245 237.965 109.039C237.307 107.8 236.233 106.708 234.744 105.763C233.255 104.785 231.246 103.856 228.717 102.976C224.18 101.314 220.197 99.5535 216.769 97.6955C213.34 95.8049 210.673 93.4743 208.768 90.7036C206.863 87.9329 205.911 84.3962 205.911 80.0935C205.911 76.019 206.932 72.4986 208.976 69.5323C211.019 66.5334 213.877 64.2191 217.548 62.5893C220.279 61.3767 223.327 60.6152 226.691 60.3048Z" fill="#D9D9D9"/>
<path fill-rule="evenodd" clip-rule="evenodd" d="M228.9 153.261C260.304 153.261 285.762 127.803 285.762 96.3991C285.762 64.9954 260.304 39.5376 228.9 39.5376C197.496 39.5376 172.039 64.9954 172.039 96.3991C172.039 127.803 197.496 153.261 228.9 153.261ZM226.691 60.3048V49.8767H235.056V60.4582C238.03 60.867 240.731 61.6751 243.16 62.8827C246.831 64.7081 249.672 67.3484 251.68 70.8036C253.724 74.2262 254.745 78.3659 254.745 83.2228H239.108C239.108 79.409 238.277 76.5894 236.614 74.764C234.952 72.906 232.77 71.977 230.068 71.977C228.094 71.977 226.484 72.3356 225.237 73.0527C223.99 73.7698 223.072 74.7477 222.483 75.9864C221.894 77.225 221.6 78.6104 221.6 80.1424C221.6 81.707 221.912 83.0761 222.535 84.2495C223.159 85.3904 224.232 86.4498 225.756 87.4277C227.28 88.4056 229.376 89.3998 232.042 90.4102C236.51 92.1053 240.441 93.9143 243.836 95.8375C247.264 97.7607 249.931 100.108 251.836 102.878C253.776 105.649 254.745 109.169 254.745 113.44C254.745 117.677 253.689 121.295 251.576 124.294C249.464 127.26 246.537 129.526 242.797 131.09C240.162 132.17 237.218 132.869 233.965 133.188V142.923H225.6V133.175C223.771 132.983 221.952 132.664 220.145 132.215C216.994 131.4 214.119 130.08 211.521 128.255C208.958 126.429 206.898 124.017 205.339 121.018C203.815 117.987 203.053 114.254 203.053 109.821H218.743C218.743 112.07 219.054 113.961 219.678 115.493C220.301 116.993 221.132 118.199 222.172 119.111C223.211 119.991 224.371 120.627 225.652 121.018C226.968 121.377 228.319 121.556 229.705 121.556C231.783 121.556 233.514 121.214 234.9 120.529C236.285 119.845 237.307 118.899 237.965 117.693C238.658 116.455 239.004 115.069 239.004 113.537C239.004 111.745 238.658 110.245 237.965 109.039C237.307 107.8 236.233 106.708 234.744 105.763C233.255 104.785 231.246 103.856 228.717 102.976C224.18 101.314 220.197 99.5535 216.769 97.6955C213.34 95.8049 210.673 93.4743 208.768 90.7036C206.863 87.9329 205.911 84.3962 205.911 80.0935C205.911 76.019 206.932 72.4986 208.976 69.5323C211.019 66.5334 213.877 64.2191 217.548 62.5893C220.279 61.3767 223.327 60.6152 226.691 60.3048Z" fill="url(#paint4_linear_106_1233)"/>
</g>
</g>
<path d="M192 96.6001C192 43.5798 149.02 0.600098 95.998 0.600098C42.98 0.600098 0 43.5798 0 96.6001C0 149.617 42.98 192.6 95.998 192.6C149.02 192.6 192 149.617 192 96.6001Z" fill="url(#paint5_linear_106_1233)"/>
<path d="M9.59985 96.6C9.59985 144.318 48.2838 183 96.0018 183C143.719 183 182.4 144.318 182.4 96.6C182.4 48.8814 143.719 10.2 96.0009 10.2C48.2839 10.2 9.59985 48.8815 9.59985 96.6Z" fill="url(#paint6_linear_106_1233)"/>
<path d="M172.8 96.5998C172.8 54.1836 138.416 19.7998 95.999 19.7998C53.584 19.7998 19.2 54.1836 19.2 96.5998C19.2 139.013 53.584 173.4 95.999 173.4C138.416 173.4 172.8 139.013 172.8 96.5998Z" fill="url(#paint7_linear_106_1233)"/>
<path d="M172.8 96.5998C172.8 54.1836 138.416 19.7998 95.999 19.7998C53.584 19.7998 19.2 54.1836 19.2 96.5998C19.2 139.013 53.584 173.4 95.999 173.4C138.416 173.4 172.8 139.013 172.8 96.5998Z" fill="white" fill-opacity="0.64"/>
<mask id="mask2_106_1233" style="mask-type:alpha" maskUnits="userSpaceOnUse" x="28" y="29" width="136" height="135">
<path d="M163.199 96.5999C163.199 59.488 133.111 29.3999 95.9978 29.3999C58.8868 29.3999 28.7988 59.488 28.7988 96.5999C28.7988 133.712 58.8868 163.8 95.9978 163.8C133.111 163.8 163.199 133.712 163.199 96.5999Z" fill="url(#paint8_linear_106_1233)"/>
<path d="M163.199 96.5999C163.199 59.488 133.111 29.3999 95.9978 29.3999C58.8868 29.3999 28.7988 59.488 28.7988 96.5999C28.7988 133.712 58.8868 163.8 95.9978 163.8C133.111 163.8 163.199 133.712 163.199 96.5999Z" fill="white"/>
</mask>
<g mask="url(#mask2_106_1233)">
<mask id="mask3_106_1233" style="mask-type:luminance" maskUnits="userSpaceOnUse" x="28" y="29" width="136" height="135">
<path d="M163.199 29.3999H28.7988V163.8H163.199V29.3999Z" fill="white"/>
</mask>
<g mask="url(#mask3_106_1233)">
<path d="M163.199 29.3999H28.7988V163.8H163.199V29.3999Z" fill="white"/>
<path d="M95.9988 163.8C133.113 163.8 163.199 133.713 163.199 96.5999C163.199 59.4864 133.113 29.3999 95.9988 29.3999C58.8858 29.3999 28.7988 59.4864 28.7988 96.5999C28.7988 133.713 58.8858 163.8 95.9988 163.8Z" fill="white"/>
<path opacity="0.25" d="M125.262 108.461L101.053 84.6744C99.6529 83.2986 97.8149 82.6178 95.9839 82.6313C94.1529 82.623 92.3179 83.309 90.9209 84.6888L65.8989 109.415L56.7229 118.465L73.3919 134.844L83.5879 144.862L96.0499 132.548L108.546 144.826L108.812 144.564L135.336 118.354L125.262 108.461Z" fill="#122236"/>
<path opacity="0.5" d="M125.204 74.7118L100.994 50.4409C99.5938 49.0372 97.7568 48.3425 95.9258 48.3562C94.0938 48.3477 92.2588 49.0476 90.8628 50.4554L65.8408 75.6832L56.6758 84.9229L73.3458 101.635L83.5418 111.856L96.0028 99.2928L108.5 111.821L108.766 111.553L135.289 84.8111L125.204 74.7118Z" fill="#122236"/>
<path d="M125.225 91.2087L101.015 66.9379C99.6148 65.5341 97.7768 64.8394 95.9458 64.8532C94.1148 64.8446 92.2788 65.5445 90.8828 66.9523L65.8608 92.1801L56.6968 101.42L73.3668 118.132L83.5628 128.353L96.0238 115.79L108.521 128.318L108.787 128.05L135.31 101.308L125.225 91.2087ZM91.4178 99.9146L83.3948 107.998L76.7998 101.386L95.9588 82.0682L115.174 101.331L108.475 108.085L100.313 99.9019C97.8568 97.4342 93.8728 97.4398 91.4178 99.9146Z" fill="#122236"/>
</g>
</g>
</g>
<defs>
<linearGradient id="paint0_linear_106_1233" x1="324.9" y1="0.399134" x2="115.247" y2="22.1356" gradientUnits="userSpaceOnUse">
<stop stop-color="#DC42C9"/>
<stop offset="1" stop-color="#952D88"/>
</linearGradient>
<linearGradient id="paint1_linear_106_1233" x1="142.5" y1="182.801" x2="331.188" y2="163.238" gradientUnits="userSpaceOnUse">
<stop stop-color="#DC42C9"/>
<stop offset="1" stop-color="#952D88"/>
</linearGradient>
<linearGradient id="paint2_linear_106_1233" x1="305.7" y1="19.5995" x2="137.978" y2="36.9886" gradientUnits="userSpaceOnUse">
<stop stop-color="#DC42C9"/>
<stop offset="1" stop-color="#952D88"/>
</linearGradient>
<linearGradient id="paint3_linear_106_1233" x1="169.606" y1="44.0232" x2="285.23" y2="147.788" gradientUnits="userSpaceOnUse">
<stop stop-color="#00E599"/>
<stop offset="1" stop-color="#00AF92"/>
</linearGradient>
<linearGradient id="paint4_linear_106_1233" x1="182.378" y1="96.3992" x2="275.423" y2="96.3992" gradientUnits="userSpaceOnUse">
<stop stop-color="#E96161"/>
<stop offset="0.2" stop-color="#E65B76"/>
<stop offset="0.61" stop-color="#DF4AAC"/>
<stop offset="1" stop-color="#D739E6"/>
</linearGradient>
<linearGradient id="paint5_linear_106_1233" x1="192" y1="0.599332" x2="-17.653" y2="22.3357" gradientUnits="userSpaceOnUse">
<stop stop-color="#6B7581"/>
<stop offset="1" stop-color="#494F58"/>
</linearGradient>
<linearGradient id="paint6_linear_106_1233" x1="9.59985" y1="183.001" x2="198.288" y2="163.438" gradientUnits="userSpaceOnUse">
<stop stop-color="#6B7581"/>
<stop offset="1" stop-color="#494F58"/>
</linearGradient>
<linearGradient id="paint7_linear_106_1233" x1="172.8" y1="19.7992" x2="5.07797" y2="37.1884" gradientUnits="userSpaceOnUse">
<stop stop-color="#6B7581"/>
<stop offset="1" stop-color="#494F58"/>
</linearGradient>
<linearGradient id="paint8_linear_106_1233" x1="36.7048" y1="44.2234" x2="152.329" y2="147.988" gradientUnits="userSpaceOnUse">
<stop stop-color="#00E599"/>
<stop offset="1" stop-color="#00AF92"/>
</linearGradient>
<clipPath id="clip0_106_1233">
<rect width="325" height="193" fill="white"/>
</clipPath>
</defs>
</svg>
