<svg width="325" height="193" viewBox="0 0 325 193" fill="none" xmlns="http://www.w3.org/2000/svg">
<g clip-path="url(#clip0_109_1575)">
<path d="M324.9 96.3999C324.9 43.3796 281.92 0.399902 228.898 0.399902C175.88 0.399902 132.9 43.3796 132.9 96.3999C132.9 149.417 175.88 192.4 228.898 192.4C281.92 192.4 324.9 149.417 324.9 96.3999Z" fill="url(#paint0_linear_109_1575)"/>
<path d="M142.5 96.4C142.5 144.118 181.184 182.8 228.902 182.8C276.62 182.8 315.3 144.118 315.3 96.4C315.3 48.6815 276.62 9.99999 228.902 10C181.184 10 142.5 48.6815 142.5 96.4Z" fill="url(#paint1_linear_109_1575)"/>
<path d="M305.7 96.4001C305.7 53.9839 271.316 19.6001 228.899 19.6001C186.484 19.6001 152.1 53.9839 152.1 96.4001C152.1 138.814 186.484 173.2 228.899 173.2C271.316 173.2 305.7 138.814 305.7 96.4001Z" fill="url(#paint2_linear_109_1575)"/>
<path d="M305.7 96.4001C305.7 53.9839 271.316 19.6001 228.899 19.6001C186.484 19.6001 152.1 53.9839 152.1 96.4001C152.1 138.814 186.484 173.2 228.899 173.2C271.316 173.2 305.7 138.814 305.7 96.4001Z" fill="white" fill-opacity="0.64"/>
<mask id="mask0_109_1575" style="mask-type:alpha" maskUnits="userSpaceOnUse" x="161" y="29" width="136" height="135">
<path d="M296.1 96.3997C296.1 59.2878 266.012 29.1997 228.899 29.1997C191.788 29.1997 161.7 59.2878 161.7 96.3997C161.7 133.512 191.788 163.6 228.899 163.6C266.012 163.6 296.1 133.512 296.1 96.3997Z" fill="url(#paint3_linear_109_1575)"/>
<path d="M296.1 96.3997C296.1 59.2878 266.012 29.1997 228.899 29.1997C191.788 29.1997 161.7 59.2878 161.7 96.3997C161.7 133.512 191.788 163.6 228.899 163.6C266.012 163.6 296.1 133.512 296.1 96.3997Z" fill="white"/>
</mask>
<g mask="url(#mask0_109_1575)">
<mask id="mask1_109_1575" style="mask-type:luminance" maskUnits="userSpaceOnUse" x="161" y="29" width="136" height="135">
<path d="M296.1 29.1992H161.7V163.599H296.1V29.1992Z" fill="white"/>
</mask>
<g mask="url(#mask1_109_1575)">
<path d="M296.1 29.1992H161.7V163.599H296.1V29.1992Z" fill="white"/>
<path d="M296.1 96.3992C296.1 59.2857 266.014 29.1992 228.9 29.1992C191.786 29.1992 161.7 59.2857 161.7 96.3992C161.7 133.513 191.786 163.599 228.9 163.599C266.014 163.599 296.1 133.513 296.1 96.3992Z" fill="white"/>
<path fill-rule="evenodd" clip-rule="evenodd" d="M228.9 153.261C260.304 153.261 285.762 127.803 285.762 96.3991C285.762 64.9954 260.304 39.5376 228.9 39.5376C197.496 39.5376 172.039 64.9954 172.039 96.3991C172.039 127.803 197.496 153.261 228.9 153.261ZM226.691 60.3048V49.8767H235.056V60.4582C238.03 60.867 240.731 61.6751 243.16 62.8827C246.831 64.7081 249.672 67.3484 251.68 70.8036C253.724 74.2262 254.745 78.3659 254.745 83.2228H239.108C239.108 79.409 238.277 76.5894 236.614 74.764C234.952 72.906 232.77 71.977 230.068 71.977C228.094 71.977 226.484 72.3356 225.237 73.0527C223.99 73.7698 223.072 74.7477 222.483 75.9864C221.894 77.225 221.6 78.6104 221.6 80.1424C221.6 81.707 221.912 83.0761 222.535 84.2495C223.159 85.3904 224.232 86.4498 225.756 87.4277C227.28 88.4056 229.376 89.3998 232.042 90.4102C236.51 92.1053 240.441 93.9143 243.836 95.8375C247.264 97.7607 249.931 100.108 251.836 102.878C253.776 105.649 254.745 109.169 254.745 113.44C254.745 117.677 253.689 121.295 251.576 124.294C249.464 127.26 246.537 129.526 242.797 131.09C240.162 132.17 237.218 132.869 233.965 133.188V142.923H225.6V133.175C223.771 132.983 221.952 132.664 220.145 132.215C216.994 131.4 214.119 130.08 211.521 128.255C208.958 126.429 206.898 124.017 205.339 121.018C203.815 117.987 203.053 114.254 203.053 109.821H218.743C218.743 112.07 219.054 113.961 219.678 115.493C220.301 116.993 221.132 118.199 222.172 119.111C223.211 119.991 224.371 120.627 225.652 121.018C226.968 121.377 228.319 121.556 229.705 121.556C231.783 121.556 233.514 121.214 234.9 120.529C236.285 119.845 237.307 118.899 237.965 117.693C238.658 116.455 239.004 115.069 239.004 113.537C239.004 111.745 238.658 110.245 237.965 109.039C237.307 107.8 236.233 106.708 234.744 105.763C233.255 104.785 231.246 103.856 228.717 102.976C224.18 101.314 220.197 99.5535 216.769 97.6955C213.34 95.8049 210.673 93.4743 208.768 90.7036C206.863 87.9329 205.911 84.3962 205.911 80.0935C205.911 76.019 206.932 72.4986 208.976 69.5323C211.019 66.5334 213.877 64.2191 217.548 62.5893C220.279 61.3767 223.327 60.6152 226.691 60.3048Z" fill="#D9D9D9"/>
<path fill-rule="evenodd" clip-rule="evenodd" d="M228.9 153.261C260.304 153.261 285.762 127.803 285.762 96.3991C285.762 64.9954 260.304 39.5376 228.9 39.5376C197.496 39.5376 172.039 64.9954 172.039 96.3991C172.039 127.803 197.496 153.261 228.9 153.261ZM226.691 60.3048V49.8767H235.056V60.4582C238.03 60.867 240.731 61.6751 243.16 62.8827C246.831 64.7081 249.672 67.3484 251.68 70.8036C253.724 74.2262 254.745 78.3659 254.745 83.2228H239.108C239.108 79.409 238.277 76.5894 236.614 74.764C234.952 72.906 232.77 71.977 230.068 71.977C228.094 71.977 226.484 72.3356 225.237 73.0527C223.99 73.7698 223.072 74.7477 222.483 75.9864C221.894 77.225 221.6 78.6104 221.6 80.1424C221.6 81.707 221.912 83.0761 222.535 84.2495C223.159 85.3904 224.232 86.4498 225.756 87.4277C227.28 88.4056 229.376 89.3998 232.042 90.4102C236.51 92.1053 240.441 93.9143 243.836 95.8375C247.264 97.7607 249.931 100.108 251.836 102.878C253.776 105.649 254.745 109.169 254.745 113.44C254.745 117.677 253.689 121.295 251.576 124.294C249.464 127.26 246.537 129.526 242.797 131.09C240.162 132.17 237.218 132.869 233.965 133.188V142.923H225.6V133.175C223.771 132.983 221.952 132.664 220.145 132.215C216.994 131.4 214.119 130.08 211.521 128.255C208.958 126.429 206.898 124.017 205.339 121.018C203.815 117.987 203.053 114.254 203.053 109.821H218.743C218.743 112.07 219.054 113.961 219.678 115.493C220.301 116.993 221.132 118.199 222.172 119.111C223.211 119.991 224.371 120.627 225.652 121.018C226.968 121.377 228.319 121.556 229.705 121.556C231.783 121.556 233.514 121.214 234.9 120.529C236.285 119.845 237.307 118.899 237.965 117.693C238.658 116.455 239.004 115.069 239.004 113.537C239.004 111.745 238.658 110.245 237.965 109.039C237.307 107.8 236.233 106.708 234.744 105.763C233.255 104.785 231.246 103.856 228.717 102.976C224.18 101.314 220.197 99.5535 216.769 97.6955C213.34 95.8049 210.673 93.4743 208.768 90.7036C206.863 87.9329 205.911 84.3962 205.911 80.0935C205.911 76.019 206.932 72.4986 208.976 69.5323C211.019 66.5334 213.877 64.2191 217.548 62.5893C220.279 61.3767 223.327 60.6152 226.691 60.3048Z" fill="url(#paint4_linear_109_1575)"/>
</g>
</g>
<path d="M192 96.6001C192 43.5798 149.02 0.600098 95.999 0.600098C42.98 0.600098 0 43.5798 0 96.6001C0 149.617 42.98 192.6 95.999 192.6C149.02 192.6 192 149.617 192 96.6001Z" fill="url(#paint5_linear_109_1575)"/>
<path d="M9.59998 96.6002C9.59998 144.319 48.284 183 96.002 183C143.72 183 182.401 144.319 182.401 96.6002C182.4 48.8817 143.72 10.2002 96.002 10.2002C48.284 10.2002 9.59998 48.8817 9.59998 96.6002Z" fill="url(#paint6_linear_109_1575)"/>
<path d="M172.8 96.6003C172.8 54.184 138.416 19.8003 95.999 19.8003C53.584 19.8003 19.2 54.184 19.2 96.6003C19.2 139.014 53.584 173.4 95.999 173.4C138.416 173.4 172.8 139.014 172.8 96.6003Z" fill="url(#paint7_linear_109_1575)"/>
<path d="M172.8 96.6003C172.8 54.184 138.416 19.8003 95.999 19.8003C53.584 19.8003 19.2 54.184 19.2 96.6003C19.2 139.014 53.584 173.4 95.999 173.4C138.416 173.4 172.8 139.014 172.8 96.6003Z" fill="white" fill-opacity="0.64"/>
<mask id="mask2_109_1575" style="mask-type:alpha" maskUnits="userSpaceOnUse" x="28" y="29" width="136" height="135">
<path d="M163.2 96.6004C163.2 59.4885 133.112 29.4004 95.999 29.4004C58.888 29.4004 28.8 59.4885 28.8 96.6004C28.8 133.712 58.888 163.8 95.999 163.8C133.112 163.8 163.2 133.712 163.2 96.6004Z" fill="url(#paint8_linear_109_1575)"/>
<path d="M163.2 96.6004C163.2 59.4885 133.112 29.4004 95.999 29.4004C58.888 29.4004 28.8 59.4885 28.8 96.6004C28.8 133.712 58.888 163.8 95.999 163.8C133.112 163.8 163.2 133.712 163.2 96.6004Z" fill="white"/>
</mask>
<g mask="url(#mask2_109_1575)">
<mask id="mask3_109_1575" style="mask-type:luminance" maskUnits="userSpaceOnUse" x="28" y="29" width="136" height="135">
<path d="M163.2 29.4004H28.8V163.8H163.2V29.4004Z" fill="white"/>
</mask>
<g mask="url(#mask3_109_1575)">
<path d="M163.2 29.4004H28.8V163.8H163.2V29.4004Z" fill="white"/>
<path d="M96 163.8C133.113 163.8 163.2 133.714 163.2 96.6005C163.2 59.4869 133.113 29.4004 96 29.4004C58.886 29.4004 28.8 59.4869 28.8 96.6005C28.8 133.714 58.886 163.8 96 163.8Z" fill="white"/>
<mask id="mask4_109_1575" style="mask-type:alpha" maskUnits="userSpaceOnUse" x="60" y="48" width="68" height="97">
<path d="M60.564 48.9487H127.764V144.149H60.564V48.9487Z" fill="white"/>
</mask>
<g mask="url(#mask4_109_1575)">
<path fill-rule="evenodd" clip-rule="evenodd" d="M112.363 87.0715C110.19 96.3885 96.778 91.6552 92.427 90.4945L96.265 74.0264C100.615 75.187 114.626 77.3535 112.363 87.0715ZM109.98 113.647C107.598 123.89 91.483 118.353 86.259 116.965L90.491 98.8067C95.715 100.203 112.469 102.965 109.98 113.647ZM127.589 87.22C128.987 77.2166 121.871 71.8395 112.14 68.2525L115.297 54.7021L107.589 52.6468L104.517 65.8404C102.49 65.2996 100.409 64.7899 98.341 64.2848L101.437 51.0041L93.734 48.9487L90.576 62.4947C88.899 62.0861 87.252 61.6823 85.654 61.2568L85.663 61.2143L75.035 58.3737L72.984 67.1836C72.984 67.1836 78.703 68.5864 78.582 68.6729C81.703 69.5065 82.268 71.7176 82.174 73.4702L78.578 88.9071L78.565 88.9667L73.524 110.592C73.143 111.607 72.175 113.13 69.993 112.552C70.07 112.672 64.391 111.056 64.391 111.056L60.565 120.497L70.594 123.173C72.46 123.674 74.289 124.198 76.089 124.691L72.9 138.397L80.598 140.452L83.757 126.892C85.86 127.503 87.901 128.066 89.899 128.598L86.751 142.094L94.459 144.149L97.648 130.469C110.79 133.131 120.673 132.058 124.832 119.336C128.184 109.093 124.665 103.185 117.751 99.3316C122.787 98.0886 126.58 94.5439 127.592 87.2212L127.589 87.22Z" fill="#F7931A"/>
</g>
</g>
</g>
</g>
<defs>
<linearGradient id="paint0_linear_109_1575" x1="324.9" y1="0.399134" x2="115.247" y2="22.1356" gradientUnits="userSpaceOnUse">
<stop stop-color="#DC42C9"/>
<stop offset="1" stop-color="#952D88"/>
</linearGradient>
<linearGradient id="paint1_linear_109_1575" x1="142.5" y1="182.801" x2="331.188" y2="163.238" gradientUnits="userSpaceOnUse">
<stop stop-color="#DC42C9"/>
<stop offset="1" stop-color="#952D88"/>
</linearGradient>
<linearGradient id="paint2_linear_109_1575" x1="305.7" y1="19.5995" x2="137.978" y2="36.9886" gradientUnits="userSpaceOnUse">
<stop stop-color="#DC42C9"/>
<stop offset="1" stop-color="#952D88"/>
</linearGradient>
<linearGradient id="paint3_linear_109_1575" x1="169.606" y1="44.0232" x2="285.23" y2="147.788" gradientUnits="userSpaceOnUse">
<stop stop-color="#00E599"/>
<stop offset="1" stop-color="#00AF92"/>
</linearGradient>
<linearGradient id="paint4_linear_109_1575" x1="182.378" y1="96.3992" x2="275.423" y2="96.3992" gradientUnits="userSpaceOnUse">
<stop stop-color="#E96161"/>
<stop offset="0.2" stop-color="#E65B76"/>
<stop offset="0.61" stop-color="#DF4AAC"/>
<stop offset="1" stop-color="#D739E6"/>
</linearGradient>
<linearGradient id="paint5_linear_109_1575" x1="192" y1="0.599337" x2="-17.653" y2="22.3358" gradientUnits="userSpaceOnUse">
<stop stop-color="#F7931A"/>
<stop offset="1" stop-color="#A86412"/>
</linearGradient>
<linearGradient id="paint6_linear_109_1575" x1="9.60098" y1="183.001" x2="198.288" y2="163.438" gradientUnits="userSpaceOnUse">
<stop stop-color="#F7931A"/>
<stop offset="1" stop-color="#A86412"/>
</linearGradient>
<linearGradient id="paint7_linear_109_1575" x1="172.8" y1="19.7997" x2="5.07801" y2="37.1888" gradientUnits="userSpaceOnUse">
<stop stop-color="#F7931A"/>
<stop offset="1" stop-color="#A86412"/>
</linearGradient>
<linearGradient id="paint8_linear_109_1575" x1="36.706" y1="44.224" x2="152.329" y2="147.988" gradientUnits="userSpaceOnUse">
<stop stop-color="#00E599"/>
<stop offset="1" stop-color="#00AF92"/>
</linearGradient>
<clipPath id="clip0_109_1575">
<rect width="325" height="193" fill="white"/>
</clipPath>
</defs>
</svg>
