<svg width="325" height="193" viewBox="0 0 325 193" fill="none" xmlns="http://www.w3.org/2000/svg">
<g clip-path="url(#clip0_863_53)">
<path d="M325 96C325 42.9797 282.02 0 228.998 0C175.98 0 133 42.9797 133 96C133 149.017 175.98 192 228.998 192C282.02 192 325 149.017 325 96Z" fill="url(#paint0_linear_863_53)"/>
<path d="M142.6 95.9996C142.6 143.719 181.283 182.4 229.001 182.4C276.719 182.4 315.399 143.719 315.399 95.9996C315.399 48.2811 276.719 9.5996 229.001 9.59961C181.283 9.59961 142.6 48.2811 142.6 95.9996Z" fill="url(#paint1_linear_863_53)"/>
<path d="M305.801 96.0002C305.801 53.5839 271.417 19.2002 229 19.2002C186.585 19.2002 152.201 53.5839 152.201 96.0002C152.201 138.413 186.585 172.8 229 172.8C271.417 172.8 305.801 138.413 305.801 96.0002Z" fill="url(#paint2_linear_863_53)"/>
<path d="M305.801 96.0002C305.801 53.5839 271.417 19.2002 229 19.2002C186.585 19.2002 152.201 53.5839 152.201 96.0002C152.201 138.413 186.585 172.8 229 172.8C271.417 172.8 305.801 138.413 305.801 96.0002Z" fill="white" fill-opacity="0.64"/>
<mask id="mask0_863_53" style="mask-type:alpha" maskUnits="userSpaceOnUse" x="161" y="28" width="136" height="136">
<path d="M296.199 95.9998C296.199 58.8879 266.111 28.7998 228.998 28.7998C191.887 28.7998 161.799 58.8879 161.799 95.9998C161.799 133.112 191.887 163.2 228.998 163.2C266.111 163.2 296.199 133.112 296.199 95.9998Z" fill="url(#paint3_linear_863_53)"/>
<path d="M296.199 95.9998C296.199 58.8879 266.111 28.7998 228.998 28.7998C191.887 28.7998 161.799 58.8879 161.799 95.9998C161.799 133.112 191.887 163.2 228.998 163.2C266.111 163.2 296.199 133.112 296.199 95.9998Z" fill="white"/>
</mask>
<g mask="url(#mask0_863_53)">
<mask id="mask1_863_53" style="mask-type:luminance" maskUnits="userSpaceOnUse" x="161" y="28" width="136" height="136">
<path d="M296.199 28.7998H161.799V163.2H296.199V28.7998Z" fill="white"/>
</mask>
<g mask="url(#mask1_863_53)">
<path d="M296.199 28.7998H161.799V163.2H296.199V28.7998Z" fill="white"/>
<path d="M296.201 95.9998C296.201 58.8863 266.114 28.7998 229.001 28.7998C191.887 28.7998 161.801 58.8863 161.801 95.9998C161.801 133.113 191.887 163.2 229.001 163.2C266.114 163.2 296.201 133.113 296.201 95.9998Z" fill="white"/>
<path fill-rule="evenodd" clip-rule="evenodd" d="M229 152.861C260.404 152.861 285.862 127.404 285.862 96.0002C285.862 64.5965 260.404 39.1387 229 39.1387C197.596 39.1387 172.139 64.5965 172.139 96.0002C172.139 127.404 197.596 152.861 229 152.861ZM226.792 59.9059V49.4779H235.156V60.0594C238.13 60.4681 240.832 61.2762 243.261 62.4838C246.932 64.3092 249.772 66.9495 251.781 70.4047C253.824 73.8273 254.846 77.967 254.846 82.8239H239.208C239.208 79.0101 238.377 76.1905 236.715 74.3651C235.052 72.5072 232.87 71.5782 230.169 71.5782C228.194 71.5782 226.584 71.9367 225.337 72.6538C224.09 73.371 223.172 74.3488 222.584 75.5875C221.995 76.8262 221.7 78.2115 221.7 79.7435C221.7 81.3082 222.012 82.6772 222.636 83.8507C223.259 84.9915 224.333 86.0509 225.857 87.0288C227.381 88.0067 229.476 89.0009 232.143 90.0114C236.611 91.7064 240.542 93.5155 243.936 95.4387C247.365 97.3618 250.032 99.7088 251.937 102.479C253.876 105.25 254.846 108.77 254.846 113.04C254.846 117.278 253.789 120.896 251.677 123.895C249.564 126.861 246.637 129.127 242.897 130.691C240.262 131.77 237.318 132.469 234.065 132.788V142.524H225.701V132.776C223.871 132.584 222.053 132.264 220.246 131.816C217.094 131.001 214.219 129.681 211.622 127.855C209.059 126.03 206.998 123.618 205.439 120.619C203.916 117.587 203.154 113.855 203.154 109.422H218.843C218.843 111.671 219.155 113.562 219.778 115.094C220.402 116.593 221.233 117.799 222.272 118.712C223.311 119.592 224.471 120.228 225.753 120.619C227.069 120.977 228.42 121.157 229.805 121.157C231.883 121.157 233.615 120.814 235 120.13C236.386 119.445 237.407 118.5 238.065 117.294C238.758 116.055 239.104 114.67 239.104 113.138C239.104 111.345 238.758 109.846 238.065 108.64C237.407 107.401 236.334 106.309 234.844 105.364C233.355 104.386 231.346 103.457 228.818 102.577C224.281 100.914 220.298 99.1546 216.869 97.2966C213.44 95.4061 210.773 93.0754 208.868 90.3047C206.963 87.5341 206.011 83.9974 206.011 79.6946C206.011 75.6201 207.033 72.0997 209.076 69.1334C211.12 66.1346 213.977 63.8202 217.648 62.1904C220.38 60.9778 223.428 60.2163 226.792 59.9059Z" fill="#D9D9D9"/>
<path fill-rule="evenodd" clip-rule="evenodd" d="M229 152.861C260.404 152.861 285.862 127.404 285.862 96.0002C285.862 64.5965 260.404 39.1387 229 39.1387C197.596 39.1387 172.139 64.5965 172.139 96.0002C172.139 127.404 197.596 152.861 229 152.861ZM226.792 59.9059V49.4779H235.156V60.0594C238.13 60.4681 240.832 61.2762 243.261 62.4838C246.932 64.3092 249.772 66.9495 251.781 70.4047C253.824 73.8273 254.846 77.967 254.846 82.8239H239.208C239.208 79.0101 238.377 76.1905 236.715 74.3651C235.052 72.5072 232.87 71.5782 230.169 71.5782C228.194 71.5782 226.584 71.9367 225.337 72.6538C224.09 73.371 223.172 74.3488 222.584 75.5875C221.995 76.8262 221.7 78.2115 221.7 79.7435C221.7 81.3082 222.012 82.6772 222.636 83.8507C223.259 84.9915 224.333 86.0509 225.857 87.0288C227.381 88.0067 229.476 89.0009 232.143 90.0114C236.611 91.7064 240.542 93.5155 243.936 95.4387C247.365 97.3618 250.032 99.7088 251.937 102.479C253.876 105.25 254.846 108.77 254.846 113.04C254.846 117.278 253.789 120.896 251.677 123.895C249.564 126.861 246.637 129.127 242.897 130.691C240.262 131.77 237.318 132.469 234.065 132.788V142.524H225.701V132.776C223.871 132.584 222.053 132.264 220.246 131.816C217.094 131.001 214.219 129.681 211.622 127.855C209.059 126.03 206.998 123.618 205.439 120.619C203.916 117.587 203.154 113.855 203.154 109.422H218.843C218.843 111.671 219.155 113.562 219.778 115.094C220.402 116.593 221.233 117.799 222.272 118.712C223.311 119.592 224.471 120.228 225.753 120.619C227.069 120.977 228.42 121.157 229.805 121.157C231.883 121.157 233.615 120.814 235 120.13C236.386 119.445 237.407 118.5 238.065 117.294C238.758 116.055 239.104 114.67 239.104 113.138C239.104 111.345 238.758 109.846 238.065 108.64C237.407 107.401 236.334 106.309 234.844 105.364C233.355 104.386 231.346 103.457 228.818 102.577C224.281 100.914 220.298 99.1546 216.869 97.2966C213.44 95.4061 210.773 93.0754 208.868 90.3047C206.963 87.5341 206.011 83.9974 206.011 79.6946C206.011 75.6201 207.033 72.0997 209.076 69.1334C211.12 66.1346 213.977 63.8202 217.648 62.1904C220.38 60.9778 223.428 60.2163 226.792 59.9059Z" fill="url(#paint4_linear_863_53)"/>
</g>
</g>
</g>
<g clip-path="url(#clip1_863_53)">
<path d="M192 96C192 42.9797 149.02 0 95.9985 0C42.9801 0 0 42.9797 0 96C0 149.017 42.9801 192 95.9985 192C149.02 192 192 149.017 192 96Z" fill="url(#paint5_linear_863_53)"/>
<path d="M9.59961 95.9996C9.59962 143.719 48.2832 182.4 96.0011 182.4C143.719 182.4 182.399 143.719 182.399 95.9996C182.399 48.2811 143.719 9.5996 96.0011 9.59961C48.2831 9.59961 9.59961 48.2811 9.59961 95.9996Z" fill="url(#paint6_linear_863_53)"/>
<path d="M172.801 96.0002C172.801 53.5839 138.417 19.2002 96 19.2002C53.5853 19.2002 19.2012 53.5839 19.2012 96.0002C19.2012 138.413 53.5853 172.8 96 172.8C138.417 172.8 172.801 138.413 172.801 96.0002Z" fill="url(#paint7_linear_863_53)"/>
<path d="M172.801 96.0002C172.801 53.5839 138.417 19.2002 96 19.2002C53.5853 19.2002 19.2012 53.5839 19.2012 96.0002C19.2012 138.413 53.5853 172.8 96 172.8C138.417 172.8 172.801 138.413 172.801 96.0002Z" fill="white" fill-opacity="0.64"/>
<mask id="mask2_863_53" style="mask-type:alpha" maskUnits="userSpaceOnUse" x="28" y="28" width="136" height="136">
<path d="M163.199 95.9998C163.199 58.8879 133.111 28.7998 95.9975 28.7998C58.8867 28.7998 28.7988 58.8879 28.7988 95.9998C28.7988 133.112 58.8867 163.2 95.9975 163.2C133.111 163.2 163.199 133.112 163.199 95.9998Z" fill="url(#paint8_linear_863_53)"/>
<path d="M163.199 95.9998C163.199 58.8879 133.111 28.7998 95.9975 28.7998C58.8867 28.7998 28.7988 58.8879 28.7988 95.9998C28.7988 133.112 58.8867 163.2 95.9975 163.2C133.111 163.2 163.199 133.112 163.199 95.9998Z" fill="white"/>
</mask>
<g mask="url(#mask2_863_53)">
<path d="M163.199 28.7998H28.7988V163.2H163.199V28.7998Z" fill="white"/>
<path d="M78.3801 70.8003L77.734 71.445L62.9338 86.2133L58.4702 90.6673C58.235 91.0134 57.936 91.3117 57.5892 91.5464C56.9256 91.9812 56.116 92.1354 55.3385 91.9749C54.561 91.8145 53.8792 91.3526 53.4428 90.6907C53.1137 90.1984 52.9417 89.6181 52.9495 89.0264V75.0199C53.0711 71.729 54.4674 68.6135 56.8444 66.329C59.2214 64.0446 62.3939 62.7693 65.6941 62.7715H78.3801L74.68 66.5222L70.3926 70.8003H78.3801Z" fill="url(#paint9_linear_863_53)"/>
<path d="M139.049 78.8872V79.8248C138.835 87.7859 135.749 95.4025 130.357 101.274L88.3638 143.176C86.0374 145.251 83.0268 146.398 79.9065 146.399C79.0601 146.383 78.2161 146.304 77.3811 146.165L74.9144 145.403C72.2764 144.489 69.7055 143.392 67.2206 142.121L66.692 141.828C66.4651 141.658 66.2825 141.437 66.1598 141.182C66.0371 140.926 65.9779 140.646 65.9873 140.363C65.9813 139.963 66.1049 139.573 66.3396 139.249L113.442 92.1904C113.671 91.942 113.868 91.6665 114.029 91.3699C114.322 90.8088 114.559 90.2198 114.734 89.6118C114.822 89.226 114.881 88.8342 114.91 88.4397C114.962 88.1893 114.982 87.9333 114.969 87.6778C114.969 85.5951 114.14 83.5976 112.664 82.1249C111.188 80.6522 109.186 79.8248 107.099 79.8248H89.8908L101.461 68.2797C101.808 68.0451 102.107 67.7467 102.342 67.4007C102.653 66.9102 102.817 66.3404 102.812 65.7597C102.812 64.9671 102.496 64.2068 101.934 63.6463C101.373 63.0858 100.611 62.7709 99.8164 62.7709H75.2668C75.2668 62.7709 77.616 60.1923 78.5557 59.2546C80.67 56.9691 83.2542 54.0388 86.0733 51.9877C91.7572 47.816 98.6338 45.5767 105.69 45.5998C109.868 45.605 114.009 46.3798 117.906 47.8854L119.491 48.53C122.312 49.8251 124.94 51.5012 127.303 53.5114L127.772 53.9216H127.831C131.356 57.0484 134.178 60.8843 136.112 65.177C138.045 69.4698 139.046 74.1222 139.049 78.8286V78.8872Z" fill="url(#paint10_linear_863_53)"/>
<path d="M105.043 62.7715H75.442L61.6402 76.5436C61.3734 76.8174 61.1939 77.1639 61.1242 77.5393C61.0545 77.9148 61.0977 78.3024 61.2485 78.6534C61.3992 79.0044 61.6507 79.303 61.9713 79.5115C62.2918 79.7201 62.667 79.8293 63.0497 79.8254H95.1169L107.51 67.4013C107.866 66.929 108.052 66.351 108.038 65.7603C108.038 64.9677 107.723 64.2074 107.161 63.6469C106.599 63.0864 105.837 62.7715 105.043 62.7715ZM92.7089 71.3278C92.2049 71.328 91.7207 71.1323 91.3588 70.7822C90.997 70.4321 90.7861 69.9551 90.7708 69.4524C90.7787 69.1003 90.8801 68.7565 91.0645 68.4561C91.2137 68.2193 91.4144 68.019 91.6518 67.8701C91.9492 67.6782 92.296 67.5764 92.6502 67.5771C93.1487 67.5693 93.6298 67.7594 93.9877 68.1056C94.3457 68.4518 94.5512 68.9258 94.559 69.4231C94.5668 69.9205 94.3762 70.4006 94.0293 70.7578C93.6823 71.115 93.2074 71.32 92.7089 71.3278Z" fill="#E35CC7"/>
<path d="M79.2601 62.7715H75.2077L61.582 76.3092C61.2885 76.5961 61.0878 76.9642 61.006 77.366C60.9242 77.7678 60.9649 78.1849 61.123 78.5634C61.281 78.9419 61.5491 79.2644 61.8927 79.4894C62.2362 79.7143 62.6394 79.8314 63.0503 79.8254H69.3345L86.4253 62.7715H79.2601Z" fill="#8961D0"/>
<path d="M92.6509 71.3279C93.6889 71.3279 94.5303 70.4883 94.5303 69.4526C94.5303 68.4168 93.6889 67.5771 92.6509 67.5771C91.613 67.5771 90.7715 68.4168 90.7715 69.4526C90.7715 70.4883 91.613 71.3279 92.6509 71.3279Z" fill="#8961D0"/>
<path opacity="0.48" d="M92.6509 71.3279C93.6889 71.3279 94.5303 70.4883 94.5303 69.4526C94.5303 68.4168 93.6889 67.5771 92.6509 67.5771C91.613 67.5771 90.7715 68.4168 90.7715 69.4526C90.7715 70.4883 91.613 71.3279 92.6509 71.3279Z" fill="url(#paint11_linear_863_53)"/>
<path opacity="0.48" d="M94.4711 69.4525C94.4713 68.9652 94.2814 68.4968 93.9415 68.1468C93.6017 67.7967 93.1386 67.5923 92.6504 67.5771C92.32 67.5859 91.997 67.6762 91.7101 67.8398C91.4231 68.0034 91.1812 68.2353 91.0059 68.5149C91.3642 68.2053 91.8242 68.0384 92.298 68.046C92.5371 68.046 92.7739 68.0929 92.9948 68.1842C93.2157 68.2755 93.4164 68.4095 93.5854 68.5782C93.7545 68.7469 93.8886 68.947 93.9801 69.1674C94.0716 69.3879 94.1187 69.6242 94.1187 69.8628V69.9213C94.1301 70.2311 94.0483 70.5374 93.8838 70.8005C94.0704 70.629 94.219 70.4205 94.3201 70.1884C94.4213 69.9563 94.4727 69.7057 94.4711 69.4525Z" fill="#480061"/>
<path opacity="0.75" d="M105.043 62.7715H75.4421L61.699 76.5436C61.4357 76.8138 61.2572 77.1549 61.1856 77.525C61.1139 77.895 61.1522 78.278 61.2957 78.6266C61.4392 78.9753 61.6817 79.2745 61.9933 79.4875C62.305 79.7004 62.6722 79.8179 63.0498 79.8254H95.1171L107.51 67.4013C107.866 66.929 108.052 66.351 108.038 65.7603C108.038 64.9677 107.723 64.2074 107.161 63.6469C106.599 63.0864 105.838 62.7715 105.043 62.7715ZM92.6504 71.3278C92.4035 71.3278 92.1592 71.2793 91.9311 71.185C91.7031 71.0908 91.4959 70.9526 91.3214 70.7785C91.1469 70.6044 91.0085 70.3976 90.914 70.1701C90.8196 69.9426 90.771 69.6987 90.771 69.4524C90.7789 69.1003 90.8802 68.7565 91.0646 68.4561C91.2138 68.2193 91.4146 68.019 91.6519 67.8701C91.9494 67.6782 92.2962 67.5764 92.6504 67.5771C93.1386 67.5923 93.6016 67.7966 93.9415 68.1467C94.2813 68.4967 94.4713 68.965 94.471 69.4524C94.4586 69.9359 94.2645 70.3971 93.9272 70.7444C93.59 71.0918 93.1342 71.3 92.6504 71.3278Z" fill="url(#paint12_linear_863_53)"/>
<path d="M79.2601 62.7715H75.2077L61.582 76.3092C61.2885 76.5961 61.0878 76.9642 61.006 77.366C60.9242 77.7678 60.9649 78.1849 61.123 78.5634C61.281 78.9419 61.5491 79.2644 61.8927 79.4894C62.2362 79.7143 62.6394 79.8314 63.0503 79.8254H69.3345L86.4253 62.7715H79.2601Z" fill="url(#paint13_linear_863_53)"/>
<path opacity="0.43" d="M98.6411 79.8255L107.274 67.6943L95.1172 79.8255H98.6411Z" fill="url(#paint14_linear_863_53)"/>
</g>
</g>
<defs>
<linearGradient id="paint0_linear_863_53" x1="325" y1="-0.000770047" x2="115.347" y2="21.7357" gradientUnits="userSpaceOnUse">
<stop stop-color="#DC42C9"/>
<stop offset="1" stop-color="#952D88"/>
</linearGradient>
<linearGradient id="paint1_linear_863_53" x1="142.6" y1="182.401" x2="331.287" y2="162.838" gradientUnits="userSpaceOnUse">
<stop stop-color="#DC42C9"/>
<stop offset="1" stop-color="#952D88"/>
</linearGradient>
<linearGradient id="paint2_linear_863_53" x1="305.801" y1="19.1995" x2="138.079" y2="36.5887" gradientUnits="userSpaceOnUse">
<stop stop-color="#DC42C9"/>
<stop offset="1" stop-color="#952D88"/>
</linearGradient>
<linearGradient id="paint3_linear_863_53" x1="169.705" y1="43.6234" x2="285.328" y2="147.388" gradientUnits="userSpaceOnUse">
<stop stop-color="#00E599"/>
<stop offset="1" stop-color="#00AF92"/>
</linearGradient>
<linearGradient id="paint4_linear_863_53" x1="182.478" y1="96.0003" x2="275.523" y2="96.0003" gradientUnits="userSpaceOnUse">
<stop stop-color="#E96161"/>
<stop offset="0.2" stop-color="#E65B76"/>
<stop offset="0.61" stop-color="#DF4AAC"/>
<stop offset="1" stop-color="#D739E6"/>
</linearGradient>
<linearGradient id="paint5_linear_863_53" x1="192" y1="-0.000770047" x2="-17.6528" y2="21.7357" gradientUnits="userSpaceOnUse">
<stop stop-color="#DC42C9"/>
<stop offset="1" stop-color="#952D88"/>
</linearGradient>
<linearGradient id="paint6_linear_863_53" x1="9.5997" y1="182.401" x2="198.287" y2="162.838" gradientUnits="userSpaceOnUse">
<stop stop-color="#DC42C9"/>
<stop offset="1" stop-color="#952D88"/>
</linearGradient>
<linearGradient id="paint7_linear_863_53" x1="172.801" y1="19.1995" x2="5.0789" y2="36.5887" gradientUnits="userSpaceOnUse">
<stop stop-color="#DC42C9"/>
<stop offset="1" stop-color="#952D88"/>
</linearGradient>
<linearGradient id="paint8_linear_863_53" x1="36.7047" y1="43.6234" x2="152.328" y2="147.388" gradientUnits="userSpaceOnUse">
<stop stop-color="#00E599"/>
<stop offset="1" stop-color="#00AF92"/>
</linearGradient>
<linearGradient id="paint9_linear_863_53" x1="52.9495" y1="77.4051" x2="78.3801" y2="77.4051" gradientUnits="userSpaceOnUse">
<stop stop-color="#4750D9"/>
<stop offset="0.41" stop-color="#5C45DC"/>
<stop offset="1" stop-color="#8131E1"/>
</linearGradient>
<linearGradient id="paint10_linear_863_53" x1="65.9873" y1="95.9997" x2="139.049" y2="95.9997" gradientUnits="userSpaceOnUse">
<stop stop-color="#E96161"/>
<stop offset="0.2" stop-color="#E65B76"/>
<stop offset="0.61" stop-color="#DF4AAC"/>
<stop offset="1" stop-color="#D739E6"/>
</linearGradient>
<linearGradient id="paint11_linear_863_53" x1="90.7657" y1="69.4525" x2="94.4833" y2="69.4525" gradientUnits="userSpaceOnUse">
<stop stop-color="#B100D3"/>
<stop offset="0.23" stop-color="#9C00C0"/>
<stop offset="0.69" stop-color="#67008E"/>
<stop offset="1" stop-color="#40006A"/>
</linearGradient>
<linearGradient id="paint12_linear_863_53" x1="61.1528" y1="71.2985" x2="108.038" y2="71.2985" gradientUnits="userSpaceOnUse">
<stop stop-color="#D0D7D3"/>
<stop offset="0.52" stop-color="#D9C5E8"/>
<stop offset="1" stop-color="#E3B1FF"/>
</linearGradient>
<linearGradient id="paint13_linear_863_53" x1="61.0006" y1="71.2985" x2="86.4194" y2="71.2985" gradientUnits="userSpaceOnUse">
<stop stop-color="#B277EC"/>
<stop offset="0.77" stop-color="#9336E7"/>
<stop offset="1" stop-color="#8921E6"/>
</linearGradient>
<linearGradient id="paint14_linear_863_53" x1="95.0996" y1="73.7599" x2="107.28" y2="73.7599" gradientUnits="userSpaceOnUse">
<stop stop-opacity="0.5"/>
<stop offset="0.1" stop-color="#201322" stop-opacity="0.59"/>
<stop offset="0.25" stop-color="#4A2C4E" stop-opacity="0.72"/>
<stop offset="0.4" stop-color="#6D4173" stop-opacity="0.82"/>
<stop offset="0.55" stop-color="#885190" stop-opacity="0.9"/>
<stop offset="0.7" stop-color="#9B5DA4" stop-opacity="0.95"/>
<stop offset="0.85" stop-color="#A664B0" stop-opacity="0.99"/>
<stop offset="1" stop-color="#AA66B4"/>
</linearGradient>
<clipPath id="clip0_863_53">
<rect width="192" height="192" fill="white" transform="translate(133)"/>
</clipPath>
<clipPath id="clip1_863_53">
<rect width="192" height="192" fill="white"/>
</clipPath>
</defs>
</svg>
