<svg width="325" height="193" viewBox="0 0 325 193" fill="none" xmlns="http://www.w3.org/2000/svg">
<path d="M324.1 96.3999C324.1 43.3796 281.12 0.399902 228.099 0.399902C175.08 0.399902 132.1 43.3796 132.1 96.3999C132.1 149.417 175.08 192.4 228.099 192.4C281.12 192.4 324.1 149.417 324.1 96.3999Z" fill="url(#paint0_linear_863_121956)"/>
<path d="M141.7 96.3998C141.7 144.118 180.384 182.8 228.102 182.8C275.82 182.8 314.5 144.118 314.5 96.3998C314.5 48.6813 275.82 9.9998 228.102 9.99981C180.384 9.99981 141.7 48.6813 141.7 96.3998V96.3998Z" fill="url(#paint1_linear_863_121956)"/>
<path d="M304.9 96.4001C304.9 53.9839 270.516 19.6001 228.099 19.6001C185.684 19.6001 151.3 53.9839 151.3 96.4001C151.3 138.814 185.684 173.2 228.099 173.2C270.516 173.2 304.9 138.814 304.9 96.4001Z" fill="url(#paint2_linear_863_121956)"/>
<path d="M304.9 96.4001C304.9 53.9839 270.516 19.6001 228.099 19.6001C185.684 19.6001 151.3 53.9839 151.3 96.4001C151.3 138.814 185.684 173.2 228.099 173.2C270.516 173.2 304.9 138.814 304.9 96.4001Z" fill="white" fill-opacity="0.64"/>
<mask id="mask0_863_121956" style="mask-type:alpha" maskUnits="userSpaceOnUse" x="160" y="29" width="136" height="135">
<path d="M295.3 96.4002C295.3 59.2883 265.212 29.2002 228.099 29.2002C190.988 29.2002 160.9 59.2883 160.9 96.4002C160.9 133.512 190.988 163.6 228.099 163.6C265.212 163.6 295.3 133.512 295.3 96.4002Z" fill="url(#paint3_linear_863_121956)"/>
<path d="M295.3 96.4002C295.3 59.2883 265.212 29.2002 228.099 29.2002C190.988 29.2002 160.9 59.2883 160.9 96.4002C160.9 133.512 190.988 163.6 228.099 163.6C265.212 163.6 295.3 133.512 295.3 96.4002Z" fill="white"/>
</mask>
<g mask="url(#mask0_863_121956)">
<g clip-path="url(#clip0_863_121956)">
<rect width="134.4" height="134.4" transform="translate(160.9 29.2002)" fill="white"/>
<path d="M228.1 163.6C265.214 163.6 295.3 133.514 295.3 96.4002C295.3 59.2867 265.214 29.2002 228.1 29.2002C190.987 29.2002 160.9 59.2867 160.9 96.4002C160.9 133.514 190.987 163.6 228.1 163.6Z" fill="white"/>
<path fill-rule="evenodd" clip-rule="evenodd" d="M227.903 141.025C214.824 141.015 204.29 137.877 196.929 132.24C189.48 126.536 185.528 118.441 185.528 109.281C185.528 100.454 189.471 94.0901 193.932 89.7881C197.429 86.4168 201.287 84.2576 203.974 83.0156C203.366 81.1511 202.608 78.7101 201.93 76.189C201.023 72.8152 200.133 68.857 200.133 65.9565C200.133 62.5233 200.881 59.0754 202.899 56.3962C205.032 53.5657 208.242 52.0493 212.104 52.0493C215.122 52.0493 217.684 53.1688 219.69 55.1002C221.608 56.9462 222.884 59.3981 223.765 61.9538C225.314 66.4445 225.917 72.0867 226.086 77.7172H229.785C229.954 72.0867 230.557 66.4445 232.106 61.9538C232.987 59.3981 234.263 56.9462 236.181 55.1002C238.187 53.1688 240.749 52.0493 243.767 52.0493C247.629 52.0493 250.839 53.5657 252.972 56.3962C254.99 59.0754 255.738 62.5233 255.738 65.9565C255.738 68.857 254.848 72.8152 253.941 76.189C253.262 78.7101 252.505 81.1511 251.897 83.0156C254.584 84.2576 258.442 86.4168 261.938 89.7881C266.4 94.0901 270.343 100.454 270.343 109.281C270.343 118.441 266.391 126.536 258.942 132.24C251.582 137.877 241.047 141.015 227.968 141.025H227.903Z" fill="#633001"/>
<path d="M212.104 55.3145C206.447 55.3145 203.843 59.5773 203.843 65.4729C203.843 70.1588 206.869 79.5437 208.11 83.1971C208.389 84.0188 207.95 84.9191 207.151 85.2378C202.617 87.0435 189.239 93.6551 189.239 108.797C189.239 124.747 202.834 136.774 227.905 136.793C227.915 136.793 227.925 136.793 227.935 136.793C227.945 136.793 227.955 136.793 227.965 136.793C253.036 136.774 266.632 124.747 266.632 108.797C266.632 93.6551 253.253 87.0435 248.72 85.2378C247.92 84.9191 247.481 84.0188 247.761 83.1971C249.002 79.5437 252.027 70.1588 252.027 65.4729C252.027 59.5773 249.423 55.3145 243.767 55.3145C235.625 55.3145 233.595 66.9657 233.451 79.4703C233.441 80.3052 232.773 80.9825 231.946 80.9825H223.924C223.098 80.9825 222.43 80.3052 222.42 79.4703C222.275 66.9657 220.246 55.3145 212.104 55.3145Z" fill="#D1884F"/>
<path d="M227.965 131.683C209.544 131.683 189.271 121.722 189.239 108.827C189.239 108.847 189.239 108.867 189.239 108.887C189.239 124.851 202.856 136.883 227.965 136.883C253.075 136.883 266.692 124.851 266.692 108.887C266.692 108.867 266.692 108.847 266.692 108.827C266.66 121.722 246.386 131.683 227.965 131.683Z" fill="#FEDC90"/>
<path d="M217.729 104.866C217.729 109.22 215.692 111.487 213.18 111.487C210.667 111.487 208.631 109.22 208.631 104.866C208.631 100.513 210.667 98.2451 213.18 98.2451C215.692 98.2451 217.729 100.513 217.729 104.866Z" fill="#633001"/>
<path d="M247.299 104.866C247.299 109.22 245.262 111.487 242.75 111.487C240.237 111.487 238.201 109.22 238.201 104.866C238.201 100.513 240.237 98.2451 242.75 98.2451C245.262 98.2451 247.299 100.513 247.299 104.866Z" fill="#633001"/>
</g>
</g>
<path d="M192.1 96.3999C192.1 43.3796 149.12 0.399902 96.0986 0.399902C43.0802 0.399902 0.100098 43.3796 0.100098 96.3999C0.100098 149.417 43.0802 192.4 96.0986 192.4C149.12 192.4 192.1 149.417 192.1 96.3999Z" fill="url(#paint4_linear_863_121956)"/>
<path d="M9.70047 96.3998C9.70048 144.118 48.3841 182.8 96.102 182.8C143.82 182.8 182.5 144.118 182.5 96.3998C182.5 48.6813 143.82 9.9998 96.102 9.99981C48.384 9.99981 9.70047 48.6813 9.70047 96.3998V96.3998Z" fill="url(#paint5_linear_863_121956)"/>
<path d="M172.9 96.4001C172.9 53.9839 138.516 19.6001 96.0991 19.6001C53.6844 19.6001 19.3003 53.9839 19.3003 96.4001C19.3003 138.814 53.6844 173.2 96.0991 173.2C138.516 173.2 172.9 138.814 172.9 96.4001Z" fill="url(#paint6_linear_863_121956)"/>
<path d="M172.9 96.4001C172.9 53.9839 138.516 19.6001 96.0991 19.6001C53.6844 19.6001 19.3003 53.9839 19.3003 96.4001C19.3003 138.814 53.6844 173.2 96.0991 173.2C138.516 173.2 172.9 138.814 172.9 96.4001Z" fill="white" fill-opacity="0.64"/>
<mask id="mask1_863_121956" style="mask-type:alpha" maskUnits="userSpaceOnUse" x="28" y="29" width="136" height="135">
<path d="M163.3 96.4002C163.3 59.2883 133.212 29.2002 96.0991 29.2002C58.9883 29.2002 28.9004 59.2883 28.9004 96.4002C28.9004 133.512 58.9883 163.6 96.0991 163.6C133.212 163.6 163.3 133.512 163.3 96.4002Z" fill="url(#paint7_linear_863_121956)"/>
<path d="M163.3 96.4002C163.3 59.2883 133.212 29.2002 96.0991 29.2002C58.9883 29.2002 28.9004 59.2883 28.9004 96.4002C28.9004 133.512 58.9883 163.6 96.0991 163.6C133.212 163.6 163.3 133.512 163.3 96.4002Z" fill="white"/>
</mask>
<g mask="url(#mask1_863_121956)">
<g clip-path="url(#clip1_863_121956)">
<rect width="134.4" height="134.4" transform="translate(28.9004 29.2002)" fill="white"/>
<path d="M96.1004 163.6C133.214 163.6 163.3 133.514 163.3 96.4002C163.3 59.2867 133.214 29.2002 96.1004 29.2002C58.9869 29.2002 28.9004 59.2867 28.9004 96.4002C28.9004 133.514 58.9869 163.6 96.1004 163.6Z" fill="white"/>
<path fill-rule="evenodd" clip-rule="evenodd" d="M98.249 54.6626L58.3003 69.2949V125.127L94.618 138.138V81.8428L133.885 67.4019L98.249 54.6626Z" fill="#FFC13D"/>
<path fill-rule="evenodd" clip-rule="evenodd" d="M97.5732 83.4491V113.991L133.9 126.98L133.884 70.0483L97.5732 83.4491Z" fill="#E69C00"/>
</g>
</g>
<defs>
<linearGradient id="paint0_linear_863_121956" x1="324.1" y1="0.399137" x2="114.447" y2="22.1356" gradientUnits="userSpaceOnUse">
<stop stop-color="#D1884F"/>
<stop offset="1" stop-color="#8E5C36"/>
</linearGradient>
<linearGradient id="paint1_linear_863_121956" x1="141.701" y1="182.801" x2="330.388" y2="163.238" gradientUnits="userSpaceOnUse">
<stop stop-color="#D1884F"/>
<stop offset="1" stop-color="#8E5C36"/>
</linearGradient>
<linearGradient id="paint2_linear_863_121956" x1="304.9" y1="19.5995" x2="137.178" y2="36.9886" gradientUnits="userSpaceOnUse">
<stop stop-color="#D1884F"/>
<stop offset="1" stop-color="#8E5C36"/>
</linearGradient>
<linearGradient id="paint3_linear_863_121956" x1="168.806" y1="44.0237" x2="284.43" y2="147.788" gradientUnits="userSpaceOnUse">
<stop stop-color="#00E599"/>
<stop offset="1" stop-color="#00AF92"/>
</linearGradient>
<linearGradient id="paint4_linear_863_121956" x1="192.1" y1="0.399137" x2="-17.5527" y2="22.1356" gradientUnits="userSpaceOnUse">
<stop stop-color="#FFC13D"/>
<stop offset="1" stop-color="#AD8329"/>
</linearGradient>
<linearGradient id="paint5_linear_863_121956" x1="9.70056" y1="182.801" x2="198.388" y2="163.238" gradientUnits="userSpaceOnUse">
<stop stop-color="#FFC13D"/>
<stop offset="1" stop-color="#AD8329"/>
</linearGradient>
<linearGradient id="paint6_linear_863_121956" x1="172.9" y1="19.5995" x2="5.17803" y2="36.9886" gradientUnits="userSpaceOnUse">
<stop stop-color="#FFC13D"/>
<stop offset="1" stop-color="#AD8329"/>
</linearGradient>
<linearGradient id="paint7_linear_863_121956" x1="36.8063" y1="44.0237" x2="152.43" y2="147.788" gradientUnits="userSpaceOnUse">
<stop stop-color="#00E599"/>
<stop offset="1" stop-color="#00AF92"/>
</linearGradient>
<clipPath id="clip0_863_121956">
<rect width="134.4" height="134.4" fill="white" transform="translate(160.9 29.2002)"/>
</clipPath>
<clipPath id="clip1_863_121956">
<rect width="134.4" height="134.4" fill="white" transform="translate(28.9004 29.2002)"/>
</clipPath>
</defs>
</svg>
