<svg width="325" height="193" viewBox="0 0 325 193" fill="none" xmlns="http://www.w3.org/2000/svg">
<path d="M324.1 96.6001C324.1 43.5798 281.12 0.600098 228.099 0.600098C175.08 0.600098 132.1 43.5798 132.1 96.6001C132.1 149.617 175.08 192.6 228.099 192.6C281.12 192.6 324.1 149.617 324.1 96.6001Z" fill="url(#paint0_linear_863_121412)"/>
<path d="M141.7 96.6C141.7 144.319 180.384 183 228.102 183C275.82 183 314.5 144.319 314.5 96.6C314.5 48.8815 275.82 10.2 228.102 10.2C180.384 10.2 141.7 48.8815 141.7 96.6V96.6Z" fill="url(#paint1_linear_863_121412)"/>
<path d="M304.9 96.6001C304.9 54.1838 270.516 19.8 228.099 19.8C185.684 19.8 151.3 54.1838 151.3 96.6001C151.3 139.014 185.684 173.4 228.099 173.4C270.516 173.4 304.9 139.014 304.9 96.6001Z" fill="url(#paint2_linear_863_121412)"/>
<path d="M304.9 96.6001C304.9 54.1838 270.516 19.8 228.099 19.8C185.684 19.8 151.3 54.1838 151.3 96.6001C151.3 139.014 185.684 173.4 228.099 173.4C270.516 173.4 304.9 139.014 304.9 96.6001Z" fill="white" fill-opacity="0.64"/>
<mask id="mask0_863_121412" style="mask-type:alpha" maskUnits="userSpaceOnUse" x="160" y="29" width="136" height="135">
<path d="M295.3 96.6001C295.3 59.4882 265.212 29.4001 228.099 29.4001C190.988 29.4001 160.9 59.4882 160.9 96.6001C160.9 133.712 190.988 163.8 228.099 163.8C265.212 163.8 295.3 133.712 295.3 96.6001Z" fill="url(#paint3_linear_863_121412)"/>
<path d="M295.3 96.6001C295.3 59.4882 265.212 29.4001 228.099 29.4001C190.988 29.4001 160.9 59.4882 160.9 96.6001C160.9 133.712 190.988 163.8 228.099 163.8C265.212 163.8 295.3 133.712 295.3 96.6001Z" fill="white"/>
</mask>
<g mask="url(#mask0_863_121412)">
<g clip-path="url(#clip0_863_121412)">
<rect width="134.4" height="134.4" transform="translate(160.9 29.4001)" fill="white"/>
<path d="M228.1 163.8C265.213 163.8 295.3 133.714 295.3 96.6002C295.3 59.4866 265.213 29.4001 228.1 29.4001C190.986 29.4001 160.9 59.4866 160.9 96.6002C160.9 133.714 190.986 163.8 228.1 163.8Z" fill="white"/>
<g clip-path="url(#clip1_863_121412)">
<path fill-rule="evenodd" clip-rule="evenodd" d="M199.184 63.6226L182.72 97.832C182.657 97.9592 182.637 98.1029 182.663 98.2421C182.689 98.3813 182.759 98.5087 182.863 98.6056L227.331 140.754C227.457 140.874 227.625 140.941 227.8 140.941C227.975 140.941 228.144 140.874 228.27 140.754L272.738 98.6082C272.842 98.5113 272.912 98.384 272.938 98.2448C272.964 98.1056 272.944 97.9618 272.881 97.8346L256.416 63.6252C256.363 63.5103 256.278 63.413 256.17 63.3449C256.063 63.2767 255.938 63.2407 255.81 63.241H199.796C199.668 63.2394 199.542 63.2746 199.433 63.3423C199.325 63.41 199.238 63.5074 199.184 63.6226Z" fill="#50AF95"/>
<path fill-rule="evenodd" clip-rule="evenodd" d="M233.514 101.345C233.195 101.369 231.546 101.466 227.866 101.466C224.94 101.466 222.862 101.379 222.133 101.345C210.824 100.853 202.383 98.9055 202.383 96.574C202.383 94.2425 210.824 92.2978 222.133 91.7978V99.4055C222.873 99.4581 224.99 99.5818 227.917 99.5818C231.428 99.5818 233.187 99.4371 233.504 99.4081V91.8031C244.789 92.3005 253.211 94.2478 253.211 96.574C253.211 98.9002 244.791 100.848 233.504 101.342L233.514 101.345ZM233.514 91.0163V84.2086H249.263V73.8274H206.384V84.2086H222.131V91.0137C209.332 91.5952 199.707 94.103 199.707 97.1082C199.707 100.113 209.332 102.619 222.131 103.203V125.018H233.512V103.195C246.281 102.613 255.89 100.108 255.89 97.1056C255.89 94.103 246.289 91.5978 233.512 91.0137L233.514 91.0163Z" fill="white"/>
</g>
</g>
</g>
<path d="M192.1 96.6001C192.1 43.5798 149.12 0.600098 96.0986 0.600098C43.0802 0.600098 0.100098 43.5798 0.100098 96.6001C0.100098 149.617 43.0802 192.6 96.0986 192.6C149.12 192.6 192.1 149.617 192.1 96.6001Z" fill="url(#paint4_linear_863_121412)"/>
<path d="M9.70047 96.6C9.70048 144.319 48.3841 183 96.102 183C143.82 183 182.5 144.319 182.5 96.6C182.5 48.8815 143.82 10.2 96.102 10.2C48.384 10.2 9.70047 48.8815 9.70047 96.6V96.6Z" fill="url(#paint5_linear_863_121412)"/>
<path d="M172.9 96.6001C172.9 54.1838 138.516 19.8 96.0991 19.8C53.6844 19.8 19.3003 54.1838 19.3003 96.6001C19.3003 139.014 53.6844 173.4 96.0991 173.4C138.516 173.4 172.9 139.014 172.9 96.6001Z" fill="url(#paint6_linear_863_121412)"/>
<path d="M172.9 96.6001C172.9 54.1838 138.516 19.8 96.0991 19.8C53.6844 19.8 19.3003 54.1838 19.3003 96.6001C19.3003 139.014 53.6844 173.4 96.0991 173.4C138.516 173.4 172.9 139.014 172.9 96.6001Z" fill="white" fill-opacity="0.64"/>
<mask id="mask1_863_121412" style="mask-type:alpha" maskUnits="userSpaceOnUse" x="28" y="29" width="136" height="135">
<path d="M163.3 96.6001C163.3 59.4882 133.212 29.4001 96.0986 29.4001C58.9878 29.4001 28.8999 59.4882 28.8999 96.6001C28.8999 133.712 58.9878 163.8 96.0986 163.8C133.212 163.8 163.3 133.712 163.3 96.6001Z" fill="url(#paint7_linear_863_121412)"/>
<path d="M163.3 96.6001C163.3 59.4882 133.212 29.4001 96.0986 29.4001C58.9878 29.4001 28.8999 59.4882 28.8999 96.6001C28.8999 133.712 58.9878 163.8 96.0986 163.8C133.212 163.8 163.3 133.712 163.3 96.6001Z" fill="white"/>
</mask>
<g mask="url(#mask1_863_121412)">
<g clip-path="url(#clip2_863_121412)">
<rect width="134.4" height="134.4" transform="translate(28.8999 29.4001)" fill="white"/>
<path d="M96.0999 163.8C133.213 163.8 163.3 133.714 163.3 96.6002C163.3 59.4866 133.213 29.4001 96.0999 29.4001C58.9864 29.4001 28.8999 59.4866 28.8999 96.6002C28.8999 133.714 58.9864 163.8 96.0999 163.8Z" fill="white"/>
<mask id="mask2_863_121412" style="mask-type:alpha" maskUnits="userSpaceOnUse" x="60" y="48" width="68" height="97">
<path d="M60.6641 48.9482H127.864V144.148H60.6641V48.9482Z" fill="white"/>
</mask>
<g mask="url(#mask2_863_121412)">
<path fill-rule="evenodd" clip-rule="evenodd" d="M112.463 87.071C110.29 96.388 96.8782 91.6547 92.5274 90.494L96.3647 74.0259C100.715 75.1865 114.727 77.353 112.464 87.071H112.463ZM110.08 113.646C107.698 123.889 91.5834 118.352 86.3589 116.964L90.5912 98.8062C95.8153 100.202 112.569 102.964 110.08 113.646H110.08ZM127.689 87.2195C129.087 77.2161 121.971 71.839 112.24 68.252L115.397 54.7016L107.689 52.6463L104.617 65.8399C102.59 65.2991 100.509 64.7894 98.4413 64.2843L101.537 51.0036L93.8341 48.9482L90.6756 62.4942C88.999 62.0856 87.3521 61.6818 85.7543 61.2563L85.7632 61.2138L75.1348 58.3732L73.0844 67.1831C73.0844 67.1831 78.8027 68.5859 78.6821 68.6724C81.8031 69.506 82.3676 71.7171 82.2738 73.4697L78.678 88.9066L78.6647 88.9662L73.6245 110.591C73.243 111.606 72.2749 113.129 70.0929 112.551C70.1701 112.671 64.4911 111.055 64.4911 111.055L60.6646 120.496L70.6944 123.172C72.5603 123.673 74.3887 124.197 76.1894 124.69L73.0001 138.396L80.6983 140.451L83.8568 126.891C85.9599 127.502 88.0009 128.065 89.9991 128.597L86.8511 142.093L94.5589 144.148L97.7479 130.468C110.89 133.13 120.773 132.057 124.932 119.335C128.284 109.092 124.765 103.184 117.851 99.3311C122.887 98.0881 126.68 94.5434 127.692 87.2207L127.689 87.2189L127.689 87.2195Z" fill="#F7931A"/>
</g>
</g>
</g>
<defs>
<linearGradient id="paint0_linear_863_121412" x1="324.1" y1="0.599332" x2="114.447" y2="22.3358" gradientUnits="userSpaceOnUse">
<stop stop-color="#50AF95"/>
<stop offset="1" stop-color="#367765"/>
</linearGradient>
<linearGradient id="paint1_linear_863_121412" x1="141.701" y1="183.001" x2="330.388" y2="163.438" gradientUnits="userSpaceOnUse">
<stop stop-color="#50AF95"/>
<stop offset="1" stop-color="#367765"/>
</linearGradient>
<linearGradient id="paint2_linear_863_121412" x1="304.9" y1="19.7994" x2="137.178" y2="37.1886" gradientUnits="userSpaceOnUse">
<stop stop-color="#50AF95"/>
<stop offset="1" stop-color="#367765"/>
</linearGradient>
<linearGradient id="paint3_linear_863_121412" x1="168.806" y1="44.2237" x2="284.429" y2="147.988" gradientUnits="userSpaceOnUse">
<stop stop-color="#00E599"/>
<stop offset="1" stop-color="#00AF92"/>
</linearGradient>
<linearGradient id="paint4_linear_863_121412" x1="192.1" y1="0.599332" x2="-17.5527" y2="22.3358" gradientUnits="userSpaceOnUse">
<stop stop-color="#F7931A"/>
<stop offset="1" stop-color="#A86412"/>
</linearGradient>
<linearGradient id="paint5_linear_863_121412" x1="9.70056" y1="183.001" x2="198.388" y2="163.438" gradientUnits="userSpaceOnUse">
<stop stop-color="#F7931A"/>
<stop offset="1" stop-color="#A86412"/>
</linearGradient>
<linearGradient id="paint6_linear_863_121412" x1="172.9" y1="19.7994" x2="5.17803" y2="37.1886" gradientUnits="userSpaceOnUse">
<stop stop-color="#F7931A"/>
<stop offset="1" stop-color="#A86412"/>
</linearGradient>
<linearGradient id="paint7_linear_863_121412" x1="36.8058" y1="44.2237" x2="152.429" y2="147.988" gradientUnits="userSpaceOnUse">
<stop stop-color="#00E599"/>
<stop offset="1" stop-color="#00AF92"/>
</linearGradient>
<clipPath id="clip0_863_121412">
<rect width="134.4" height="134.4" fill="white" transform="translate(160.9 29.4001)"/>
</clipPath>
<clipPath id="clip1_863_121412">
<rect width="90.3" height="77.7" fill="white" transform="translate(182.65 63.241)"/>
</clipPath>
<clipPath id="clip2_863_121412">
<rect width="134.4" height="134.4" fill="white" transform="translate(28.8999 29.4001)"/>
</clipPath>
</defs>
</svg>
