<svg width="325" height="193" viewBox="0 0 325 193" fill="none" xmlns="http://www.w3.org/2000/svg">
<path d="M324.9 96.4004C324.9 43.3801 281.92 0.400391 228.898 0.400391C175.88 0.400391 132.9 43.3801 132.9 96.4004C132.9 149.417 175.88 192.4 228.898 192.4C281.92 192.4 324.9 149.417 324.9 96.4004Z" fill="url(#paint0_linear_863_121837)"/>
<path d="M142.5 96.4008C142.5 144.119 181.184 182.801 228.902 182.801C276.62 182.801 315.3 144.119 315.3 96.4008C315.3 48.6823 276.62 10.0008 228.902 10.0008C181.184 10.0008 142.5 48.6823 142.5 96.4008V96.4008Z" fill="url(#paint1_linear_863_121837)"/>
<path d="M305.7 96.4006C305.7 53.9843 271.316 19.6006 228.899 19.6006C186.484 19.6006 152.1 53.9843 152.1 96.4006C152.1 138.814 186.484 173.201 228.899 173.201C271.316 173.201 305.7 138.814 305.7 96.4006Z" fill="url(#paint2_linear_863_121837)"/>
<path d="M305.7 96.4006C305.7 53.9843 271.316 19.6006 228.899 19.6006C186.484 19.6006 152.1 53.9843 152.1 96.4006C152.1 138.814 186.484 173.201 228.899 173.201C271.316 173.201 305.7 138.814 305.7 96.4006Z" fill="white" fill-opacity="0.64"/>
<mask id="mask0_863_121837" style="mask-type:alpha" maskUnits="userSpaceOnUse" x="161" y="29" width="136" height="135">
<path d="M296.1 96.4012C296.1 59.2893 266.012 29.2012 228.898 29.2012C191.788 29.2012 161.7 59.2893 161.7 96.4012C161.7 133.513 191.788 163.601 228.898 163.601C266.012 163.601 296.1 133.513 296.1 96.4012Z" fill="url(#paint3_linear_863_121837)"/>
<path d="M296.1 96.4012C296.1 59.2893 266.012 29.2012 228.898 29.2012C191.788 29.2012 161.7 59.2893 161.7 96.4012C161.7 133.513 191.788 163.601 228.898 163.601C266.012 163.601 296.1 133.513 296.1 96.4012Z" fill="white"/>
</mask>
<g mask="url(#mask0_863_121837)">
<g clip-path="url(#clip0_863_121837)">
<rect width="134.4" height="134.4" transform="translate(161.7 29.2012)" fill="white"/>
<rect x="161.7" y="29.2012" width="134.4" height="134.4" rx="67.2" fill="white"/>
<path fill-rule="evenodd" clip-rule="evenodd" d="M228.9 153.262C260.303 153.262 285.761 127.804 285.761 96.4006C285.761 64.9968 260.303 39.5391 228.9 39.5391C197.496 39.5391 172.038 64.9968 172.038 96.4006C172.038 127.804 197.496 153.262 228.9 153.262ZM226.691 60.3062V49.8782H235.055V60.4597C238.029 60.8684 240.731 61.6765 243.16 62.8841C246.831 64.7095 249.671 67.3498 251.68 70.805C253.723 74.2276 254.745 78.3673 254.745 83.2242H239.107C239.107 79.4104 238.276 76.5909 236.614 74.7655C234.951 72.9075 232.769 71.9785 230.068 71.9785C228.094 71.9785 226.483 72.337 225.236 73.0541C223.989 73.7713 223.072 74.7492 222.483 75.9878C221.894 77.2265 221.6 78.6118 221.6 80.1438C221.6 81.7085 221.911 83.0775 222.535 84.251C223.158 85.3919 224.232 86.4512 225.756 87.4291C227.28 88.407 229.375 89.4012 232.042 90.4117C236.51 92.1067 240.441 93.9158 243.835 95.839C247.264 97.7622 249.931 100.109 251.836 102.88C253.775 105.65 254.745 109.171 254.745 113.441C254.745 117.678 253.689 121.297 251.576 124.296C249.463 127.262 246.537 129.527 242.796 131.092C240.161 132.171 237.217 132.87 233.964 133.189V142.924H225.6V133.176C223.77 132.985 221.952 132.665 220.145 132.216C216.993 131.402 214.118 130.081 211.521 128.256C208.958 126.431 206.897 124.018 205.339 121.02C203.815 117.988 203.053 114.256 203.053 109.823H218.742C218.742 112.072 219.054 113.963 219.677 115.495C220.301 116.994 221.132 118.2 222.171 119.113C223.21 119.993 224.37 120.628 225.652 121.02C226.968 121.378 228.319 121.557 229.704 121.557C231.782 121.557 233.514 121.215 234.899 120.531C236.285 119.846 237.306 118.901 237.964 117.695C238.657 116.456 239.004 115.071 239.004 113.539C239.004 111.746 238.657 110.247 237.964 109.04C237.306 107.802 236.233 106.71 234.743 105.765C233.254 104.787 231.245 103.858 228.717 102.978C224.18 101.315 220.197 99.555 216.768 97.697C213.339 95.8064 210.672 93.4757 208.767 90.7051C206.863 87.9344 205.91 84.3977 205.91 80.095C205.91 76.0204 206.932 72.5 208.975 69.5337C211.019 66.5349 213.876 64.2206 217.547 62.5907C220.279 61.3781 223.327 60.6166 226.691 60.3062Z" fill="#D9D9D9"/>
<path fill-rule="evenodd" clip-rule="evenodd" d="M228.9 153.262C260.303 153.262 285.761 127.804 285.761 96.4006C285.761 64.9968 260.303 39.5391 228.9 39.5391C197.496 39.5391 172.038 64.9968 172.038 96.4006C172.038 127.804 197.496 153.262 228.9 153.262ZM226.691 60.3062V49.8782H235.055V60.4597C238.029 60.8684 240.731 61.6765 243.16 62.8841C246.831 64.7095 249.671 67.3498 251.68 70.805C253.723 74.2276 254.745 78.3673 254.745 83.2242H239.107C239.107 79.4104 238.276 76.5909 236.614 74.7655C234.951 72.9075 232.769 71.9785 230.068 71.9785C228.094 71.9785 226.483 72.337 225.236 73.0541C223.989 73.7713 223.072 74.7492 222.483 75.9878C221.894 77.2265 221.6 78.6118 221.6 80.1438C221.6 81.7085 221.911 83.0775 222.535 84.251C223.158 85.3919 224.232 86.4512 225.756 87.4291C227.28 88.407 229.375 89.4012 232.042 90.4117C236.51 92.1067 240.441 93.9158 243.835 95.839C247.264 97.7622 249.931 100.109 251.836 102.88C253.775 105.65 254.745 109.171 254.745 113.441C254.745 117.678 253.689 121.297 251.576 124.296C249.463 127.262 246.537 129.527 242.796 131.092C240.161 132.171 237.217 132.87 233.964 133.189V142.924H225.6V133.176C223.77 132.985 221.952 132.665 220.145 132.216C216.993 131.402 214.118 130.081 211.521 128.256C208.958 126.431 206.897 124.018 205.339 121.02C203.815 117.988 203.053 114.256 203.053 109.823H218.742C218.742 112.072 219.054 113.963 219.677 115.495C220.301 116.994 221.132 118.2 222.171 119.113C223.21 119.993 224.37 120.628 225.652 121.02C226.968 121.378 228.319 121.557 229.704 121.557C231.782 121.557 233.514 121.215 234.899 120.531C236.285 119.846 237.306 118.901 237.964 117.695C238.657 116.456 239.004 115.071 239.004 113.539C239.004 111.746 238.657 110.247 237.964 109.04C237.306 107.802 236.233 106.71 234.743 105.765C233.254 104.787 231.245 103.858 228.717 102.978C224.18 101.315 220.197 99.555 216.768 97.697C213.339 95.8064 210.672 93.4757 208.767 90.7051C206.863 87.9344 205.91 84.3977 205.91 80.095C205.91 76.0204 206.932 72.5 208.975 69.5337C211.019 66.5349 213.876 64.2206 217.547 62.5907C220.279 61.3781 223.327 60.6166 226.691 60.3062Z" fill="url(#paint4_linear_863_121837)"/>
</g>
</g>
<path d="M192.9 96.4004C192.9 43.3801 149.92 0.400391 96.8984 0.400391C43.88 0.400391 0.899902 43.3801 0.899902 96.4004C0.899902 149.417 43.88 192.4 96.8984 192.4C149.92 192.4 192.9 149.417 192.9 96.4004Z" fill="url(#paint5_linear_863_121837)"/>
<path d="M10.5003 96.4008C10.5003 144.119 49.1839 182.801 96.9018 182.801C144.62 182.801 183.3 144.119 183.3 96.4008C183.3 48.6823 144.62 10.0008 96.9018 10.0008C49.1838 10.0008 10.5003 48.6823 10.5003 96.4008V96.4008Z" fill="url(#paint6_linear_863_121837)"/>
<path d="M173.7 96.4006C173.7 53.9843 139.316 19.6006 96.8989 19.6006C54.4842 19.6006 20.1001 53.9843 20.1001 96.4006C20.1001 138.814 54.4842 173.201 96.8989 173.201C139.316 173.201 173.7 138.814 173.7 96.4006Z" fill="url(#paint7_linear_863_121837)"/>
<path d="M173.7 96.4006C173.7 53.9843 139.316 19.6006 96.8989 19.6006C54.4842 19.6006 20.1001 53.9843 20.1001 96.4006C20.1001 138.814 54.4842 173.201 96.8989 173.201C139.316 173.201 173.7 138.814 173.7 96.4006Z" fill="white" fill-opacity="0.64"/>
<mask id="mask1_863_121837" style="mask-type:alpha" maskUnits="userSpaceOnUse" x="29" y="29" width="136" height="135">
<path d="M164.1 96.4012C164.1 59.2893 134.012 29.2012 96.8984 29.2012C59.7876 29.2012 29.6997 59.2893 29.6997 96.4012C29.6997 133.513 59.7876 163.601 96.8984 163.601C134.012 163.601 164.1 133.513 164.1 96.4012Z" fill="url(#paint8_linear_863_121837)"/>
<path d="M164.1 96.4012C164.1 59.2893 134.012 29.2012 96.8984 29.2012C59.7876 29.2012 29.6997 59.2893 29.6997 96.4012C29.6997 133.513 59.7876 163.601 96.8984 163.601C134.012 163.601 164.1 133.513 164.1 96.4012Z" fill="white"/>
</mask>
<g mask="url(#mask1_863_121837)">
<g clip-path="url(#clip1_863_121837)">
<rect width="134.4" height="134.4" transform="translate(29.6992 29.2012)" fill="white"/>
<path d="M96.8992 163.601C134.013 163.601 164.099 133.515 164.099 96.4012C164.099 59.2876 134.013 29.2012 96.8992 29.2012C59.7857 29.2012 29.6992 59.2876 29.6992 96.4012C29.6992 133.515 59.7857 163.601 96.8992 163.601Z" fill="white"/>
<g clip-path="url(#clip2_863_121837)">
<path fill-rule="evenodd" clip-rule="evenodd" d="M67.9837 63.4236L51.5189 97.633C51.4562 97.7602 51.4364 97.904 51.4622 98.0432C51.4881 98.1824 51.5582 98.3097 51.6625 98.4066L96.1301 140.555C96.2565 140.675 96.4247 140.742 96.5997 140.742C96.7747 140.742 96.9429 140.675 97.0692 140.555L141.537 98.4093C141.641 98.3124 141.711 98.185 141.737 98.0458C141.763 97.9066 141.743 97.7629 141.681 97.6356L125.216 63.4262C125.163 63.3114 125.077 63.214 124.97 63.1459C124.862 63.0778 124.737 63.0417 124.609 63.042H68.5956C68.4673 63.0405 68.3412 63.0756 68.2326 63.1434C68.1241 63.2111 68.0376 63.3084 67.9837 63.4236Z" fill="#50AF95"/>
<path fill-rule="evenodd" clip-rule="evenodd" d="M102.313 101.145C101.994 101.169 100.345 101.266 96.6656 101.266C93.7392 101.266 91.6615 101.18 90.9325 101.145C79.6234 100.653 71.1822 98.706 71.1822 96.3745C71.1822 94.043 79.6234 92.0984 90.9325 91.5984V99.206C91.6721 99.2586 93.7898 99.3823 96.7161 99.3823C100.228 99.3823 101.986 99.2376 102.303 99.2086V91.6036C113.588 92.101 122.011 94.0483 122.011 96.3745C122.011 98.7008 113.591 100.648 102.303 101.143L102.313 101.145ZM102.313 90.8168V84.0092H118.063V73.6279H75.1833V84.0092H90.9299V90.8142C78.131 91.3958 68.5059 93.9036 68.5059 96.9087C68.5059 99.9139 78.131 102.419 90.9299 103.003V124.818H102.311V102.995C115.08 102.414 124.69 99.9086 124.69 96.9061C124.69 93.9036 115.088 91.3984 102.311 90.8142L102.313 90.8168Z" fill="white"/>
</g>
</g>
</g>
<defs>
<linearGradient id="paint0_linear_863_121837" x1="324.9" y1="0.399625" x2="115.247" y2="22.136" gradientUnits="userSpaceOnUse">
<stop stop-color="#DC42C9"/>
<stop offset="1" stop-color="#952D88"/>
</linearGradient>
<linearGradient id="paint1_linear_863_121837" x1="142.5" y1="182.801" x2="331.188" y2="163.239" gradientUnits="userSpaceOnUse">
<stop stop-color="#DC42C9"/>
<stop offset="1" stop-color="#952D88"/>
</linearGradient>
<linearGradient id="paint2_linear_863_121837" x1="305.7" y1="19.6" x2="137.978" y2="36.9891" gradientUnits="userSpaceOnUse">
<stop stop-color="#DC42C9"/>
<stop offset="1" stop-color="#952D88"/>
</linearGradient>
<linearGradient id="paint3_linear_863_121837" x1="169.606" y1="44.0247" x2="285.229" y2="147.789" gradientUnits="userSpaceOnUse">
<stop stop-color="#00E599"/>
<stop offset="1" stop-color="#00AF92"/>
</linearGradient>
<linearGradient id="paint4_linear_863_121837" x1="182.378" y1="96.4007" x2="275.423" y2="96.4007" gradientUnits="userSpaceOnUse">
<stop stop-color="#E96161"/>
<stop offset="0.2" stop-color="#E65B76"/>
<stop offset="0.61" stop-color="#DF4AAC"/>
<stop offset="1" stop-color="#D739E6"/>
</linearGradient>
<linearGradient id="paint5_linear_863_121837" x1="192.9" y1="0.399625" x2="-16.7529" y2="22.136" gradientUnits="userSpaceOnUse">
<stop stop-color="#50AF95"/>
<stop offset="1" stop-color="#367765"/>
</linearGradient>
<linearGradient id="paint6_linear_863_121837" x1="10.5004" y1="182.801" x2="199.188" y2="163.239" gradientUnits="userSpaceOnUse">
<stop stop-color="#50AF95"/>
<stop offset="1" stop-color="#367765"/>
</linearGradient>
<linearGradient id="paint7_linear_863_121837" x1="173.7" y1="19.6" x2="5.97783" y2="36.9891" gradientUnits="userSpaceOnUse">
<stop stop-color="#50AF95"/>
<stop offset="1" stop-color="#367765"/>
</linearGradient>
<linearGradient id="paint8_linear_863_121837" x1="37.6056" y1="44.0247" x2="153.229" y2="147.789" gradientUnits="userSpaceOnUse">
<stop stop-color="#00E599"/>
<stop offset="1" stop-color="#00AF92"/>
</linearGradient>
<clipPath id="clip0_863_121837">
<rect width="134.4" height="134.4" fill="white" transform="translate(161.7 29.2012)"/>
</clipPath>
<clipPath id="clip1_863_121837">
<rect width="134.4" height="134.4" fill="white" transform="translate(29.6992 29.2012)"/>
</clipPath>
<clipPath id="clip2_863_121837">
<rect width="90.3" height="77.7" fill="white" transform="translate(51.4497 63.042)"/>
</clipPath>
</defs>
</svg>
