<svg width="325" height="193" viewBox="0 0 325 193" fill="none" xmlns="http://www.w3.org/2000/svg">
<g clip-path="url(#clip0_1119_31845)">
<path d="M324.1 96.3999C324.1 43.3796 281.12 0.399902 228.099 0.399902C175.08 0.399902 132.1 43.3796 132.1 96.3999C132.1 149.417 175.08 192.4 228.099 192.4C281.12 192.4 324.1 149.417 324.1 96.3999Z" fill="url(#paint0_linear_1119_31845)"/>
<path d="M141.7 96.3997C141.7 144.118 180.384 182.8 228.102 182.8C275.82 182.8 314.5 144.118 314.5 96.3997C314.5 48.6813 275.82 9.99975 228.102 9.99976C180.384 9.99976 141.7 48.6813 141.7 96.3997Z" fill="url(#paint1_linear_1119_31845)"/>
<path d="M304.9 96.4001C304.9 53.9839 270.516 19.6001 228.099 19.6001C185.684 19.6001 151.3 53.9839 151.3 96.4001C151.3 138.814 185.684 173.2 228.099 173.2C270.516 173.2 304.9 138.814 304.9 96.4001Z" fill="url(#paint2_linear_1119_31845)"/>
<path d="M304.9 96.4001C304.9 53.9839 270.516 19.6001 228.099 19.6001C185.684 19.6001 151.3 53.9839 151.3 96.4001C151.3 138.814 185.684 173.2 228.099 173.2C270.516 173.2 304.9 138.814 304.9 96.4001Z" fill="white" fill-opacity="0.64"/>
<mask id="mask0_1119_31845" style="mask-type:alpha" maskUnits="userSpaceOnUse" x="160" y="29" width="136" height="135">
<path d="M295.3 96.4002C295.3 59.2883 265.212 29.2002 228.099 29.2002C190.988 29.2002 160.9 59.2883 160.9 96.4002C160.9 133.512 190.988 163.6 228.099 163.6C265.212 163.6 295.3 133.512 295.3 96.4002Z" fill="url(#paint3_linear_1119_31845)"/>
<path d="M295.3 96.4002C295.3 59.2883 265.212 29.2002 228.099 29.2002C190.988 29.2002 160.9 59.2883 160.9 96.4002C160.9 133.512 190.988 163.6 228.099 163.6C265.212 163.6 295.3 133.512 295.3 96.4002Z" fill="white"/>
</mask>
<g mask="url(#mask0_1119_31845)">
<mask id="mask1_1119_31845" style="mask-type:luminance" maskUnits="userSpaceOnUse" x="160" y="29" width="136" height="135">
<path d="M295.3 29.2002H160.9V163.6H295.3V29.2002Z" fill="white"/>
</mask>
<g mask="url(#mask1_1119_31845)">
<path d="M295.3 29.2002H160.9V163.6H295.3V29.2002Z" fill="white"/>
<path fill-rule="evenodd" clip-rule="evenodd" d="M228.1 29.2002C265.217 29.2002 295.3 59.284 295.3 96.4002C295.3 133.516 265.217 163.6 228.1 163.6C190.984 163.6 160.9 133.516 160.9 96.4002C160.9 59.284 190.984 29.2002 228.1 29.2002Z" fill="white"/>
<path d="M194.895 96.4104L194.948 115.904L211.507 125.651V137.063L185.256 121.663V90.71L194.895 96.4104ZM194.895 76.9169V88.2763L185.25 82.57V71.2107L194.895 65.5044L204.586 71.2107L194.895 76.9169ZM218.423 71.2107L228.067 65.5044L237.758 71.2107L228.067 76.9169L218.423 71.2107Z" fill="#F0B90B"/>
<path d="M201.864 111.863V100.451L211.508 106.157V117.517L201.864 111.863ZM218.423 129.738L228.067 135.445L237.759 129.738V141.098L228.067 146.804L218.423 141.098V129.738ZM251.59 71.2107L261.234 65.5044L270.925 71.2107V82.57L261.234 88.2763V76.9169L251.59 71.2107ZM261.234 115.904L261.287 96.4104L270.931 90.7041V121.657L244.68 137.057V125.645L261.234 115.904Z" fill="#F0B90B"/>
<path d="M254.321 111.869L244.675 117.522V106.162L254.321 100.456V111.869Z" fill="#F0B90B"/>
<path d="M254.318 80.9542L254.371 92.3668L237.765 102.114V121.654L228.121 127.307L218.477 121.654V102.114L201.87 92.3668V80.9542L211.555 75.248L228.061 85.042L244.668 75.248L254.36 80.9542H254.318ZM201.864 61.4667L228.067 46.0137L254.318 61.4667L244.674 67.173L228.067 57.379L211.508 67.173L201.864 61.4667Z" fill="#F0B90B"/>
</g>
</g>
<path d="M192.1 96C192.1 42.9797 149.12 0 96.0991 0C43.0807 0 0.100586 42.9797 0.100586 96C0.100586 149.017 43.0807 192 96.0991 192C149.12 192 192.1 149.017 192.1 96Z" fill="url(#paint4_linear_1119_31845)"/>
<path d="M9.7002 95.9999C9.70021 143.719 48.3838 182.4 96.1017 182.4C143.82 182.4 182.5 143.719 182.5 95.9999C182.5 48.2814 143.82 9.59985 96.1017 9.59985C48.3837 9.59985 9.7002 48.2814 9.7002 95.9999Z" fill="url(#paint5_linear_1119_31845)"/>
<path d="M172.9 96C172.9 53.5838 138.516 19.2 96.0996 19.2C53.6849 19.2 19.3008 53.5838 19.3008 96C19.3008 138.414 53.6849 172.8 96.0996 172.8C138.516 172.8 172.9 138.414 172.9 96Z" fill="url(#paint6_linear_1119_31845)"/>
<path d="M172.9 96C172.9 53.5838 138.516 19.2 96.0996 19.2C53.6849 19.2 19.3008 53.5838 19.3008 96C19.3008 138.414 53.6849 172.8 96.0996 172.8C138.516 172.8 172.9 138.414 172.9 96Z" fill="white" fill-opacity="0.64"/>
<mask id="mask2_1119_31845" style="mask-type:alpha" maskUnits="userSpaceOnUse" x="28" y="28" width="136" height="136">
<path d="M163.3 95.9998C163.3 58.8879 133.212 28.7998 96.0981 28.7998C58.9873 28.7998 28.8994 58.8879 28.8994 95.9998C28.8994 133.112 58.9873 163.2 96.0981 163.2C133.212 163.2 163.3 133.112 163.3 95.9998Z" fill="url(#paint7_linear_1119_31845)"/>
<path d="M163.3 95.9998C163.3 58.8879 133.212 28.7998 96.0981 28.7998C58.9873 28.7998 28.8994 58.8879 28.8994 95.9998C28.8994 133.112 58.9873 163.2 96.0981 163.2C133.212 163.2 163.3 133.112 163.3 95.9998Z" fill="white"/>
</mask>
<g mask="url(#mask2_1119_31845)">
<path d="M163.299 28.7998H28.8994V163.2H163.299V28.7998Z" fill="white"/>
<path d="M78.2805 70.6001L77.6345 71.2448L62.8342 86.0131L58.3707 90.4671C58.1355 90.8131 57.8365 91.1115 57.4897 91.3461C56.8261 91.781 56.0165 91.9351 55.239 91.7747C54.4615 91.6143 53.7797 91.1524 53.3433 90.4905C53.0142 89.9982 52.8422 89.4179 52.8499 88.8261V74.8196C52.9716 71.5288 54.3679 68.4133 56.7449 66.1288C59.1219 63.8443 62.2944 62.5691 65.5946 62.5713H78.2805L74.5805 66.322L70.2931 70.6001H78.2805Z" fill="url(#paint8_linear_1119_31845)"/>
<path d="M138.949 78.6875V79.6251C138.735 87.5862 135.649 95.2028 130.257 101.074L88.2642 142.977C85.9378 145.052 82.9272 146.199 79.8069 146.2C78.9605 146.184 78.1165 146.105 77.2815 145.966L74.8148 145.204C72.1768 144.29 69.6059 143.193 67.121 141.922L66.5924 141.629C66.3655 141.459 66.1829 141.237 66.0602 140.982C65.9375 140.727 65.8783 140.447 65.8877 140.164C65.8817 139.764 66.0053 139.374 66.24 139.05L113.342 91.9907C113.571 91.7423 113.768 91.4668 113.929 91.1702C114.222 90.6091 114.458 90.0201 114.634 89.4121C114.722 89.0263 114.781 88.6345 114.81 88.24C114.862 87.9896 114.882 87.7336 114.869 87.4781C114.869 85.3954 114.04 83.398 112.564 81.9252C111.088 80.4525 109.086 79.6251 106.999 79.6251H89.7912L101.361 68.08C101.708 67.8454 102.007 67.547 102.242 67.201C102.553 66.7105 102.716 66.1407 102.712 65.56C102.712 64.7674 102.396 64.0071 101.834 63.4466C101.273 62.8861 100.511 62.5712 99.7168 62.5712H75.1672C75.1672 62.5712 77.5164 59.9926 78.4561 59.0549C80.5705 56.7694 83.1546 53.8391 85.9737 51.788C91.6576 47.6163 98.5342 45.377 105.589 45.4001C109.768 45.4053 113.909 46.1801 117.806 47.6857L119.391 48.3303C122.212 49.6254 124.84 51.3015 127.202 53.3117L127.672 53.7219H127.731C131.256 56.8487 134.078 60.6846 136.012 64.9773C137.945 69.2701 138.946 73.9225 138.949 78.6289V78.6875Z" fill="url(#paint9_linear_1119_31845)"/>
<path d="M104.943 62.5713H75.3434L61.5415 76.3434C61.2748 76.6172 61.0953 76.9637 61.0256 77.3391C60.9559 77.7146 60.9991 78.1022 61.1499 78.4532C61.3006 78.8042 61.5521 79.1028 61.8726 79.3114C62.1932 79.5199 62.5684 79.6291 62.9511 79.6252H95.0183L107.41 67.2011C107.766 66.7288 107.952 66.1508 107.939 65.5601C107.939 64.7675 107.623 64.0072 107.061 63.4467C106.5 62.8862 105.738 62.5713 104.943 62.5713ZM92.6103 71.1276C92.1063 71.1278 91.6221 70.9321 91.2602 70.582C90.8984 70.2319 90.6875 69.7549 90.6722 69.2522C90.6801 68.9001 90.7814 68.5563 90.9659 68.256C91.1151 68.0191 91.3158 67.8188 91.5532 67.6699C91.8506 67.478 92.1974 67.3762 92.5516 67.3769C93.05 67.3691 93.5312 67.5592 93.8891 67.9054C94.2471 68.2516 94.4526 68.7256 94.4604 69.2229C94.4682 69.7203 94.2776 70.2004 93.9307 70.5576C93.5837 70.9148 93.1088 71.1198 92.6103 71.1276Z" fill="#E35CC7"/>
<path d="M79.1605 62.5713H75.1081L61.4824 76.109C61.1889 76.3959 60.9882 76.764 60.9064 77.1658C60.8246 77.5676 60.8653 77.9847 61.0233 78.3632C61.1814 78.7417 61.4495 79.0642 61.793 79.2892C62.1366 79.5141 62.5398 79.6312 62.9507 79.6252H69.2349L86.3257 62.5713H79.1605Z" fill="#8961D0"/>
<path d="M92.5523 71.1272C93.5903 71.1272 94.4317 70.2876 94.4317 69.2519C94.4317 68.2162 93.5903 67.3765 92.5523 67.3765C91.5144 67.3765 90.6729 68.2162 90.6729 69.2519C90.6729 70.2876 91.5144 71.1272 92.5523 71.1272Z" fill="#8961D0"/>
<path opacity="0.48" d="M92.5523 71.1272C93.5903 71.1272 94.4317 70.2876 94.4317 69.2519C94.4317 68.2162 93.5903 67.3765 92.5523 67.3765C91.5144 67.3765 90.6729 68.2162 90.6729 69.2519C90.6729 70.2876 91.5144 71.1272 92.5523 71.1272Z" fill="url(#paint10_linear_1119_31845)"/>
<path opacity="0.48" d="M94.3724 69.2519C94.3726 68.7645 94.1827 68.2962 93.8428 67.9461C93.503 67.5961 93.0399 67.3918 92.5517 67.3765C92.2213 67.3853 91.8983 67.4755 91.6113 67.6391C91.3244 67.8028 91.0825 68.0347 90.9072 68.3142C91.2655 68.0047 91.7255 67.8378 92.1993 67.8454C92.4384 67.8454 92.6751 67.8924 92.896 67.9837C93.1169 68.075 93.3176 68.2088 93.4867 68.3775C93.6558 68.5462 93.7899 68.7465 93.8814 68.9669C93.9729 69.1873 94.02 69.4235 94.02 69.6621V69.7207C94.0314 70.0306 93.9495 70.3367 93.785 70.5998C93.9716 70.4283 94.1203 70.2199 94.2214 69.9878C94.3225 69.7556 94.374 69.505 94.3724 69.2519Z" fill="#480061"/>
<path opacity="0.75" d="M104.945 62.5713H75.3435L61.6004 76.3434C61.3371 76.6136 61.1586 76.9547 61.0869 77.3248C61.0153 77.6949 61.0536 78.0778 61.1971 78.4264C61.3406 78.7751 61.5831 79.0743 61.8947 79.2873C62.2064 79.5003 62.5736 79.6177 62.9512 79.6252H95.0185L107.411 67.2011C107.767 66.7288 107.953 66.1508 107.94 65.5601C107.94 64.7675 107.624 64.0072 107.063 63.4467C106.501 62.8862 105.739 62.5713 104.945 62.5713ZM92.5517 71.1276C92.3049 71.1276 92.0606 71.0791 91.8325 70.9848C91.6045 70.8906 91.3973 70.7524 91.2228 70.5783C91.0483 70.4042 90.9099 70.1974 90.8154 69.9699C90.721 69.7424 90.6724 69.4985 90.6724 69.2522C90.6803 68.9001 90.7816 68.5563 90.966 68.256C91.1152 68.0191 91.3159 67.8188 91.5533 67.6699C91.8508 67.478 92.1976 67.3762 92.5517 67.3769C93.0399 67.3921 93.503 67.5964 93.8429 67.9465C94.1827 68.2965 94.3727 68.7648 94.3724 69.2522C94.36 69.7357 94.1659 70.1969 93.8286 70.5442C93.4914 70.8916 93.0356 71.0998 92.5517 71.1276Z" fill="url(#paint11_linear_1119_31845)"/>
<path d="M79.1605 62.5713H75.1081L61.4824 76.109C61.1889 76.3959 60.9882 76.764 60.9064 77.1658C60.8246 77.5676 60.8653 77.9847 61.0233 78.3632C61.1814 78.7417 61.4495 79.0642 61.793 79.2892C62.1366 79.5141 62.5398 79.6312 62.9507 79.6252H69.2349L86.3257 62.5713H79.1605Z" fill="url(#paint12_linear_1119_31845)"/>
<path opacity="0.43" d="M98.5424 79.6251L107.176 67.4939L95.0186 79.6251H98.5424Z" fill="url(#paint13_linear_1119_31845)"/>
</g>
</g>
<defs>
<linearGradient id="paint0_linear_1119_31845" x1="324.1" y1="0.399134" x2="114.447" y2="22.1356" gradientUnits="userSpaceOnUse">
<stop stop-color="#F0B90B"/>
<stop offset="1" stop-color="#A37E07"/>
</linearGradient>
<linearGradient id="paint1_linear_1119_31845" x1="141.701" y1="182.801" x2="330.388" y2="163.238" gradientUnits="userSpaceOnUse">
<stop stop-color="#F0B90B"/>
<stop offset="1" stop-color="#A37E07"/>
</linearGradient>
<linearGradient id="paint2_linear_1119_31845" x1="304.9" y1="19.5995" x2="137.178" y2="36.9886" gradientUnits="userSpaceOnUse">
<stop stop-color="#F0B90B"/>
<stop offset="1" stop-color="#A37E07"/>
</linearGradient>
<linearGradient id="paint3_linear_1119_31845" x1="168.806" y1="44.0237" x2="284.43" y2="147.788" gradientUnits="userSpaceOnUse">
<stop stop-color="#00E599"/>
<stop offset="1" stop-color="#00AF92"/>
</linearGradient>
<linearGradient id="paint4_linear_1119_31845" x1="192.101" y1="-0.00076978" x2="-17.5522" y2="21.7357" gradientUnits="userSpaceOnUse">
<stop stop-color="#DC42C9"/>
<stop offset="1" stop-color="#952D88"/>
</linearGradient>
<linearGradient id="paint5_linear_1119_31845" x1="9.70029" y1="182.401" x2="198.388" y2="162.838" gradientUnits="userSpaceOnUse">
<stop stop-color="#DC42C9"/>
<stop offset="1" stop-color="#952D88"/>
</linearGradient>
<linearGradient id="paint6_linear_1119_31845" x1="172.9" y1="19.1994" x2="5.17851" y2="36.5885" gradientUnits="userSpaceOnUse">
<stop stop-color="#DC42C9"/>
<stop offset="1" stop-color="#952D88"/>
</linearGradient>
<linearGradient id="paint7_linear_1119_31845" x1="36.8053" y1="43.6233" x2="152.429" y2="147.388" gradientUnits="userSpaceOnUse">
<stop stop-color="#00E599"/>
<stop offset="1" stop-color="#00AF92"/>
</linearGradient>
<linearGradient id="paint8_linear_1119_31845" x1="52.8499" y1="77.2049" x2="78.2805" y2="77.2049" gradientUnits="userSpaceOnUse">
<stop stop-color="#4750D9"/>
<stop offset="0.41" stop-color="#5C45DC"/>
<stop offset="1" stop-color="#8131E1"/>
</linearGradient>
<linearGradient id="paint9_linear_1119_31845" x1="65.8877" y1="95.8" x2="138.949" y2="95.8" gradientUnits="userSpaceOnUse">
<stop stop-color="#E96161"/>
<stop offset="0.2" stop-color="#E65B76"/>
<stop offset="0.61" stop-color="#DF4AAC"/>
<stop offset="1" stop-color="#D739E6"/>
</linearGradient>
<linearGradient id="paint10_linear_1119_31845" x1="90.6671" y1="69.2519" x2="94.3847" y2="69.2519" gradientUnits="userSpaceOnUse">
<stop stop-color="#B100D3"/>
<stop offset="0.23" stop-color="#9C00C0"/>
<stop offset="0.69" stop-color="#67008E"/>
<stop offset="1" stop-color="#40006A"/>
</linearGradient>
<linearGradient id="paint11_linear_1119_31845" x1="61.0542" y1="71.0983" x2="107.94" y2="71.0983" gradientUnits="userSpaceOnUse">
<stop stop-color="#D0D7D3"/>
<stop offset="0.52" stop-color="#D9C5E8"/>
<stop offset="1" stop-color="#E3B1FF"/>
</linearGradient>
<linearGradient id="paint12_linear_1119_31845" x1="60.901" y1="71.0983" x2="86.3198" y2="71.0983" gradientUnits="userSpaceOnUse">
<stop stop-color="#B277EC"/>
<stop offset="0.77" stop-color="#9336E7"/>
<stop offset="1" stop-color="#8921E6"/>
</linearGradient>
<linearGradient id="paint13_linear_1119_31845" x1="95.0009" y1="73.5595" x2="107.182" y2="73.5595" gradientUnits="userSpaceOnUse">
<stop stop-opacity="0.5"/>
<stop offset="0.1" stop-color="#201322" stop-opacity="0.59"/>
<stop offset="0.25" stop-color="#4A2C4E" stop-opacity="0.72"/>
<stop offset="0.4" stop-color="#6D4173" stop-opacity="0.82"/>
<stop offset="0.55" stop-color="#885190" stop-opacity="0.9"/>
<stop offset="0.7" stop-color="#9B5DA4" stop-opacity="0.95"/>
<stop offset="0.85" stop-color="#A664B0" stop-opacity="0.99"/>
<stop offset="1" stop-color="#AA66B4"/>
</linearGradient>
<clipPath id="clip0_1119_31845">
<rect width="325" height="193" fill="white"/>
</clipPath>
</defs>
</svg>
