<svg width="325" height="193" viewBox="0 0 325 193" fill="none" xmlns="http://www.w3.org/2000/svg">
<path d="M324.099 96.6001C324.099 43.5798 281.119 0.600098 228.098 0.600098C175.079 0.600098 132.099 43.5798 132.099 96.6001C132.099 149.617 175.079 192.6 228.098 192.6C281.119 192.6 324.099 149.617 324.099 96.6001Z" fill="url(#paint0_linear_863_121395)"/>
<path d="M141.699 96.6C141.699 144.319 180.383 183 228.101 183C275.819 183 314.5 144.319 314.5 96.6C314.499 48.8815 275.819 10.2 228.101 10.2C180.383 10.2 141.699 48.8815 141.699 96.6V96.6Z" fill="url(#paint1_linear_863_121395)"/>
<path d="M304.899 96.6003C304.899 54.184 270.515 19.8003 228.098 19.8003C185.683 19.8003 151.299 54.184 151.299 96.6003C151.299 139.014 185.683 173.4 228.098 173.4C270.515 173.4 304.899 139.014 304.899 96.6003Z" fill="url(#paint2_linear_863_121395)"/>
<path d="M304.899 96.6003C304.899 54.184 270.515 19.8003 228.098 19.8003C185.683 19.8003 151.299 54.184 151.299 96.6003C151.299 139.014 185.683 173.4 228.098 173.4C270.515 173.4 304.899 139.014 304.899 96.6003Z" fill="white" fill-opacity="0.64"/>
<mask id="mask0_863_121395" style="mask-type:alpha" maskUnits="userSpaceOnUse" x="160" y="29" width="136" height="135">
<path d="M295.299 96.6001C295.299 59.4882 265.211 29.4001 228.098 29.4001C190.987 29.4001 160.899 59.4882 160.899 96.6001C160.899 133.712 190.987 163.8 228.098 163.8C265.211 163.8 295.299 133.712 295.299 96.6001Z" fill="url(#paint3_linear_863_121395)"/>
<path d="M295.299 96.6001C295.299 59.4882 265.211 29.4001 228.098 29.4001C190.987 29.4001 160.899 59.4882 160.899 96.6001C160.899 133.712 190.987 163.8 228.098 163.8C265.211 163.8 295.299 133.712 295.299 96.6001Z" fill="white"/>
</mask>
<g mask="url(#mask0_863_121395)">
<g clip-path="url(#clip0_863_121395)">
<rect width="134.4" height="134.4" transform="translate(160.899 29.4001)" fill="white"/>
<path d="M228.099 163.8C265.212 163.8 295.299 133.714 295.299 96.6002C295.299 59.4866 265.212 29.4001 228.099 29.4001C190.985 29.4001 160.899 59.4866 160.899 96.6002C160.899 133.714 190.985 163.8 228.099 163.8Z" fill="white"/>
<mask id="mask1_863_121395" style="mask-type:alpha" maskUnits="userSpaceOnUse" x="192" y="48" width="68" height="97">
<path d="M192.663 48.9482H259.863V144.148H192.663V48.9482Z" fill="white"/>
</mask>
<g mask="url(#mask1_863_121395)">
<path fill-rule="evenodd" clip-rule="evenodd" d="M244.462 87.071C242.289 96.388 228.877 91.6547 224.526 90.494L228.364 74.0259C232.714 75.1865 246.726 77.353 244.463 87.071H244.462ZM242.079 113.646C239.697 123.889 223.582 118.352 218.358 116.964L222.59 98.8062C227.814 100.202 244.568 102.964 242.079 113.646H242.079ZM259.688 87.2195C261.086 77.2161 253.97 71.839 244.239 68.252L247.396 54.7016L239.688 52.6463L236.616 65.8399C234.589 65.2991 232.508 64.7894 230.44 64.2843L233.536 51.0036L225.833 48.9482L222.675 62.4942C220.998 62.0856 219.351 61.6818 217.753 61.2563L217.762 61.2138L207.134 58.3732L205.083 67.1831C205.083 67.1831 210.802 68.5859 210.681 68.6724C213.802 69.506 214.367 71.7171 214.273 73.4697L210.677 88.9066L210.664 88.9662L205.623 110.591C205.242 111.606 204.274 113.129 202.092 112.551C202.169 112.671 196.49 111.055 196.49 111.055L192.664 120.496L202.693 123.172C204.559 123.673 206.388 124.197 208.188 124.69L204.999 138.396L212.697 140.451L215.856 126.891C217.959 127.502 220 128.065 221.998 128.597L218.85 142.093L226.558 144.148L229.747 130.468C242.889 133.13 252.772 132.057 256.931 119.335C260.283 109.092 256.764 103.184 249.85 99.3311C254.886 98.0881 258.679 94.5434 259.691 87.2207L259.688 87.2189L259.688 87.2195Z" fill="#F7931A"/>
</g>
</g>
</g>
<path d="M192.1 96.6001C192.1 43.5798 149.12 0.600098 96.0986 0.600098C43.0802 0.600098 0.100098 43.5798 0.100098 96.6001C0.100098 149.617 43.0802 192.6 96.0986 192.6C149.12 192.6 192.1 149.617 192.1 96.6001Z" fill="url(#paint4_linear_863_121395)"/>
<path d="M9.70047 96.6C9.70048 144.319 48.3841 183 96.102 183C143.82 183 182.5 144.319 182.5 96.6C182.5 48.8815 143.82 10.2 96.102 10.2C48.384 10.2 9.70047 48.8815 9.70047 96.6V96.6Z" fill="url(#paint5_linear_863_121395)"/>
<path d="M172.9 96.6001C172.9 54.1838 138.516 19.8 96.0991 19.8C53.6844 19.8 19.3003 54.1838 19.3003 96.6001C19.3003 139.014 53.6844 173.4 96.0991 173.4C138.516 173.4 172.9 139.014 172.9 96.6001Z" fill="url(#paint6_linear_863_121395)"/>
<path d="M172.9 96.6001C172.9 54.1838 138.516 19.8 96.0991 19.8C53.6844 19.8 19.3003 54.1838 19.3003 96.6001C19.3003 139.014 53.6844 173.4 96.0991 173.4C138.516 173.4 172.9 139.014 172.9 96.6001Z" fill="white" fill-opacity="0.64"/>
<mask id="mask2_863_121395" style="mask-type:alpha" maskUnits="userSpaceOnUse" x="28" y="29" width="136" height="135">
<path d="M163.3 96.6001C163.3 59.4882 133.212 29.4001 96.0986 29.4001C58.9878 29.4001 28.8999 59.4882 28.8999 96.6001C28.8999 133.712 58.9878 163.8 96.0986 163.8C133.212 163.8 163.3 133.712 163.3 96.6001Z" fill="url(#paint7_linear_863_121395)"/>
<path d="M163.3 96.6001C163.3 59.4882 133.212 29.4001 96.0986 29.4001C58.9878 29.4001 28.8999 59.4882 28.8999 96.6001C28.8999 133.712 58.9878 163.8 96.0986 163.8C133.212 163.8 163.3 133.712 163.3 96.6001Z" fill="white"/>
</mask>
<g mask="url(#mask2_863_121395)">
<g clip-path="url(#clip1_863_121395)">
<rect width="134.4" height="134.4" transform="translate(28.8999 29.4001)" fill="white"/>
<path d="M96.0999 163.8C133.213 163.8 163.3 133.714 163.3 96.6002C163.3 59.4866 133.213 29.4001 96.0999 29.4001C58.9864 29.4001 28.8999 59.4866 28.8999 96.6002C28.8999 133.714 58.9864 163.8 96.0999 163.8Z" fill="white"/>
<path fill-rule="evenodd" clip-rule="evenodd" d="M98.2486 54.8625L58.2998 69.4949V125.327L94.6175 138.338V82.0428L133.885 67.6019L98.2486 54.8625Z" fill="#FFC13D"/>
<path fill-rule="evenodd" clip-rule="evenodd" d="M97.5728 83.6488V114.191L133.9 127.179L133.883 70.248L97.5728 83.6488Z" fill="#E69C00"/>
</g>
</g>
<defs>
<linearGradient id="paint0_linear_863_121395" x1="324.099" y1="0.599332" x2="114.446" y2="22.3358" gradientUnits="userSpaceOnUse">
<stop stop-color="#F7931A"/>
<stop offset="1" stop-color="#A86412"/>
</linearGradient>
<linearGradient id="paint1_linear_863_121395" x1="141.7" y1="183.001" x2="330.387" y2="163.438" gradientUnits="userSpaceOnUse">
<stop stop-color="#F7931A"/>
<stop offset="1" stop-color="#A86412"/>
</linearGradient>
<linearGradient id="paint2_linear_863_121395" x1="304.899" y1="19.7997" x2="137.177" y2="37.1888" gradientUnits="userSpaceOnUse">
<stop stop-color="#F7931A"/>
<stop offset="1" stop-color="#A86412"/>
</linearGradient>
<linearGradient id="paint3_linear_863_121395" x1="168.805" y1="44.2237" x2="284.428" y2="147.988" gradientUnits="userSpaceOnUse">
<stop stop-color="#00E599"/>
<stop offset="1" stop-color="#00AF92"/>
</linearGradient>
<linearGradient id="paint4_linear_863_121395" x1="192.1" y1="0.599332" x2="-17.5527" y2="22.3358" gradientUnits="userSpaceOnUse">
<stop stop-color="#FFC13D"/>
<stop offset="1" stop-color="#AD8329"/>
</linearGradient>
<linearGradient id="paint5_linear_863_121395" x1="9.70056" y1="183.001" x2="198.388" y2="163.438" gradientUnits="userSpaceOnUse">
<stop stop-color="#FFC13D"/>
<stop offset="1" stop-color="#AD8329"/>
</linearGradient>
<linearGradient id="paint6_linear_863_121395" x1="172.9" y1="19.7994" x2="5.17803" y2="37.1886" gradientUnits="userSpaceOnUse">
<stop stop-color="#FFC13D"/>
<stop offset="1" stop-color="#AD8329"/>
</linearGradient>
<linearGradient id="paint7_linear_863_121395" x1="36.8058" y1="44.2237" x2="152.429" y2="147.988" gradientUnits="userSpaceOnUse">
<stop stop-color="#00E599"/>
<stop offset="1" stop-color="#00AF92"/>
</linearGradient>
<clipPath id="clip0_863_121395">
<rect width="134.4" height="134.4" fill="white" transform="translate(160.899 29.4001)"/>
</clipPath>
<clipPath id="clip1_863_121395">
<rect width="134.4" height="134.4" fill="white" transform="translate(28.8999 29.4001)"/>
</clipPath>
</defs>
</svg>
