<svg width="325" height="193" viewBox="0 0 325 193" fill="none" xmlns="http://www.w3.org/2000/svg">
<path d="M324.1 96.3999C324.1 43.3796 281.12 0.399902 228.099 0.399902C175.08 0.399902 132.1 43.3796 132.1 96.3999C132.1 149.417 175.08 192.4 228.099 192.4C281.12 192.4 324.1 149.417 324.1 96.3999Z" fill="url(#paint0_linear_863_121939)"/>
<path d="M141.7 96.3998C141.7 144.118 180.384 182.8 228.102 182.8C275.82 182.8 314.5 144.118 314.5 96.3998C314.5 48.6813 275.82 9.9998 228.102 9.99981C180.384 9.99981 141.7 48.6813 141.7 96.3998V96.3998Z" fill="url(#paint1_linear_863_121939)"/>
<path d="M304.9 96.4001C304.9 53.9839 270.516 19.6001 228.099 19.6001C185.684 19.6001 151.3 53.9839 151.3 96.4001C151.3 138.814 185.684 173.2 228.099 173.2C270.516 173.2 304.9 138.814 304.9 96.4001Z" fill="url(#paint2_linear_863_121939)"/>
<path d="M304.9 96.4001C304.9 53.9839 270.516 19.6001 228.099 19.6001C185.684 19.6001 151.3 53.9839 151.3 96.4001C151.3 138.814 185.684 173.2 228.099 173.2C270.516 173.2 304.9 138.814 304.9 96.4001Z" fill="white" fill-opacity="0.64"/>
<mask id="mask0_863_121939" style="mask-type:alpha" maskUnits="userSpaceOnUse" x="160" y="29" width="136" height="135">
<path d="M295.3 96.4002C295.3 59.2883 265.212 29.2002 228.099 29.2002C190.988 29.2002 160.9 59.2883 160.9 96.4002C160.9 133.512 190.988 163.6 228.099 163.6C265.212 163.6 295.3 133.512 295.3 96.4002Z" fill="url(#paint3_linear_863_121939)"/>
<path d="M295.3 96.4002C295.3 59.2883 265.212 29.2002 228.099 29.2002C190.988 29.2002 160.9 59.2883 160.9 96.4002C160.9 133.512 190.988 163.6 228.099 163.6C265.212 163.6 295.3 133.512 295.3 96.4002Z" fill="white"/>
</mask>
<g mask="url(#mask0_863_121939)">
<g clip-path="url(#clip0_863_121939)">
<rect width="134.4" height="134.4" transform="translate(160.9 29.2002)" fill="white"/>
<path d="M228.1 163.6C265.214 163.6 295.3 133.514 295.3 96.4002C295.3 59.2867 265.214 29.2002 228.1 29.2002C190.987 29.2002 160.9 59.2867 160.9 96.4002C160.9 133.514 190.987 163.6 228.1 163.6Z" fill="white"/>
<path opacity="0.25" d="M257.363 108.261L233.154 84.4746C231.754 83.0988 229.916 82.418 228.085 82.4315C226.254 82.4232 224.419 83.1092 223.022 84.489L198 109.215L188.824 118.266L205.493 134.644L215.689 144.662L228.151 132.348L240.647 144.627L240.913 144.364L267.437 118.154L257.363 108.261Z" fill="#122236"/>
<path opacity="0.5" d="M257.305 74.5117L233.095 50.2409C231.695 48.8371 229.858 48.1424 228.027 48.1562C226.195 48.1476 224.36 48.8475 222.964 50.2553L197.942 75.4831L188.777 84.7229L205.447 101.434L215.643 111.656L228.104 99.0928L240.601 111.621L240.867 111.353L267.39 84.6111L257.305 74.5117Z" fill="#122236"/>
<path d="M257.326 91.0088L233.116 66.7379C231.716 65.3342 229.878 64.6395 228.047 64.6532C226.216 64.6447 224.38 65.3446 222.984 66.7523L197.962 91.9801L188.798 101.22L205.468 117.932L215.664 128.153L228.125 115.59L240.622 128.118L240.888 127.85L267.411 101.108L257.326 91.0088ZM223.519 99.7146L215.496 107.798L208.901 101.186L228.06 81.8683L247.275 101.131L240.576 107.885L232.414 99.702C229.958 97.2342 225.974 97.2399 223.519 99.7146Z" fill="#122236"/>
</g>
</g>
<path d="M192.1 96.3999C192.1 43.3796 149.12 0.399902 96.0986 0.399902C43.0802 0.399902 0.100098 43.3796 0.100098 96.3999C0.100098 149.417 43.0802 192.4 96.0986 192.4C149.12 192.4 192.1 149.417 192.1 96.3999Z" fill="url(#paint4_linear_863_121939)"/>
<path d="M9.70047 96.3998C9.70048 144.118 48.3841 182.8 96.102 182.8C143.82 182.8 182.5 144.118 182.5 96.3998C182.5 48.6813 143.82 9.9998 96.102 9.99981C48.384 9.99981 9.70047 48.6813 9.70047 96.3998V96.3998Z" fill="url(#paint5_linear_863_121939)"/>
<path d="M172.9 96.4001C172.9 53.9839 138.516 19.6001 96.0991 19.6001C53.6844 19.6001 19.3003 53.9839 19.3003 96.4001C19.3003 138.814 53.6844 173.2 96.0991 173.2C138.516 173.2 172.9 138.814 172.9 96.4001Z" fill="url(#paint6_linear_863_121939)"/>
<path d="M172.9 96.4001C172.9 53.9839 138.516 19.6001 96.0991 19.6001C53.6844 19.6001 19.3003 53.9839 19.3003 96.4001C19.3003 138.814 53.6844 173.2 96.0991 173.2C138.516 173.2 172.9 138.814 172.9 96.4001Z" fill="white" fill-opacity="0.64"/>
<mask id="mask1_863_121939" style="mask-type:alpha" maskUnits="userSpaceOnUse" x="28" y="29" width="136" height="135">
<path d="M163.3 96.4002C163.3 59.2883 133.212 29.2002 96.0991 29.2002C58.9883 29.2002 28.9004 59.2883 28.9004 96.4002C28.9004 133.512 58.9883 163.6 96.0991 163.6C133.212 163.6 163.3 133.512 163.3 96.4002Z" fill="url(#paint7_linear_863_121939)"/>
<path d="M163.3 96.4002C163.3 59.2883 133.212 29.2002 96.0991 29.2002C58.9883 29.2002 28.9004 59.2883 28.9004 96.4002C28.9004 133.512 58.9883 163.6 96.0991 163.6C133.212 163.6 163.3 133.512 163.3 96.4002Z" fill="white"/>
</mask>
<g mask="url(#mask1_863_121939)">
<g clip-path="url(#clip1_863_121939)">
<rect width="134.4" height="134.4" transform="translate(28.9004 29.2002)" fill="white"/>
<path d="M96.1004 163.6C133.214 163.6 163.3 133.514 163.3 96.4002C163.3 59.2867 133.214 29.2002 96.1004 29.2002C58.9869 29.2002 28.9004 59.2867 28.9004 96.4002C28.9004 133.514 58.9869 163.6 96.1004 163.6Z" fill="white"/>
<path fill-rule="evenodd" clip-rule="evenodd" d="M98.249 54.6626L58.3003 69.2949V125.127L94.618 138.138V81.8428L133.885 67.4019L98.249 54.6626Z" fill="#FFC13D"/>
<path fill-rule="evenodd" clip-rule="evenodd" d="M97.5732 83.4491V113.991L133.9 126.98L133.884 70.0483L97.5732 83.4491Z" fill="#E69C00"/>
</g>
</g>
<defs>
<linearGradient id="paint0_linear_863_121939" x1="324.1" y1="0.399137" x2="114.447" y2="22.1356" gradientUnits="userSpaceOnUse">
<stop stop-color="#6B7581"/>
<stop offset="1" stop-color="#494F58"/>
</linearGradient>
<linearGradient id="paint1_linear_863_121939" x1="141.701" y1="182.801" x2="330.388" y2="163.238" gradientUnits="userSpaceOnUse">
<stop stop-color="#6B7581"/>
<stop offset="1" stop-color="#494F58"/>
</linearGradient>
<linearGradient id="paint2_linear_863_121939" x1="304.9" y1="19.5995" x2="137.178" y2="36.9886" gradientUnits="userSpaceOnUse">
<stop stop-color="#6B7581"/>
<stop offset="1" stop-color="#494F58"/>
</linearGradient>
<linearGradient id="paint3_linear_863_121939" x1="168.806" y1="44.0237" x2="284.43" y2="147.788" gradientUnits="userSpaceOnUse">
<stop stop-color="#00E599"/>
<stop offset="1" stop-color="#00AF92"/>
</linearGradient>
<linearGradient id="paint4_linear_863_121939" x1="192.1" y1="0.399137" x2="-17.5527" y2="22.1356" gradientUnits="userSpaceOnUse">
<stop stop-color="#FFC13D"/>
<stop offset="1" stop-color="#AD8329"/>
</linearGradient>
<linearGradient id="paint5_linear_863_121939" x1="9.70056" y1="182.801" x2="198.388" y2="163.238" gradientUnits="userSpaceOnUse">
<stop stop-color="#FFC13D"/>
<stop offset="1" stop-color="#AD8329"/>
</linearGradient>
<linearGradient id="paint6_linear_863_121939" x1="172.9" y1="19.5995" x2="5.17803" y2="36.9886" gradientUnits="userSpaceOnUse">
<stop stop-color="#FFC13D"/>
<stop offset="1" stop-color="#AD8329"/>
</linearGradient>
<linearGradient id="paint7_linear_863_121939" x1="36.8063" y1="44.0237" x2="152.43" y2="147.788" gradientUnits="userSpaceOnUse">
<stop stop-color="#00E599"/>
<stop offset="1" stop-color="#00AF92"/>
</linearGradient>
<clipPath id="clip0_863_121939">
<rect width="134.4" height="134.4" fill="white" transform="translate(160.9 29.2002)"/>
</clipPath>
<clipPath id="clip1_863_121939">
<rect width="134.4" height="134.4" fill="white" transform="translate(28.9004 29.2002)"/>
</clipPath>
</defs>
</svg>
