<svg width="325" height="193" viewBox="0 0 325 193" fill="none" xmlns="http://www.w3.org/2000/svg">
<g clip-path="url(#clip0_863_26)">
<path d="M325 96C325 42.9797 282.02 0 228.998 0C175.98 0 133 42.9797 133 96C133 149.017 175.98 192 228.998 192C282.02 192 325 149.017 325 96Z" fill="url(#paint0_linear_863_26)"/>
<path d="M142.6 95.9996C142.6 143.719 181.283 182.4 229.001 182.4C276.719 182.4 315.399 143.719 315.399 95.9996C315.399 48.2811 276.719 9.5996 229.001 9.59961C181.283 9.59961 142.6 48.2811 142.6 95.9996Z" fill="url(#paint1_linear_863_26)"/>
<path d="M305.801 96.0002C305.801 53.5839 271.417 19.2002 229 19.2002C186.585 19.2002 152.201 53.5839 152.201 96.0002C152.201 138.413 186.585 172.8 229 172.8C271.417 172.8 305.801 138.413 305.801 96.0002Z" fill="url(#paint2_linear_863_26)"/>
<path d="M305.801 96.0002C305.801 53.5839 271.417 19.2002 229 19.2002C186.585 19.2002 152.201 53.5839 152.201 96.0002C152.201 138.413 186.585 172.8 229 172.8C271.417 172.8 305.801 138.413 305.801 96.0002Z" fill="white" fill-opacity="0.64"/>
<mask id="mask0_863_26" style="mask-type:alpha" maskUnits="userSpaceOnUse" x="161" y="28" width="136" height="136">
<path d="M296.199 95.9998C296.199 58.8879 266.111 28.7998 228.998 28.7998C191.887 28.7998 161.799 58.8879 161.799 95.9998C161.799 133.112 191.887 163.2 228.998 163.2C266.111 163.2 296.199 133.112 296.199 95.9998Z" fill="url(#paint3_linear_863_26)"/>
<path d="M296.199 95.9998C296.199 58.8879 266.111 28.7998 228.998 28.7998C191.887 28.7998 161.799 58.8879 161.799 95.9998C161.799 133.112 191.887 163.2 228.998 163.2C266.111 163.2 296.199 133.112 296.199 95.9998Z" fill="white"/>
</mask>
<g mask="url(#mask0_863_26)">
<mask id="mask1_863_26" style="mask-type:luminance" maskUnits="userSpaceOnUse" x="161" y="28" width="136" height="136">
<path d="M296.199 28.7998H161.799V163.2H296.199V28.7998Z" fill="white"/>
</mask>
<g mask="url(#mask1_863_26)">
<path d="M296.199 28.7998H161.799V163.2H296.199V28.7998Z" fill="white"/>
<path d="M296.201 95.9998C296.201 58.8863 266.114 28.7998 229.001 28.7998C191.887 28.7998 161.801 58.8863 161.801 95.9998C161.801 133.113 191.887 163.2 229.001 163.2C266.114 163.2 296.201 133.113 296.201 95.9998Z" fill="white"/>
<path fill-rule="evenodd" clip-rule="evenodd" d="M229 152.861C260.404 152.861 285.862 127.404 285.862 96.0002C285.862 64.5965 260.404 39.1387 229 39.1387C197.596 39.1387 172.139 64.5965 172.139 96.0002C172.139 127.404 197.596 152.861 229 152.861ZM226.792 59.9059V49.4779H235.156V60.0594C238.13 60.4681 240.832 61.2762 243.261 62.4838C246.932 64.3092 249.772 66.9495 251.781 70.4047C253.824 73.8273 254.846 77.967 254.846 82.8239H239.208C239.208 79.0101 238.377 76.1905 236.715 74.3651C235.052 72.5072 232.87 71.5782 230.169 71.5782C228.194 71.5782 226.584 71.9367 225.337 72.6538C224.09 73.371 223.172 74.3488 222.584 75.5875C221.995 76.8262 221.7 78.2115 221.7 79.7435C221.7 81.3082 222.012 82.6772 222.636 83.8507C223.259 84.9915 224.333 86.0509 225.857 87.0288C227.381 88.0067 229.476 89.0009 232.143 90.0114C236.611 91.7064 240.542 93.5155 243.936 95.4387C247.365 97.3618 250.032 99.7088 251.937 102.479C253.876 105.25 254.846 108.77 254.846 113.04C254.846 117.278 253.789 120.896 251.677 123.895C249.564 126.861 246.637 129.127 242.897 130.691C240.262 131.77 237.318 132.469 234.065 132.788V142.524H225.701V132.776C223.871 132.584 222.053 132.264 220.246 131.816C217.094 131.001 214.219 129.681 211.622 127.855C209.059 126.03 206.998 123.618 205.439 120.619C203.916 117.587 203.154 113.855 203.154 109.422H218.843C218.843 111.671 219.155 113.562 219.778 115.094C220.402 116.593 221.233 117.799 222.272 118.712C223.311 119.592 224.471 120.228 225.753 120.619C227.069 120.977 228.42 121.157 229.805 121.157C231.883 121.157 233.615 120.814 235 120.13C236.386 119.445 237.407 118.5 238.065 117.294C238.758 116.055 239.104 114.67 239.104 113.138C239.104 111.345 238.758 109.846 238.065 108.64C237.407 107.401 236.334 106.309 234.844 105.364C233.355 104.386 231.346 103.457 228.818 102.577C224.281 100.914 220.298 99.1546 216.869 97.2966C213.44 95.4061 210.773 93.0754 208.868 90.3047C206.963 87.5341 206.011 83.9974 206.011 79.6946C206.011 75.6201 207.033 72.0997 209.076 69.1334C211.12 66.1346 213.977 63.8202 217.648 62.1904C220.38 60.9778 223.428 60.2163 226.792 59.9059Z" fill="#D9D9D9"/>
<path fill-rule="evenodd" clip-rule="evenodd" d="M229 152.861C260.404 152.861 285.862 127.404 285.862 96.0002C285.862 64.5965 260.404 39.1387 229 39.1387C197.596 39.1387 172.139 64.5965 172.139 96.0002C172.139 127.404 197.596 152.861 229 152.861ZM226.792 59.9059V49.4779H235.156V60.0594C238.13 60.4681 240.832 61.2762 243.261 62.4838C246.932 64.3092 249.772 66.9495 251.781 70.4047C253.824 73.8273 254.846 77.967 254.846 82.8239H239.208C239.208 79.0101 238.377 76.1905 236.715 74.3651C235.052 72.5072 232.87 71.5782 230.169 71.5782C228.194 71.5782 226.584 71.9367 225.337 72.6538C224.09 73.371 223.172 74.3488 222.584 75.5875C221.995 76.8262 221.7 78.2115 221.7 79.7435C221.7 81.3082 222.012 82.6772 222.636 83.8507C223.259 84.9915 224.333 86.0509 225.857 87.0288C227.381 88.0067 229.476 89.0009 232.143 90.0114C236.611 91.7064 240.542 93.5155 243.936 95.4387C247.365 97.3618 250.032 99.7088 251.937 102.479C253.876 105.25 254.846 108.77 254.846 113.04C254.846 117.278 253.789 120.896 251.677 123.895C249.564 126.861 246.637 129.127 242.897 130.691C240.262 131.77 237.318 132.469 234.065 132.788V142.524H225.701V132.776C223.871 132.584 222.053 132.264 220.246 131.816C217.094 131.001 214.219 129.681 211.622 127.855C209.059 126.03 206.998 123.618 205.439 120.619C203.916 117.587 203.154 113.855 203.154 109.422H218.843C218.843 111.671 219.155 113.562 219.778 115.094C220.402 116.593 221.233 117.799 222.272 118.712C223.311 119.592 224.471 120.228 225.753 120.619C227.069 120.977 228.42 121.157 229.805 121.157C231.883 121.157 233.615 120.814 235 120.13C236.386 119.445 237.407 118.5 238.065 117.294C238.758 116.055 239.104 114.67 239.104 113.138C239.104 111.345 238.758 109.846 238.065 108.64C237.407 107.401 236.334 106.309 234.844 105.364C233.355 104.386 231.346 103.457 228.818 102.577C224.281 100.914 220.298 99.1546 216.869 97.2966C213.44 95.4061 210.773 93.0754 208.868 90.3047C206.963 87.5341 206.011 83.9974 206.011 79.6946C206.011 75.6201 207.033 72.0997 209.076 69.1334C211.12 66.1346 213.977 63.8202 217.648 62.1904C220.38 60.9778 223.428 60.2163 226.792 59.9059Z" fill="url(#paint4_linear_863_26)"/>
</g>
</g>
</g>
<g clip-path="url(#clip1_863_26)">
<path d="M192 96C192 42.9797 149.02 0 95.9985 0C42.9801 0 0 42.9797 0 96C0 149.017 42.9801 192 95.9985 192C149.02 192 192 149.017 192 96Z" fill="url(#paint5_linear_863_26)"/>
<path d="M9.59961 95.9996C9.59962 143.719 48.2832 182.4 96.0011 182.4C143.719 182.4 182.399 143.719 182.399 95.9996C182.399 48.2811 143.719 9.5996 96.0011 9.59961C48.2831 9.59961 9.59961 48.2811 9.59961 95.9996Z" fill="url(#paint6_linear_863_26)"/>
<path d="M172.801 96.0002C172.801 53.5839 138.417 19.2002 96 19.2002C53.5853 19.2002 19.2012 53.5839 19.2012 96.0002C19.2012 138.413 53.5853 172.8 96 172.8C138.417 172.8 172.801 138.413 172.801 96.0002Z" fill="url(#paint7_linear_863_26)"/>
<path d="M172.801 96.0002C172.801 53.5839 138.417 19.2002 96 19.2002C53.5853 19.2002 19.2012 53.5839 19.2012 96.0002C19.2012 138.413 53.5853 172.8 96 172.8C138.417 172.8 172.801 138.413 172.801 96.0002Z" fill="white" fill-opacity="0.64"/>
<mask id="mask2_863_26" style="mask-type:alpha" maskUnits="userSpaceOnUse" x="28" y="28" width="136" height="136">
<path d="M163.2 95.9998C163.2 58.8879 133.112 28.7998 95.9995 28.7998C58.8887 28.7998 28.8008 58.8879 28.8008 95.9998C28.8008 133.112 58.8887 163.2 95.9995 163.2C133.112 163.2 163.2 133.112 163.2 95.9998Z" fill="url(#paint8_linear_863_26)"/>
<path d="M163.2 95.9998C163.2 58.8879 133.112 28.7998 95.9995 28.7998C58.8887 28.7998 28.8008 58.8879 28.8008 95.9998C28.8008 133.112 58.8887 163.2 95.9995 163.2C133.112 163.2 163.2 133.112 163.2 95.9998Z" fill="white"/>
</mask>
<g mask="url(#mask2_863_26)">
<mask id="mask3_863_26" style="mask-type:luminance" maskUnits="userSpaceOnUse" x="28" y="28" width="136" height="136">
<path d="M163.201 28.7998H28.8008V163.2H163.201V28.7998Z" fill="white"/>
</mask>
<g mask="url(#mask3_863_26)">
<path d="M163.201 28.7998H28.8008V163.2H163.201V28.7998Z" fill="white"/>
<path d="M96.0008 163.2C133.114 163.2 163.2 133.113 163.2 95.9998C163.2 58.8863 133.114 28.7998 96.0008 28.7998C58.8872 28.7998 28.8008 58.8863 28.8008 95.9998C28.8008 133.113 58.8872 163.2 96.0008 163.2Z" fill="white"/>
<path d="M58.2012 68.847L97.9537 54.5254L133.611 67.0642L133.801 124.683L97.8406 111.604V137.475L58.2181 123.494L58.2012 68.847ZM97.9678 58.375L61.8869 71.3742L61.903 120.947L94.1536 132.327V80.1579L126.382 68.3671L97.9678 58.375ZM129.937 70.9268L97.8406 82.6706V107.745L130.098 119.475L129.937 70.9268Z" fill="#01E397"/>
</g>
</g>
</g>
<defs>
<linearGradient id="paint0_linear_863_26" x1="325" y1="-0.000770047" x2="115.347" y2="21.7357" gradientUnits="userSpaceOnUse">
<stop stop-color="#DC42C9"/>
<stop offset="1" stop-color="#952D88"/>
</linearGradient>
<linearGradient id="paint1_linear_863_26" x1="142.6" y1="182.401" x2="331.287" y2="162.838" gradientUnits="userSpaceOnUse">
<stop stop-color="#DC42C9"/>
<stop offset="1" stop-color="#952D88"/>
</linearGradient>
<linearGradient id="paint2_linear_863_26" x1="305.801" y1="19.1995" x2="138.079" y2="36.5887" gradientUnits="userSpaceOnUse">
<stop stop-color="#DC42C9"/>
<stop offset="1" stop-color="#952D88"/>
</linearGradient>
<linearGradient id="paint3_linear_863_26" x1="169.705" y1="43.6234" x2="285.328" y2="147.388" gradientUnits="userSpaceOnUse">
<stop stop-color="#00E599"/>
<stop offset="1" stop-color="#00AF92"/>
</linearGradient>
<linearGradient id="paint4_linear_863_26" x1="182.478" y1="96.0003" x2="275.523" y2="96.0003" gradientUnits="userSpaceOnUse">
<stop stop-color="#E96161"/>
<stop offset="0.2" stop-color="#E65B76"/>
<stop offset="0.61" stop-color="#DF4AAC"/>
<stop offset="1" stop-color="#D739E6"/>
</linearGradient>
<linearGradient id="paint5_linear_863_26" x1="192" y1="-0.000770047" x2="-17.6528" y2="21.7357" gradientUnits="userSpaceOnUse">
<stop stop-color="#01E397"/>
<stop offset="1" stop-color="#019A66"/>
</linearGradient>
<linearGradient id="paint6_linear_863_26" x1="9.5997" y1="182.401" x2="198.287" y2="162.838" gradientUnits="userSpaceOnUse">
<stop stop-color="#01E397"/>
<stop offset="1" stop-color="#019A66"/>
</linearGradient>
<linearGradient id="paint7_linear_863_26" x1="172.801" y1="19.1995" x2="5.0789" y2="36.5887" gradientUnits="userSpaceOnUse">
<stop stop-color="#01E397"/>
<stop offset="1" stop-color="#019A66"/>
</linearGradient>
<linearGradient id="paint8_linear_863_26" x1="36.7067" y1="43.6234" x2="152.33" y2="147.388" gradientUnits="userSpaceOnUse">
<stop stop-color="#00E599"/>
<stop offset="1" stop-color="#00AF92"/>
</linearGradient>
<clipPath id="clip0_863_26">
<rect width="192" height="192" fill="white" transform="translate(133)"/>
</clipPath>
<clipPath id="clip1_863_26">
<rect width="192" height="192" fill="white"/>
</clipPath>
</defs>
</svg>
