<svg width="325" height="193" viewBox="0 0 325 193" fill="none" xmlns="http://www.w3.org/2000/svg">
<g clip-path="url(#clip0_106_1268)">
<path d="M324.9 96.3999C324.9 43.3796 281.92 0.399902 228.898 0.399902C175.88 0.399902 132.9 43.3796 132.9 96.3999C132.9 149.417 175.88 192.4 228.898 192.4C281.92 192.4 324.9 149.417 324.9 96.3999Z" fill="url(#paint0_linear_106_1268)"/>
<path d="M142.5 96.3997C142.5 144.118 181.184 182.8 228.902 182.8C276.62 182.8 315.3 144.118 315.3 96.3997C315.3 48.6813 276.62 9.99975 228.902 9.99976C181.184 9.99976 142.5 48.6813 142.5 96.3997Z" fill="url(#paint1_linear_106_1268)"/>
<path d="M305.7 96.4001C305.7 53.9839 271.316 19.6001 228.899 19.6001C186.484 19.6001 152.1 53.9839 152.1 96.4001C152.1 138.814 186.484 173.2 228.899 173.2C271.316 173.2 305.7 138.814 305.7 96.4001Z" fill="url(#paint2_linear_106_1268)"/>
<path d="M305.7 96.4001C305.7 53.9839 271.316 19.6001 228.899 19.6001C186.484 19.6001 152.1 53.9839 152.1 96.4001C152.1 138.814 186.484 173.2 228.899 173.2C271.316 173.2 305.7 138.814 305.7 96.4001Z" fill="white" fill-opacity="0.64"/>
<mask id="mask0_106_1268" style="mask-type:alpha" maskUnits="userSpaceOnUse" x="161" y="29" width="136" height="135">
<path d="M296.1 96.3997C296.1 59.2878 266.012 29.1997 228.899 29.1997C191.788 29.1997 161.7 59.2878 161.7 96.3997C161.7 133.512 191.788 163.6 228.899 163.6C266.012 163.6 296.1 133.512 296.1 96.3997Z" fill="url(#paint3_linear_106_1268)"/>
<path d="M296.1 96.3997C296.1 59.2878 266.012 29.1997 228.899 29.1997C191.788 29.1997 161.7 59.2878 161.7 96.3997C161.7 133.512 191.788 163.6 228.899 163.6C266.012 163.6 296.1 133.512 296.1 96.3997Z" fill="white"/>
</mask>
<g mask="url(#mask0_106_1268)">
<mask id="mask1_106_1268" style="mask-type:luminance" maskUnits="userSpaceOnUse" x="161" y="29" width="136" height="135">
<path d="M296.1 29.1992H161.7V163.599H296.1V29.1992Z" fill="white"/>
</mask>
<g mask="url(#mask1_106_1268)">
<path d="M296.1 29.1992H161.7V163.599H296.1V29.1992Z" fill="white"/>
<path d="M296.1 96.3992C296.1 59.2857 266.014 29.1992 228.9 29.1992C191.786 29.1992 161.7 59.2857 161.7 96.3992C161.7 133.513 191.786 163.599 228.9 163.599C266.014 163.599 296.1 133.513 296.1 96.3992Z" fill="white"/>
<path fill-rule="evenodd" clip-rule="evenodd" d="M228.9 153.261C260.304 153.261 285.762 127.803 285.762 96.3991C285.762 64.9954 260.304 39.5376 228.9 39.5376C197.496 39.5376 172.039 64.9954 172.039 96.3991C172.039 127.803 197.496 153.261 228.9 153.261ZM226.691 60.3048V49.8767H235.056V60.4582C238.03 60.867 240.731 61.6751 243.16 62.8827C246.831 64.7081 249.672 67.3484 251.68 70.8036C253.724 74.2262 254.745 78.3659 254.745 83.2228H239.108C239.108 79.409 238.277 76.5894 236.614 74.764C234.952 72.906 232.77 71.977 230.068 71.977C228.094 71.977 226.484 72.3356 225.237 73.0527C223.99 73.7698 223.072 74.7477 222.483 75.9864C221.894 77.225 221.6 78.6104 221.6 80.1424C221.6 81.707 221.912 83.0761 222.535 84.2495C223.159 85.3904 224.232 86.4498 225.756 87.4277C227.28 88.4056 229.376 89.3998 232.042 90.4102C236.51 92.1053 240.441 93.9143 243.836 95.8375C247.264 97.7607 249.931 100.108 251.836 102.878C253.776 105.649 254.745 109.169 254.745 113.44C254.745 117.677 253.689 121.295 251.576 124.294C249.464 127.26 246.537 129.526 242.797 131.09C240.162 132.17 237.218 132.869 233.965 133.188V142.923H225.6V133.175C223.771 132.983 221.952 132.664 220.145 132.215C216.994 131.4 214.119 130.08 211.521 128.255C208.958 126.429 206.898 124.017 205.339 121.018C203.815 117.987 203.053 114.254 203.053 109.821H218.743C218.743 112.07 219.054 113.961 219.678 115.493C220.301 116.993 221.132 118.199 222.172 119.111C223.211 119.991 224.371 120.627 225.652 121.018C226.968 121.377 228.319 121.556 229.705 121.556C231.783 121.556 233.514 121.214 234.9 120.529C236.285 119.845 237.307 118.899 237.965 117.693C238.658 116.455 239.004 115.069 239.004 113.537C239.004 111.745 238.658 110.245 237.965 109.039C237.307 107.8 236.233 106.708 234.744 105.763C233.255 104.785 231.246 103.856 228.717 102.976C224.18 101.314 220.197 99.5535 216.769 97.6955C213.34 95.8049 210.673 93.4743 208.768 90.7036C206.863 87.9329 205.911 84.3962 205.911 80.0935C205.911 76.019 206.932 72.4986 208.976 69.5323C211.019 66.5334 213.877 64.2191 217.548 62.5893C220.279 61.3767 223.327 60.6152 226.691 60.3048Z" fill="#D9D9D9"/>
<path fill-rule="evenodd" clip-rule="evenodd" d="M228.9 153.261C260.304 153.261 285.762 127.803 285.762 96.3991C285.762 64.9954 260.304 39.5376 228.9 39.5376C197.496 39.5376 172.039 64.9954 172.039 96.3991C172.039 127.803 197.496 153.261 228.9 153.261ZM226.691 60.3048V49.8767H235.056V60.4582C238.03 60.867 240.731 61.6751 243.16 62.8827C246.831 64.7081 249.672 67.3484 251.68 70.8036C253.724 74.2262 254.745 78.3659 254.745 83.2228H239.108C239.108 79.409 238.277 76.5894 236.614 74.764C234.952 72.906 232.77 71.977 230.068 71.977C228.094 71.977 226.484 72.3356 225.237 73.0527C223.99 73.7698 223.072 74.7477 222.483 75.9864C221.894 77.225 221.6 78.6104 221.6 80.1424C221.6 81.707 221.912 83.0761 222.535 84.2495C223.159 85.3904 224.232 86.4498 225.756 87.4277C227.28 88.4056 229.376 89.3998 232.042 90.4102C236.51 92.1053 240.441 93.9143 243.836 95.8375C247.264 97.7607 249.931 100.108 251.836 102.878C253.776 105.649 254.745 109.169 254.745 113.44C254.745 117.677 253.689 121.295 251.576 124.294C249.464 127.26 246.537 129.526 242.797 131.09C240.162 132.17 237.218 132.869 233.965 133.188V142.923H225.6V133.175C223.771 132.983 221.952 132.664 220.145 132.215C216.994 131.4 214.119 130.08 211.521 128.255C208.958 126.429 206.898 124.017 205.339 121.018C203.815 117.987 203.053 114.254 203.053 109.821H218.743C218.743 112.07 219.054 113.961 219.678 115.493C220.301 116.993 221.132 118.199 222.172 119.111C223.211 119.991 224.371 120.627 225.652 121.018C226.968 121.377 228.319 121.556 229.705 121.556C231.783 121.556 233.514 121.214 234.9 120.529C236.285 119.845 237.307 118.899 237.965 117.693C238.658 116.455 239.004 115.069 239.004 113.537C239.004 111.745 238.658 110.245 237.965 109.039C237.307 107.8 236.233 106.708 234.744 105.763C233.255 104.785 231.246 103.856 228.717 102.976C224.18 101.314 220.197 99.5535 216.769 97.6955C213.34 95.8049 210.673 93.4743 208.768 90.7036C206.863 87.9329 205.911 84.3962 205.911 80.0935C205.911 76.019 206.932 72.4986 208.976 69.5323C211.019 66.5334 213.877 64.2191 217.548 62.5893C220.279 61.3767 223.327 60.6152 226.691 60.3048Z" fill="url(#paint4_linear_106_1268)"/>
</g>
</g>
<path d="M192 96.3999C192 43.3796 149.02 0.399902 95.999 0.399902C42.98 0.399902 0 43.3796 0 96.3999C0 149.417 42.98 192.4 95.999 192.4C149.02 192.4 192 149.417 192 96.3999Z" fill="url(#paint5_linear_106_1268)"/>
<path d="M9.60004 96.4C9.60004 144.118 48.284 182.8 96.002 182.8C143.72 182.8 182.4 144.118 182.4 96.4C182.4 48.6815 143.72 9.99999 96.002 10C48.284 10 9.60004 48.6815 9.60004 96.4Z" fill="url(#paint6_linear_106_1268)"/>
<path d="M172.8 96.4001C172.8 53.9839 138.416 19.6001 95.999 19.6001C53.584 19.6001 19.2 53.9839 19.2 96.4001C19.2 138.814 53.584 173.2 95.999 173.2C138.416 173.2 172.8 138.814 172.8 96.4001Z" fill="url(#paint7_linear_106_1268)"/>
<path d="M172.8 96.4001C172.8 53.9839 138.416 19.6001 95.999 19.6001C53.584 19.6001 19.2 53.9839 19.2 96.4001C19.2 138.814 53.584 173.2 95.999 173.2C138.416 173.2 172.8 138.814 172.8 96.4001Z" fill="white" fill-opacity="0.64"/>
<mask id="mask2_106_1268" style="mask-type:alpha" maskUnits="userSpaceOnUse" x="28" y="29" width="136" height="135">
<path d="M163.2 96.4002C163.2 59.2883 133.112 29.2002 95.9991 29.2002C58.8881 29.2002 28.8 59.2883 28.8 96.4002C28.8 133.512 58.8881 163.6 95.9991 163.6C133.112 163.6 163.2 133.512 163.2 96.4002Z" fill="url(#paint8_linear_106_1268)"/>
<path d="M163.2 96.4002C163.2 59.2883 133.112 29.2002 95.9991 29.2002C58.8881 29.2002 28.8 59.2883 28.8 96.4002C28.8 133.512 58.8881 163.6 95.9991 163.6C133.112 163.6 163.2 133.512 163.2 96.4002Z" fill="white"/>
</mask>
<g mask="url(#mask2_106_1268)">
<mask id="mask3_106_1268" style="mask-type:luminance" maskUnits="userSpaceOnUse" x="28" y="29" width="136" height="135">
<path d="M163.2 29.2002H28.8V163.6H163.2V29.2002Z" fill="white"/>
</mask>
<g mask="url(#mask3_106_1268)">
<path d="M163.2 29.2002H28.8V163.6H163.2V29.2002Z" fill="white"/>
<path d="M96.0001 163.6C133.114 163.6 163.2 133.514 163.2 96.4002C163.2 59.2867 133.114 29.2002 96.0001 29.2002C58.8871 29.2002 28.8 59.2867 28.8 96.4002C28.8 133.514 58.8871 163.6 96.0001 163.6Z" fill="white"/>
<path fill-rule="evenodd" clip-rule="evenodd" d="M95.8031 141.025C82.7241 141.015 72.1901 137.877 64.8291 132.24C57.3801 126.536 53.4281 118.441 53.4281 109.281C53.4281 100.454 57.3711 94.0901 61.8321 89.7881C65.3291 86.4168 69.1871 84.2576 71.8741 83.0156C71.2661 81.1511 70.508 78.7101 69.83 76.189C68.923 72.8152 68.0331 68.857 68.0331 65.9565C68.0331 62.5233 68.7811 59.0754 70.7991 56.3962C72.9321 53.5657 76.1421 52.0493 80.0041 52.0493C83.0221 52.0493 85.5841 53.1688 87.5901 55.1002C89.5081 56.9462 90.7841 59.3981 91.6651 61.9538C93.2141 66.4445 93.8171 72.0867 93.9861 77.7172H97.6851C97.8541 72.0867 98.4571 66.4445 100.006 61.9538C100.887 59.3981 102.163 56.9462 104.081 55.1002C106.087 53.1688 108.649 52.0493 111.667 52.0493C115.529 52.0493 118.739 53.5657 120.872 56.3962C122.89 59.0754 123.638 62.5233 123.638 65.9565C123.638 68.857 122.748 72.8152 121.841 76.189C121.162 78.7101 120.405 81.1511 119.797 83.0156C122.484 84.2576 126.342 86.4168 129.838 89.7881C134.3 94.0901 138.243 100.454 138.243 109.281C138.243 118.441 134.291 126.536 126.842 132.24C119.482 137.877 108.947 141.015 95.8681 141.025H95.8031Z" fill="#633001"/>
<path d="M80.0041 55.3145C74.3471 55.3145 71.7431 59.5773 71.7431 65.4729C71.7431 70.1588 74.7691 79.5437 76.0101 83.1971C76.2891 84.0188 75.8501 84.9191 75.0511 85.2378C70.5171 87.0435 57.1391 93.6551 57.1391 108.797C57.1391 124.747 70.7341 136.774 95.8051 136.793C95.8151 136.793 95.8251 136.793 95.8351 136.793C95.8451 136.793 95.8551 136.793 95.8651 136.793C120.936 136.774 134.532 124.747 134.532 108.797C134.532 93.6551 121.153 87.0435 116.62 85.2378C115.82 84.9191 115.381 84.0188 115.661 83.1971C116.902 79.5437 119.927 70.1588 119.927 65.4729C119.927 59.5773 117.323 55.3145 111.667 55.3145C103.525 55.3145 101.495 66.9657 101.351 79.4703C101.341 80.3052 100.673 80.9825 99.8461 80.9825H91.8241C90.9981 80.9825 90.3301 80.3052 90.3201 79.4703C90.1751 66.9657 88.1461 55.3145 80.0041 55.3145Z" fill="#D1884F"/>
<path d="M95.8651 131.683C77.4441 131.683 57.1711 121.722 57.1391 108.827C57.1391 108.847 57.1391 108.867 57.1391 108.887C57.1391 124.851 70.7561 136.883 95.8651 136.883C120.975 136.883 134.592 124.851 134.592 108.887C134.592 108.867 134.592 108.847 134.592 108.827C134.56 121.722 114.286 131.683 95.8651 131.683Z" fill="#FEDC90"/>
<path d="M85.6291 104.866C85.6291 109.22 83.592 111.487 81.08 111.487C78.567 111.487 76.5311 109.22 76.5311 104.866C76.5311 100.513 78.567 98.2451 81.08 98.2451C83.592 98.2451 85.6291 100.513 85.6291 104.866Z" fill="#633001"/>
<path d="M115.199 104.866C115.199 109.22 113.162 111.487 110.65 111.487C108.137 111.487 106.101 109.22 106.101 104.866C106.101 100.513 108.137 98.2451 110.65 98.2451C113.162 98.2451 115.199 100.513 115.199 104.866Z" fill="#633001"/>
</g>
</g>
</g>
<defs>
<linearGradient id="paint0_linear_106_1268" x1="324.9" y1="0.399134" x2="115.247" y2="22.1356" gradientUnits="userSpaceOnUse">
<stop stop-color="#DC42C9"/>
<stop offset="1" stop-color="#952D88"/>
</linearGradient>
<linearGradient id="paint1_linear_106_1268" x1="142.5" y1="182.801" x2="331.188" y2="163.238" gradientUnits="userSpaceOnUse">
<stop stop-color="#DC42C9"/>
<stop offset="1" stop-color="#952D88"/>
</linearGradient>
<linearGradient id="paint2_linear_106_1268" x1="305.7" y1="19.5995" x2="137.978" y2="36.9886" gradientUnits="userSpaceOnUse">
<stop stop-color="#DC42C9"/>
<stop offset="1" stop-color="#952D88"/>
</linearGradient>
<linearGradient id="paint3_linear_106_1268" x1="169.606" y1="44.0232" x2="285.23" y2="147.788" gradientUnits="userSpaceOnUse">
<stop stop-color="#00E599"/>
<stop offset="1" stop-color="#00AF92"/>
</linearGradient>
<linearGradient id="paint4_linear_106_1268" x1="182.378" y1="96.3992" x2="275.423" y2="96.3992" gradientUnits="userSpaceOnUse">
<stop stop-color="#E96161"/>
<stop offset="0.2" stop-color="#E65B76"/>
<stop offset="0.61" stop-color="#DF4AAC"/>
<stop offset="1" stop-color="#D739E6"/>
</linearGradient>
<linearGradient id="paint5_linear_106_1268" x1="192" y1="0.399134" x2="-17.653" y2="22.1356" gradientUnits="userSpaceOnUse">
<stop stop-color="#D1884F"/>
<stop offset="1" stop-color="#8E5C36"/>
</linearGradient>
<linearGradient id="paint6_linear_106_1268" x1="9.60104" y1="182.801" x2="198.288" y2="163.238" gradientUnits="userSpaceOnUse">
<stop stop-color="#D1884F"/>
<stop offset="1" stop-color="#8E5C36"/>
</linearGradient>
<linearGradient id="paint7_linear_106_1268" x1="172.8" y1="19.5995" x2="5.07801" y2="36.9886" gradientUnits="userSpaceOnUse">
<stop stop-color="#D1884F"/>
<stop offset="1" stop-color="#8E5C36"/>
</linearGradient>
<linearGradient id="paint8_linear_106_1268" x1="36.706" y1="44.0237" x2="152.33" y2="147.788" gradientUnits="userSpaceOnUse">
<stop stop-color="#00E599"/>
<stop offset="1" stop-color="#00AF92"/>
</linearGradient>
<clipPath id="clip0_106_1268">
<rect width="325" height="193" fill="white"/>
</clipPath>
</defs>
</svg>
