<svg width="325" height="193" viewBox="0 0 325 193" fill="none" xmlns="http://www.w3.org/2000/svg">
<g clip-path="url(#clip0_106_1198)">
<path d="M324.9 96.3999C324.9 43.3796 281.92 0.399902 228.898 0.399902C175.88 0.399902 132.9 43.3796 132.9 96.3999C132.9 149.417 175.88 192.4 228.898 192.4C281.92 192.4 324.9 149.417 324.9 96.3999Z" fill="url(#paint0_linear_106_1198)"/>
<path d="M142.5 96.3997C142.5 144.118 181.184 182.8 228.902 182.8C276.62 182.8 315.3 144.118 315.3 96.3997C315.3 48.6813 276.62 9.99975 228.902 9.99976C181.184 9.99976 142.5 48.6813 142.5 96.3997Z" fill="url(#paint1_linear_106_1198)"/>
<path d="M305.7 96.4001C305.7 53.9839 271.316 19.6001 228.899 19.6001C186.484 19.6001 152.1 53.9839 152.1 96.4001C152.1 138.814 186.484 173.2 228.899 173.2C271.316 173.2 305.7 138.814 305.7 96.4001Z" fill="url(#paint2_linear_106_1198)"/>
<path d="M305.7 96.4001C305.7 53.9839 271.316 19.6001 228.899 19.6001C186.484 19.6001 152.1 53.9839 152.1 96.4001C152.1 138.814 186.484 173.2 228.899 173.2C271.316 173.2 305.7 138.814 305.7 96.4001Z" fill="white" fill-opacity="0.64"/>
<mask id="mask0_106_1198" style="mask-type:alpha" maskUnits="userSpaceOnUse" x="161" y="29" width="136" height="135">
<path d="M296.1 96.3997C296.1 59.2878 266.012 29.1997 228.899 29.1997C191.788 29.1997 161.7 59.2878 161.7 96.3997C161.7 133.512 191.788 163.6 228.899 163.6C266.012 163.6 296.1 133.512 296.1 96.3997Z" fill="url(#paint3_linear_106_1198)"/>
<path d="M296.1 96.3997C296.1 59.2878 266.012 29.1997 228.899 29.1997C191.788 29.1997 161.7 59.2878 161.7 96.3997C161.7 133.512 191.788 163.6 228.899 163.6C266.012 163.6 296.1 133.512 296.1 96.3997Z" fill="white"/>
</mask>
<g mask="url(#mask0_106_1198)">
<mask id="mask1_106_1198" style="mask-type:luminance" maskUnits="userSpaceOnUse" x="161" y="29" width="136" height="135">
<path d="M296.1 29.1992H161.7V163.599H296.1V29.1992Z" fill="white"/>
</mask>
<g mask="url(#mask1_106_1198)">
<path d="M296.1 29.1992H161.7V163.599H296.1V29.1992Z" fill="white"/>
<path d="M296.1 96.3992C296.1 59.2857 266.014 29.1992 228.9 29.1992C191.786 29.1992 161.7 59.2857 161.7 96.3992C161.7 133.513 191.786 163.599 228.9 163.599C266.014 163.599 296.1 133.513 296.1 96.3992Z" fill="white"/>
<path fill-rule="evenodd" clip-rule="evenodd" d="M228.9 153.261C260.304 153.261 285.762 127.803 285.762 96.3991C285.762 64.9954 260.304 39.5376 228.9 39.5376C197.496 39.5376 172.039 64.9954 172.039 96.3991C172.039 127.803 197.496 153.261 228.9 153.261ZM226.691 60.3048V49.8767H235.056V60.4582C238.03 60.867 240.731 61.6751 243.16 62.8827C246.831 64.7081 249.672 67.3484 251.68 70.8036C253.724 74.2262 254.745 78.3659 254.745 83.2228H239.108C239.108 79.409 238.277 76.5894 236.614 74.764C234.952 72.906 232.77 71.977 230.068 71.977C228.094 71.977 226.484 72.3356 225.237 73.0527C223.99 73.7698 223.072 74.7477 222.483 75.9864C221.894 77.225 221.6 78.6104 221.6 80.1424C221.6 81.707 221.912 83.0761 222.535 84.2495C223.159 85.3904 224.232 86.4498 225.756 87.4277C227.28 88.4056 229.376 89.3998 232.042 90.4102C236.51 92.1053 240.441 93.9143 243.836 95.8375C247.264 97.7607 249.931 100.108 251.836 102.878C253.776 105.649 254.745 109.169 254.745 113.44C254.745 117.677 253.689 121.295 251.576 124.294C249.464 127.26 246.537 129.526 242.797 131.09C240.162 132.17 237.218 132.869 233.965 133.188V142.923H225.6V133.175C223.771 132.983 221.952 132.664 220.145 132.215C216.994 131.4 214.119 130.08 211.521 128.255C208.958 126.429 206.898 124.017 205.339 121.018C203.815 117.987 203.053 114.254 203.053 109.821H218.743C218.743 112.07 219.054 113.961 219.678 115.493C220.301 116.993 221.132 118.199 222.172 119.111C223.211 119.991 224.371 120.627 225.652 121.018C226.968 121.377 228.319 121.556 229.705 121.556C231.783 121.556 233.514 121.214 234.9 120.529C236.285 119.845 237.307 118.899 237.965 117.693C238.658 116.455 239.004 115.069 239.004 113.537C239.004 111.745 238.658 110.245 237.965 109.039C237.307 107.8 236.233 106.708 234.744 105.763C233.255 104.785 231.246 103.856 228.717 102.976C224.18 101.314 220.197 99.5535 216.769 97.6955C213.34 95.8049 210.673 93.4743 208.768 90.7036C206.863 87.9329 205.911 84.3962 205.911 80.0935C205.911 76.019 206.932 72.4986 208.976 69.5323C211.019 66.5334 213.877 64.2191 217.548 62.5893C220.279 61.3767 223.327 60.6152 226.691 60.3048Z" fill="#D9D9D9"/>
<path fill-rule="evenodd" clip-rule="evenodd" d="M228.9 153.261C260.304 153.261 285.762 127.803 285.762 96.3991C285.762 64.9954 260.304 39.5376 228.9 39.5376C197.496 39.5376 172.039 64.9954 172.039 96.3991C172.039 127.803 197.496 153.261 228.9 153.261ZM226.691 60.3048V49.8767H235.056V60.4582C238.03 60.867 240.731 61.6751 243.16 62.8827C246.831 64.7081 249.672 67.3484 251.68 70.8036C253.724 74.2262 254.745 78.3659 254.745 83.2228H239.108C239.108 79.409 238.277 76.5894 236.614 74.764C234.952 72.906 232.77 71.977 230.068 71.977C228.094 71.977 226.484 72.3356 225.237 73.0527C223.99 73.7698 223.072 74.7477 222.483 75.9864C221.894 77.225 221.6 78.6104 221.6 80.1424C221.6 81.707 221.912 83.0761 222.535 84.2495C223.159 85.3904 224.232 86.4498 225.756 87.4277C227.28 88.4056 229.376 89.3998 232.042 90.4102C236.51 92.1053 240.441 93.9143 243.836 95.8375C247.264 97.7607 249.931 100.108 251.836 102.878C253.776 105.649 254.745 109.169 254.745 113.44C254.745 117.677 253.689 121.295 251.576 124.294C249.464 127.26 246.537 129.526 242.797 131.09C240.162 132.17 237.218 132.869 233.965 133.188V142.923H225.6V133.175C223.771 132.983 221.952 132.664 220.145 132.215C216.994 131.4 214.119 130.08 211.521 128.255C208.958 126.429 206.898 124.017 205.339 121.018C203.815 117.987 203.053 114.254 203.053 109.821H218.743C218.743 112.07 219.054 113.961 219.678 115.493C220.301 116.993 221.132 118.199 222.172 119.111C223.211 119.991 224.371 120.627 225.652 121.018C226.968 121.377 228.319 121.556 229.705 121.556C231.783 121.556 233.514 121.214 234.9 120.529C236.285 119.845 237.307 118.899 237.965 117.693C238.658 116.455 239.004 115.069 239.004 113.537C239.004 111.745 238.658 110.245 237.965 109.039C237.307 107.8 236.233 106.708 234.744 105.763C233.255 104.785 231.246 103.856 228.717 102.976C224.18 101.314 220.197 99.5535 216.769 97.6955C213.34 95.8049 210.673 93.4743 208.768 90.7036C206.863 87.9329 205.911 84.3962 205.911 80.0935C205.911 76.019 206.932 72.4986 208.976 69.5323C211.019 66.5334 213.877 64.2191 217.548 62.5893C220.279 61.3767 223.327 60.6152 226.691 60.3048Z" fill="url(#paint4_linear_106_1198)"/>
</g>
</g>
<path d="M192 96.3999C192 43.3796 149.02 0.399902 95.999 0.399902C42.98 0.399902 0 43.3796 0 96.3999C0 149.417 42.98 192.4 95.999 192.4C149.02 192.4 192 149.417 192 96.3999Z" fill="url(#paint5_linear_106_1198)"/>
<path d="M9.60004 96.3999C9.60004 144.118 48.284 182.8 96.002 182.8C143.72 182.8 182.4 144.118 182.4 96.3999C182.4 48.6815 143.72 9.99999 96.002 10C48.284 10 9.60004 48.6815 9.60004 96.3999Z" fill="url(#paint6_linear_106_1198)"/>
<path d="M172.8 96.4001C172.8 53.9839 138.416 19.6001 95.999 19.6001C53.584 19.6001 19.2 53.9839 19.2 96.4001C19.2 138.814 53.584 173.2 95.999 173.2C138.416 173.2 172.8 138.814 172.8 96.4001Z" fill="url(#paint7_linear_106_1198)"/>
<path d="M172.8 96.4001C172.8 53.9839 138.416 19.6001 95.999 19.6001C53.584 19.6001 19.2 53.9839 19.2 96.4001C19.2 138.814 53.584 173.2 95.999 173.2C138.416 173.2 172.8 138.814 172.8 96.4001Z" fill="white" fill-opacity="0.64"/>
<mask id="mask2_106_1198" style="mask-type:alpha" maskUnits="userSpaceOnUse" x="28" y="29" width="136" height="135">
<path d="M163.2 96.4002C163.2 59.2883 133.112 29.2002 95.9991 29.2002C58.8881 29.2002 28.8 59.2883 28.8 96.4002C28.8 133.512 58.8881 163.6 95.9991 163.6C133.112 163.6 163.2 133.512 163.2 96.4002Z" fill="url(#paint8_linear_106_1198)"/>
<path d="M163.2 96.4002C163.2 59.2883 133.112 29.2002 95.9991 29.2002C58.8881 29.2002 28.8 59.2883 28.8 96.4002C28.8 133.512 58.8881 163.6 95.9991 163.6C133.112 163.6 163.2 133.512 163.2 96.4002Z" fill="white"/>
</mask>
<g mask="url(#mask2_106_1198)">
<mask id="mask3_106_1198" style="mask-type:luminance" maskUnits="userSpaceOnUse" x="28" y="29" width="136" height="135">
<path d="M163.2 29.2002H28.8V163.6H163.2V29.2002Z" fill="white"/>
</mask>
<g mask="url(#mask3_106_1198)">
<path d="M163.2 29.2002H28.8V163.6H163.2V29.2002Z" fill="white"/>
<path fill-rule="evenodd" clip-rule="evenodd" d="M96.0001 29.2002C133.117 29.2002 163.2 59.284 163.2 96.4002C163.2 133.516 133.117 163.6 96.0001 163.6C58.8841 163.6 28.8 133.516 28.8 96.4002C28.8 59.284 58.8841 29.2002 96.0001 29.2002Z" fill="white"/>
<path d="M62.7951 96.4104L62.8481 115.904L79.4071 125.651V137.063L53.1561 121.663V90.71L62.7951 96.4104ZM62.7951 76.9169V88.2763L53.1501 82.57V71.2107L62.7951 65.5044L72.4861 71.2107L62.7951 76.9169ZM86.3231 71.2107L95.9671 65.5044L105.658 71.2107L95.9671 76.9169L86.3231 71.2107Z" fill="#F0B90B"/>
<path d="M69.7641 111.863V100.451L79.4081 106.157V117.517L69.7641 111.863ZM86.3231 129.738L95.9671 135.445L105.659 129.738V141.098L95.9671 146.804L86.3231 141.098V129.738ZM119.49 71.2107L129.134 65.5044L138.825 71.2107V82.57L129.134 88.2763V76.9169L119.49 71.2107ZM129.134 115.904L129.187 96.4104L138.831 90.7041V121.657L112.58 137.057V125.645L129.134 115.904Z" fill="#F0B90B"/>
<path d="M122.221 111.869L112.575 117.522V106.162L122.221 100.456V111.869Z" fill="#F0B90B"/>
<path d="M122.218 80.9542L122.271 92.3668L105.665 102.114V121.654L96.0211 127.307L86.3771 121.654V102.114L69.7701 92.3668V80.9542L79.455 75.248L95.9611 85.042L112.568 75.248L122.26 80.9542H122.218ZM69.7641 61.4667L95.9671 46.0137L122.218 61.4667L112.574 67.173L95.9671 57.379L79.4081 67.173L69.7641 61.4667Z" fill="#F0B90B"/>
</g>
</g>
</g>
<defs>
<linearGradient id="paint0_linear_106_1198" x1="324.9" y1="0.399134" x2="115.247" y2="22.1356" gradientUnits="userSpaceOnUse">
<stop stop-color="#DC42C9"/>
<stop offset="1" stop-color="#952D88"/>
</linearGradient>
<linearGradient id="paint1_linear_106_1198" x1="142.5" y1="182.801" x2="331.188" y2="163.238" gradientUnits="userSpaceOnUse">
<stop stop-color="#DC42C9"/>
<stop offset="1" stop-color="#952D88"/>
</linearGradient>
<linearGradient id="paint2_linear_106_1198" x1="305.7" y1="19.5995" x2="137.978" y2="36.9886" gradientUnits="userSpaceOnUse">
<stop stop-color="#DC42C9"/>
<stop offset="1" stop-color="#952D88"/>
</linearGradient>
<linearGradient id="paint3_linear_106_1198" x1="169.606" y1="44.0232" x2="285.23" y2="147.788" gradientUnits="userSpaceOnUse">
<stop stop-color="#00E599"/>
<stop offset="1" stop-color="#00AF92"/>
</linearGradient>
<linearGradient id="paint4_linear_106_1198" x1="182.378" y1="96.3992" x2="275.423" y2="96.3992" gradientUnits="userSpaceOnUse">
<stop stop-color="#E96161"/>
<stop offset="0.2" stop-color="#E65B76"/>
<stop offset="0.61" stop-color="#DF4AAC"/>
<stop offset="1" stop-color="#D739E6"/>
</linearGradient>
<linearGradient id="paint5_linear_106_1198" x1="192" y1="0.399132" x2="-17.653" y2="22.1356" gradientUnits="userSpaceOnUse">
<stop stop-color="#F0B90B"/>
<stop offset="1" stop-color="#A37E07"/>
</linearGradient>
<linearGradient id="paint6_linear_106_1198" x1="9.60104" y1="182.801" x2="198.288" y2="163.238" gradientUnits="userSpaceOnUse">
<stop stop-color="#F0B90B"/>
<stop offset="1" stop-color="#A37E07"/>
</linearGradient>
<linearGradient id="paint7_linear_106_1198" x1="172.8" y1="19.5995" x2="5.07801" y2="36.9886" gradientUnits="userSpaceOnUse">
<stop stop-color="#F0B90B"/>
<stop offset="1" stop-color="#A37E07"/>
</linearGradient>
<linearGradient id="paint8_linear_106_1198" x1="36.706" y1="44.0237" x2="152.33" y2="147.788" gradientUnits="userSpaceOnUse">
<stop stop-color="#00E599"/>
<stop offset="1" stop-color="#00AF92"/>
</linearGradient>
<clipPath id="clip0_106_1198">
<rect width="325" height="193" fill="white"/>
</clipPath>
</defs>
</svg>
