<svg width="325" height="193" viewBox="0 0 325 193" fill="none" xmlns="http://www.w3.org/2000/svg">
<path d="M324.9 96.4004C324.9 43.3801 281.92 0.400391 228.898 0.400391C175.88 0.400391 132.9 43.3801 132.9 96.4004C132.9 149.417 175.88 192.4 228.898 192.4C281.92 192.4 324.9 149.417 324.9 96.4004Z" fill="url(#paint0_linear_863_121820)"/>
<path d="M142.5 96.4008C142.5 144.119 181.184 182.801 228.902 182.801C276.62 182.801 315.3 144.119 315.3 96.4008C315.3 48.6823 276.62 10.0008 228.902 10.0008C181.184 10.0008 142.5 48.6823 142.5 96.4008V96.4008Z" fill="url(#paint1_linear_863_121820)"/>
<path d="M305.7 96.4006C305.7 53.9843 271.316 19.6006 228.899 19.6006C186.484 19.6006 152.1 53.9843 152.1 96.4006C152.1 138.814 186.484 173.201 228.899 173.201C271.316 173.201 305.7 138.814 305.7 96.4006Z" fill="url(#paint2_linear_863_121820)"/>
<path d="M305.7 96.4006C305.7 53.9843 271.316 19.6006 228.899 19.6006C186.484 19.6006 152.1 53.9843 152.1 96.4006C152.1 138.814 186.484 173.201 228.899 173.201C271.316 173.201 305.7 138.814 305.7 96.4006Z" fill="white" fill-opacity="0.64"/>
<mask id="mask0_863_121820" style="mask-type:alpha" maskUnits="userSpaceOnUse" x="161" y="29" width="136" height="135">
<path d="M296.1 96.4002C296.1 59.2883 266.012 29.2002 228.898 29.2002C191.788 29.2002 161.7 59.2883 161.7 96.4002C161.7 133.512 191.788 163.6 228.898 163.6C266.012 163.6 296.1 133.512 296.1 96.4002Z" fill="url(#paint3_linear_863_121820)"/>
<path d="M296.1 96.4002C296.1 59.2883 266.012 29.2002 228.898 29.2002C191.788 29.2002 161.7 59.2883 161.7 96.4002C161.7 133.512 191.788 163.6 228.898 163.6C266.012 163.6 296.1 133.512 296.1 96.4002Z" fill="white"/>
</mask>
<g mask="url(#mask0_863_121820)">
<g clip-path="url(#clip0_863_121820)">
<rect width="134.4" height="134.4" transform="translate(161.7 29.2002)" fill="white"/>
<rect x="161.7" y="29.2002" width="134.4" height="134.4" rx="67.2" fill="white"/>
<path fill-rule="evenodd" clip-rule="evenodd" d="M228.9 153.261C260.303 153.261 285.761 127.803 285.761 96.3996C285.761 64.9959 260.303 39.5381 228.9 39.5381C197.496 39.5381 172.038 64.9959 172.038 96.3996C172.038 127.803 197.496 153.261 228.9 153.261ZM226.691 60.3052V49.8772H235.055V60.4587C238.029 60.8674 240.731 61.6756 243.16 62.8831C246.831 64.7085 249.671 67.3488 251.68 70.804C253.723 74.2266 254.745 78.3664 254.745 83.2232H239.107C239.107 79.4095 238.276 76.5899 236.614 74.7645C234.951 72.9065 232.769 71.9775 230.068 71.9775C228.094 71.9775 226.483 72.3361 225.236 73.0532C223.989 73.7703 223.072 74.7482 222.483 75.9868C221.894 77.2255 221.6 78.6108 221.6 80.1429C221.6 81.7075 221.911 83.0765 222.535 84.25C223.158 85.3909 224.232 86.4503 225.756 87.4281C227.28 88.406 229.375 89.4002 232.042 90.4107C236.51 92.1057 240.441 93.9148 243.835 95.838C247.264 97.7612 249.931 100.108 251.836 102.879C253.775 105.649 254.745 109.17 254.745 113.44C254.745 117.678 253.689 121.296 251.576 124.295C249.463 127.261 246.537 129.526 242.796 131.091C240.161 132.17 237.217 132.869 233.964 133.188V142.923H225.6V133.175C223.77 132.984 221.952 132.664 220.145 132.215C216.993 131.401 214.118 130.08 211.521 128.255C208.958 126.43 206.897 124.018 205.339 121.019C203.815 117.987 203.053 114.255 203.053 109.822H218.742C218.742 112.071 219.054 113.962 219.677 115.494C220.301 116.993 221.132 118.199 222.171 119.112C223.21 119.992 224.37 120.627 225.652 121.019C226.968 121.377 228.319 121.556 229.704 121.556C231.782 121.556 233.514 121.214 234.899 120.53C236.285 119.845 237.306 118.9 237.964 117.694C238.657 116.455 239.004 115.07 239.004 113.538C239.004 111.745 238.657 110.246 237.964 109.039C237.306 107.801 236.233 106.709 234.743 105.764C233.254 104.786 231.245 103.857 228.717 102.977C224.18 101.314 220.197 99.554 216.768 97.696C213.339 95.8054 210.672 93.4748 208.767 90.7041C206.863 87.9334 205.91 84.3967 205.91 80.094C205.91 76.0194 206.932 72.499 208.975 69.5328C211.019 66.5339 213.876 64.2196 217.547 62.5898C220.279 61.3771 223.327 60.6156 226.691 60.3052Z" fill="#D9D9D9"/>
<path fill-rule="evenodd" clip-rule="evenodd" d="M228.9 153.261C260.303 153.261 285.761 127.803 285.761 96.3996C285.761 64.9959 260.303 39.5381 228.9 39.5381C197.496 39.5381 172.038 64.9959 172.038 96.3996C172.038 127.803 197.496 153.261 228.9 153.261ZM226.691 60.3052V49.8772H235.055V60.4587C238.029 60.8674 240.731 61.6756 243.16 62.8831C246.831 64.7085 249.671 67.3488 251.68 70.804C253.723 74.2266 254.745 78.3664 254.745 83.2232H239.107C239.107 79.4095 238.276 76.5899 236.614 74.7645C234.951 72.9065 232.769 71.9775 230.068 71.9775C228.094 71.9775 226.483 72.3361 225.236 73.0532C223.989 73.7703 223.072 74.7482 222.483 75.9868C221.894 77.2255 221.6 78.6108 221.6 80.1429C221.6 81.7075 221.911 83.0765 222.535 84.25C223.158 85.3909 224.232 86.4503 225.756 87.4281C227.28 88.406 229.375 89.4002 232.042 90.4107C236.51 92.1057 240.441 93.9148 243.835 95.838C247.264 97.7612 249.931 100.108 251.836 102.879C253.775 105.649 254.745 109.17 254.745 113.44C254.745 117.678 253.689 121.296 251.576 124.295C249.463 127.261 246.537 129.526 242.796 131.091C240.161 132.17 237.217 132.869 233.964 133.188V142.923H225.6V133.175C223.77 132.984 221.952 132.664 220.145 132.215C216.993 131.401 214.118 130.08 211.521 128.255C208.958 126.43 206.897 124.018 205.339 121.019C203.815 117.987 203.053 114.255 203.053 109.822H218.742C218.742 112.071 219.054 113.962 219.677 115.494C220.301 116.993 221.132 118.199 222.171 119.112C223.21 119.992 224.37 120.627 225.652 121.019C226.968 121.377 228.319 121.556 229.704 121.556C231.782 121.556 233.514 121.214 234.899 120.53C236.285 119.845 237.306 118.9 237.964 117.694C238.657 116.455 239.004 115.07 239.004 113.538C239.004 111.745 238.657 110.246 237.964 109.039C237.306 107.801 236.233 106.709 234.743 105.764C233.254 104.786 231.245 103.857 228.717 102.977C224.18 101.314 220.197 99.554 216.768 97.696C213.339 95.8054 210.672 93.4748 208.767 90.7041C206.863 87.9334 205.91 84.3967 205.91 80.094C205.91 76.0194 206.932 72.499 208.975 69.5328C211.019 66.5339 213.876 64.2196 217.547 62.5898C220.279 61.3771 223.327 60.6156 226.691 60.3052Z" fill="url(#paint4_linear_863_121820)"/>
</g>
</g>
<path d="M192.9 96.4004C192.9 43.3801 149.92 0.400391 96.8984 0.400391C43.88 0.400391 0.899902 43.3801 0.899902 96.4004C0.899902 149.417 43.88 192.4 96.8984 192.4C149.92 192.4 192.9 149.417 192.9 96.4004Z" fill="url(#paint5_linear_863_121820)"/>
<path d="M10.5003 96.4008C10.5003 144.119 49.1839 182.801 96.9018 182.801C144.62 182.801 183.3 144.119 183.3 96.4008C183.3 48.6823 144.62 10.0008 96.9018 10.0008C49.1838 10.0008 10.5003 48.6823 10.5003 96.4008V96.4008Z" fill="url(#paint6_linear_863_121820)"/>
<path d="M173.7 96.4006C173.7 53.9843 139.316 19.6006 96.8989 19.6006C54.4842 19.6006 20.1001 53.9843 20.1001 96.4006C20.1001 138.814 54.4842 173.201 96.8989 173.201C139.316 173.201 173.7 138.814 173.7 96.4006Z" fill="url(#paint7_linear_863_121820)"/>
<path d="M173.7 96.4006C173.7 53.9843 139.316 19.6006 96.8989 19.6006C54.4842 19.6006 20.1001 53.9843 20.1001 96.4006C20.1001 138.814 54.4842 173.201 96.8989 173.201C139.316 173.201 173.7 138.814 173.7 96.4006Z" fill="white" fill-opacity="0.64"/>
<mask id="mask1_863_121820" style="mask-type:alpha" maskUnits="userSpaceOnUse" x="29" y="29" width="136" height="135">
<path d="M164.1 96.4002C164.1 59.2883 134.012 29.2002 96.8984 29.2002C59.7876 29.2002 29.6997 59.2883 29.6997 96.4002C29.6997 133.512 59.7876 163.6 96.8984 163.6C134.012 163.6 164.1 133.512 164.1 96.4002Z" fill="url(#paint8_linear_863_121820)"/>
<path d="M164.1 96.4002C164.1 59.2883 134.012 29.2002 96.8984 29.2002C59.7876 29.2002 29.6997 59.2883 29.6997 96.4002C29.6997 133.512 59.7876 163.6 96.8984 163.6C134.012 163.6 164.1 133.512 164.1 96.4002Z" fill="white"/>
</mask>
<g mask="url(#mask1_863_121820)">
<g clip-path="url(#clip1_863_121820)">
<rect width="134.4" height="134.4" transform="translate(29.6992 29.2002)" fill="white"/>
<path d="M96.8992 163.6C134.013 163.6 164.099 133.514 164.099 96.4002C164.099 59.2867 134.013 29.2002 96.8992 29.2002C59.7857 29.2002 29.6992 59.2867 29.6992 96.4002C29.6992 133.514 59.7857 163.6 96.8992 163.6Z" fill="white"/>
<path fill-rule="evenodd" clip-rule="evenodd" d="M99.0479 54.6621L59.0991 69.2944V125.126L95.4168 138.137V81.8424L134.684 67.4014L99.0479 54.6621Z" fill="#FFC13D"/>
<path fill-rule="evenodd" clip-rule="evenodd" d="M98.3721 83.4487V113.991L134.699 126.979L134.683 70.0479L98.3721 83.4487Z" fill="#E69C00"/>
</g>
</g>
<defs>
<linearGradient id="paint0_linear_863_121820" x1="324.9" y1="0.399625" x2="115.247" y2="22.136" gradientUnits="userSpaceOnUse">
<stop stop-color="#DC42C9"/>
<stop offset="1" stop-color="#952D88"/>
</linearGradient>
<linearGradient id="paint1_linear_863_121820" x1="142.5" y1="182.801" x2="331.188" y2="163.239" gradientUnits="userSpaceOnUse">
<stop stop-color="#DC42C9"/>
<stop offset="1" stop-color="#952D88"/>
</linearGradient>
<linearGradient id="paint2_linear_863_121820" x1="305.7" y1="19.6" x2="137.978" y2="36.9891" gradientUnits="userSpaceOnUse">
<stop stop-color="#DC42C9"/>
<stop offset="1" stop-color="#952D88"/>
</linearGradient>
<linearGradient id="paint3_linear_863_121820" x1="169.606" y1="44.0237" x2="285.229" y2="147.788" gradientUnits="userSpaceOnUse">
<stop stop-color="#00E599"/>
<stop offset="1" stop-color="#00AF92"/>
</linearGradient>
<linearGradient id="paint4_linear_863_121820" x1="182.378" y1="96.3997" x2="275.423" y2="96.3997" gradientUnits="userSpaceOnUse">
<stop stop-color="#E96161"/>
<stop offset="0.2" stop-color="#E65B76"/>
<stop offset="0.61" stop-color="#DF4AAC"/>
<stop offset="1" stop-color="#D739E6"/>
</linearGradient>
<linearGradient id="paint5_linear_863_121820" x1="192.9" y1="0.399625" x2="-16.7529" y2="22.136" gradientUnits="userSpaceOnUse">
<stop stop-color="#FFC13D"/>
<stop offset="1" stop-color="#AD8329"/>
</linearGradient>
<linearGradient id="paint6_linear_863_121820" x1="10.5004" y1="182.801" x2="199.188" y2="163.239" gradientUnits="userSpaceOnUse">
<stop stop-color="#FFC13D"/>
<stop offset="1" stop-color="#AD8329"/>
</linearGradient>
<linearGradient id="paint7_linear_863_121820" x1="173.7" y1="19.6" x2="5.97783" y2="36.9891" gradientUnits="userSpaceOnUse">
<stop stop-color="#FFC13D"/>
<stop offset="1" stop-color="#AD8329"/>
</linearGradient>
<linearGradient id="paint8_linear_863_121820" x1="37.6056" y1="44.0237" x2="153.229" y2="147.788" gradientUnits="userSpaceOnUse">
<stop stop-color="#00E599"/>
<stop offset="1" stop-color="#00AF92"/>
</linearGradient>
<clipPath id="clip0_863_121820">
<rect width="134.4" height="134.4" fill="white" transform="translate(161.7 29.2002)"/>
</clipPath>
<clipPath id="clip1_863_121820">
<rect width="134.4" height="134.4" fill="white" transform="translate(29.6992 29.2002)"/>
</clipPath>
</defs>
</svg>
