<svg width="325" height="193" viewBox="0 0 325 193" fill="none" xmlns="http://www.w3.org/2000/svg">
<path d="M324.101 96.6C324.101 43.5797 281.121 0.599976 228.099 0.599976C175.081 0.599976 132.101 43.5797 132.101 96.6C132.101 149.617 175.081 192.6 228.099 192.6C281.121 192.6 324.101 149.617 324.101 96.6Z" fill="url(#paint0_linear_863_121599)"/>
<path d="M141.701 96.6C141.701 144.319 180.385 183 228.103 183C275.82 183 314.501 144.319 314.501 96.6C314.501 48.8815 275.82 10.2 228.102 10.2C180.385 10.2 141.701 48.8815 141.701 96.6V96.6Z" fill="url(#paint1_linear_863_121599)"/>
<path d="M304.901 96.5999C304.901 54.1837 270.517 19.7999 228.1 19.7999C185.685 19.7999 151.301 54.1837 151.301 96.5999C151.301 139.013 185.685 173.4 228.1 173.4C270.517 173.4 304.901 139.013 304.901 96.5999Z" fill="url(#paint2_linear_863_121599)"/>
<path d="M304.901 96.5999C304.901 54.1837 270.517 19.7999 228.1 19.7999C185.685 19.7999 151.301 54.1837 151.301 96.5999C151.301 139.013 185.685 173.4 228.1 173.4C270.517 173.4 304.901 139.013 304.901 96.5999Z" fill="white" fill-opacity="0.64"/>
<mask id="mask0_863_121599" style="mask-type:alpha" maskUnits="userSpaceOnUse" x="160" y="29" width="136" height="135">
<path d="M295.3 96.5999C295.3 59.488 265.212 29.3999 228.099 29.3999C190.988 29.3999 160.9 59.488 160.9 96.5999C160.9 133.712 190.988 163.8 228.099 163.8C265.212 163.8 295.3 133.712 295.3 96.5999Z" fill="url(#paint3_linear_863_121599)"/>
<path d="M295.3 96.5999C295.3 59.488 265.212 29.3999 228.099 29.3999C190.988 29.3999 160.9 59.488 160.9 96.5999C160.9 133.712 190.988 163.8 228.099 163.8C265.212 163.8 295.3 133.712 295.3 96.5999Z" fill="white"/>
</mask>
<g mask="url(#mask0_863_121599)">
<g clip-path="url(#clip0_863_121599)">
<rect width="134.4" height="134.4" transform="translate(160.9 29.3999)" fill="white"/>
<path d="M228.1 163.8C265.214 163.8 295.3 133.713 295.3 96.5999C295.3 59.4864 265.214 29.3999 228.1 29.3999C190.987 29.3999 160.9 59.4864 160.9 96.5999C160.9 133.713 190.987 163.8 228.1 163.8Z" fill="white"/>
<path fill-rule="evenodd" clip-rule="evenodd" d="M261.702 62.9999V130.2H248.561V86.4452L204.918 130.088L194.614 119.784L238.257 76.1412H194.502V62.9999H261.702Z" fill="#063C4F"/>
</g>
</g>
<path d="M192.1 96.6001C192.1 43.5798 149.12 0.600098 96.0986 0.600098C43.0802 0.600098 0.100098 43.5798 0.100098 96.6001C0.100098 149.617 43.0802 192.6 96.0986 192.6C149.12 192.6 192.1 149.617 192.1 96.6001Z" fill="url(#paint4_linear_863_121599)"/>
<path d="M9.70047 96.6C9.70048 144.319 48.3841 183 96.102 183C143.82 183 182.5 144.319 182.5 96.6C182.5 48.8815 143.82 10.2 96.102 10.2C48.384 10.2 9.70047 48.8815 9.70047 96.6V96.6Z" fill="url(#paint5_linear_863_121599)"/>
<path d="M172.9 96.6001C172.9 54.1838 138.516 19.8 96.0991 19.8C53.6844 19.8 19.3003 54.1838 19.3003 96.6001C19.3003 139.014 53.6844 173.4 96.0991 173.4C138.516 173.4 172.9 139.014 172.9 96.6001Z" fill="url(#paint6_linear_863_121599)"/>
<path d="M172.9 96.6001C172.9 54.1838 138.516 19.8 96.0991 19.8C53.6844 19.8 19.3003 54.1838 19.3003 96.6001C19.3003 139.014 53.6844 173.4 96.0991 173.4C138.516 173.4 172.9 139.014 172.9 96.6001Z" fill="white" fill-opacity="0.64"/>
<mask id="mask1_863_121599" style="mask-type:alpha" maskUnits="userSpaceOnUse" x="28" y="29" width="136" height="135">
<path d="M163.3 96.6C163.3 59.4881 133.212 29.4 96.0986 29.4C58.9878 29.4 28.8999 59.4881 28.8999 96.6C28.8999 133.712 58.9878 163.8 96.0986 163.8C133.212 163.8 163.3 133.712 163.3 96.6Z" fill="url(#paint7_linear_863_121599)"/>
<path d="M163.3 96.6C163.3 59.4881 133.212 29.4 96.0986 29.4C58.9878 29.4 28.8999 59.4881 28.8999 96.6C28.8999 133.712 58.9878 163.8 96.0986 163.8C133.212 163.8 163.3 133.712 163.3 96.6Z" fill="white"/>
</mask>
<g mask="url(#mask1_863_121599)">
<rect width="134.4" height="134.4" transform="translate(28.8999 29.4)" fill="white"/>
<path d="M78.2809 71.2003L77.6349 71.845L62.8346 86.6133L58.3711 91.0673C58.1359 91.4134 57.8369 91.7117 57.4901 91.9464C56.8265 92.3812 56.0169 92.5354 55.2394 92.3749C54.4619 92.2145 53.7801 91.7526 53.3437 91.0907C53.0146 90.5984 52.8426 90.0181 52.8503 89.4264V75.4199C52.972 72.129 54.3683 69.0135 56.7453 66.729C59.1223 64.4446 62.2948 63.1693 65.595 63.1715H78.2809L74.5809 66.9222L70.2935 71.2003H78.2809Z" fill="url(#paint8_linear_863_121599)"/>
<path d="M138.95 79.2876V80.2252C138.736 88.1863 135.65 95.8029 130.258 101.674L88.2647 143.577C85.9383 145.652 82.9277 146.799 79.8074 146.8C78.961 146.784 78.117 146.705 77.282 146.566L74.8153 145.804C72.1773 144.89 69.6064 143.793 67.1215 142.522L66.5929 142.229C66.366 142.059 66.1834 141.837 66.0607 141.582C65.938 141.327 65.8788 141.047 65.8882 140.764C65.8822 140.364 66.0058 139.974 66.2405 139.65L113.343 92.5908C113.572 92.3424 113.769 92.0669 113.93 91.7703C114.223 91.2092 114.459 90.6202 114.635 90.0122C114.723 89.6264 114.782 89.2346 114.811 88.8401C114.863 88.5897 114.883 88.3337 114.87 88.0782C114.87 85.9955 114.041 83.9981 112.565 82.5253C111.089 81.0526 109.087 80.2252 107 80.2252H89.7917L101.362 68.6801C101.709 68.4455 102.008 68.1471 102.243 67.8011C102.554 67.3106 102.717 66.7408 102.713 66.1601C102.713 65.3675 102.397 64.6072 101.835 64.0467C101.274 63.4862 100.512 63.1713 99.7173 63.1713H75.1677C75.1677 63.1713 77.5169 60.5927 78.4566 59.655C80.571 57.3695 83.1551 54.4392 85.9742 52.3881C91.6581 48.2164 98.5347 45.9771 105.59 46.0002C109.769 46.0054 113.91 46.7802 117.807 48.2858L119.392 48.9304C122.213 50.2255 124.841 51.9016 127.203 53.9118L127.673 54.322H127.732C131.257 57.4488 134.079 61.2847 136.013 65.5774C137.946 69.8702 138.947 74.5226 138.95 79.229V79.2876Z" fill="url(#paint9_linear_863_121599)"/>
<path d="M104.944 63.1715H75.3439L61.542 76.9436C61.2753 77.2174 61.0958 77.5639 61.0261 77.9393C60.9564 78.3148 60.9996 78.7024 61.1504 79.0534C61.3011 79.4044 61.5526 79.703 61.8731 79.9115C62.1937 80.1201 62.5689 80.2293 62.9516 80.2254H95.0188L107.411 67.8013C107.767 67.329 107.953 66.751 107.94 66.1603C107.94 65.3677 107.624 64.6074 107.062 64.0469C106.501 63.4864 105.739 63.1715 104.944 63.1715ZM92.6108 71.7278C92.1068 71.728 91.6226 71.5323 91.2607 71.1822C90.8989 70.8321 90.688 70.3551 90.6727 69.8524C90.6806 69.5003 90.7819 69.1565 90.9664 68.8562V68.8562C91.1156 68.6193 91.3163 68.419 91.5537 68.2701V68.2701C91.8511 68.0782 92.1979 67.9764 92.5521 67.9771C93.0505 67.9693 93.5317 68.1594 93.8896 68.5056C94.2476 68.8518 94.4531 69.3258 94.4609 69.8231C94.4687 70.3205 94.2781 70.8006 93.9312 71.1578C93.5842 71.515 93.1093 71.72 92.6108 71.7278Z" fill="#E35CC7"/>
<path d="M79.161 63.1715H75.1086L61.4829 76.7092C61.1894 76.9961 60.9887 77.3642 60.9069 77.766C60.8251 78.1678 60.8658 78.5849 61.0238 78.9634C61.1819 79.3419 61.45 79.6644 61.7935 79.8894C62.1371 80.1143 62.5403 80.2314 62.9512 80.2254H69.2354L86.3262 63.1715H79.161Z" fill="#8961D0"/>
<path d="M92.5532 71.7274C93.5912 71.7274 94.4326 70.8878 94.4326 69.852C94.4326 68.8163 93.5912 67.9767 92.5532 67.9767C91.5153 67.9767 90.6738 68.8163 90.6738 69.852C90.6738 70.8878 91.5153 71.7274 92.5532 71.7274Z" fill="#8961D0"/>
<path opacity="0.48" d="M92.5532 71.7274C93.5912 71.7274 94.4326 70.8878 94.4326 69.852C94.4326 68.8163 93.5912 67.9767 92.5532 67.9767C91.5153 67.9767 90.6738 68.8163 90.6738 69.852C90.6738 70.8878 91.5153 71.7274 92.5532 71.7274Z" fill="url(#paint10_linear_863_121599)"/>
<path opacity="0.48" d="M94.3729 69.852C94.3731 69.3646 94.1832 68.8963 93.8433 68.5463C93.5035 68.1962 93.0404 67.9919 92.5522 67.9767C92.2218 67.9855 91.8988 68.0757 91.6118 68.2393C91.3249 68.4029 91.083 68.6348 90.9077 68.9144C91.266 68.6048 91.726 68.4379 92.1998 68.4455C92.4389 68.4455 92.6756 68.4925 92.8965 68.5838C93.1174 68.6751 93.3181 68.8089 93.4872 68.9776C93.6563 69.1463 93.7904 69.3466 93.8819 69.567C93.9734 69.7874 94.0205 70.0237 94.0205 70.2623V70.3209C94.0319 70.6307 93.95 70.9369 93.7855 71.1999C93.9721 71.0285 94.1208 70.82 94.2219 70.5879C94.323 70.3558 94.3745 70.1051 94.3729 69.852V69.852Z" fill="#480061"/>
<path opacity="0.75" d="M104.945 63.1715H75.344L61.6009 76.9436C61.3376 77.2138 61.1591 77.5549 61.0874 77.925C61.0158 78.2951 61.0541 78.678 61.1976 79.0266C61.3411 79.3753 61.5836 79.6745 61.8952 79.8875C62.2069 80.1005 62.5741 80.2179 62.9517 80.2254H95.019L107.411 67.8013C107.767 67.329 107.953 66.751 107.94 66.1603C107.94 65.3677 107.624 64.6074 107.063 64.0469C106.501 63.4864 105.739 63.1715 104.945 63.1715ZM92.5522 71.7278C92.3054 71.7278 92.0611 71.6793 91.833 71.585C91.605 71.4908 91.3978 71.3526 91.2233 71.1785C91.0488 71.0044 90.9104 70.7976 90.8159 70.5701C90.7215 70.3426 90.6729 70.0987 90.6729 69.8524C90.6808 69.5003 90.7821 69.1565 90.9665 68.8562V68.8562C91.1157 68.6193 91.3164 68.419 91.5538 68.2701V68.2701C91.8513 68.0782 92.1981 67.9764 92.5522 67.9771C93.0404 67.9923 93.5035 68.1966 93.8434 68.5467C94.1832 68.8967 94.3732 69.365 94.3729 69.8524C94.3605 70.3359 94.1664 70.7971 93.8291 71.1444C93.4919 71.4918 93.0361 71.7 92.5522 71.7278V71.7278Z" fill="url(#paint11_linear_863_121599)"/>
<path d="M79.161 63.1715H75.1086L61.4829 76.7092C61.1894 76.9961 60.9887 77.3642 60.9069 77.766C60.8251 78.1678 60.8658 78.5849 61.0238 78.9634C61.1819 79.3419 61.45 79.6644 61.7935 79.8894C62.1371 80.1143 62.5403 80.2314 62.9512 80.2254H69.2354L86.3262 63.1715H79.161Z" fill="url(#paint12_linear_863_121599)"/>
<path opacity="0.43" d="M98.5424 80.2254L107.176 68.0942L95.0186 80.2254H98.5424Z" fill="url(#paint13_linear_863_121599)"/>
</g>
<defs>
<linearGradient id="paint0_linear_863_121599" x1="324.101" y1="0.59921" x2="114.448" y2="22.3356" gradientUnits="userSpaceOnUse">
<stop stop-color="#063C4F"/>
<stop offset="1" stop-color="#042936"/>
</linearGradient>
<linearGradient id="paint1_linear_863_121599" x1="141.701" y1="183.001" x2="330.389" y2="163.438" gradientUnits="userSpaceOnUse">
<stop stop-color="#063C4F"/>
<stop offset="1" stop-color="#042936"/>
</linearGradient>
<linearGradient id="paint2_linear_863_121599" x1="304.901" y1="19.7993" x2="137.179" y2="37.1885" gradientUnits="userSpaceOnUse">
<stop stop-color="#063C4F"/>
<stop offset="1" stop-color="#042936"/>
</linearGradient>
<linearGradient id="paint3_linear_863_121599" x1="168.806" y1="44.2234" x2="284.43" y2="147.988" gradientUnits="userSpaceOnUse">
<stop stop-color="#00E599"/>
<stop offset="1" stop-color="#00AF92"/>
</linearGradient>
<linearGradient id="paint4_linear_863_121599" x1="192.1" y1="0.599332" x2="-17.5527" y2="22.3358" gradientUnits="userSpaceOnUse">
<stop stop-color="#DC42C9"/>
<stop offset="1" stop-color="#952D88"/>
</linearGradient>
<linearGradient id="paint5_linear_863_121599" x1="9.70056" y1="183.001" x2="198.388" y2="163.438" gradientUnits="userSpaceOnUse">
<stop stop-color="#DC42C9"/>
<stop offset="1" stop-color="#952D88"/>
</linearGradient>
<linearGradient id="paint6_linear_863_121599" x1="172.9" y1="19.7994" x2="5.17803" y2="37.1886" gradientUnits="userSpaceOnUse">
<stop stop-color="#DC42C9"/>
<stop offset="1" stop-color="#952D88"/>
</linearGradient>
<linearGradient id="paint7_linear_863_121599" x1="36.8058" y1="44.2236" x2="152.429" y2="147.988" gradientUnits="userSpaceOnUse">
<stop stop-color="#00E599"/>
<stop offset="1" stop-color="#00AF92"/>
</linearGradient>
<linearGradient id="paint8_linear_863_121599" x1="52.8503" y1="77.8051" x2="78.2809" y2="77.8051" gradientUnits="userSpaceOnUse">
<stop stop-color="#4750D9"/>
<stop offset="0.41" stop-color="#5C45DC"/>
<stop offset="1" stop-color="#8131E1"/>
</linearGradient>
<linearGradient id="paint9_linear_863_121599" x1="65.8882" y1="96.4001" x2="138.95" y2="96.4001" gradientUnits="userSpaceOnUse">
<stop stop-color="#E96161"/>
<stop offset="0.2" stop-color="#E65B76"/>
<stop offset="0.61" stop-color="#DF4AAC"/>
<stop offset="1" stop-color="#D739E6"/>
</linearGradient>
<linearGradient id="paint10_linear_863_121599" x1="90.668" y1="69.852" x2="94.3856" y2="69.852" gradientUnits="userSpaceOnUse">
<stop stop-color="#B100D3"/>
<stop offset="0.23" stop-color="#9C00C0"/>
<stop offset="0.69" stop-color="#67008E"/>
<stop offset="1" stop-color="#40006A"/>
</linearGradient>
<linearGradient id="paint11_linear_863_121599" x1="61.0547" y1="71.6985" x2="107.94" y2="71.6985" gradientUnits="userSpaceOnUse">
<stop stop-color="#D0D7D3"/>
<stop offset="0.52" stop-color="#D9C5E8"/>
<stop offset="1" stop-color="#E3B1FF"/>
</linearGradient>
<linearGradient id="paint12_linear_863_121599" x1="60.9015" y1="71.6985" x2="86.3203" y2="71.6985" gradientUnits="userSpaceOnUse">
<stop stop-color="#B277EC"/>
<stop offset="0.77" stop-color="#9336E7"/>
<stop offset="1" stop-color="#8921E6"/>
</linearGradient>
<linearGradient id="paint13_linear_863_121599" x1="95.0009" y1="74.1598" x2="107.182" y2="74.1598" gradientUnits="userSpaceOnUse">
<stop stop-opacity="0.5"/>
<stop offset="0.1" stop-color="#201322" stop-opacity="0.59"/>
<stop offset="0.25" stop-color="#4A2C4E" stop-opacity="0.72"/>
<stop offset="0.4" stop-color="#6D4173" stop-opacity="0.82"/>
<stop offset="0.55" stop-color="#885190" stop-opacity="0.9"/>
<stop offset="0.7" stop-color="#9B5DA4" stop-opacity="0.95"/>
<stop offset="0.85" stop-color="#A664B0" stop-opacity="0.99"/>
<stop offset="1" stop-color="#AA66B4"/>
</linearGradient>
<clipPath id="clip0_863_121599">
<rect width="134.4" height="134.4" fill="white" transform="translate(160.9 29.3999)"/>
</clipPath>
</defs>
</svg>
