<svg width="325" height="193" viewBox="0 0 325 193" fill="none" xmlns="http://www.w3.org/2000/svg">
<g clip-path="url(#clip0_865_136)">
<path d="M324.9 96.4004C324.9 43.3801 281.92 0.400391 228.898 0.400391C175.88 0.400391 132.9 43.3801 132.9 96.4004C132.9 149.417 175.88 192.4 228.898 192.4C281.92 192.4 324.9 149.417 324.9 96.4004Z" fill="url(#paint0_linear_865_136)"/>
<path d="M142.5 96.401C142.5 144.119 181.184 182.801 228.902 182.801C276.62 182.801 315.3 144.119 315.3 96.401C315.3 48.6825 276.62 10.001 228.902 10.001C181.184 10.001 142.5 48.6825 142.5 96.401Z" fill="url(#paint1_linear_865_136)"/>
<path d="M305.7 96.4006C305.7 53.9843 271.316 19.6006 228.899 19.6006C186.484 19.6006 152.1 53.9843 152.1 96.4006C152.1 138.814 186.484 173.201 228.899 173.201C271.316 173.201 305.7 138.814 305.7 96.4006Z" fill="url(#paint2_linear_865_136)"/>
<path d="M305.7 96.4006C305.7 53.9843 271.316 19.6006 228.899 19.6006C186.484 19.6006 152.1 53.9843 152.1 96.4006C152.1 138.814 186.484 173.201 228.899 173.201C271.316 173.201 305.7 138.814 305.7 96.4006Z" fill="white" fill-opacity="0.64"/>
<mask id="mask0_865_136" style="mask-type:alpha" maskUnits="userSpaceOnUse" x="161" y="29" width="136" height="135">
<path d="M296.099 96.4012C296.099 59.2893 266.011 29.2012 228.897 29.2012C191.787 29.2012 161.699 59.2893 161.699 96.4012C161.699 133.513 191.787 163.601 228.897 163.601C266.011 163.601 296.099 133.513 296.099 96.4012Z" fill="url(#paint3_linear_865_136)"/>
<path d="M296.099 96.4012C296.099 59.2893 266.011 29.2012 228.897 29.2012C191.787 29.2012 161.699 59.2893 161.699 96.4012C161.699 133.513 191.787 163.601 228.897 163.601C266.011 163.601 296.099 133.513 296.099 96.4012Z" fill="white"/>
</mask>
<g mask="url(#mask0_865_136)">
<mask id="mask1_865_136" style="mask-type:luminance" maskUnits="userSpaceOnUse" x="161" y="29" width="136" height="135">
<path d="M296.099 29.2012H161.699V163.601H296.099V29.2012Z" fill="white"/>
</mask>
<g mask="url(#mask1_865_136)">
<path d="M296.099 29.2012H161.699V163.601H296.099V29.2012Z" fill="white"/>
<path d="M296.099 96.4012C296.099 59.2876 266.013 29.2012 228.899 29.2012C191.786 29.2012 161.699 59.2876 161.699 96.4012C161.699 133.515 191.786 163.601 228.899 163.601C266.013 163.601 296.099 133.515 296.099 96.4012Z" fill="white"/>
<path fill-rule="evenodd" clip-rule="evenodd" d="M228.899 153.262C260.302 153.262 285.76 127.804 285.76 96.4006C285.76 64.9968 260.302 39.5391 228.899 39.5391C197.495 39.5391 172.037 64.9968 172.037 96.4006C172.037 127.804 197.495 153.262 228.899 153.262ZM226.69 60.3062V49.8782H235.054V60.4597C238.028 60.8684 240.73 61.6765 243.159 62.8841C246.83 64.7095 249.67 67.3498 251.679 70.805C253.722 74.2276 254.744 78.3673 254.744 83.2242H239.106C239.106 79.4104 238.275 76.5909 236.613 74.7655C234.95 72.9075 232.768 71.9785 230.067 71.9785C228.093 71.9785 226.482 72.337 225.235 73.0541C223.988 73.7713 223.071 74.7492 222.482 75.9878C221.893 77.2265 221.599 78.6118 221.599 80.1438C221.599 81.7085 221.91 83.0775 222.534 84.251C223.157 85.3919 224.231 86.4512 225.755 87.4291C227.279 88.407 229.374 89.4012 232.041 90.4117C236.509 92.1067 240.44 93.9158 243.834 95.839C247.263 97.7622 249.93 100.109 251.835 102.88C253.774 105.65 254.744 109.171 254.744 113.441C254.744 117.678 253.688 121.297 251.575 124.296C249.462 127.262 246.536 129.527 242.795 131.092C240.16 132.171 237.216 132.87 233.963 133.189V142.924H225.599V133.176C223.769 132.985 221.951 132.665 220.144 132.216C216.992 131.402 214.117 130.081 211.52 128.256C208.957 126.431 206.896 124.018 205.338 121.02C203.814 117.988 203.052 114.256 203.052 109.823H218.741C218.741 112.072 219.053 113.963 219.676 115.495C220.3 116.994 221.131 118.2 222.17 119.113C223.209 119.993 224.369 120.628 225.651 121.02C226.967 121.378 228.318 121.557 229.703 121.557C231.781 121.557 233.513 121.215 234.898 120.531C236.284 119.846 237.305 118.901 237.963 117.695C238.656 116.456 239.003 115.071 239.003 113.539C239.003 111.746 238.656 110.247 237.963 109.04C237.305 107.802 236.232 106.71 234.742 105.765C233.253 104.787 231.244 103.858 228.716 102.978C224.179 101.315 220.196 99.555 216.767 97.697C213.338 95.8064 210.671 93.4757 208.766 90.7051C206.862 87.9344 205.909 84.3977 205.909 80.095C205.909 76.0204 206.931 72.5 208.974 69.5337C211.018 66.5349 213.875 64.2206 217.546 62.5907C220.278 61.3781 223.326 60.6166 226.69 60.3062Z" fill="#D9D9D9"/>
<path fill-rule="evenodd" clip-rule="evenodd" d="M228.899 153.262C260.302 153.262 285.76 127.804 285.76 96.4006C285.76 64.9968 260.302 39.5391 228.899 39.5391C197.495 39.5391 172.037 64.9968 172.037 96.4006C172.037 127.804 197.495 153.262 228.899 153.262ZM226.69 60.3062V49.8782H235.054V60.4597C238.028 60.8684 240.73 61.6765 243.159 62.8841C246.83 64.7095 249.67 67.3498 251.679 70.805C253.722 74.2276 254.744 78.3673 254.744 83.2242H239.106C239.106 79.4104 238.275 76.5909 236.613 74.7655C234.95 72.9075 232.768 71.9785 230.067 71.9785C228.093 71.9785 226.482 72.337 225.235 73.0541C223.988 73.7713 223.071 74.7492 222.482 75.9878C221.893 77.2265 221.599 78.6118 221.599 80.1438C221.599 81.7085 221.91 83.0775 222.534 84.251C223.157 85.3919 224.231 86.4512 225.755 87.4291C227.279 88.407 229.374 89.4012 232.041 90.4117C236.509 92.1067 240.44 93.9158 243.834 95.839C247.263 97.7622 249.93 100.109 251.835 102.88C253.774 105.65 254.744 109.171 254.744 113.441C254.744 117.678 253.688 121.297 251.575 124.296C249.462 127.262 246.536 129.527 242.795 131.092C240.16 132.171 237.216 132.87 233.963 133.189V142.924H225.599V133.176C223.769 132.985 221.951 132.665 220.144 132.216C216.992 131.402 214.117 130.081 211.52 128.256C208.957 126.431 206.896 124.018 205.338 121.02C203.814 117.988 203.052 114.256 203.052 109.823H218.741C218.741 112.072 219.053 113.963 219.676 115.495C220.3 116.994 221.131 118.2 222.17 119.113C223.209 119.993 224.369 120.628 225.651 121.02C226.967 121.378 228.318 121.557 229.703 121.557C231.781 121.557 233.513 121.215 234.898 120.531C236.284 119.846 237.305 118.901 237.963 117.695C238.656 116.456 239.003 115.071 239.003 113.539C239.003 111.746 238.656 110.247 237.963 109.04C237.305 107.802 236.232 106.71 234.742 105.765C233.253 104.787 231.244 103.858 228.716 102.978C224.179 101.315 220.196 99.555 216.767 97.697C213.338 95.8064 210.671 93.4757 208.766 90.7051C206.862 87.9344 205.909 84.3977 205.909 80.095C205.909 76.0204 206.931 72.5 208.974 69.5337C211.018 66.5349 213.875 64.2206 217.546 62.5907C220.278 61.3781 223.326 60.6166 226.69 60.3062Z" fill="url(#paint4_linear_865_136)"/>
</g>
</g>
<path d="M192 96C192 42.9797 149.02 0 95.998 0C42.98 0 0 42.9797 0 96C0 149.017 42.98 192 95.998 192C149.02 192 192 149.017 192 96Z" fill="url(#paint5_linear_865_136)"/>
<path d="M9.59961 96.0006C9.59961 143.719 48.2836 182.401 96.0016 182.401C143.72 182.401 182.4 143.719 182.4 96.0006C182.4 48.2821 143.72 9.60059 96.0016 9.60059C48.2836 9.60059 9.59961 48.2821 9.59961 96.0006Z" fill="url(#paint6_linear_865_136)"/>
<path d="M172.799 96.0002C172.799 53.5839 138.415 19.2002 95.9982 19.2002C53.5832 19.2002 19.1992 53.5839 19.1992 96.0002C19.1992 138.414 53.5832 172.801 95.9982 172.801C138.415 172.801 172.799 138.414 172.799 96.0002Z" fill="url(#paint7_linear_865_136)"/>
<path d="M172.799 96.0002C172.799 53.5839 138.415 19.2002 95.9982 19.2002C53.5832 19.2002 19.1992 53.5839 19.1992 96.0002C19.1992 138.414 53.5832 172.801 95.9982 172.801C138.415 172.801 172.799 138.414 172.799 96.0002Z" fill="white" fill-opacity="0.64"/>
<g clip-path="url(#clip1_865_136)">
<path d="M165 96C165 57.8924 134.108 27 96 27C57.8924 27 27 57.8924 27 96C27 134.108 57.8924 165 96 165C134.108 165 165 134.108 165 96Z" fill="black"/>
<mask id="mask2_865_136" style="mask-type:luminance" maskUnits="userSpaceOnUse" x="50" y="45" width="92" height="102">
<path d="M142 45.4004H50V146.6H142V45.4004Z" fill="white"/>
</mask>
<g mask="url(#mask2_865_136)">
<path d="M96 146.6L50 123.6V68.4004L96 45.4004V113.25L79.9 105.2V69.5504L63.8 77.6004V114.4L96 130.5V146.6Z" fill="white"/>
<path d="M96 45.4004L142 68.4004V123.6L96 146.6V78.7504L112.1 86.8004V122.45L128.2 114.4V77.6004L96 61.5004V45.4004Z" fill="white"/>
</g>
</g>
</g>
<defs>
<linearGradient id="paint0_linear_865_136" x1="324.9" y1="0.399624" x2="115.247" y2="22.136" gradientUnits="userSpaceOnUse">
<stop stop-color="#DC42C9"/>
<stop offset="1" stop-color="#952D88"/>
</linearGradient>
<linearGradient id="paint1_linear_865_136" x1="142.5" y1="182.801" x2="331.188" y2="163.239" gradientUnits="userSpaceOnUse">
<stop stop-color="#DC42C9"/>
<stop offset="1" stop-color="#952D88"/>
</linearGradient>
<linearGradient id="paint2_linear_865_136" x1="305.7" y1="19.6" x2="137.978" y2="36.9891" gradientUnits="userSpaceOnUse">
<stop stop-color="#DC42C9"/>
<stop offset="1" stop-color="#952D88"/>
</linearGradient>
<linearGradient id="paint3_linear_865_136" x1="169.605" y1="44.0247" x2="285.228" y2="147.789" gradientUnits="userSpaceOnUse">
<stop stop-color="#00E599"/>
<stop offset="1" stop-color="#00AF92"/>
</linearGradient>
<linearGradient id="paint4_linear_865_136" x1="182.377" y1="96.4007" x2="275.422" y2="96.4007" gradientUnits="userSpaceOnUse">
<stop stop-color="#E96161"/>
<stop offset="0.2" stop-color="#E65B76"/>
<stop offset="0.61" stop-color="#DF4AAC"/>
<stop offset="1" stop-color="#D739E6"/>
</linearGradient>
<linearGradient id="paint5_linear_865_136" x1="192" y1="-0.000766657" x2="-17.653" y2="21.7356" gradientUnits="userSpaceOnUse">
<stop stop-color="#222222"/>
<stop offset="1" stop-color="#777777"/>
</linearGradient>
<linearGradient id="paint6_linear_865_136" x1="9.59961" y1="182.401" x2="198.288" y2="162.839" gradientUnits="userSpaceOnUse">
<stop stop-color="#222222"/>
<stop offset="1" stop-color="#777777"/>
</linearGradient>
<linearGradient id="paint7_linear_865_136" x1="172.799" y1="19.1996" x2="5.07722" y2="36.5887" gradientUnits="userSpaceOnUse">
<stop stop-color="#777777"/>
<stop offset="1" stop-color="#222222"/>
</linearGradient>
<clipPath id="clip0_865_136">
<rect width="325" height="193" fill="white"/>
</clipPath>
<clipPath id="clip1_865_136">
<rect width="138" height="138" fill="white" transform="translate(27 27)"/>
</clipPath>
</defs>
</svg>
