<svg width="325" height="193" viewBox="0 0 325 193" fill="none" xmlns="http://www.w3.org/2000/svg">
<path d="M324.1 96.3999C324.1 43.3796 281.12 0.399902 228.099 0.399902C175.08 0.399902 132.1 43.3796 132.1 96.3999C132.1 149.417 175.08 192.4 228.099 192.4C281.12 192.4 324.1 149.417 324.1 96.3999Z" fill="url(#paint0_linear_863_121990)"/>
<path d="M141.7 96.3998C141.7 144.118 180.384 182.8 228.102 182.8C275.82 182.8 314.5 144.118 314.5 96.3998C314.5 48.6813 275.82 9.9998 228.102 9.99981C180.384 9.99981 141.7 48.6813 141.7 96.3998V96.3998Z" fill="url(#paint1_linear_863_121990)"/>
<path d="M304.9 96.4001C304.9 53.9839 270.516 19.6001 228.099 19.6001C185.684 19.6001 151.3 53.9839 151.3 96.4001C151.3 138.814 185.684 173.2 228.099 173.2C270.516 173.2 304.9 138.814 304.9 96.4001Z" fill="url(#paint2_linear_863_121990)"/>
<path d="M304.9 96.4001C304.9 53.9839 270.516 19.6001 228.099 19.6001C185.684 19.6001 151.3 53.9839 151.3 96.4001C151.3 138.814 185.684 173.2 228.099 173.2C270.516 173.2 304.9 138.814 304.9 96.4001Z" fill="white" fill-opacity="0.64"/>
<mask id="mask0_863_121990" style="mask-type:alpha" maskUnits="userSpaceOnUse" x="160" y="29" width="136" height="135">
<path d="M295.3 96.4002C295.3 59.2883 265.212 29.2002 228.099 29.2002C190.988 29.2002 160.9 59.2883 160.9 96.4002C160.9 133.512 190.988 163.6 228.099 163.6C265.212 163.6 295.3 133.512 295.3 96.4002Z" fill="url(#paint3_linear_863_121990)"/>
<path d="M295.3 96.4002C295.3 59.2883 265.212 29.2002 228.099 29.2002C190.988 29.2002 160.9 59.2883 160.9 96.4002C160.9 133.512 190.988 163.6 228.099 163.6C265.212 163.6 295.3 133.512 295.3 96.4002Z" fill="white"/>
</mask>
<g mask="url(#mask0_863_121990)">
<g clip-path="url(#clip0_863_121990)">
<rect width="134.4" height="134.4" transform="translate(160.9 29.2002)" fill="white"/>
<path fill-rule="evenodd" clip-rule="evenodd" d="M228.1 29.2002C265.217 29.2002 295.3 59.284 295.3 96.4002C295.3 133.516 265.217 163.6 228.1 163.6C190.984 163.6 160.9 133.516 160.9 96.4002C160.9 59.284 190.984 29.2002 228.1 29.2002Z" fill="white"/>
<path d="M194.895 96.4104L194.948 115.904L211.507 125.651V137.063L185.256 121.663V90.71L194.895 96.4104ZM194.895 76.9169V88.2763L185.25 82.57V71.2107L194.895 65.5044L204.586 71.2107L194.895 76.9169ZM218.423 71.2107L228.067 65.5044L237.758 71.2107L228.067 76.9169L218.423 71.2107Z" fill="#F0B90B"/>
<path d="M201.864 111.863V100.451L211.508 106.157V117.517L201.864 111.863ZM218.423 129.738L228.067 135.445L237.759 129.738V141.098L228.067 146.804L218.423 141.098V129.738ZM251.59 71.2107L261.234 65.5044L270.925 71.2107V82.57L261.234 88.2763V76.9169L251.59 71.2107ZM261.234 115.904L261.287 96.4104L270.931 90.7041V121.657L244.68 137.057V125.645L261.234 115.904Z" fill="#F0B90B"/>
<path d="M254.32 111.869L244.674 117.522V106.162L254.32 100.456V111.869Z" fill="#F0B90B"/>
<path d="M254.318 80.9542L254.371 92.3668L237.765 102.114V121.654L228.121 127.307L218.477 121.654V102.114L201.87 92.3668V80.9542L211.555 75.248L228.061 85.042L244.668 75.248L254.36 80.9542H254.318ZM201.864 61.4667L228.067 46.0137L254.318 61.4667L244.674 67.173L228.067 57.379L211.508 67.173L201.864 61.4667Z" fill="#F0B90B"/>
</g>
</g>
<path d="M192.1 96.3999C192.1 43.3796 149.12 0.399902 96.0986 0.399902C43.0802 0.399902 0.100098 43.3796 0.100098 96.3999C0.100098 149.417 43.0802 192.4 96.0986 192.4C149.12 192.4 192.1 149.417 192.1 96.3999Z" fill="url(#paint4_linear_863_121990)"/>
<path d="M9.70047 96.3998C9.70048 144.118 48.3841 182.8 96.102 182.8C143.82 182.8 182.5 144.118 182.5 96.3998C182.5 48.6813 143.82 9.9998 96.102 9.99981C48.384 9.99981 9.70047 48.6813 9.70047 96.3998V96.3998Z" fill="url(#paint5_linear_863_121990)"/>
<path d="M172.9 96.4001C172.9 53.9839 138.516 19.6001 96.0991 19.6001C53.6844 19.6001 19.3003 53.9839 19.3003 96.4001C19.3003 138.814 53.6844 173.2 96.0991 173.2C138.516 173.2 172.9 138.814 172.9 96.4001Z" fill="url(#paint6_linear_863_121990)"/>
<path d="M172.9 96.4001C172.9 53.9839 138.516 19.6001 96.0991 19.6001C53.6844 19.6001 19.3003 53.9839 19.3003 96.4001C19.3003 138.814 53.6844 173.2 96.0991 173.2C138.516 173.2 172.9 138.814 172.9 96.4001Z" fill="white" fill-opacity="0.64"/>
<mask id="mask1_863_121990" style="mask-type:alpha" maskUnits="userSpaceOnUse" x="28" y="29" width="136" height="135">
<path d="M163.3 96.4002C163.3 59.2883 133.212 29.2002 96.0991 29.2002C58.9883 29.2002 28.9004 59.2883 28.9004 96.4002C28.9004 133.512 58.9883 163.6 96.0991 163.6C133.212 163.6 163.3 133.512 163.3 96.4002Z" fill="url(#paint7_linear_863_121990)"/>
<path d="M163.3 96.4002C163.3 59.2883 133.212 29.2002 96.0991 29.2002C58.9883 29.2002 28.9004 59.2883 28.9004 96.4002C28.9004 133.512 58.9883 163.6 96.0991 163.6C133.212 163.6 163.3 133.512 163.3 96.4002Z" fill="white"/>
</mask>
<g mask="url(#mask1_863_121990)">
<g clip-path="url(#clip1_863_121990)">
<rect width="134.4" height="134.4" transform="translate(28.9004 29.2002)" fill="white"/>
<path d="M96.1004 163.6C133.214 163.6 163.3 133.514 163.3 96.4002C163.3 59.2867 133.214 29.2002 96.1004 29.2002C58.9869 29.2002 28.9004 59.2867 28.9004 96.4002C28.9004 133.514 58.9869 163.6 96.1004 163.6Z" fill="white"/>
<path fill-rule="evenodd" clip-rule="evenodd" d="M98.249 54.6626L58.3003 69.2949V125.127L94.618 138.138V81.8428L133.885 67.4019L98.249 54.6626Z" fill="#FFC13D"/>
<path fill-rule="evenodd" clip-rule="evenodd" d="M97.5732 83.4491V113.991L133.9 126.98L133.884 70.0483L97.5732 83.4491Z" fill="#E69C00"/>
</g>
</g>
<defs>
<linearGradient id="paint0_linear_863_121990" x1="324.1" y1="0.399137" x2="114.447" y2="22.1356" gradientUnits="userSpaceOnUse">
<stop stop-color="#F0B90B"/>
<stop offset="1" stop-color="#A37E07"/>
</linearGradient>
<linearGradient id="paint1_linear_863_121990" x1="141.701" y1="182.801" x2="330.388" y2="163.238" gradientUnits="userSpaceOnUse">
<stop stop-color="#F0B90B"/>
<stop offset="1" stop-color="#A37E07"/>
</linearGradient>
<linearGradient id="paint2_linear_863_121990" x1="304.9" y1="19.5995" x2="137.178" y2="36.9886" gradientUnits="userSpaceOnUse">
<stop stop-color="#F0B90B"/>
<stop offset="1" stop-color="#A37E07"/>
</linearGradient>
<linearGradient id="paint3_linear_863_121990" x1="168.806" y1="44.0237" x2="284.43" y2="147.788" gradientUnits="userSpaceOnUse">
<stop stop-color="#00E599"/>
<stop offset="1" stop-color="#00AF92"/>
</linearGradient>
<linearGradient id="paint4_linear_863_121990" x1="192.1" y1="0.399137" x2="-17.5527" y2="22.1356" gradientUnits="userSpaceOnUse">
<stop stop-color="#FFC13D"/>
<stop offset="1" stop-color="#AD8329"/>
</linearGradient>
<linearGradient id="paint5_linear_863_121990" x1="9.70056" y1="182.801" x2="198.388" y2="163.238" gradientUnits="userSpaceOnUse">
<stop stop-color="#FFC13D"/>
<stop offset="1" stop-color="#AD8329"/>
</linearGradient>
<linearGradient id="paint6_linear_863_121990" x1="172.9" y1="19.5995" x2="5.17803" y2="36.9886" gradientUnits="userSpaceOnUse">
<stop stop-color="#FFC13D"/>
<stop offset="1" stop-color="#AD8329"/>
</linearGradient>
<linearGradient id="paint7_linear_863_121990" x1="36.8063" y1="44.0237" x2="152.43" y2="147.788" gradientUnits="userSpaceOnUse">
<stop stop-color="#00E599"/>
<stop offset="1" stop-color="#00AF92"/>
</linearGradient>
<clipPath id="clip0_863_121990">
<rect width="134.4" height="134.4" fill="white" transform="translate(160.9 29.2002)"/>
</clipPath>
<clipPath id="clip1_863_121990">
<rect width="134.4" height="134.4" fill="white" transform="translate(28.9004 29.2002)"/>
</clipPath>
</defs>
</svg>
