<svg width="325" height="193" viewBox="0 0 325 193" fill="none" xmlns="http://www.w3.org/2000/svg">
<path d="M324 97C324 43.9797 281.02 1 227.998 1C174.98 1 132 43.9797 132 97C132 150.017 174.98 193 227.998 193C281.02 193 324 150.017 324 97Z" fill="url(#paint0_linear_904_74)"/>
<path d="M141.6 97.0006C141.6 144.719 180.284 183.401 228.002 183.401C275.72 183.401 314.4 144.719 314.4 97.0006C314.4 49.2821 275.72 10.6006 228.002 10.6006C180.284 10.6006 141.6 49.2821 141.6 97.0006Z" fill="url(#paint1_linear_904_74)"/>
<path d="M304.799 97.0002C304.799 54.5839 270.415 20.2002 227.998 20.2002C185.583 20.2002 151.199 54.5839 151.199 97.0002C151.199 139.414 185.583 173.801 227.998 173.801C270.415 173.801 304.799 139.414 304.799 97.0002Z" fill="url(#paint2_linear_904_74)"/>
<path d="M304.799 97.0002C304.799 54.5839 270.415 20.2002 227.998 20.2002C185.583 20.2002 151.199 54.5839 151.199 97.0002C151.199 139.414 185.583 173.801 227.998 173.801C270.415 173.801 304.799 139.414 304.799 97.0002Z" fill="white" fill-opacity="0.64"/>
<mask id="mask0_904_74" style="mask-type:alpha" maskUnits="userSpaceOnUse" x="160" y="29" width="136" height="136">
<path d="M295.199 97.0008C295.199 59.8889 265.111 29.8008 227.997 29.8008C190.887 29.8008 160.799 59.8889 160.799 97.0008C160.799 134.113 190.887 164.201 227.997 164.201C265.111 164.201 295.199 134.113 295.199 97.0008Z" fill="url(#paint3_linear_904_74)"/>
<path d="M295.199 97.0008C295.199 59.8889 265.111 29.8008 227.997 29.8008C190.887 29.8008 160.799 59.8889 160.799 97.0008C160.799 134.113 190.887 164.201 227.997 164.201C265.111 164.201 295.199 134.113 295.199 97.0008Z" fill="white"/>
</mask>
<g mask="url(#mask0_904_74)">
<mask id="mask1_904_74" style="mask-type:luminance" maskUnits="userSpaceOnUse" x="160" y="29" width="136" height="136">
<path d="M295.199 29.8008H160.799V164.201H295.199V29.8008Z" fill="white"/>
</mask>
<g mask="url(#mask1_904_74)">
<path d="M295.199 29.8008H160.799V164.201H295.199V29.8008Z" fill="white"/>
<path d="M295.199 97.0008C295.199 59.8872 265.112 29.8008 227.999 29.8008C190.885 29.8008 160.799 59.8872 160.799 97.0008C160.799 134.114 190.885 164.201 227.999 164.201C265.112 164.201 295.199 134.114 295.199 97.0008Z" fill="white"/>
<path fill-rule="evenodd" clip-rule="evenodd" d="M227.999 153.862C259.402 153.862 284.86 128.404 284.86 97.0002C284.86 65.5964 259.402 40.1387 227.999 40.1387C196.595 40.1387 171.137 65.5964 171.137 97.0002C171.137 128.404 196.595 153.862 227.999 153.862ZM225.79 60.9058V50.4778H234.154V61.0593C237.128 61.468 239.83 62.2761 242.259 63.4837C245.93 65.3091 248.77 67.9494 250.779 71.4046C252.822 74.8272 253.844 78.9669 253.844 83.8238H238.206C238.206 80.01 237.375 77.1905 235.713 75.3651C234.05 73.5071 231.868 72.5781 229.167 72.5781C227.193 72.5781 225.582 72.9366 224.335 73.6537C223.088 74.3709 222.171 75.3488 221.582 76.5874C220.993 77.8261 220.699 79.2114 220.699 80.7434C220.699 82.3081 221.01 83.6771 221.634 84.8506C222.257 85.9915 223.331 87.0508 224.855 88.0287C226.379 89.0066 228.474 90.0008 231.141 91.0113C235.609 92.7063 239.54 94.5154 242.934 96.4386C246.363 98.3618 249.03 100.709 250.935 103.48C252.874 106.25 253.844 109.771 253.844 114.041C253.844 118.278 252.788 121.897 250.675 124.896C248.562 127.862 245.636 130.127 241.895 131.692C239.26 132.771 236.316 133.47 233.063 133.789V143.524H224.699V133.776C222.869 133.585 221.051 133.265 219.244 132.816C216.092 132.002 213.217 130.681 210.62 128.856C208.057 127.031 205.996 124.618 204.438 121.62C202.914 118.588 202.152 114.856 202.152 110.423H217.841C217.841 112.672 218.153 114.563 218.776 116.095C219.4 117.594 220.231 118.8 221.27 119.713C222.309 120.593 223.469 121.228 224.751 121.62C226.067 121.978 227.418 122.157 228.803 122.157C230.881 122.157 232.613 121.815 233.998 121.131C235.384 120.446 236.405 119.501 237.063 118.295C237.756 117.056 238.103 115.671 238.103 114.139C238.103 112.346 237.756 110.847 237.063 109.64C236.405 108.402 235.332 107.31 233.842 106.365C232.353 105.387 230.344 104.458 227.816 103.578C223.279 101.915 219.296 100.155 215.867 98.2966C212.438 96.406 209.771 94.0753 207.866 91.3047C205.962 88.534 205.009 84.9973 205.009 80.6946C205.009 76.62 206.031 73.0996 208.074 70.1333C210.118 67.1345 212.975 64.8202 216.646 63.1903C219.378 61.9777 222.426 61.2162 225.79 60.9058Z" fill="#D9D9D9"/>
<path fill-rule="evenodd" clip-rule="evenodd" d="M227.999 153.862C259.402 153.862 284.86 128.404 284.86 97.0002C284.86 65.5964 259.402 40.1387 227.999 40.1387C196.595 40.1387 171.137 65.5964 171.137 97.0002C171.137 128.404 196.595 153.862 227.999 153.862ZM225.79 60.9058V50.4778H234.154V61.0593C237.128 61.468 239.83 62.2761 242.259 63.4837C245.93 65.3091 248.77 67.9494 250.779 71.4046C252.822 74.8272 253.844 78.9669 253.844 83.8238H238.206C238.206 80.01 237.375 77.1905 235.713 75.3651C234.05 73.5071 231.868 72.5781 229.167 72.5781C227.193 72.5781 225.582 72.9366 224.335 73.6537C223.088 74.3709 222.171 75.3488 221.582 76.5874C220.993 77.8261 220.699 79.2114 220.699 80.7434C220.699 82.3081 221.01 83.6771 221.634 84.8506C222.257 85.9915 223.331 87.0508 224.855 88.0287C226.379 89.0066 228.474 90.0008 231.141 91.0113C235.609 92.7063 239.54 94.5154 242.934 96.4386C246.363 98.3618 249.03 100.709 250.935 103.48C252.874 106.25 253.844 109.771 253.844 114.041C253.844 118.278 252.788 121.897 250.675 124.896C248.562 127.862 245.636 130.127 241.895 131.692C239.26 132.771 236.316 133.47 233.063 133.789V143.524H224.699V133.776C222.869 133.585 221.051 133.265 219.244 132.816C216.092 132.002 213.217 130.681 210.62 128.856C208.057 127.031 205.996 124.618 204.438 121.62C202.914 118.588 202.152 114.856 202.152 110.423H217.841C217.841 112.672 218.153 114.563 218.776 116.095C219.4 117.594 220.231 118.8 221.27 119.713C222.309 120.593 223.469 121.228 224.751 121.62C226.067 121.978 227.418 122.157 228.803 122.157C230.881 122.157 232.613 121.815 233.998 121.131C235.384 120.446 236.405 119.501 237.063 118.295C237.756 117.056 238.103 115.671 238.103 114.139C238.103 112.346 237.756 110.847 237.063 109.64C236.405 108.402 235.332 107.31 233.842 106.365C232.353 105.387 230.344 104.458 227.816 103.578C223.279 101.915 219.296 100.155 215.867 98.2966C212.438 96.406 209.771 94.0753 207.866 91.3047C205.962 88.534 205.009 84.9973 205.009 80.6946C205.009 76.62 206.031 73.0996 208.074 70.1333C210.118 67.1345 212.975 64.8202 216.646 63.1903C219.378 61.9777 222.426 61.2162 225.79 60.9058Z" fill="url(#paint4_linear_904_74)"/>
</g>
</g>
<g clip-path="url(#clip0_904_74)">
<path d="M192 97C192 43.9797 149.02 1 95.9985 1C42.9801 1 0 43.9797 0 97C0 150.017 42.9801 193 95.9985 193C149.02 193 192 150.017 192 97Z" fill="url(#paint5_linear_904_74)"/>
<path d="M9.59961 97.0006C9.59961 144.719 48.2831 183.4 96.0011 183.4C143.719 183.4 182.4 144.719 182.4 97.0005C182.4 49.282 143.719 10.6006 96.0011 10.6006C48.2831 10.6006 9.5996 49.282 9.59961 97.0006Z" fill="url(#paint6_linear_904_74)"/>
<path d="M172.799 97.0001C172.799 54.5839 138.415 20.2002 95.998 20.2002C53.5833 20.2002 19.1992 54.5839 19.1992 97.0001C19.1992 139.413 53.5833 173.8 95.998 173.8C138.415 173.8 172.799 139.413 172.799 97.0001Z" fill="url(#paint7_linear_904_74)"/>
<path d="M172.799 97.0001C172.799 54.5839 138.415 20.2002 95.998 20.2002C53.5833 20.2002 19.1992 54.5839 19.1992 97.0001C19.1992 139.413 53.5833 173.8 95.998 173.8C138.415 173.8 172.799 139.413 172.799 97.0001Z" fill="#161618" fill-opacity="0.64"/>
<mask id="mask2_904_74" style="mask-type:alpha" maskUnits="userSpaceOnUse" x="28" y="29" width="136" height="136">
<path d="M163.201 96.9999C163.201 59.8879 133.113 29.7998 95.9995 29.7998C58.8887 29.7998 28.8008 59.8879 28.8008 96.9999C28.8008 134.112 58.8887 164.2 95.9995 164.2C133.113 164.2 163.201 134.112 163.201 96.9999Z" fill="url(#paint8_linear_904_74)"/>
<path d="M163.201 96.9999C163.201 59.8879 133.113 29.7998 95.9995 29.7998C58.8887 29.7998 28.8008 59.8879 28.8008 96.9999C28.8008 134.112 58.8887 164.2 95.9995 164.2C133.113 164.2 163.201 134.112 163.201 96.9999Z" fill="white"/>
</mask>
<g mask="url(#mask2_904_74)">
<path d="M163.201 29.7998H28.8008V164.2H163.201V29.7998Z" fill="#161618"/>
<path d="M118.257 52.4854H96V63.6141H118.257V52.4854Z" fill="#643B9F"/>
<path d="M129.386 96.9998V85.8711H107.129V141.514H118.257V130.386H129.386V119.257H140.515V96.9998H129.386Z" fill="#643B9F"/>
<path fill-rule="evenodd" clip-rule="evenodd" d="M73.7436 52.4854H107.13V85.8714H118.258V97.0001H129.387V119.257H118.258V130.386H107.13V141.514H73.7436V130.386H62.6149V119.257H51.4863V97.0001H62.6149V85.8714H84.8722V63.6141H73.7436V52.4854ZM84.8722 119.257H107.13V97.0001H84.8722V119.257Z" fill="#865BC2"/>
</g>
</g>
<defs>
<linearGradient id="paint0_linear_904_74" x1="324" y1="0.999233" x2="114.347" y2="22.7356" gradientUnits="userSpaceOnUse">
<stop stop-color="#DC42C9"/>
<stop offset="1" stop-color="#952D88"/>
</linearGradient>
<linearGradient id="paint1_linear_904_74" x1="141.6" y1="183.401" x2="330.288" y2="163.839" gradientUnits="userSpaceOnUse">
<stop stop-color="#DC42C9"/>
<stop offset="1" stop-color="#952D88"/>
</linearGradient>
<linearGradient id="paint2_linear_904_74" x1="304.799" y1="20.1996" x2="137.077" y2="37.5887" gradientUnits="userSpaceOnUse">
<stop stop-color="#DC42C9"/>
<stop offset="1" stop-color="#952D88"/>
</linearGradient>
<linearGradient id="paint3_linear_904_74" x1="168.705" y1="44.6243" x2="284.328" y2="148.389" gradientUnits="userSpaceOnUse">
<stop stop-color="#00E599"/>
<stop offset="1" stop-color="#00AF92"/>
</linearGradient>
<linearGradient id="paint4_linear_904_74" x1="181.477" y1="97.0003" x2="274.522" y2="97.0003" gradientUnits="userSpaceOnUse">
<stop stop-color="#E96161"/>
<stop offset="0.2" stop-color="#E65B76"/>
<stop offset="0.61" stop-color="#DF4AAC"/>
<stop offset="1" stop-color="#D739E6"/>
</linearGradient>
<linearGradient id="paint5_linear_904_74" x1="192" y1="0.99923" x2="-17.6528" y2="22.7357" gradientUnits="userSpaceOnUse">
<stop stop-color="#643B9F"/>
<stop offset="1" stop-color="#44286C"/>
</linearGradient>
<linearGradient id="paint6_linear_904_74" x1="9.59969" y1="183.401" x2="198.287" y2="163.838" gradientUnits="userSpaceOnUse">
<stop stop-color="#643B9F"/>
<stop offset="1" stop-color="#44286C"/>
</linearGradient>
<linearGradient id="paint7_linear_904_74" x1="172.799" y1="20.1995" x2="5.07697" y2="37.5887" gradientUnits="userSpaceOnUse">
<stop stop-color="#643B9F"/>
<stop offset="1" stop-color="#44286C"/>
</linearGradient>
<linearGradient id="paint8_linear_904_74" x1="36.7067" y1="44.6234" x2="152.33" y2="148.388" gradientUnits="userSpaceOnUse">
<stop stop-color="#00E599"/>
<stop offset="1" stop-color="#00AF92"/>
</linearGradient>
<clipPath id="clip0_904_74">
<rect width="192" height="192" fill="white" transform="translate(0 1)"/>
</clipPath>
</defs>
</svg>
