<svg width="325" height="193" viewBox="0 0 325 193" fill="none" xmlns="http://www.w3.org/2000/svg">
<path d="M324.1 96.6001C324.1 43.5798 281.12 0.600098 228.099 0.600098C175.08 0.600098 132.1 43.5798 132.1 96.6001C132.1 149.617 175.08 192.6 228.099 192.6C281.12 192.6 324.1 149.617 324.1 96.6001Z" fill="url(#paint0_linear_863_121378)"/>
<path d="M141.7 96.6C141.7 144.319 180.384 183 228.102 183C275.82 183 314.5 144.319 314.5 96.6C314.5 48.8815 275.82 10.2 228.102 10.2C180.384 10.2 141.7 48.8815 141.7 96.6V96.6Z" fill="url(#paint1_linear_863_121378)"/>
<path d="M304.9 96.6001C304.9 54.1838 270.516 19.8 228.099 19.8C185.684 19.8 151.3 54.1838 151.3 96.6001C151.3 139.014 185.684 173.4 228.099 173.4C270.516 173.4 304.9 139.014 304.9 96.6001Z" fill="url(#paint2_linear_863_121378)"/>
<path d="M304.9 96.6001C304.9 54.1838 270.516 19.8 228.099 19.8C185.684 19.8 151.3 54.1838 151.3 96.6001C151.3 139.014 185.684 173.4 228.099 173.4C270.516 173.4 304.9 139.014 304.9 96.6001Z" fill="white" fill-opacity="0.64"/>
<mask id="mask0_863_121378" style="mask-type:alpha" maskUnits="userSpaceOnUse" x="160" y="29" width="136" height="135">
<path d="M295.3 96.5999C295.3 59.488 265.212 29.3999 228.099 29.3999C190.988 29.3999 160.9 59.488 160.9 96.5999C160.9 133.712 190.988 163.8 228.099 163.8C265.212 163.8 295.3 133.712 295.3 96.5999Z" fill="url(#paint3_linear_863_121378)"/>
<path d="M295.3 96.5999C295.3 59.488 265.212 29.3999 228.099 29.3999C190.988 29.3999 160.9 59.488 160.9 96.5999C160.9 133.712 190.988 163.8 228.099 163.8C265.212 163.8 295.3 133.712 295.3 96.5999Z" fill="white"/>
</mask>
<g mask="url(#mask0_863_121378)">
<g clip-path="url(#clip0_863_121378)">
<rect width="134.4" height="134.4" transform="translate(160.9 29.3999)" fill="white"/>
<path d="M228.1 163.8C265.213 163.8 295.3 133.713 295.3 96.5999C295.3 59.4864 265.213 29.3999 228.1 29.3999C190.986 29.3999 160.9 59.4864 160.9 96.5999C160.9 133.713 190.986 163.8 228.1 163.8Z" fill="white"/>
<g clip-path="url(#clip1_863_121378)">
<path fill-rule="evenodd" clip-rule="evenodd" d="M199.184 63.6223L182.72 97.8317C182.657 97.959 182.637 98.1027 182.663 98.2419C182.689 98.3811 182.759 98.5085 182.863 98.6054L227.331 140.754C227.457 140.874 227.625 140.941 227.8 140.941C227.975 140.941 228.144 140.874 228.27 140.754L272.738 98.608C272.842 98.5111 272.912 98.3837 272.938 98.2445C272.964 98.1053 272.944 97.9616 272.881 97.8343L256.416 63.625C256.363 63.5101 256.278 63.4128 256.17 63.3446C256.063 63.2765 255.938 63.2404 255.81 63.2408H199.796C199.668 63.2392 199.542 63.2744 199.433 63.3421C199.325 63.4098 199.238 63.5071 199.184 63.6223Z" fill="#50AF95"/>
<path fill-rule="evenodd" clip-rule="evenodd" d="M233.514 101.345C233.195 101.368 231.546 101.466 227.866 101.466C224.94 101.466 222.862 101.379 222.133 101.345C210.824 100.853 202.383 98.9053 202.383 96.5738C202.383 94.2423 210.824 92.2976 222.133 91.7976V99.4052C222.873 99.4579 224.99 99.5815 227.917 99.5815C231.428 99.5815 233.187 99.4368 233.504 99.4079V91.8029C244.789 92.3002 253.211 94.2475 253.211 96.5738C253.211 98.9 244.791 100.847 233.504 101.342L233.514 101.345ZM233.514 91.016V84.2084H249.263V73.8271H206.384V84.2084H222.131V91.0134C209.332 91.595 199.707 94.1028 199.707 97.1079C199.707 100.113 209.332 102.618 222.131 103.202V125.018H233.512V103.195C246.281 102.613 255.89 100.108 255.89 97.1053C255.89 94.1028 246.289 91.5976 233.512 91.0134L233.514 91.016Z" fill="white"/>
</g>
</g>
</g>
<path d="M192.1 96.6001C192.1 43.5798 149.12 0.600098 96.0986 0.600098C43.0802 0.600098 0.100098 43.5798 0.100098 96.6001C0.100098 149.617 43.0802 192.6 96.0986 192.6C149.12 192.6 192.1 149.617 192.1 96.6001Z" fill="url(#paint4_linear_863_121378)"/>
<path d="M9.70047 96.6C9.70048 144.319 48.3841 183 96.102 183C143.82 183 182.5 144.319 182.5 96.6C182.5 48.8815 143.82 10.2 96.102 10.2C48.384 10.2 9.70047 48.8815 9.70047 96.6V96.6Z" fill="url(#paint5_linear_863_121378)"/>
<path d="M172.9 96.6001C172.9 54.1838 138.516 19.8 96.0991 19.8C53.6844 19.8 19.3003 54.1838 19.3003 96.6001C19.3003 139.014 53.6844 173.4 96.0991 173.4C138.516 173.4 172.9 139.014 172.9 96.6001Z" fill="url(#paint6_linear_863_121378)"/>
<path d="M172.9 96.6001C172.9 54.1838 138.516 19.8 96.0991 19.8C53.6844 19.8 19.3003 54.1838 19.3003 96.6001C19.3003 139.014 53.6844 173.4 96.0991 173.4C138.516 173.4 172.9 139.014 172.9 96.6001Z" fill="white" fill-opacity="0.64"/>
<mask id="mask1_863_121378" style="mask-type:alpha" maskUnits="userSpaceOnUse" x="28" y="29" width="136" height="135">
<path d="M163.3 96.5999C163.3 59.488 133.212 29.3999 96.0986 29.3999C58.9878 29.3999 28.8999 59.488 28.8999 96.5999C28.8999 133.712 58.9878 163.8 96.0986 163.8C133.212 163.8 163.3 133.712 163.3 96.5999Z" fill="url(#paint7_linear_863_121378)"/>
<path d="M163.3 96.5999C163.3 59.488 133.212 29.3999 96.0986 29.3999C58.9878 29.3999 28.8999 59.488 28.8999 96.5999C28.8999 133.712 58.9878 163.8 96.0986 163.8C133.212 163.8 163.3 133.712 163.3 96.5999Z" fill="white"/>
</mask>
<g mask="url(#mask1_863_121378)">
<g clip-path="url(#clip2_863_121378)">
<rect width="134.4" height="134.4" transform="translate(28.8999 29.3999)" fill="white"/>
<path d="M96.0999 163.8C133.213 163.8 163.3 133.713 163.3 96.5999C163.3 59.4864 133.213 29.3999 96.0999 29.3999C58.9864 29.3999 28.8999 59.4864 28.8999 96.5999C28.8999 133.713 58.9864 163.8 96.0999 163.8Z" fill="white"/>
<path fill-rule="evenodd" clip-rule="evenodd" d="M98.2486 54.8623L58.2998 69.4946V125.327L94.6175 138.337V82.0426L133.885 67.6016L98.2486 54.8623Z" fill="#FFC13D"/>
<path fill-rule="evenodd" clip-rule="evenodd" d="M97.5728 83.6486V114.191L133.9 127.179L133.883 70.2478L97.5728 83.6486Z" fill="#E69C00"/>
</g>
</g>
<defs>
<linearGradient id="paint0_linear_863_121378" x1="324.1" y1="0.599332" x2="114.447" y2="22.3358" gradientUnits="userSpaceOnUse">
<stop stop-color="#50AF95"/>
<stop offset="1" stop-color="#367765"/>
</linearGradient>
<linearGradient id="paint1_linear_863_121378" x1="141.701" y1="183.001" x2="330.388" y2="163.438" gradientUnits="userSpaceOnUse">
<stop stop-color="#50AF95"/>
<stop offset="1" stop-color="#367765"/>
</linearGradient>
<linearGradient id="paint2_linear_863_121378" x1="304.9" y1="19.7994" x2="137.178" y2="37.1886" gradientUnits="userSpaceOnUse">
<stop stop-color="#50AF95"/>
<stop offset="1" stop-color="#367765"/>
</linearGradient>
<linearGradient id="paint3_linear_863_121378" x1="168.806" y1="44.2234" x2="284.429" y2="147.988" gradientUnits="userSpaceOnUse">
<stop stop-color="#00E599"/>
<stop offset="1" stop-color="#00AF92"/>
</linearGradient>
<linearGradient id="paint4_linear_863_121378" x1="192.1" y1="0.599332" x2="-17.5527" y2="22.3358" gradientUnits="userSpaceOnUse">
<stop stop-color="#FFC13D"/>
<stop offset="1" stop-color="#AD8329"/>
</linearGradient>
<linearGradient id="paint5_linear_863_121378" x1="9.70056" y1="183.001" x2="198.388" y2="163.438" gradientUnits="userSpaceOnUse">
<stop stop-color="#FFC13D"/>
<stop offset="1" stop-color="#AD8329"/>
</linearGradient>
<linearGradient id="paint6_linear_863_121378" x1="172.9" y1="19.7994" x2="5.17803" y2="37.1886" gradientUnits="userSpaceOnUse">
<stop stop-color="#FFC13D"/>
<stop offset="1" stop-color="#AD8329"/>
</linearGradient>
<linearGradient id="paint7_linear_863_121378" x1="36.8058" y1="44.2234" x2="152.429" y2="147.988" gradientUnits="userSpaceOnUse">
<stop stop-color="#00E599"/>
<stop offset="1" stop-color="#00AF92"/>
</linearGradient>
<clipPath id="clip0_863_121378">
<rect width="134.4" height="134.4" fill="white" transform="translate(160.9 29.3999)"/>
</clipPath>
<clipPath id="clip1_863_121378">
<rect width="90.3" height="77.7" fill="white" transform="translate(182.65 63.2407)"/>
</clipPath>
<clipPath id="clip2_863_121378">
<rect width="134.4" height="134.4" fill="white" transform="translate(28.8999 29.3999)"/>
</clipPath>
</defs>
</svg>
