<svg width="192" height="192" viewBox="0 0 192 192" fill="none" xmlns="http://www.w3.org/2000/svg">
<path d="M192 96C192 42.9797 149.02 0 95.9985 0C42.9801 0 0 42.9797 0 96C0 149.017 42.9801 192 95.9985 192C149.02 192 192 149.017 192 96Z" fill="url(#paint0_linear_863_120651)"/>
<path d="M9.60037 96C9.60038 143.719 48.284 182.4 96.0019 182.4C143.72 182.4 182.4 143.719 182.4 96C182.4 48.2815 143.72 9.60002 96.0019 9.60003C48.2839 9.60003 9.60037 48.2815 9.60037 96V96Z" fill="url(#paint1_linear_863_120651)"/>
<path d="M172.8 96C172.8 53.5837 138.416 19.2 95.999 19.2C53.5843 19.2 19.2002 53.5837 19.2002 96C19.2002 138.413 53.5843 172.8 95.999 172.8C138.416 172.8 172.8 138.413 172.8 96Z" fill="url(#paint2_linear_863_120651)"/>
<path d="M172.8 96C172.8 53.5837 138.416 19.2 95.999 19.2C53.5843 19.2 19.2002 53.5837 19.2002 96C19.2002 138.413 53.5843 172.8 95.999 172.8C138.416 172.8 172.8 138.413 172.8 96Z" fill="white" fill-opacity="0.64"/>
<mask id="mask0_863_120651" style="mask-type:alpha" maskUnits="userSpaceOnUse" x="28" y="28" width="136" height="136">
<path d="M163.2 95.9999C163.2 58.888 133.112 28.7999 95.999 28.7999C58.8882 28.7999 28.8003 58.888 28.8003 95.9999C28.8003 133.112 58.8882 163.2 95.999 163.2C133.112 163.2 163.2 133.112 163.2 95.9999Z" fill="url(#paint3_linear_863_120651)"/>
<path d="M163.2 95.9999C163.2 58.888 133.112 28.7999 95.999 28.7999C58.8882 28.7999 28.8003 58.888 28.8003 95.9999C28.8003 133.112 58.8882 163.2 95.999 163.2C133.112 163.2 163.2 133.112 163.2 95.9999Z" fill="white"/>
</mask>
<g mask="url(#mask0_863_120651)">
<g clip-path="url(#clip0_863_120651)">
<rect width="134.4" height="134.4" transform="translate(28.8008 28.7999)" fill="white"/>
<rect x="28.8013" y="28.7998" width="134.4" height="134.4" rx="67.2" fill="white"/>
<path d="M96.0012 39.1383C82.1157 39.1164 68.7059 44.1954 58.319 53.4105L58.3247 53.4162L63.4423 64.2312C69.7586 57.7575 77.8615 53.3137 86.7157 51.4675C95.5699 49.6213 104.773 50.4564 113.151 53.8663C121.528 57.2761 128.699 63.1059 133.747 70.6108C138.794 78.1157 141.491 86.9551 141.49 95.9997H127.275L142.667 128.496C149.322 118.968 152.881 107.622 152.863 95.9997C152.863 64.5951 127.406 39.1383 96.0012 39.1383Z" fill="#F936B4"/>
<path d="M96.0012 39.1383C82.1157 39.1164 68.7059 44.1954 58.319 53.4105L58.3247 53.4162L63.4423 64.2312C69.7586 57.7575 77.8615 53.3137 86.7157 51.4675C95.5699 49.6213 104.773 50.4564 113.151 53.8663C121.528 57.2761 128.699 63.1059 133.747 70.6108C138.794 78.1157 141.491 86.9551 141.49 95.9997H127.275L142.667 128.496C149.322 118.968 152.881 107.622 152.863 95.9997C152.863 64.5951 127.406 39.1383 96.0012 39.1383Z" fill="url(#paint4_linear_863_120651)"/>
<path d="M96.0012 39.1383C82.1157 39.1164 68.7059 44.1954 58.319 53.4105L58.3247 53.4162L63.4423 64.2312C69.7586 57.7575 77.8615 53.3137 86.7157 51.4675C95.5699 49.6213 104.773 50.4564 113.151 53.8663C121.528 57.2761 128.699 63.1059 133.747 70.6108C138.794 78.1157 141.491 86.9551 141.49 95.9997H127.275L142.667 128.496C149.322 118.968 152.881 107.622 152.863 95.9997C152.863 64.5951 127.406 39.1383 96.0012 39.1383Z" fill="url(#paint5_linear_863_120651)"/>
<path d="M96.0012 152.861C109.887 152.883 123.296 147.804 133.683 138.589L133.678 138.583L128.56 127.768C122.244 134.242 114.141 138.686 105.287 140.532C96.4324 142.378 87.2288 141.543 78.8516 138.133C70.4743 134.723 63.3037 128.894 58.2558 121.389C53.2079 113.884 50.5118 105.044 50.5119 95.9997H64.7273L49.3349 63.5034C42.9096 72.715 39.1396 83.9167 39.1396 95.9997C39.1396 127.404 64.5965 152.861 96.0012 152.861Z" fill="#F936B4"/>
<path d="M96.0012 152.861C109.887 152.883 123.296 147.804 133.683 138.589L133.678 138.583L128.56 127.768C122.244 134.242 114.141 138.686 105.287 140.532C96.4324 142.378 87.2288 141.543 78.8516 138.133C70.4743 134.723 63.3037 128.894 58.2558 121.389C53.2079 113.884 50.5118 105.044 50.5119 95.9997H64.7273L49.3349 63.5034C42.9096 72.715 39.1396 83.9167 39.1396 95.9997C39.1396 127.404 64.5965 152.861 96.0012 152.861Z" fill="url(#paint6_linear_863_120651)"/>
<path d="M96.0012 152.861C109.887 152.883 123.296 147.804 133.683 138.589L133.678 138.583L128.56 127.768C122.244 134.242 114.141 138.686 105.287 140.532C96.4324 142.378 87.2288 141.543 78.8516 138.133C70.4743 134.723 63.3037 128.894 58.2558 121.389C53.2079 113.884 50.5118 105.044 50.5119 95.9997H64.7273L49.3349 63.5034C42.9096 72.715 39.1396 83.9167 39.1396 95.9997C39.1396 127.404 64.5965 152.861 96.0012 152.861Z" fill="url(#paint7_linear_863_120651)"/>
<path d="M114.153 98.975C117.002 95.6628 118.633 91.3663 118.746 86.8754V86.3134C118.744 83.6586 118.215 81.0341 117.194 78.6126C116.172 76.191 114.682 74.0272 112.819 72.2634H112.788L112.54 72.032C111.292 70.8981 109.903 69.9525 108.413 69.222L107.575 68.8583C105.517 68.009 103.329 67.5719 101.121 67.569C97.3933 67.556 93.7602 68.8192 90.7572 71.1724C89.4247 72.2076 88.1914 73.6399 87.1465 74.8533L86.7854 75.2718C86.289 75.8007 85.0478 77.2553 85.0478 77.2553L80.1788 77.2553C78.4352 77.254 76.5704 77.9736 75.3145 79.2623C74.0587 80.5509 73.321 82.3084 73.2567 84.1648V92.0659C73.2526 92.3997 73.3435 92.727 73.5173 93.0047C73.7479 93.3781 74.1081 93.6387 74.5189 93.7292C74.9297 93.8197 75.3574 93.7327 75.708 93.4874C75.8912 93.355 76.0492 93.1867 76.1735 92.9915L81.9139 86.8756L101.866 86.8754C102.969 86.8754 104.026 87.3422 104.806 88.1729C105.586 89.0037 106.024 90.1305 106.024 91.3053C106.03 91.4494 106.02 91.5938 105.993 91.7351C105.977 91.9577 105.946 92.1787 105.9 92.3963C105.807 92.7393 105.682 93.0715 105.527 93.3881C105.442 93.5553 105.338 93.7108 105.217 93.8509L80.3313 120.397C80.2073 120.58 80.142 120.8 80.1452 121.025C80.1402 121.185 80.1715 121.343 80.2363 121.487C80.3011 121.631 80.3976 121.756 80.5175 121.852L80.7968 122.017C82.1096 122.734 83.4679 123.353 84.8616 123.868L86.1649 124.298C86.606 124.377 87.0519 124.421 87.4991 124.43C89.1476 124.43 90.7382 123.783 91.9674 122.612L114.153 98.975Z" fill="#F936B4"/>
<path d="M114.153 98.975C117.002 95.6628 118.633 91.3663 118.746 86.8754V86.3134C118.744 83.6586 118.215 81.0341 117.194 78.6126C116.172 76.191 114.682 74.0272 112.819 72.2634H112.788L112.54 72.032C111.292 70.8981 109.903 69.9525 108.413 69.222L107.575 68.8583C105.517 68.009 103.329 67.5719 101.121 67.569C97.3933 67.556 93.7602 68.8192 90.7572 71.1724C89.4247 72.2076 88.1914 73.6399 87.1465 74.8533L86.7854 75.2718C86.289 75.8007 85.0478 77.2553 85.0478 77.2553L80.1788 77.2553C78.4352 77.254 76.5704 77.9736 75.3145 79.2623C74.0587 80.5509 73.321 82.3084 73.2567 84.1648V92.0659C73.2526 92.3997 73.3435 92.727 73.5173 93.0047C73.7479 93.3781 74.1081 93.6387 74.5189 93.7292C74.9297 93.8197 75.3574 93.7327 75.708 93.4874C75.8912 93.355 76.0492 93.1867 76.1735 92.9915L81.9139 86.8756L101.866 86.8754C102.969 86.8754 104.026 87.3422 104.806 88.1729C105.586 89.0037 106.024 90.1305 106.024 91.3053C106.03 91.4494 106.02 91.5938 105.993 91.7351C105.977 91.9577 105.946 92.1787 105.9 92.3963C105.807 92.7393 105.682 93.0715 105.527 93.3881C105.442 93.5553 105.338 93.7108 105.217 93.8509L80.3313 120.397C80.2073 120.58 80.142 120.8 80.1452 121.025C80.1402 121.185 80.1715 121.343 80.2363 121.487C80.3011 121.631 80.3976 121.756 80.5175 121.852L80.7968 122.017C82.1096 122.734 83.4679 123.353 84.8616 123.868L86.1649 124.298C86.606 124.377 87.0519 124.421 87.4991 124.43C89.1476 124.43 90.7382 123.783 91.9674 122.612L114.153 98.975Z" fill="url(#paint8_linear_863_120651)"/>
<path d="M114.153 98.975C117.002 95.6628 118.633 91.3663 118.746 86.8754V86.3134C118.744 83.6586 118.215 81.0341 117.194 78.6126C116.172 76.191 114.682 74.0272 112.819 72.2634H112.788L112.54 72.032C111.292 70.8981 109.903 69.9525 108.413 69.222L107.575 68.8583C105.517 68.009 103.329 67.5719 101.121 67.569C97.3933 67.556 93.7602 68.8192 90.7572 71.1724C89.4247 72.2076 88.1914 73.6399 87.1465 74.8533L86.7854 75.2718C86.289 75.8007 85.0478 77.2553 85.0478 77.2553L80.1788 77.2553C78.4352 77.254 76.5704 77.9736 75.3145 79.2623C74.0587 80.5509 73.321 82.3084 73.2567 84.1648V92.0659C73.2526 92.3997 73.3435 92.727 73.5173 93.0047C73.7479 93.3781 74.1081 93.6387 74.5189 93.7292C74.9297 93.8197 75.3574 93.7327 75.708 93.4874C75.8912 93.355 76.0492 93.1867 76.1735 92.9915L81.9139 86.8756L101.866 86.8754C102.969 86.8754 104.026 87.3422 104.806 88.1729C105.586 89.0037 106.024 90.1305 106.024 91.3053C106.03 91.4494 106.02 91.5938 105.993 91.7351C105.977 91.9577 105.946 92.1787 105.9 92.3963C105.807 92.7393 105.682 93.0715 105.527 93.3881C105.442 93.5553 105.338 93.7108 105.217 93.8509L80.3313 120.397C80.2073 120.58 80.142 120.8 80.1452 121.025C80.1402 121.185 80.1715 121.343 80.2363 121.487C80.3011 121.631 80.3976 121.756 80.5175 121.852L80.7968 122.017C82.1096 122.734 83.4679 123.353 84.8616 123.868L86.1649 124.298C86.606 124.377 87.0519 124.421 87.4991 124.43C89.1476 124.43 90.7382 123.783 91.9674 122.612L114.153 98.975Z" fill="url(#paint9_linear_863_120651)"/>
</g>
</g>
<defs>
<linearGradient id="paint0_linear_863_120651" x1="192" y1="-0.000765816" x2="-17.6528" y2="21.7357" gradientUnits="userSpaceOnUse">
<stop stop-color="#DC42C9"/>
<stop offset="1" stop-color="#952D88"/>
</linearGradient>
<linearGradient id="paint1_linear_863_120651" x1="9.60046" y1="182.401" x2="198.288" y2="162.838" gradientUnits="userSpaceOnUse">
<stop stop-color="#DC42C9"/>
<stop offset="1" stop-color="#952D88"/>
</linearGradient>
<linearGradient id="paint2_linear_863_120651" x1="172.8" y1="19.1993" x2="5.07793" y2="36.5885" gradientUnits="userSpaceOnUse">
<stop stop-color="#DC42C9"/>
<stop offset="1" stop-color="#952D88"/>
</linearGradient>
<linearGradient id="paint3_linear_863_120651" x1="36.7062" y1="43.6235" x2="152.33" y2="147.388" gradientUnits="userSpaceOnUse">
<stop stop-color="#00E599"/>
<stop offset="1" stop-color="#00AF92"/>
</linearGradient>
<linearGradient id="paint4_linear_863_120651" x1="44.4962" y1="186.031" x2="156.953" y2="179.865" gradientUnits="userSpaceOnUse">
<stop stop-color="#D82699"/>
<stop offset="1" stop-color="#86009C"/>
</linearGradient>
<linearGradient id="paint5_linear_863_120651" x1="39.1411" y1="95.9998" x2="152.863" y2="95.9998" gradientUnits="userSpaceOnUse">
<stop stop-color="#E96161"/>
<stop offset="0.2" stop-color="#E65B76"/>
<stop offset="0.61" stop-color="#DF4AAC"/>
<stop offset="1" stop-color="#D739E6"/>
</linearGradient>
<linearGradient id="paint6_linear_863_120651" x1="44.4962" y1="186.031" x2="156.953" y2="179.865" gradientUnits="userSpaceOnUse">
<stop stop-color="#D82699"/>
<stop offset="1" stop-color="#86009C"/>
</linearGradient>
<linearGradient id="paint7_linear_863_120651" x1="39.1411" y1="95.9998" x2="152.863" y2="95.9998" gradientUnits="userSpaceOnUse">
<stop stop-color="#E96161"/>
<stop offset="0.2" stop-color="#E65B76"/>
<stop offset="0.61" stop-color="#DF4AAC"/>
<stop offset="1" stop-color="#D739E6"/>
</linearGradient>
<linearGradient id="paint8_linear_863_120651" x1="44.4962" y1="186.031" x2="156.953" y2="179.865" gradientUnits="userSpaceOnUse">
<stop stop-color="#D82699"/>
<stop offset="1" stop-color="#86009C"/>
</linearGradient>
<linearGradient id="paint9_linear_863_120651" x1="39.1411" y1="95.9998" x2="152.863" y2="95.9998" gradientUnits="userSpaceOnUse">
<stop stop-color="#E96161"/>
<stop offset="0.2" stop-color="#E65B76"/>
<stop offset="0.61" stop-color="#DF4AAC"/>
<stop offset="1" stop-color="#D739E6"/>
</linearGradient>
<clipPath id="clip0_863_120651">
<rect width="134.4" height="134.4" fill="white" transform="translate(28.8008 28.7999)"/>
</clipPath>
</defs>
</svg>
