<svg width="192" height="192" viewBox="0 0 192 192" fill="none" xmlns="http://www.w3.org/2000/svg" xmlns:xlink="http://www.w3.org/1999/xlink">
<g clip-path="url(#clip0_879_338)">
<path d="M192 96C192 42.9797 149.02 0 95.9985 0C42.9801 0 0 42.9797 0 96C0 149.017 42.9801 192 95.9985 192C149.02 192 192 149.017 192 96Z" fill="url(#paint0_linear_879_338)"/>
<path d="M9.59961 95.9996C9.59962 143.719 48.2832 182.4 96.0011 182.4C143.719 182.4 182.399 143.719 182.399 95.9996C182.399 48.2811 143.719 9.5996 96.0011 9.59961C48.2831 9.59961 9.59961 48.2811 9.59961 95.9996Z" fill="url(#paint1_linear_879_338)"/>
<path d="M172.801 96.0002C172.801 53.5839 138.417 19.2002 96 19.2002C53.5853 19.2002 19.2012 53.5839 19.2012 96.0002C19.2012 138.413 53.5853 172.8 96 172.8C138.417 172.8 172.801 138.413 172.801 96.0002Z" fill="url(#paint2_linear_879_338)"/>
<path d="M172.801 96.0002C172.801 53.5839 138.417 19.2002 96 19.2002C53.5853 19.2002 19.2012 53.5839 19.2012 96.0002C19.2012 138.413 53.5853 172.8 96 172.8C138.417 172.8 172.801 138.413 172.801 96.0002Z" fill="white" fill-opacity="0.64"/>
<rect x="30" y="24" width="132" height="143" fill="url(#pattern0_879_338)"/>
</g>
<defs>
<pattern id="pattern0_879_338" patternContentUnits="objectBoundingBox" width="1" height="1">
</pattern>
<linearGradient id="paint0_linear_879_338" x1="192" y1="-0.000770047" x2="-17.6528" y2="21.7357" gradientUnits="userSpaceOnUse">
<stop stop-color="#FDDE61"/>
<stop offset="1" stop-color="#D8842A"/>
</linearGradient>
<linearGradient id="paint1_linear_879_338" x1="9.5997" y1="182.401" x2="198.287" y2="162.838" gradientUnits="userSpaceOnUse">
<stop stop-color="#FDDE61"/>
<stop offset="1" stop-color="#D8842A"/>
</linearGradient>
<linearGradient id="paint2_linear_879_338" x1="172.801" y1="19.1995" x2="5.0789" y2="36.5887" gradientUnits="userSpaceOnUse">
<stop stop-color="#FDDE61"/>
<stop offset="1" stop-color="#D8842A"/>
</linearGradient>
<clipPath id="clip0_879_338">
<rect width="192" height="192" fill="white"/>
</clipPath>
</defs>
</svg>
