<svg width="325" height="193" viewBox="0 0 325 193" fill="none" xmlns="http://www.w3.org/2000/svg" xmlns:xlink="http://www.w3.org/1999/xlink">
<path d="M324.1 96.3999C324.1 43.3796 281.12 0.399902 228.099 0.399902C175.08 0.399902 132.1 43.3796 132.1 96.3999C132.1 149.417 175.08 192.4 228.099 192.4C281.12 192.4 324.1 149.417 324.1 96.3999Z" fill="url(#paint0_linear_863_122007)"/>
<path d="M141.7 96.3998C141.7 144.118 180.384 182.8 228.102 182.8C275.82 182.8 314.5 144.118 314.5 96.3998C314.5 48.6813 275.82 9.9998 228.102 9.99981C180.384 9.99981 141.7 48.6813 141.7 96.3998V96.3998Z" fill="url(#paint1_linear_863_122007)"/>
<path d="M304.9 96.4001C304.9 53.9839 270.516 19.6001 228.099 19.6001C185.684 19.6001 151.3 53.9839 151.3 96.4001C151.3 138.814 185.684 173.2 228.099 173.2C270.516 173.2 304.9 138.814 304.9 96.4001Z" fill="url(#paint2_linear_863_122007)"/>
<path d="M304.9 96.4001C304.9 53.9839 270.516 19.6001 228.099 19.6001C185.684 19.6001 151.3 53.9839 151.3 96.4001C151.3 138.814 185.684 173.2 228.099 173.2C270.516 173.2 304.9 138.814 304.9 96.4001Z" fill="white" fill-opacity="0.32"/>
<mask id="mask0_863_122007" style="mask-type:alpha" maskUnits="userSpaceOnUse" x="160" y="29" width="136" height="135">
<path d="M295.3 96.3997C295.3 59.2878 265.212 29.1997 228.099 29.1997C190.988 29.1997 160.9 59.2878 160.9 96.3997C160.9 133.512 190.988 163.6 228.099 163.6C265.212 163.6 295.3 133.512 295.3 96.3997Z" fill="url(#paint3_linear_863_122007)"/>
<path d="M295.3 96.3997C295.3 59.2878 265.212 29.1997 228.099 29.1997C190.988 29.1997 160.9 59.2878 160.9 96.3997C160.9 133.512 190.988 163.6 228.099 163.6C265.212 163.6 295.3 133.512 295.3 96.3997Z" fill="white"/>
</mask>
<g mask="url(#mask0_863_122007)">
<g clip-path="url(#clip0_863_122007)">
<rect width="134.4" height="134.4" transform="translate(160.9 29.1992)" fill="url(#pattern0)"/>
<path d="M228.1 44.1323C199.231 44.1323 175.833 67.5329 175.833 96.3973C175.833 125.262 199.231 148.666 228.1 148.666C256.969 148.666 280.367 125.263 280.367 96.3973C280.367 67.5312 256.967 44.1323 228.1 44.1323ZM226.799 138.134C203.716 138.134 184.981 119.518 184.791 96.482C184.6 73.3424 203.399 54.2604 226.538 54.1265C230.854 54.0967 235.148 54.7315 239.271 56.0088C236.332 55.2317 233.305 54.8399 230.265 54.8432C210.846 54.8364 196.26 67.704 193.766 85.8186C193.705 86.2659 193.383 91.2011 193.403 91.6484C193.657 98.4388 195.853 105.866 199.43 111.142C204.624 118.802 211.479 123.749 218.444 125.577C235.924 130.166 249.006 120.313 253.335 108.092C254.958 103.518 255.876 94.5743 251.696 87.7364C247.725 81.251 242.559 77.5491 234.172 77.5491C233.993 77.5491 233.812 77.5491 233.634 77.5593C231.303 77.6196 229.004 78.1167 226.857 79.0248H226.84C224.632 80.1292 222.754 81.7945 221.394 83.8536C220.033 85.9127 219.238 88.2933 219.087 90.7568C218.936 93.2203 219.436 95.68 220.536 97.8894C221.636 100.099 223.297 101.98 225.354 103.345C223.452 101.364 222.378 98.7321 222.352 95.9862C222.326 93.2404 223.35 90.5882 225.214 88.5717C227.078 86.5551 229.641 85.3264 232.381 85.1365C235.12 84.9466 237.829 85.81 239.953 87.5501C239.953 87.5501 239.953 87.5501 239.963 87.5501C241.225 88.5825 242.236 89.8869 242.922 91.3655C244.251 93.753 244.947 96.4413 244.943 99.1741V99.269C244.896 107.232 239.398 115.088 227.201 115.147C219.226 115.186 211.181 110.065 207.039 102.078C205.213 98.5512 204.263 94.637 204.269 90.6658C204.269 90.4608 204.269 90.2558 204.269 90.0508C204.482 81.3408 208.062 72.5274 217.968 66.8399C222.983 63.9598 229.207 62.8009 235.37 62.6044C235.743 62.5908 236.115 62.5841 236.487 62.5841C244.889 62.5841 252.35 66.6909 256.886 70.801C258.844 72.5766 261.122 74.9366 262.25 76.4462C267.179 83.0536 268.28 87.8262 269.11 95.2046C269.376 97.5765 269.088 102.434 268.602 104.672C265.684 125.019 247.95 138.134 226.799 138.134Z" fill="white"/>
</g>
</g>
<path d="M192.1 96.3999C192.1 43.3796 149.12 0.399902 96.0986 0.399902C43.0802 0.399902 0.100098 43.3796 0.100098 96.3999C0.100098 149.417 43.0802 192.4 96.0986 192.4C149.12 192.4 192.1 149.417 192.1 96.3999Z" fill="url(#paint4_linear_863_122007)"/>
<path d="M9.70047 96.3998C9.70048 144.118 48.3841 182.8 96.102 182.8C143.82 182.8 182.5 144.118 182.5 96.3998C182.5 48.6813 143.82 9.9998 96.102 9.99981C48.384 9.99981 9.70047 48.6813 9.70047 96.3998V96.3998Z" fill="url(#paint5_linear_863_122007)"/>
<path d="M172.9 96.4001C172.9 53.9839 138.516 19.6001 96.0991 19.6001C53.6844 19.6001 19.3003 53.9839 19.3003 96.4001C19.3003 138.814 53.6844 173.2 96.0991 173.2C138.516 173.2 172.9 138.814 172.9 96.4001Z" fill="url(#paint6_linear_863_122007)"/>
<path d="M172.9 96.4001C172.9 53.9839 138.516 19.6001 96.0991 19.6001C53.6844 19.6001 19.3003 53.9839 19.3003 96.4001C19.3003 138.814 53.6844 173.2 96.0991 173.2C138.516 173.2 172.9 138.814 172.9 96.4001Z" fill="white" fill-opacity="0.64"/>
<mask id="mask1_863_122007" style="mask-type:alpha" maskUnits="userSpaceOnUse" x="28" y="29" width="136" height="135">
<path d="M163.3 96.3997C163.3 59.2878 133.212 29.1997 96.0991 29.1997C58.9883 29.1997 28.9004 59.2878 28.9004 96.3997C28.9004 133.512 58.9883 163.6 96.0991 163.6C133.212 163.6 163.3 133.512 163.3 96.3997Z" fill="url(#paint7_linear_863_122007)"/>
<path d="M163.3 96.3997C163.3 59.2878 133.212 29.1997 96.0991 29.1997C58.9883 29.1997 28.9004 59.2878 28.9004 96.3997C28.9004 133.512 58.9883 163.6 96.0991 163.6C133.212 163.6 163.3 133.512 163.3 96.3997Z" fill="white"/>
</mask>
<g mask="url(#mask1_863_122007)">
<g clip-path="url(#clip1_863_122007)">
<rect width="134.4" height="134.4" transform="translate(28.9004 29.1992)" fill="white"/>
<path d="M96.1004 163.599C133.214 163.599 163.3 133.513 163.3 96.3992C163.3 59.2857 133.214 29.1992 96.1004 29.1992C58.9869 29.1992 28.9004 59.2857 28.9004 96.3992C28.9004 133.513 58.9869 163.599 96.1004 163.599Z" fill="white"/>
<path fill-rule="evenodd" clip-rule="evenodd" d="M98.249 54.6616L58.3003 69.2939V125.126L94.618 138.137V81.8419L133.885 67.4009L98.249 54.6616Z" fill="#FFC13D"/>
<path fill-rule="evenodd" clip-rule="evenodd" d="M97.5732 83.4482V113.99L133.9 126.979L133.884 70.0474L97.5732 83.4482Z" fill="#E69C00"/>
</g>
</g>
<defs>
<linearGradient id="paint0_linear_863_122007" x1="324.1" y1="0.399137" x2="114.447" y2="22.1356" gradientUnits="userSpaceOnUse">
<stop stop-color="#EF5C82"/>
<stop offset="1" stop-color="#A23E58"/>
</linearGradient>
<linearGradient id="paint1_linear_863_122007" x1="141.701" y1="182.801" x2="330.388" y2="163.238" gradientUnits="userSpaceOnUse">
<stop stop-color="#EF5C82"/>
<stop offset="1" stop-color="#A23E58"/>
</linearGradient>
<linearGradient id="paint2_linear_863_122007" x1="304.9" y1="19.5995" x2="137.178" y2="36.9886" gradientUnits="userSpaceOnUse">
<stop stop-color="#EF5C82"/>
<stop offset="1" stop-color="#A23E58"/>
</linearGradient>
<linearGradient id="paint3_linear_863_122007" x1="168.806" y1="44.0232" x2="284.43" y2="147.788" gradientUnits="userSpaceOnUse">
<stop stop-color="#00E599"/>
<stop offset="1" stop-color="#00AF92"/>
</linearGradient>
<linearGradient id="paint4_linear_863_122007" x1="192.1" y1="0.399137" x2="-17.5527" y2="22.1356" gradientUnits="userSpaceOnUse">
<stop stop-color="#FFC13D"/>
<stop offset="1" stop-color="#AD8329"/>
</linearGradient>
<linearGradient id="paint5_linear_863_122007" x1="9.70056" y1="182.801" x2="198.388" y2="163.238" gradientUnits="userSpaceOnUse">
<stop stop-color="#FFC13D"/>
<stop offset="1" stop-color="#AD8329"/>
</linearGradient>
<linearGradient id="paint6_linear_863_122007" x1="172.9" y1="19.5995" x2="5.17803" y2="36.9886" gradientUnits="userSpaceOnUse">
<stop stop-color="#FFC13D"/>
<stop offset="1" stop-color="#AD8329"/>
</linearGradient>
<linearGradient id="paint7_linear_863_122007" x1="36.8063" y1="44.0232" x2="152.43" y2="147.788" gradientUnits="userSpaceOnUse">
<stop stop-color="#00E599"/>
<stop offset="1" stop-color="#00AF92"/>
</linearGradient>
<clipPath id="clip0_863_122007">
<rect width="134.4" height="134.4" fill="white" transform="translate(160.9 29.1992)"/>
</clipPath>
<clipPath id="clip1_863_122007">
<rect width="134.4" height="134.4" fill="white" transform="translate(28.9004 29.1992)"/>
</clipPath>
</defs>
</svg>
