<svg width="325" height="193" viewBox="0 0 325 193" fill="none" xmlns="http://www.w3.org/2000/svg">
<path d="M324.101 96.3999C324.101 43.3796 281.121 0.399902 228.099 0.399902C175.081 0.399902 132.101 43.3796 132.101 96.3999C132.101 149.417 175.081 192.4 228.099 192.4C281.121 192.4 324.101 149.417 324.101 96.3999Z" fill="url(#paint0_linear_863_121871)"/>
<path d="M141.701 96.3998C141.701 144.118 180.385 182.8 228.103 182.8C275.82 182.8 314.501 144.118 314.501 96.3998C314.501 48.6813 275.82 9.9998 228.102 9.99981C180.385 9.99981 141.701 48.6813 141.701 96.3998V96.3998Z" fill="url(#paint1_linear_863_121871)"/>
<path d="M304.9 96.4001C304.9 53.9839 270.516 19.6001 228.099 19.6001C185.684 19.6001 151.3 53.9839 151.3 96.4001C151.3 138.814 185.684 173.2 228.099 173.2C270.516 173.2 304.9 138.814 304.9 96.4001Z" fill="url(#paint2_linear_863_121871)"/>
<path d="M304.9 96.4001C304.9 53.9839 270.516 19.6001 228.099 19.6001C185.684 19.6001 151.3 53.9839 151.3 96.4001C151.3 138.814 185.684 173.2 228.099 173.2C270.516 173.2 304.9 138.814 304.9 96.4001Z" fill="white" fill-opacity="0.32"/>
<mask id="mask0_863_121871" style="mask-type:alpha" maskUnits="userSpaceOnUse" x="160" y="29" width="136" height="135">
<path d="M295.3 96.3992C295.3 59.2873 265.212 29.1992 228.099 29.1992C190.988 29.1992 160.9 59.2873 160.9 96.3992C160.9 133.511 190.988 163.599 228.099 163.599C265.212 163.599 295.3 133.511 295.3 96.3992Z" fill="url(#paint3_linear_863_121871)"/>
<path d="M295.3 96.3992C295.3 59.2873 265.212 29.1992 228.099 29.1992C190.988 29.1992 160.9 59.2873 160.9 96.3992C160.9 133.511 190.988 163.599 228.099 163.599C265.212 163.599 295.3 133.511 295.3 96.3992Z" fill="white"/>
</mask>
<g mask="url(#mask0_863_121871)">
<g clip-path="url(#clip0_863_121871)">
<rect width="134.4" height="134.4" transform="translate(160.9 29.1992)" fill="white"/>
<rect width="134.4" height="134.4" transform="translate(160.9 29.1992)" fill="url(#paint4_linear_863_121871)"/>
<path fill-rule="evenodd" clip-rule="evenodd" d="M250.984 52.3466C250.113 62.3133 237.885 66.409 223.939 71.1142C203.916 77.8704 187.914 82.1676 185.391 97.3711C183.187 110.645 191.924 126.091 204.373 127.181C207.126 127.389 207.126 127.389 204.629 124.017C199.787 117.476 201.555 108.786 205.184 104.902C208.157 101.72 216.698 99.8095 225.57 108.641C230.926 113.973 233.448 117.841 235.396 123.915C237.371 130.071 235.576 138.239 230.317 143.979C228.314 146.165 228.147 146.117 233.804 144.966C259.868 139.663 264.683 114.81 246.854 96.108C240.295 89.2277 240.189 88.1902 246.047 83.9339C260.16 73.679 261.042 61.4069 252.66 51.9209C251.193 50.2603 251.193 50.2603 250.984 52.3466Z" fill="white"/>
</g>
</g>
<path d="M192.1 96.3999C192.1 43.3796 149.12 0.399902 96.0986 0.399902C43.0802 0.399902 0.100098 43.3796 0.100098 96.3999C0.100098 149.417 43.0802 192.4 96.0986 192.4C149.12 192.4 192.1 149.417 192.1 96.3999Z" fill="url(#paint5_linear_863_121871)"/>
<path d="M9.70096 96.3998C9.70096 144.118 48.3845 182.8 96.1025 182.8C143.82 182.8 182.501 144.118 182.501 96.3998C182.501 48.6813 143.82 9.9998 96.1025 9.99981C48.3845 9.99981 9.70096 48.6813 9.70096 96.3998V96.3998Z" fill="url(#paint6_linear_863_121871)"/>
<path d="M172.9 96.4001C172.9 53.9839 138.516 19.6001 96.0991 19.6001C53.6844 19.6001 19.3003 53.9839 19.3003 96.4001C19.3003 138.814 53.6844 173.2 96.0991 173.2C138.516 173.2 172.9 138.814 172.9 96.4001Z" fill="url(#paint7_linear_863_121871)"/>
<path d="M172.9 96.4001C172.9 53.9839 138.516 19.6001 96.0991 19.6001C53.6844 19.6001 19.3003 53.9839 19.3003 96.4001C19.3003 138.814 53.6844 173.2 96.0991 173.2C138.516 173.2 172.9 138.814 172.9 96.4001Z" fill="white" fill-opacity="0.64"/>
<mask id="mask1_863_121871" style="mask-type:alpha" maskUnits="userSpaceOnUse" x="28" y="29" width="136" height="135">
<path d="M163.3 96.4002C163.3 59.2883 133.212 29.2002 96.0991 29.2002C58.9883 29.2002 28.9004 59.2883 28.9004 96.4002C28.9004 133.512 58.9883 163.6 96.0991 163.6C133.212 163.6 163.3 133.512 163.3 96.4002Z" fill="url(#paint8_linear_863_121871)"/>
<path d="M163.3 96.4002C163.3 59.2883 133.212 29.2002 96.0991 29.2002C58.9883 29.2002 28.9004 59.2883 28.9004 96.4002C28.9004 133.512 58.9883 163.6 96.0991 163.6C133.212 163.6 163.3 133.512 163.3 96.4002Z" fill="white"/>
</mask>
<g mask="url(#mask1_863_121871)">
<g clip-path="url(#clip1_863_121871)">
<rect width="134.4" height="134.4" transform="translate(28.9004 29.2002)" fill="white"/>
<path d="M96.1004 163.6C133.214 163.6 163.3 133.514 163.3 96.4002C163.3 59.2867 133.214 29.2002 96.1004 29.2002C58.9869 29.2002 28.9004 59.2867 28.9004 96.4002C28.9004 133.514 58.9869 163.6 96.1004 163.6Z" fill="white"/>
<path fill-rule="evenodd" clip-rule="evenodd" d="M98.249 54.6626L58.3003 69.2949V125.127L94.618 138.138V81.8428L133.885 67.4019L98.249 54.6626Z" fill="#FFC13D"/>
<path fill-rule="evenodd" clip-rule="evenodd" d="M97.5732 83.4491V113.991L133.9 126.98L133.884 70.0483L97.5732 83.4491Z" fill="#E69C00"/>
</g>
</g>
<defs>
<linearGradient id="paint0_linear_863_121871" x1="324.101" y1="0.399137" x2="114.448" y2="22.1356" gradientUnits="userSpaceOnUse">
<stop stop-color="#9435E2"/>
<stop offset="1" stop-color="#642499"/>
</linearGradient>
<linearGradient id="paint1_linear_863_121871" x1="141.701" y1="182.801" x2="330.389" y2="163.238" gradientUnits="userSpaceOnUse">
<stop stop-color="#9435E2"/>
<stop offset="1" stop-color="#642499"/>
</linearGradient>
<linearGradient id="paint2_linear_863_121871" x1="304.9" y1="19.5995" x2="137.178" y2="36.9886" gradientUnits="userSpaceOnUse">
<stop stop-color="#9435E2"/>
<stop offset="1" stop-color="#642499"/>
</linearGradient>
<linearGradient id="paint3_linear_863_121871" x1="168.806" y1="44.0227" x2="284.43" y2="147.787" gradientUnits="userSpaceOnUse">
<stop stop-color="#00E599"/>
<stop offset="1" stop-color="#00AF92"/>
</linearGradient>
<linearGradient id="paint4_linear_863_121871" x1="15.3176" y1="21.3706" x2="116.488" y2="112.165" gradientUnits="userSpaceOnUse">
<stop stop-color="#C63BC9"/>
<stop offset="1" stop-color="#642FFA"/>
</linearGradient>
<linearGradient id="paint5_linear_863_121871" x1="192.1" y1="0.399137" x2="-17.5527" y2="22.1356" gradientUnits="userSpaceOnUse">
<stop stop-color="#FFC13D"/>
<stop offset="1" stop-color="#AD8329"/>
</linearGradient>
<linearGradient id="paint6_linear_863_121871" x1="9.70104" y1="182.801" x2="198.389" y2="163.238" gradientUnits="userSpaceOnUse">
<stop stop-color="#FFC13D"/>
<stop offset="1" stop-color="#AD8329"/>
</linearGradient>
<linearGradient id="paint7_linear_863_121871" x1="172.9" y1="19.5995" x2="5.17803" y2="36.9886" gradientUnits="userSpaceOnUse">
<stop stop-color="#FFC13D"/>
<stop offset="1" stop-color="#AD8329"/>
</linearGradient>
<linearGradient id="paint8_linear_863_121871" x1="36.8063" y1="44.0237" x2="152.43" y2="147.788" gradientUnits="userSpaceOnUse">
<stop stop-color="#00E599"/>
<stop offset="1" stop-color="#00AF92"/>
</linearGradient>
<clipPath id="clip0_863_121871">
<rect width="134.4" height="134.4" fill="white" transform="translate(160.9 29.1992)"/>
</clipPath>
<clipPath id="clip1_863_121871">
<rect width="134.4" height="134.4" fill="white" transform="translate(28.9004 29.2002)"/>
</clipPath>
</defs>
</svg>
