<svg width="325" height="193" viewBox="0 0 325 193" fill="none" xmlns="http://www.w3.org/2000/svg">
<path d="M324.101 96.6001C324.101 43.5798 281.121 0.600098 228.099 0.600098C175.081 0.600098 132.101 43.5798 132.101 96.6001C132.101 149.617 175.081 192.6 228.099 192.6C281.121 192.6 324.101 149.617 324.101 96.6001Z" fill="url(#paint0_linear_863_121667)"/>
<path d="M141.701 96.6C141.701 144.319 180.385 183 228.103 183C275.82 183 314.501 144.319 314.501 96.6C314.501 48.8815 275.82 10.2 228.102 10.2C180.385 10.2 141.701 48.8815 141.701 96.6V96.6Z" fill="url(#paint1_linear_863_121667)"/>
<path d="M304.901 96.6001C304.901 54.1838 270.517 19.8 228.1 19.8C185.685 19.8 151.301 54.1838 151.301 96.6001C151.301 139.014 185.685 173.4 228.1 173.4C270.517 173.4 304.901 139.014 304.901 96.6001Z" fill="url(#paint2_linear_863_121667)"/>
<path d="M304.901 96.6001C304.901 54.1838 270.517 19.8 228.1 19.8C185.685 19.8 151.301 54.1838 151.301 96.6001C151.301 139.014 185.685 173.4 228.1 173.4C270.517 173.4 304.901 139.014 304.901 96.6001Z" fill="white" fill-opacity="0.64"/>
<mask id="mask0_863_121667" style="mask-type:alpha" maskUnits="userSpaceOnUse" x="160" y="29" width="136" height="135">
<path d="M295.3 96.6001C295.3 59.4882 265.212 29.4001 228.099 29.4001C190.988 29.4001 160.9 59.4882 160.9 96.6001C160.9 133.712 190.988 163.8 228.099 163.8C265.212 163.8 295.3 133.712 295.3 96.6001Z" fill="url(#paint3_linear_863_121667)"/>
<path d="M295.3 96.6001C295.3 59.4882 265.212 29.4001 228.099 29.4001C190.988 29.4001 160.9 59.4882 160.9 96.6001C160.9 133.712 190.988 163.8 228.099 163.8C265.212 163.8 295.3 133.712 295.3 96.6001Z" fill="white"/>
</mask>
<g mask="url(#mask0_863_121667)">
<g clip-path="url(#clip0_863_121667)">
<rect width="134.4" height="134.4" transform="translate(160.9 29.4001)" fill="white"/>
<path d="M228.1 163.8C265.214 163.8 295.3 133.714 295.3 96.6001C295.3 59.4866 265.214 29.4001 228.1 29.4001C190.987 29.4001 160.9 59.4866 160.9 96.6001C160.9 133.714 190.987 163.8 228.1 163.8Z" fill="white"/>
<path fill-rule="evenodd" clip-rule="evenodd" d="M201.65 75.1439C201.65 75.7132 201.668 76.2727 201.704 76.8218C200.506 76.3831 199.221 76.1296 197.872 76.1296C193.437 76.1296 190.167 78.8355 188.253 81.8554C186.338 84.8757 185.387 88.6951 185.387 92.5811C185.387 96.4651 186.337 100.3 188.235 103.336C190.122 106.356 193.386 109.15 197.872 109.15C198.211 109.15 198.545 109.134 198.875 109.102C197.87 111.239 197.085 113.417 196.632 115.611C195.656 120.333 196.213 125.216 199.337 129.609C200.93 131.851 202.832 133.624 205.127 134.699C207.471 135.797 209.833 135.981 211.996 135.659C215.704 135.107 219.161 132.948 221.459 131.513C221.542 131.461 221.623 131.41 221.704 131.36C221.738 131.339 221.772 131.317 221.807 131.296C223.248 130.399 224.352 129.719 225.363 129.237C226.386 128.749 226.847 128.699 226.949 128.699C228.567 128.699 229.501 128.873 230.098 129.044C230.714 129.22 231.185 129.447 232.085 129.904L232.151 129.938C233.131 130.435 234.515 131.138 236.421 131.658C238.358 132.187 240.626 132.477 243.542 132.477C250.81 132.477 256.444 128.027 258.824 121.979C260.604 117.455 260.549 112.188 258.448 107.161C262.411 106.938 265.555 104.576 267.544 101.779C269.655 98.8113 270.812 94.9662 270.812 90.9148C270.812 86.877 269.663 82.9663 267.628 79.9265C265.648 76.9689 262.295 74.1582 257.834 74.1582C256.105 74.1582 254.528 74.5819 253.123 75.2736C253.116 74.8871 253.098 74.497 253.069 74.1037C253.026 69.7935 251.717 65.844 249.5 62.8416C247.293 59.8537 243.823 57.4016 239.599 57.4016C234.8 57.4016 231.063 60.265 228.755 63.6262C228.268 64.3371 227.826 65.0917 227.431 65.8825C227.043 65.0951 226.604 64.3399 226.119 63.627C223.9 60.3707 220.209 57.4016 215.285 57.4016C210.939 57.4016 207.429 60.0678 205.243 63.1495C202.986 66.3323 201.65 70.5374 201.65 75.1439ZM224.321 75.1438C224.321 81.3134 221.529 86.4791 215.286 86.4791C211.112 86.4791 206.908 83.0293 206.908 75.1438C206.908 67.9154 211.112 62.6585 215.286 62.6585C220.543 62.6585 224.321 68.9742 224.321 75.1438ZM197.872 103.893C202.046 103.893 206.579 98.7504 206.579 92.5811C206.579 86.4113 202.046 81.3866 197.872 81.3866C193.698 81.3866 190.644 86.4113 190.644 92.5811C190.644 98.7504 193.698 103.893 197.872 103.893ZM234.464 125.216C236.397 126.198 238.413 127.221 243.542 127.221C253.398 127.221 258.763 115.392 251.427 105.371C244.691 96.1716 236.313 87.7706 226.456 88.4504C219.228 88.9492 213.105 96.336 207.071 105.371C201.814 113.243 199.367 120.578 203.621 126.563C208.479 133.398 213.893 130.028 219.028 126.833C221.793 125.112 224.477 123.442 226.949 123.442C230.968 123.442 232.681 124.312 234.464 125.216ZM239.598 86.6434C243.772 86.6434 248.47 82.2077 247.812 74.3224C247.812 67.5869 243.772 62.6585 239.598 62.6585C234.506 62.6585 230.399 68.7368 230.399 75.9652C230.399 82.1347 235.425 86.6434 239.598 86.6434ZM265.555 90.9148C265.555 97.0841 262.007 101.921 257.834 101.921C253.66 101.921 249.784 97.0841 249.784 90.9148C249.784 84.745 253.66 79.4151 257.834 79.4151C262.007 79.4151 265.555 84.745 265.555 90.9148Z" fill="#E16B15"/>
</g>
</g>
<path d="M192.1 96.6001C192.1 43.5798 149.12 0.600098 96.0986 0.600098C43.0802 0.600098 0.100098 43.5798 0.100098 96.6001C0.100098 149.617 43.0802 192.6 96.0986 192.6C149.12 192.6 192.1 149.617 192.1 96.6001Z" fill="url(#paint4_linear_863_121667)"/>
<path d="M9.70047 96.6C9.70048 144.319 48.3841 183 96.102 183C143.82 183 182.5 144.319 182.5 96.6C182.5 48.8815 143.82 10.2 96.102 10.2C48.384 10.2 9.70047 48.8815 9.70047 96.6V96.6Z" fill="url(#paint5_linear_863_121667)"/>
<path d="M172.9 96.6001C172.9 54.1838 138.516 19.8 96.0991 19.8C53.6844 19.8 19.3003 54.1838 19.3003 96.6001C19.3003 139.014 53.6844 173.4 96.0991 173.4C138.516 173.4 172.9 139.014 172.9 96.6001Z" fill="url(#paint6_linear_863_121667)"/>
<path d="M172.9 96.6001C172.9 54.1838 138.516 19.8 96.0991 19.8C53.6844 19.8 19.3003 54.1838 19.3003 96.6001C19.3003 139.014 53.6844 173.4 96.0991 173.4C138.516 173.4 172.9 139.014 172.9 96.6001Z" fill="white" fill-opacity="0.64"/>
<mask id="mask1_863_121667" style="mask-type:alpha" maskUnits="userSpaceOnUse" x="28" y="29" width="136" height="135">
<path d="M163.3 96.6001C163.3 59.4882 133.212 29.4001 96.0986 29.4001C58.9878 29.4001 28.8999 59.4882 28.8999 96.6001C28.8999 133.712 58.9878 163.8 96.0986 163.8C133.212 163.8 163.3 133.712 163.3 96.6001Z" fill="url(#paint7_linear_863_121667)"/>
<path d="M163.3 96.6001C163.3 59.4882 133.212 29.4001 96.0986 29.4001C58.9878 29.4001 28.8999 59.4882 28.8999 96.6001C28.8999 133.712 58.9878 163.8 96.0986 163.8C133.212 163.8 163.3 133.712 163.3 96.6001Z" fill="white"/>
</mask>
<g mask="url(#mask1_863_121667)">
<rect width="134.4" height="134.4" transform="translate(28.8999 29.4001)" fill="white"/>
<path d="M78.2809 71.2005L77.6349 71.8451L62.8346 86.6135L58.3711 91.0674C58.1359 91.4135 57.8369 91.7118 57.4901 91.9465C56.8265 92.3813 56.0169 92.5355 55.2394 92.375C54.4619 92.2146 53.7801 91.7527 53.3437 91.0909C53.0146 90.5985 52.8426 90.0183 52.8503 89.4265V75.42C52.972 72.1291 54.3683 69.0136 56.7453 66.7292C59.1223 64.4447 62.2948 63.1694 65.595 63.1716H78.2809L74.5809 66.9223L70.2935 71.2005H78.2809Z" fill="url(#paint8_linear_863_121667)"/>
<path d="M138.95 79.2878V80.2255C138.736 88.1866 135.65 95.8031 130.258 101.675L88.2647 143.577C85.9383 145.652 82.9277 146.799 79.8074 146.8C78.961 146.784 78.117 146.705 77.282 146.566L74.8153 145.804C72.1773 144.89 69.6064 143.793 67.1215 142.522L66.5929 142.229C66.366 142.059 66.1834 141.838 66.0607 141.583C65.938 141.328 65.8788 141.047 65.8882 140.764C65.8822 140.365 66.0058 139.974 66.2405 139.65L113.343 92.591C113.572 92.3427 113.769 92.0671 113.93 91.7706C114.223 91.2094 114.459 90.6205 114.635 90.0124C114.723 89.6266 114.782 89.2349 114.811 88.8403C114.863 88.5899 114.883 88.3339 114.87 88.0785C114.87 85.9957 114.041 83.9983 112.565 82.5256C111.089 81.0528 109.087 80.2255 107 80.2255H89.7917L101.362 68.6804C101.709 68.4457 102.008 68.1474 102.243 67.8013C102.554 67.3108 102.717 66.7411 102.713 66.1604C102.713 65.3677 102.397 64.6075 101.835 64.047C101.274 63.4864 100.512 63.1716 99.7173 63.1716H75.1677C75.1677 63.1716 77.5169 60.593 78.4566 59.6553C80.571 57.3697 83.1551 54.4395 85.9742 52.3883C91.6581 48.2167 98.5347 45.9774 105.59 46.0004C109.769 46.0056 113.91 46.7804 117.807 48.286L119.392 48.9306C122.213 50.2257 124.841 51.9019 127.203 53.912L127.673 54.3223H127.732C131.257 57.4491 134.079 61.2849 136.013 65.5777C137.946 69.8704 138.947 74.5229 138.95 79.2292V79.2878Z" fill="url(#paint9_linear_863_121667)"/>
<path d="M104.944 63.1716H75.3439L61.542 76.9437C61.2753 77.2175 61.0958 77.564 61.0261 77.9394C60.9564 78.3149 60.9996 78.7026 61.1504 79.0535C61.3011 79.4045 61.5526 79.7031 61.8731 79.9117C62.1937 80.1202 62.5689 80.2295 62.9516 80.2256H95.0188L107.411 67.8014C107.767 67.3291 107.953 66.7511 107.94 66.1605C107.94 65.3678 107.624 64.6076 107.062 64.047C106.501 63.4865 105.739 63.1716 104.944 63.1716ZM92.6108 71.7279C92.1068 71.7281 91.6226 71.5324 91.2607 71.1823C90.8989 70.8322 90.688 70.3552 90.6727 69.8526C90.6806 69.5004 90.7819 69.1566 90.9664 68.8563V68.8563C91.1156 68.6194 91.3163 68.4191 91.5537 68.2702V68.2702C91.8511 68.0783 92.1979 67.9765 92.5521 67.9772C93.0505 67.9694 93.5317 68.1596 93.8896 68.5058C94.2476 68.852 94.4531 69.3259 94.4609 69.8232C94.4687 70.3206 94.2781 70.8007 93.9312 71.1579C93.5842 71.5151 93.1093 71.7201 92.6108 71.7279Z" fill="#E35CC7"/>
<path d="M79.161 63.1716H75.1086L61.4829 76.7093C61.1894 76.9962 60.9887 77.3643 60.9069 77.7661C60.8251 78.168 60.8658 78.585 61.0238 78.9635C61.1819 79.342 61.45 79.6645 61.7935 79.8895C62.1371 80.1145 62.5403 80.2315 62.9512 80.2256H69.2354L86.3262 63.1716H79.161Z" fill="#8961D0"/>
<path d="M92.5532 71.7277C93.5912 71.7277 94.4326 70.8881 94.4326 69.8524C94.4326 68.8167 93.5912 67.9771 92.5532 67.9771C91.5153 67.9771 90.6738 68.8167 90.6738 69.8524C90.6738 70.8881 91.5153 71.7277 92.5532 71.7277Z" fill="#8961D0"/>
<path opacity="0.48" d="M92.5532 71.7277C93.5912 71.7277 94.4326 70.8881 94.4326 69.8524C94.4326 68.8167 93.5912 67.9771 92.5532 67.9771C91.5153 67.9771 90.6738 68.8167 90.6738 69.8524C90.6738 70.8881 91.5153 71.7277 92.5532 71.7277Z" fill="url(#paint10_linear_863_121667)"/>
<path opacity="0.48" d="M94.3729 69.8524C94.3731 69.365 94.1832 68.8967 93.8433 68.5466C93.5035 68.1966 93.0404 67.9923 92.5522 67.9771C92.2218 67.9858 91.8988 68.076 91.6118 68.2396C91.3249 68.4033 91.083 68.6352 90.9077 68.9147C91.266 68.6052 91.726 68.4383 92.1998 68.4459C92.4389 68.4459 92.6756 68.4929 92.8965 68.5842C93.1174 68.6755 93.3181 68.8093 93.4872 68.978C93.6563 69.1467 93.7904 69.347 93.8819 69.5674C93.9734 69.7878 94.0205 70.024 94.0205 70.2626V70.3212C94.0319 70.6311 93.95 70.9372 93.7855 71.2003C93.9721 71.0288 94.1208 70.8204 94.2219 70.5883C94.323 70.3561 94.3745 70.1055 94.3729 69.8524V69.8524Z" fill="#480061"/>
<path opacity="0.75" d="M104.945 63.1716H75.344L61.6009 76.9437C61.3376 77.2139 61.1591 77.555 61.0874 77.9251C61.0158 78.2952 61.0541 78.6781 61.1976 79.0267C61.3411 79.3754 61.5836 79.6746 61.8952 79.8876C62.2069 80.1006 62.5741 80.218 62.9517 80.2256H95.019L107.411 67.8014C107.767 67.3291 107.953 66.7511 107.94 66.1605C107.94 65.3678 107.624 64.6076 107.063 64.047C106.501 63.4865 105.739 63.1716 104.945 63.1716ZM92.5522 71.7279C92.3054 71.7279 92.0611 71.6794 91.833 71.5851C91.605 71.4909 91.3978 71.3528 91.2233 71.1786C91.0488 71.0045 90.9104 70.7977 90.8159 70.5702C90.7215 70.3427 90.6729 70.0988 90.6729 69.8526C90.6808 69.5004 90.7821 69.1566 90.9665 68.8563V68.8563C91.1157 68.6194 91.3164 68.4191 91.5538 68.2702V68.2702C91.8513 68.0783 92.1981 67.9765 92.5522 67.9772C93.0404 67.9924 93.5035 68.1967 93.8434 68.5468C94.1832 68.8968 94.3732 69.3652 94.3729 69.8526C94.3605 70.336 94.1664 70.7972 93.8291 71.1445C93.4919 71.4919 93.0361 71.7001 92.5522 71.7279V71.7279Z" fill="url(#paint11_linear_863_121667)"/>
<path d="M79.161 63.1716H75.1086L61.4829 76.7093C61.1894 76.9962 60.9887 77.3643 60.9069 77.7661C60.8251 78.168 60.8658 78.585 61.0238 78.9635C61.1819 79.342 61.45 79.6645 61.7935 79.8895C62.1371 80.1145 62.5403 80.2315 62.9512 80.2256H69.2354L86.3262 63.1716H79.161Z" fill="url(#paint12_linear_863_121667)"/>
<path opacity="0.43" d="M98.5424 80.2254L107.176 68.0942L95.0186 80.2254H98.5424Z" fill="url(#paint13_linear_863_121667)"/>
</g>
<defs>
<linearGradient id="paint0_linear_863_121667" x1="324.101" y1="0.599332" x2="114.448" y2="22.3358" gradientUnits="userSpaceOnUse">
<stop stop-color="#E16B15"/>
<stop offset="1" stop-color="#99490E"/>
</linearGradient>
<linearGradient id="paint1_linear_863_121667" x1="141.701" y1="183.001" x2="330.389" y2="163.438" gradientUnits="userSpaceOnUse">
<stop stop-color="#E16B15"/>
<stop offset="1" stop-color="#99490E"/>
</linearGradient>
<linearGradient id="paint2_linear_863_121667" x1="304.901" y1="19.7994" x2="137.179" y2="37.1886" gradientUnits="userSpaceOnUse">
<stop stop-color="#E16B15"/>
<stop offset="1" stop-color="#99490E"/>
</linearGradient>
<linearGradient id="paint3_linear_863_121667" x1="168.806" y1="44.2237" x2="284.43" y2="147.988" gradientUnits="userSpaceOnUse">
<stop stop-color="#00E599"/>
<stop offset="1" stop-color="#00AF92"/>
</linearGradient>
<linearGradient id="paint4_linear_863_121667" x1="192.1" y1="0.599332" x2="-17.5527" y2="22.3358" gradientUnits="userSpaceOnUse">
<stop stop-color="#DC42C9"/>
<stop offset="1" stop-color="#952D88"/>
</linearGradient>
<linearGradient id="paint5_linear_863_121667" x1="9.70056" y1="183.001" x2="198.388" y2="163.438" gradientUnits="userSpaceOnUse">
<stop stop-color="#DC42C9"/>
<stop offset="1" stop-color="#952D88"/>
</linearGradient>
<linearGradient id="paint6_linear_863_121667" x1="172.9" y1="19.7994" x2="5.17803" y2="37.1886" gradientUnits="userSpaceOnUse">
<stop stop-color="#DC42C9"/>
<stop offset="1" stop-color="#952D88"/>
</linearGradient>
<linearGradient id="paint7_linear_863_121667" x1="36.8058" y1="44.2237" x2="152.429" y2="147.988" gradientUnits="userSpaceOnUse">
<stop stop-color="#00E599"/>
<stop offset="1" stop-color="#00AF92"/>
</linearGradient>
<linearGradient id="paint8_linear_863_121667" x1="52.8503" y1="77.8052" x2="78.2809" y2="77.8052" gradientUnits="userSpaceOnUse">
<stop stop-color="#4750D9"/>
<stop offset="0.41" stop-color="#5C45DC"/>
<stop offset="1" stop-color="#8131E1"/>
</linearGradient>
<linearGradient id="paint9_linear_863_121667" x1="65.8882" y1="96.4003" x2="138.95" y2="96.4003" gradientUnits="userSpaceOnUse">
<stop stop-color="#E96161"/>
<stop offset="0.2" stop-color="#E65B76"/>
<stop offset="0.61" stop-color="#DF4AAC"/>
<stop offset="1" stop-color="#D739E6"/>
</linearGradient>
<linearGradient id="paint10_linear_863_121667" x1="90.668" y1="69.8524" x2="94.3856" y2="69.8524" gradientUnits="userSpaceOnUse">
<stop stop-color="#B100D3"/>
<stop offset="0.23" stop-color="#9C00C0"/>
<stop offset="0.69" stop-color="#67008E"/>
<stop offset="1" stop-color="#40006A"/>
</linearGradient>
<linearGradient id="paint11_linear_863_121667" x1="61.0547" y1="71.6986" x2="107.94" y2="71.6986" gradientUnits="userSpaceOnUse">
<stop stop-color="#D0D7D3"/>
<stop offset="0.52" stop-color="#D9C5E8"/>
<stop offset="1" stop-color="#E3B1FF"/>
</linearGradient>
<linearGradient id="paint12_linear_863_121667" x1="60.9015" y1="71.6986" x2="86.3203" y2="71.6986" gradientUnits="userSpaceOnUse">
<stop stop-color="#B277EC"/>
<stop offset="0.77" stop-color="#9336E7"/>
<stop offset="1" stop-color="#8921E6"/>
</linearGradient>
<linearGradient id="paint13_linear_863_121667" x1="95.0009" y1="74.1598" x2="107.182" y2="74.1598" gradientUnits="userSpaceOnUse">
<stop stop-opacity="0.5"/>
<stop offset="0.1" stop-color="#201322" stop-opacity="0.59"/>
<stop offset="0.25" stop-color="#4A2C4E" stop-opacity="0.72"/>
<stop offset="0.4" stop-color="#6D4173" stop-opacity="0.82"/>
<stop offset="0.55" stop-color="#885190" stop-opacity="0.9"/>
<stop offset="0.7" stop-color="#9B5DA4" stop-opacity="0.95"/>
<stop offset="0.85" stop-color="#A664B0" stop-opacity="0.99"/>
<stop offset="1" stop-color="#AA66B4"/>
</linearGradient>
<clipPath id="clip0_863_121667">
<rect width="134.4" height="134.4" fill="white" transform="translate(160.9 29.4001)"/>
</clipPath>
</defs>
</svg>
