<svg width="325" height="193" viewBox="0 0 325 193" fill="none" xmlns="http://www.w3.org/2000/svg">
<path d="M324.1 96.3999C324.1 43.3796 281.12 0.399902 228.099 0.399902C175.08 0.399902 132.1 43.3796 132.1 96.3999C132.1 149.417 175.08 192.4 228.099 192.4C281.12 192.4 324.1 149.417 324.1 96.3999Z" fill="url(#paint0_linear_863_121752)"/>
<path d="M141.7 96.3998C141.7 144.118 180.384 182.8 228.102 182.8C275.82 182.8 314.5 144.118 314.5 96.3998C314.5 48.6813 275.82 9.9998 228.102 9.99981C180.384 9.99981 141.7 48.6813 141.7 96.3998V96.3998Z" fill="url(#paint1_linear_863_121752)"/>
<path d="M304.9 96.4001C304.9 53.9839 270.516 19.6001 228.099 19.6001C185.684 19.6001 151.3 53.9839 151.3 96.4001C151.3 138.814 185.684 173.2 228.099 173.2C270.516 173.2 304.9 138.814 304.9 96.4001Z" fill="url(#paint2_linear_863_121752)"/>
<path d="M304.9 96.4001C304.9 53.9839 270.516 19.6001 228.099 19.6001C185.684 19.6001 151.3 53.9839 151.3 96.4001C151.3 138.814 185.684 173.2 228.099 173.2C270.516 173.2 304.9 138.814 304.9 96.4001Z" fill="white" fill-opacity="0.64"/>
<mask id="mask0_863_121752" style="mask-type:alpha" maskUnits="userSpaceOnUse" x="160" y="29" width="136" height="135">
<path d="M295.3 96.3997C295.3 59.2878 265.212 29.1997 228.099 29.1997C190.988 29.1997 160.9 59.2878 160.9 96.3997C160.9 133.512 190.988 163.6 228.099 163.6C265.212 163.6 295.3 133.512 295.3 96.3997Z" fill="url(#paint3_linear_863_121752)"/>
<path d="M295.3 96.3997C295.3 59.2878 265.212 29.1997 228.099 29.1997C190.988 29.1997 160.9 59.2878 160.9 96.3997C160.9 133.512 190.988 163.6 228.099 163.6C265.212 163.6 295.3 133.512 295.3 96.3997Z" fill="white"/>
</mask>
<g mask="url(#mask0_863_121752)">
<g clip-path="url(#clip0_863_121752)">
<rect width="134.4" height="134.4" transform="translate(160.9 29.1992)" fill="white"/>
<path d="M228.1 163.599C265.214 163.599 295.3 133.513 295.3 96.3992C295.3 59.2857 265.214 29.1992 228.1 29.1992C190.987 29.1992 160.9 59.2857 160.9 96.3992C160.9 133.513 190.987 163.599 228.1 163.599Z" fill="white"/>
<path fill-rule="evenodd" clip-rule="evenodd" d="M201.704 76.6194C201.668 76.0703 201.65 75.5108 201.65 74.9415C201.65 70.3351 202.986 66.1299 205.243 62.9471C207.429 59.8654 210.939 57.1992 215.286 57.1992C220.209 57.1992 223.899 60.1683 226.119 63.4246C226.605 64.1375 227.043 64.8927 227.431 65.6801C227.825 64.8893 228.267 64.1347 228.755 63.4238C231.063 60.0626 234.801 57.1992 239.599 57.1992C243.823 57.1992 247.293 59.6513 249.5 62.6392C251.717 65.6416 253.026 69.5911 253.069 73.9013C253.098 74.2946 253.116 74.6847 253.124 75.0712C254.527 74.3795 256.106 73.9558 257.834 73.9558C262.294 73.9558 265.648 76.7665 267.628 79.7241C269.664 82.7639 270.812 86.6746 270.812 90.7124C270.812 94.7638 269.654 98.6089 267.544 101.576C265.555 104.373 262.411 106.735 258.449 106.959C260.549 111.985 260.604 117.252 258.824 121.776C256.445 127.824 250.81 132.275 243.542 132.275C240.626 132.275 238.358 131.984 236.421 131.456C234.515 130.935 233.131 130.233 232.151 129.735L232.085 129.702C231.184 129.245 230.714 129.018 230.098 128.842C229.501 128.67 228.567 128.497 226.949 128.497C226.847 128.497 226.385 128.547 225.363 129.034C224.352 129.517 223.248 130.197 221.806 131.094C221.694 131.164 221.578 131.236 221.459 131.311C219.161 132.746 215.704 134.905 211.996 135.457C209.833 135.779 207.471 135.595 205.127 134.496C202.832 133.422 200.93 131.648 199.337 129.407C196.213 125.013 195.656 120.13 196.632 115.408C197.085 113.214 197.87 111.036 198.875 108.9C198.545 108.931 198.211 108.947 197.872 108.947C193.386 108.947 190.122 106.154 188.235 103.134C186.337 100.097 185.387 96.2627 185.387 92.3788C185.387 88.4927 186.338 84.6733 188.253 81.653C190.167 78.6331 193.437 75.9272 197.872 75.9272C199.221 75.9272 200.506 76.1807 201.704 76.6194Z" fill="#2B2E34"/>
<path fill-rule="evenodd" clip-rule="evenodd" d="M215.288 86.2772C221.531 86.2772 224.323 81.1114 224.323 74.9418C224.323 68.7722 220.545 62.4565 215.288 62.4565C211.114 62.4565 206.91 67.7135 206.91 74.9418C206.91 82.8274 211.114 86.2772 215.288 86.2772ZM206.579 92.3792C206.579 98.5485 202.046 103.691 197.872 103.691C193.699 103.691 190.644 98.5485 190.644 92.3792C190.644 86.2094 193.699 81.1846 197.872 81.1846C202.046 81.1846 206.579 86.2094 206.579 92.3792ZM243.543 127.019C238.415 127.019 236.399 125.996 234.466 125.014C232.683 124.11 230.97 123.24 226.951 123.24C224.478 123.24 221.795 124.91 219.03 126.631C213.895 129.826 208.481 133.196 203.623 126.361C199.369 120.376 201.816 113.041 207.073 105.169C213.107 96.134 219.23 88.7473 226.458 88.2485C236.315 87.5687 244.694 95.9697 251.429 105.169C258.765 115.191 253.4 127.019 243.543 127.019ZM247.814 74.1205C248.471 82.0058 243.774 86.4415 239.601 86.4415C235.427 86.4415 230.4 81.9328 230.4 75.7633C230.4 68.5349 234.508 62.4565 239.601 62.4565C243.774 62.4565 247.814 67.385 247.814 74.1205ZM257.835 101.72C262.009 101.72 265.557 96.8822 265.557 90.7129C265.557 84.5431 262.009 79.2131 257.835 79.2131C253.662 79.2131 249.786 84.5431 249.786 90.7129C249.786 96.8822 253.662 101.72 257.835 101.72Z" fill="#DA652C"/>
</g>
</g>
<path d="M192.1 96.3999C192.1 43.3796 149.12 0.399902 96.0986 0.399902C43.0802 0.399902 0.100098 43.3796 0.100098 96.3999C0.100098 149.417 43.0802 192.4 96.0986 192.4C149.12 192.4 192.1 149.417 192.1 96.3999Z" fill="url(#paint4_linear_863_121752)"/>
<path d="M9.70047 96.3998C9.70048 144.118 48.3841 182.8 96.102 182.8C143.82 182.8 182.5 144.118 182.5 96.3998C182.5 48.6813 143.82 9.9998 96.102 9.99981C48.384 9.99981 9.70047 48.6813 9.70047 96.3998V96.3998Z" fill="url(#paint5_linear_863_121752)"/>
<path d="M172.9 96.4001C172.9 53.9839 138.516 19.6001 96.0991 19.6001C53.6844 19.6001 19.3003 53.9839 19.3003 96.4001C19.3003 138.814 53.6844 173.2 96.0991 173.2C138.516 173.2 172.9 138.814 172.9 96.4001Z" fill="url(#paint6_linear_863_121752)"/>
<path d="M172.9 96.4001C172.9 53.9839 138.516 19.6001 96.0991 19.6001C53.6844 19.6001 19.3003 53.9839 19.3003 96.4001C19.3003 138.814 53.6844 173.2 96.0991 173.2C138.516 173.2 172.9 138.814 172.9 96.4001Z" fill="white" fill-opacity="0.64"/>
<mask id="mask1_863_121752" style="mask-type:alpha" maskUnits="userSpaceOnUse" x="28" y="29" width="136" height="135">
<path d="M163.3 96.3997C163.3 59.2878 133.212 29.1997 96.0991 29.1997C58.9883 29.1997 28.9004 59.2878 28.9004 96.3997C28.9004 133.512 58.9883 163.6 96.0991 163.6C133.212 163.6 163.3 133.512 163.3 96.3997Z" fill="url(#paint7_linear_863_121752)"/>
<path d="M163.3 96.3997C163.3 59.2878 133.212 29.1997 96.0991 29.1997C58.9883 29.1997 28.9004 59.2878 28.9004 96.3997C28.9004 133.512 58.9883 163.6 96.0991 163.6C133.212 163.6 163.3 133.512 163.3 96.3997Z" fill="white"/>
</mask>
<g mask="url(#mask1_863_121752)">
<g clip-path="url(#clip1_863_121752)">
<rect width="134.4" height="134.4" transform="translate(28.9004 29.1992)" fill="white"/>
<path d="M96.1004 163.599C133.214 163.599 163.3 133.513 163.3 96.3992C163.3 59.2857 133.214 29.1992 96.1004 29.1992C58.9869 29.1992 28.9004 59.2857 28.9004 96.3992C28.9004 133.513 58.9869 163.599 96.1004 163.599Z" fill="white"/>
<path fill-rule="evenodd" clip-rule="evenodd" d="M98.249 54.6616L58.3003 69.2939V125.126L94.618 138.137V81.8419L133.885 67.4009L98.249 54.6616Z" fill="#FFC13D"/>
<path fill-rule="evenodd" clip-rule="evenodd" d="M97.5732 83.4482V113.99L133.9 126.979L133.884 70.0474L97.5732 83.4482Z" fill="#E69C00"/>
</g>
</g>
<defs>
<linearGradient id="paint0_linear_863_121752" x1="324.1" y1="0.399137" x2="114.447" y2="22.1356" gradientUnits="userSpaceOnUse">
<stop stop-color="#DA652C"/>
<stop offset="1" stop-color="#99490E"/>
<stop offset="1" stop-color="#94451E"/>
</linearGradient>
<linearGradient id="paint1_linear_863_121752" x1="141.701" y1="182.801" x2="330.388" y2="163.238" gradientUnits="userSpaceOnUse">
<stop stop-color="#DA652C"/>
<stop offset="1" stop-color="#99490E"/>
<stop offset="1" stop-color="#94451E"/>
</linearGradient>
<linearGradient id="paint2_linear_863_121752" x1="304.9" y1="19.5995" x2="137.178" y2="36.9886" gradientUnits="userSpaceOnUse">
<stop stop-color="#DA652C"/>
<stop offset="1" stop-color="#99490E"/>
<stop offset="1" stop-color="#94451E"/>
</linearGradient>
<linearGradient id="paint3_linear_863_121752" x1="168.806" y1="44.0232" x2="284.43" y2="147.788" gradientUnits="userSpaceOnUse">
<stop stop-color="#00E599"/>
<stop offset="1" stop-color="#00AF92"/>
</linearGradient>
<linearGradient id="paint4_linear_863_121752" x1="192.1" y1="0.399137" x2="-17.5527" y2="22.1356" gradientUnits="userSpaceOnUse">
<stop stop-color="#FFC13D"/>
<stop offset="1" stop-color="#AD8329"/>
</linearGradient>
<linearGradient id="paint5_linear_863_121752" x1="9.70056" y1="182.801" x2="198.388" y2="163.238" gradientUnits="userSpaceOnUse">
<stop stop-color="#FFC13D"/>
<stop offset="1" stop-color="#AD8329"/>
</linearGradient>
<linearGradient id="paint6_linear_863_121752" x1="172.9" y1="19.5995" x2="5.17803" y2="36.9886" gradientUnits="userSpaceOnUse">
<stop stop-color="#FFC13D"/>
<stop offset="1" stop-color="#AD8329"/>
</linearGradient>
<linearGradient id="paint7_linear_863_121752" x1="36.8063" y1="44.0232" x2="152.43" y2="147.788" gradientUnits="userSpaceOnUse">
<stop stop-color="#00E599"/>
<stop offset="1" stop-color="#00AF92"/>
</linearGradient>
<clipPath id="clip0_863_121752">
<rect width="134.4" height="134.4" fill="white" transform="translate(160.9 29.1992)"/>
</clipPath>
<clipPath id="clip1_863_121752">
<rect width="134.4" height="134.4" fill="white" transform="translate(28.9004 29.1992)"/>
</clipPath>
</defs>
</svg>
