<svg width="325" height="193" viewBox="0 0 325 193" fill="none" xmlns="http://www.w3.org/2000/svg">
<path d="M324.101 96.3999C324.101 43.3796 281.121 0.399902 228.099 0.399902C175.081 0.399902 132.101 43.3796 132.101 96.3999C132.101 149.417 175.081 192.4 228.099 192.4C281.121 192.4 324.101 149.417 324.101 96.3999Z" fill="url(#paint0_linear_863_121718)"/>
<path d="M141.701 96.3998C141.701 144.118 180.385 182.8 228.103 182.8C275.82 182.8 314.501 144.118 314.501 96.3998C314.501 48.6813 275.82 9.9998 228.102 9.99981C180.385 9.99981 141.701 48.6813 141.701 96.3998V96.3998Z" fill="url(#paint1_linear_863_121718)"/>
<path d="M304.901 96.4001C304.901 53.9839 270.517 19.6001 228.1 19.6001C185.685 19.6001 151.301 53.9839 151.301 96.4001C151.301 138.814 185.685 173.2 228.1 173.2C270.517 173.2 304.901 138.814 304.901 96.4001Z" fill="url(#paint2_linear_863_121718)"/>
<path d="M304.901 96.4001C304.901 53.9839 270.517 19.6001 228.1 19.6001C185.685 19.6001 151.301 53.9839 151.301 96.4001C151.301 138.814 185.685 173.2 228.1 173.2C270.517 173.2 304.901 138.814 304.901 96.4001Z" fill="white" fill-opacity="0.32"/>
<mask id="mask0_863_121718" style="mask-type:alpha" maskUnits="userSpaceOnUse" x="160" y="29" width="136" height="135">
<path d="M295.301 96.4002C295.301 59.2883 265.213 29.2002 228.1 29.2002C190.989 29.2002 160.901 59.2883 160.901 96.4002C160.901 133.512 190.989 163.6 228.1 163.6C265.213 163.6 295.301 133.512 295.301 96.4002Z" fill="url(#paint3_linear_863_121718)"/>
<path d="M295.301 96.4002C295.301 59.2883 265.213 29.2002 228.1 29.2002C190.989 29.2002 160.901 59.2883 160.901 96.4002C160.901 133.512 190.989 163.6 228.1 163.6C265.213 163.6 295.301 133.512 295.301 96.4002Z" fill="white"/>
</mask>
<g mask="url(#mask0_863_121718)">
<g clip-path="url(#clip0_863_121718)">
<rect width="134.4" height="134.4" transform="translate(160.901 29.2002)" fill="white"/>
<rect width="134.4" height="134.4" transform="translate(160.901 29.2002)" fill="url(#paint4_linear_863_121718)"/>
<path fill-rule="evenodd" clip-rule="evenodd" d="M225.082 52.3971V55.001L224.567 55.0877C224.284 55.1354 223.589 55.2452 223.022 55.3316C220.391 55.7333 216.603 56.9806 214.465 58.1494C209.92 60.6335 206.355 65.1767 205.252 69.8915C204.728 72.1277 204.819 76.2064 205.449 78.7539C206.341 82.3629 207.948 84.9315 211.395 88.2544C214.233 90.9909 219.076 94.6505 223.616 97.4895L225.082 98.406V115.167C225.082 124.385 225.029 131.927 224.963 131.925C224.57 131.916 221.772 131.432 220.566 131.165C215.365 130.014 211.098 126.824 209.252 122.706C208.312 120.61 207.64 118.131 207.408 115.904L207.296 114.836H206.047H204.798V122.968V131.099L206.898 131.893C212.613 134.056 217.543 135.14 223.3 135.501L225.082 135.613V139.309V143.006H226.905H228.727V139.305V135.605L229.797 135.494C234.732 134.984 239.48 133.293 242.795 130.866C247.356 127.525 250.339 122.874 251.146 117.843C251.994 112.56 250.73 107.273 247.691 103.393C245.413 100.484 239.899 95.8998 231.71 90.1062L228.749 88.0118L228.738 73.4002L228.727 58.7884L229.163 58.8742C229.403 58.9213 229.955 59.0051 230.391 59.0605C230.827 59.1158 231.754 59.3012 232.451 59.4724C238.691 61.0045 242.25 64.1971 244.065 69.8915C244.61 71.604 245.136 73.9562 245.285 75.3513C245.492 77.2919 245.402 77.1713 246.647 77.1713H247.744V68.6432V60.1152L246.516 59.6291C244.51 58.8353 239.804 57.1248 238.212 56.6105C235.777 55.8243 234.635 55.6217 229.638 55.0896L228.727 54.9926V52.3928V49.793H226.905H225.082V52.3971ZM225.082 72.2747C225.082 82.8729 225.042 85.5541 224.884 85.4622C224.775 85.3987 223.723 84.6383 222.547 83.7725C219.784 81.7397 216.91 78.8623 215.831 77.0499C215.405 76.3355 214.805 75.0201 214.496 74.1268C214.009 72.72 213.924 72.2535 213.862 70.6386C213.725 67.0429 214.624 64.5336 216.819 62.3832C217.89 61.3349 218.775 60.7449 220.139 60.1716C221.365 59.6564 223.706 59.0551 224.726 58.9934L225.082 58.9718V72.2747ZM231.416 102.778C236.975 106.776 239.555 109.297 240.926 112.067C241.95 114.135 242.234 115.374 242.232 117.764C242.23 120.012 241.894 121.499 240.935 123.502C240.124 125.196 239.538 126.032 238.137 127.497C236.727 128.97 235.649 129.725 233.843 130.499C232.781 130.955 229.348 131.928 228.803 131.928C228.762 131.928 228.727 124.945 228.727 116.409C228.727 104.037 228.767 100.915 228.925 101.01C229.034 101.076 230.155 101.871 231.416 102.778Z" fill="white"/>
</g>
</g>
<path d="M192.1 96.3999C192.1 43.3796 149.12 0.399902 96.0986 0.399902C43.0802 0.399902 0.100098 43.3796 0.100098 96.3999C0.100098 149.417 43.0802 192.4 96.0986 192.4C149.12 192.4 192.1 149.417 192.1 96.3999Z" fill="url(#paint5_linear_863_121718)"/>
<path d="M9.70047 96.3998C9.70048 144.118 48.3841 182.8 96.102 182.8C143.82 182.8 182.5 144.118 182.5 96.3998C182.5 48.6813 143.82 9.9998 96.102 9.99981C48.384 9.99981 9.70047 48.6813 9.70047 96.3998V96.3998Z" fill="url(#paint6_linear_863_121718)"/>
<path d="M172.9 96.4001C172.9 53.9839 138.516 19.6001 96.0991 19.6001C53.6844 19.6001 19.3003 53.9839 19.3003 96.4001C19.3003 138.814 53.6844 173.2 96.0991 173.2C138.516 173.2 172.9 138.814 172.9 96.4001Z" fill="url(#paint7_linear_863_121718)"/>
<path d="M172.9 96.4001C172.9 53.9839 138.516 19.6001 96.0991 19.6001C53.6844 19.6001 19.3003 53.9839 19.3003 96.4001C19.3003 138.814 53.6844 173.2 96.0991 173.2C138.516 173.2 172.9 138.814 172.9 96.4001Z" fill="white" fill-opacity="0.64"/>
<mask id="mask1_863_121718" style="mask-type:alpha" maskUnits="userSpaceOnUse" x="28" y="29" width="136" height="135">
<path d="M163.3 96.4002C163.3 59.2883 133.212 29.2002 96.0991 29.2002C58.9883 29.2002 28.9004 59.2883 28.9004 96.4002C28.9004 133.512 58.9883 163.6 96.0991 163.6C133.212 163.6 163.3 133.512 163.3 96.4002Z" fill="url(#paint8_linear_863_121718)"/>
<path d="M163.3 96.4002C163.3 59.2883 133.212 29.2002 96.0991 29.2002C58.9883 29.2002 28.9004 59.2883 28.9004 96.4002C28.9004 133.512 58.9883 163.6 96.0991 163.6C133.212 163.6 163.3 133.512 163.3 96.4002Z" fill="white"/>
</mask>
<g mask="url(#mask1_863_121718)">
<rect width="134.4" height="134.4" transform="translate(28.9004 29.2002)" fill="white"/>
<path d="M78.2814 71.0005L77.6354 71.6452L62.8351 86.4135L58.3716 90.8675C58.1364 91.2135 57.8374 91.5119 57.4906 91.7465C56.8269 92.1814 56.0174 92.3355 55.2399 92.1751C54.4624 92.0147 53.7805 91.5528 53.3442 90.8909C53.0151 90.3986 52.8431 89.8183 52.8508 89.2265V75.22C52.9725 71.9291 54.3688 68.8137 56.7458 66.5292C59.1228 64.2447 62.2953 62.9694 65.5955 62.9717H78.2814L74.5814 66.7224L70.294 71.0005H78.2814Z" fill="url(#paint9_linear_863_121718)"/>
<path d="M138.95 79.0879V80.0255C138.737 87.9866 135.65 95.6032 130.258 101.475L88.2652 143.377C85.9388 145.452 82.9282 146.599 79.8079 146.6C78.9615 146.584 78.1174 146.505 77.2825 146.366L74.8158 145.604C72.1778 144.69 69.6069 143.593 67.122 142.322L66.5934 142.029C66.3665 141.86 66.1839 141.638 66.0612 141.383C65.9385 141.128 65.8793 140.847 65.8887 140.564C65.8827 140.165 66.0063 139.774 66.241 139.451L113.343 92.3911C113.572 92.1427 113.77 91.8672 113.931 91.5706C114.224 91.0095 114.46 90.4205 114.636 89.8125C114.723 89.4267 114.782 89.0349 114.812 88.6404C114.864 88.3899 114.883 88.1339 114.87 87.8785C114.87 85.7958 114.041 83.7983 112.565 82.3256C111.089 80.8529 109.088 80.0255 107 80.0255H89.7922L101.362 68.4804C101.709 68.2458 102.008 67.9474 102.243 67.6014C102.555 67.1109 102.718 66.5411 102.713 65.9604C102.713 65.1677 102.398 64.4075 101.836 63.847C101.274 63.2865 100.512 62.9716 99.7178 62.9716H75.1682C75.1682 62.9716 77.5174 60.393 78.4571 59.4553C80.5714 57.1698 83.1556 54.2395 85.9747 52.1884C91.6586 48.0167 98.5352 45.7774 105.591 45.8005C109.769 45.8057 113.911 46.5805 117.807 48.086L119.393 48.7307C122.213 50.0258 124.842 51.7019 127.204 53.7121L127.674 54.1223H127.733C131.258 57.2491 134.08 61.085 136.013 65.3777C137.946 69.6705 138.947 74.3229 138.95 79.0293V79.0879Z" fill="url(#paint10_linear_863_121718)"/>
<path d="M104.945 62.9722H75.3444L61.5425 76.7442C61.2758 77.018 61.0963 77.3645 61.0266 77.74C60.9569 78.1154 61.0001 78.5031 61.1508 78.8541C61.3016 79.205 61.5531 79.5036 61.8736 79.7122C62.1942 79.9208 62.5694 80.03 62.9521 80.0261H95.0193L107.412 67.6019C107.767 67.1297 107.954 66.5517 107.94 65.961C107.94 65.1683 107.625 64.4081 107.063 63.8476C106.501 63.2871 105.739 62.9722 104.945 62.9722ZM92.6113 71.5284C92.1073 71.5287 91.623 71.333 91.2612 70.9829C90.8994 70.6328 90.6885 70.1558 90.6732 69.6531C90.6811 69.3009 90.7824 68.9572 90.9668 68.6568V68.6568C91.1161 68.4199 91.3168 68.2196 91.5542 68.0708V68.0708C91.8516 67.8789 92.1984 67.7771 92.5526 67.7777C93.051 67.77 93.5322 67.9601 93.8901 68.3063C94.2481 68.6525 94.4536 69.1264 94.4614 69.6238C94.4691 70.1212 94.2786 70.6012 93.9317 70.9584C93.5847 71.3156 93.1098 71.5207 92.6113 71.5284Z" fill="#E35CC7"/>
<path d="M79.1615 62.9722H75.109L61.4834 76.5098C61.1899 76.7967 60.9892 77.1649 60.9074 77.5667C60.8256 77.9685 60.8663 78.3856 61.0243 78.7641C61.1824 79.1425 61.4505 79.4651 61.794 79.69C62.1376 79.915 62.5408 80.0321 62.9517 80.0261H69.2359L86.3267 62.9722H79.1615Z" fill="#8961D0"/>
<path d="M92.5537 71.5275C93.5917 71.5275 94.4331 70.6879 94.4331 69.6522C94.4331 68.6165 93.5917 67.7769 92.5537 67.7769C91.5157 67.7769 90.6743 68.6165 90.6743 69.6522C90.6743 70.6879 91.5157 71.5275 92.5537 71.5275Z" fill="#8961D0"/>
<path opacity="0.48" d="M92.5537 71.5275C93.5917 71.5275 94.4331 70.6879 94.4331 69.6522C94.4331 68.6165 93.5917 67.7769 92.5537 67.7769C91.5157 67.7769 90.6743 68.6165 90.6743 69.6522C90.6743 70.6879 91.5157 71.5275 92.5537 71.5275Z" fill="url(#paint11_linear_863_121718)"/>
<path opacity="0.48" d="M94.3733 69.6522C94.3736 69.1648 94.1837 68.6965 93.8438 68.3464C93.504 67.9964 93.0409 67.7921 92.5527 67.7769C92.2223 67.7856 91.8993 67.8758 91.6123 68.0395C91.3254 68.2031 91.0835 68.435 90.9082 68.7145C91.2664 68.405 91.7265 68.2381 92.2003 68.2457C92.4394 68.2457 92.6761 68.2927 92.897 68.384C93.1179 68.4753 93.3186 68.6091 93.4877 68.7778C93.6568 68.9465 93.7909 69.1468 93.8824 69.3672C93.9739 69.5876 94.021 69.8239 94.021 70.0624V70.121C94.0323 70.4309 93.9505 70.7371 93.786 71.0001C93.9726 70.8286 94.1213 70.6202 94.2224 70.3881C94.3235 70.1559 94.3749 69.9053 94.3733 69.6522V69.6522Z" fill="#480061"/>
<path opacity="0.75" d="M104.945 62.9722H75.3445L61.6014 76.7442C61.3381 77.0145 61.1596 77.3556 61.0879 77.7256C61.0163 78.0957 61.0545 78.4786 61.1981 78.8273C61.3416 79.1759 61.584 79.4751 61.8957 79.6881C62.2073 79.9011 62.5746 80.0186 62.9522 80.0261H95.0194L107.412 67.6019C107.768 67.1297 107.954 66.5517 107.94 65.961C107.94 65.1683 107.625 64.4081 107.063 63.8476C106.501 63.2871 105.739 62.9722 104.945 62.9722ZM92.5527 71.5284C92.3059 71.5284 92.0615 71.4799 91.8335 71.3857C91.6055 71.2914 91.3983 71.1533 91.2238 70.9792C91.0493 70.805 90.9108 70.5983 90.8164 70.3708C90.722 70.1432 90.6733 69.8994 90.6733 69.6531C90.6813 69.3009 90.7826 68.9572 90.967 68.6568V68.6568C91.1162 68.4199 91.3169 68.2196 91.5543 68.0708V68.0708C91.8517 67.8789 92.1985 67.7771 92.5527 67.7777C93.0409 67.793 93.504 67.9973 93.8439 68.3473C94.1837 68.6974 94.3736 69.1657 94.3734 69.6531C94.3609 70.1366 94.1669 70.5977 93.8296 70.9451C93.4924 71.2924 93.0366 71.5007 92.5527 71.5284V71.5284Z" fill="url(#paint12_linear_863_121718)"/>
<path d="M79.1615 62.9722H75.109L61.4834 76.5098C61.1899 76.7967 60.9892 77.1649 60.9074 77.5667C60.8256 77.9685 60.8663 78.3856 61.0243 78.7641C61.1824 79.1425 61.4505 79.4651 61.794 79.69C62.1376 79.915 62.5408 80.0321 62.9517 80.0261H69.2359L86.3267 62.9722H79.1615Z" fill="url(#paint13_linear_863_121718)"/>
<path opacity="0.43" d="M98.5429 80.0257L107.176 67.8945L95.019 80.0257H98.5429Z" fill="url(#paint14_linear_863_121718)"/>
</g>
<defs>
<linearGradient id="paint0_linear_863_121718" x1="324.101" y1="0.399137" x2="114.448" y2="22.1356" gradientUnits="userSpaceOnUse">
<stop stop-color="#00A9EE"/>
<stop offset="1" stop-color="#0073A1"/>
</linearGradient>
<linearGradient id="paint1_linear_863_121718" x1="141.701" y1="182.801" x2="330.389" y2="163.238" gradientUnits="userSpaceOnUse">
<stop stop-color="#00A9EE"/>
<stop offset="1" stop-color="#0073A1"/>
</linearGradient>
<linearGradient id="paint2_linear_863_121718" x1="304.901" y1="19.5995" x2="137.179" y2="36.9886" gradientUnits="userSpaceOnUse">
<stop stop-color="#00A9EE"/>
<stop offset="1" stop-color="#0073A1"/>
</linearGradient>
<linearGradient id="paint3_linear_863_121718" x1="168.807" y1="44.0237" x2="284.43" y2="147.788" gradientUnits="userSpaceOnUse">
<stop stop-color="#00E599"/>
<stop offset="1" stop-color="#00AF92"/>
</linearGradient>
<linearGradient id="paint4_linear_863_121718" x1="27.6603" y1="15.0974" x2="107.365" y2="120.126" gradientUnits="userSpaceOnUse">
<stop stop-color="#00B3EE"/>
<stop offset="1" stop-color="#009FEE"/>
</linearGradient>
<linearGradient id="paint5_linear_863_121718" x1="192.1" y1="0.399137" x2="-17.5527" y2="22.1356" gradientUnits="userSpaceOnUse">
<stop stop-color="#DC42C9"/>
<stop offset="1" stop-color="#952D88"/>
</linearGradient>
<linearGradient id="paint6_linear_863_121718" x1="9.70056" y1="182.801" x2="198.388" y2="163.238" gradientUnits="userSpaceOnUse">
<stop stop-color="#DC42C9"/>
<stop offset="1" stop-color="#952D88"/>
</linearGradient>
<linearGradient id="paint7_linear_863_121718" x1="172.9" y1="19.5995" x2="5.17803" y2="36.9886" gradientUnits="userSpaceOnUse">
<stop stop-color="#DC42C9"/>
<stop offset="1" stop-color="#952D88"/>
</linearGradient>
<linearGradient id="paint8_linear_863_121718" x1="36.8063" y1="44.0237" x2="152.43" y2="147.788" gradientUnits="userSpaceOnUse">
<stop stop-color="#00E599"/>
<stop offset="1" stop-color="#00AF92"/>
</linearGradient>
<linearGradient id="paint9_linear_863_121718" x1="52.8508" y1="77.6052" x2="78.2814" y2="77.6052" gradientUnits="userSpaceOnUse">
<stop stop-color="#4750D9"/>
<stop offset="0.41" stop-color="#5C45DC"/>
<stop offset="1" stop-color="#8131E1"/>
</linearGradient>
<linearGradient id="paint10_linear_863_121718" x1="65.8887" y1="96.2004" x2="138.95" y2="96.2004" gradientUnits="userSpaceOnUse">
<stop stop-color="#E96161"/>
<stop offset="0.2" stop-color="#E65B76"/>
<stop offset="0.61" stop-color="#DF4AAC"/>
<stop offset="1" stop-color="#D739E6"/>
</linearGradient>
<linearGradient id="paint11_linear_863_121718" x1="90.6684" y1="69.6522" x2="94.3861" y2="69.6522" gradientUnits="userSpaceOnUse">
<stop stop-color="#B100D3"/>
<stop offset="0.23" stop-color="#9C00C0"/>
<stop offset="0.69" stop-color="#67008E"/>
<stop offset="1" stop-color="#40006A"/>
</linearGradient>
<linearGradient id="paint12_linear_863_121718" x1="61.0552" y1="71.4991" x2="107.94" y2="71.4991" gradientUnits="userSpaceOnUse">
<stop stop-color="#D0D7D3"/>
<stop offset="0.52" stop-color="#D9C5E8"/>
<stop offset="1" stop-color="#E3B1FF"/>
</linearGradient>
<linearGradient id="paint13_linear_863_121718" x1="60.902" y1="71.4991" x2="86.3208" y2="71.4991" gradientUnits="userSpaceOnUse">
<stop stop-color="#B277EC"/>
<stop offset="0.77" stop-color="#9336E7"/>
<stop offset="1" stop-color="#8921E6"/>
</linearGradient>
<linearGradient id="paint14_linear_863_121718" x1="95.0014" y1="73.9601" x2="107.182" y2="73.9601" gradientUnits="userSpaceOnUse">
<stop stop-opacity="0.5"/>
<stop offset="0.1" stop-color="#201322" stop-opacity="0.59"/>
<stop offset="0.25" stop-color="#4A2C4E" stop-opacity="0.72"/>
<stop offset="0.4" stop-color="#6D4173" stop-opacity="0.82"/>
<stop offset="0.55" stop-color="#885190" stop-opacity="0.9"/>
<stop offset="0.7" stop-color="#9B5DA4" stop-opacity="0.95"/>
<stop offset="0.85" stop-color="#A664B0" stop-opacity="0.99"/>
<stop offset="1" stop-color="#AA66B4"/>
</linearGradient>
<clipPath id="clip0_863_121718">
<rect width="134.4" height="134.4" fill="white" transform="translate(160.901 29.2002)"/>
</clipPath>
</defs>
</svg>
