<svg width="325" height="193" viewBox="0 0 325 193" fill="none" xmlns="http://www.w3.org/2000/svg">
<g clip-path="url(#clip0_44_76)">
<path d="M324.1 96.3999C324.1 43.3796 281.12 0.399902 228.099 0.399902C175.08 0.399902 132.1 43.3796 132.1 96.3999C132.1 149.417 175.08 192.4 228.099 192.4C281.12 192.4 324.1 149.417 324.1 96.3999Z" fill="url(#paint0_linear_44_76)"/>
<path d="M141.7 96.3997C141.7 144.118 180.384 182.8 228.102 182.8C275.82 182.8 314.5 144.118 314.5 96.3997C314.5 48.6813 275.82 9.99975 228.102 9.99976C180.384 9.99976 141.7 48.6813 141.7 96.3997Z" fill="url(#paint1_linear_44_76)"/>
<path d="M304.9 96.4001C304.9 53.9839 270.516 19.6001 228.099 19.6001C185.684 19.6001 151.3 53.9839 151.3 96.4001C151.3 138.814 185.684 173.2 228.099 173.2C270.516 173.2 304.9 138.814 304.9 96.4001Z" fill="url(#paint2_linear_44_76)"/>
<path d="M304.9 96.4001C304.9 53.9839 270.516 19.6001 228.099 19.6001C185.684 19.6001 151.3 53.9839 151.3 96.4001C151.3 138.814 185.684 173.2 228.099 173.2C270.516 173.2 304.9 138.814 304.9 96.4001Z" fill="white" fill-opacity="0.64"/>
<path d="M324.5 96C324.5 42.9797 281.52 0 228.498 0C175.48 0 132.5 42.9797 132.5 96C132.5 149.017 175.48 192 228.498 192C281.52 192 324.5 149.017 324.5 96Z" fill="url(#paint3_linear_44_76)"/>
<path d="M142.101 96.0002C142.101 143.719 180.784 182.4 228.502 182.4C276.22 182.4 314.901 143.719 314.901 96.0001C314.901 48.2816 276.22 9.60014 228.502 9.60015C180.784 9.60015 142.101 48.2816 142.101 96.0002V96.0002Z" fill="url(#paint4_linear_44_76)"/>
<path d="M305.3 95.9999C305.3 53.5837 270.916 19.2 228.499 19.2C186.084 19.2 151.7 53.5837 151.7 95.9999C151.7 138.413 186.084 172.8 228.499 172.8C270.916 172.8 305.3 138.413 305.3 95.9999Z" fill="url(#paint5_linear_44_76)"/>
<path d="M305.3 95.9999C305.3 53.5837 270.916 19.2 228.499 19.2C186.084 19.2 151.7 53.5837 151.7 95.9999C151.7 138.413 186.084 172.8 228.499 172.8C270.916 172.8 305.3 138.413 305.3 95.9999Z" fill="#161618" fill-opacity="0.64"/>
<mask id="mask0_44_76" style="mask-type:alpha" maskUnits="userSpaceOnUse" x="161" y="28" width="135" height="136">
<path d="M295.7 96.0001C295.7 58.8881 265.612 28.8 228.499 28.8C191.388 28.8 161.3 58.8881 161.3 96.0001C161.3 133.112 191.388 163.2 228.499 163.2C265.612 163.2 295.7 133.112 295.7 96.0001Z" fill="url(#paint6_linear_44_76)"/>
<path d="M295.7 96.0001C295.7 58.8881 265.612 28.8 228.499 28.8C191.388 28.8 161.3 58.8881 161.3 96.0001C161.3 133.112 191.388 163.2 228.499 163.2C265.612 163.2 295.7 133.112 295.7 96.0001Z" fill="white"/>
</mask>
<g mask="url(#mask0_44_76)">
<rect width="134.4" height="134.4" transform="translate(161.3 28.8)" fill="#161618"/>
<path d="M250.757 51.4851H228.5V62.6138H250.757V51.4851Z" fill="#643B9F"/>
<path d="M261.886 95.9998V84.8711H239.629V140.514H250.757V129.386H261.886V118.257H273.015V95.9998H261.886Z" fill="#643B9F"/>
<path fill-rule="evenodd" clip-rule="evenodd" d="M206.243 51.4851H239.629V84.8711H250.757V95.9998H261.886V118.257H250.757V129.386H239.629V140.514H206.243V129.386H195.114V118.257H183.985V95.9998H195.114V84.8711H217.371V62.6138H206.243V51.4851ZM217.371 118.257H239.629V95.9998H217.371V118.257Z" fill="#865BC2"/>
</g>
<path d="M192.1 96.3999C192.1 43.3796 149.12 0.399902 96.0986 0.399902C43.0802 0.399902 0.100098 43.3796 0.100098 96.3999C0.100098 149.417 43.0802 192.4 96.0986 192.4C149.12 192.4 192.1 149.417 192.1 96.3999Z" fill="url(#paint7_linear_44_76)"/>
<path d="M9.70047 96.3997C9.70048 144.118 48.3841 182.8 96.102 182.8C143.82 182.8 182.5 144.118 182.5 96.3997C182.5 48.6813 143.82 9.99975 96.102 9.99976C48.384 9.99976 9.70047 48.6813 9.70047 96.3997Z" fill="url(#paint8_linear_44_76)"/>
<path d="M172.9 96.4001C172.9 53.9839 138.516 19.6001 96.0991 19.6001C53.6844 19.6001 19.3003 53.9839 19.3003 96.4001C19.3003 138.814 53.6844 173.2 96.0991 173.2C138.516 173.2 172.9 138.814 172.9 96.4001Z" fill="url(#paint9_linear_44_76)"/>
<path d="M172.9 96.4001C172.9 53.9839 138.516 19.6001 96.0991 19.6001C53.6844 19.6001 19.3003 53.9839 19.3003 96.4001C19.3003 138.814 53.6844 173.2 96.0991 173.2C138.516 173.2 172.9 138.814 172.9 96.4001Z" fill="white" fill-opacity="0.64"/>
<mask id="mask1_44_76" style="mask-type:alpha" maskUnits="userSpaceOnUse" x="28" y="29" width="136" height="135">
<path d="M163.3 96.4002C163.3 59.2883 133.212 29.2002 96.0991 29.2002C58.9883 29.2002 28.9004 59.2883 28.9004 96.4002C28.9004 133.512 58.9883 163.6 96.0991 163.6C133.212 163.6 163.3 133.512 163.3 96.4002Z" fill="url(#paint10_linear_44_76)"/>
<path d="M163.3 96.4002C163.3 59.2883 133.212 29.2002 96.0991 29.2002C58.9883 29.2002 28.9004 59.2883 28.9004 96.4002C28.9004 133.512 58.9883 163.6 96.0991 163.6C133.212 163.6 163.3 133.512 163.3 96.4002Z" fill="white"/>
</mask>
<g mask="url(#mask1_44_76)">
<path d="M163.3 29.2002H28.9004V163.6H163.3V29.2002Z" fill="white"/>
<path d="M78.2814 71.0005L77.6354 71.6452L62.8351 86.4135L58.3716 90.8675C58.1364 91.2135 57.8374 91.5119 57.4906 91.7465C56.8269 92.1814 56.0174 92.3355 55.2399 92.1751C54.4624 92.0147 53.7805 91.5528 53.3442 90.8909C53.0151 90.3986 52.8431 89.8183 52.8508 89.2265V75.22C52.9725 71.9291 54.3688 68.8137 56.7458 66.5292C59.1228 64.2447 62.2953 62.9694 65.5955 62.9717H78.2814L74.5814 66.7224L70.294 71.0005H78.2814Z" fill="url(#paint11_linear_44_76)"/>
<path d="M138.95 79.0879V80.0255C138.737 87.9866 135.65 95.6032 130.258 101.475L88.2652 143.377C85.9388 145.452 82.9282 146.599 79.8079 146.6C78.9615 146.584 78.1174 146.505 77.2825 146.366L74.8158 145.604C72.1778 144.69 69.6069 143.593 67.122 142.322L66.5934 142.029C66.3665 141.86 66.1839 141.638 66.0612 141.383C65.9385 141.128 65.8793 140.847 65.8887 140.564C65.8827 140.165 66.0063 139.774 66.241 139.451L113.343 92.3911C113.572 92.1427 113.77 91.8672 113.931 91.5706C114.224 91.0095 114.46 90.4205 114.636 89.8125C114.723 89.4267 114.782 89.0349 114.812 88.6404C114.864 88.3899 114.883 88.1339 114.87 87.8785C114.87 85.7958 114.041 83.7983 112.565 82.3256C111.089 80.8529 109.088 80.0255 107 80.0255H89.7922L101.362 68.4804C101.709 68.2458 102.008 67.9474 102.243 67.6014C102.555 67.1109 102.718 66.5411 102.713 65.9604C102.713 65.1677 102.398 64.4075 101.836 63.847C101.274 63.2865 100.512 62.9716 99.7178 62.9716H75.1682C75.1682 62.9716 77.5174 60.393 78.4571 59.4553C80.5714 57.1698 83.1556 54.2395 85.9747 52.1884C91.6586 48.0167 98.5352 45.7774 105.591 45.8005C109.769 45.8057 113.911 46.5805 117.807 48.086L119.393 48.7307C122.213 50.0258 124.842 51.7019 127.204 53.7121L127.674 54.1223H127.733C131.258 57.2491 134.08 61.085 136.013 65.3777C137.946 69.6705 138.947 74.3229 138.95 79.0293V79.0879Z" fill="url(#paint12_linear_44_76)"/>
<path d="M104.945 62.9722H75.3444L61.5425 76.7442C61.2758 77.018 61.0963 77.3645 61.0266 77.74C60.9569 78.1154 61.0001 78.5031 61.1508 78.8541C61.3016 79.205 61.5531 79.5036 61.8736 79.7122C62.1942 79.9208 62.5694 80.03 62.9521 80.0261H95.0193L107.412 67.6019C107.767 67.1297 107.954 66.5517 107.94 65.961C107.94 65.1683 107.625 64.4081 107.063 63.8476C106.501 63.2871 105.739 62.9722 104.945 62.9722ZM92.6113 71.5284C92.1073 71.5287 91.623 71.333 91.2612 70.9829C90.8994 70.6328 90.6885 70.1558 90.6732 69.6531C90.6811 69.3009 90.7824 68.9572 90.9668 68.6568C91.1161 68.4199 91.3168 68.2196 91.5542 68.0708C91.8516 67.8789 92.1984 67.7771 92.5526 67.7777C93.051 67.77 93.5322 67.9601 93.8901 68.3063C94.2481 68.6525 94.4536 69.1264 94.4614 69.6238C94.4691 70.1212 94.2786 70.6012 93.9317 70.9584C93.5847 71.3156 93.1098 71.5207 92.6113 71.5284Z" fill="#E35CC7"/>
<path d="M79.1615 62.9722H75.109L61.4834 76.5098C61.1899 76.7967 60.9892 77.1649 60.9074 77.5667C60.8256 77.9685 60.8663 78.3856 61.0243 78.7641C61.1824 79.1425 61.4505 79.4651 61.794 79.69C62.1376 79.915 62.5408 80.0321 62.9517 80.0261H69.2359L86.3267 62.9722H79.1615Z" fill="#8961D0"/>
<path d="M92.5537 71.5275C93.5917 71.5275 94.4331 70.6879 94.4331 69.6522C94.4331 68.6165 93.5917 67.7769 92.5537 67.7769C91.5157 67.7769 90.6743 68.6165 90.6743 69.6522C90.6743 70.6879 91.5157 71.5275 92.5537 71.5275Z" fill="#8961D0"/>
<path opacity="0.48" d="M92.5537 71.5275C93.5917 71.5275 94.4331 70.6879 94.4331 69.6522C94.4331 68.6165 93.5917 67.7769 92.5537 67.7769C91.5157 67.7769 90.6743 68.6165 90.6743 69.6522C90.6743 70.6879 91.5157 71.5275 92.5537 71.5275Z" fill="url(#paint13_linear_44_76)"/>
<path opacity="0.48" d="M94.3733 69.6522C94.3736 69.1648 94.1837 68.6965 93.8438 68.3464C93.504 67.9964 93.0409 67.7921 92.5527 67.7769C92.2223 67.7856 91.8993 67.8758 91.6123 68.0395C91.3254 68.2031 91.0835 68.435 90.9082 68.7145C91.2664 68.405 91.7265 68.2381 92.2003 68.2457C92.4394 68.2457 92.6761 68.2927 92.897 68.384C93.1179 68.4753 93.3186 68.6091 93.4877 68.7778C93.6568 68.9465 93.7909 69.1468 93.8824 69.3672C93.9739 69.5876 94.021 69.8239 94.021 70.0624V70.121C94.0323 70.4309 93.9505 70.7371 93.786 71.0001C93.9726 70.8286 94.1213 70.6202 94.2224 70.3881C94.3235 70.1559 94.3749 69.9053 94.3733 69.6522Z" fill="#480061"/>
<path opacity="0.75" d="M104.945 62.9722H75.3445L61.6014 76.7442C61.3381 77.0145 61.1596 77.3556 61.0879 77.7256C61.0163 78.0957 61.0545 78.4786 61.1981 78.8273C61.3416 79.1759 61.584 79.4751 61.8957 79.6881C62.2073 79.9011 62.5746 80.0186 62.9522 80.0261H95.0194L107.412 67.6019C107.768 67.1297 107.954 66.5517 107.94 65.961C107.94 65.1683 107.625 64.4081 107.063 63.8476C106.501 63.2871 105.739 62.9722 104.945 62.9722ZM92.5527 71.5284C92.3059 71.5284 92.0615 71.4799 91.8335 71.3857C91.6055 71.2914 91.3983 71.1533 91.2238 70.9792C91.0493 70.805 90.9108 70.5983 90.8164 70.3708C90.722 70.1432 90.6733 69.8994 90.6733 69.6531C90.6813 69.3009 90.7826 68.9572 90.967 68.6568C91.1162 68.4199 91.3169 68.2196 91.5543 68.0708C91.8517 67.8789 92.1985 67.7771 92.5527 67.7777C93.0409 67.793 93.504 67.9973 93.8439 68.3473C94.1837 68.6974 94.3736 69.1657 94.3734 69.6531C94.3609 70.1366 94.1669 70.5977 93.8296 70.9451C93.4924 71.2924 93.0366 71.5007 92.5527 71.5284Z" fill="url(#paint14_linear_44_76)"/>
<path d="M79.1615 62.9722H75.109L61.4834 76.5098C61.1899 76.7967 60.9892 77.1649 60.9074 77.5667C60.8256 77.9685 60.8663 78.3856 61.0243 78.7641C61.1824 79.1425 61.4505 79.4651 61.794 79.69C62.1376 79.915 62.5408 80.0321 62.9517 80.0261H69.2359L86.3267 62.9722H79.1615Z" fill="url(#paint15_linear_44_76)"/>
<path opacity="0.43" d="M98.5429 80.0257L107.176 67.8945L95.019 80.0257H98.5429Z" fill="url(#paint16_linear_44_76)"/>
</g>
</g>
<defs>
<linearGradient id="paint0_linear_44_76" x1="324.1" y1="0.399134" x2="114.447" y2="22.1356" gradientUnits="userSpaceOnUse">
<stop stop-color="#643B9F"/>
<stop offset="1" stop-color="#44286C"/>
</linearGradient>
<linearGradient id="paint1_linear_44_76" x1="141.701" y1="182.801" x2="330.388" y2="163.238" gradientUnits="userSpaceOnUse">
<stop stop-color="#643B9F"/>
<stop offset="1" stop-color="#44286C"/>
</linearGradient>
<linearGradient id="paint2_linear_44_76" x1="304.9" y1="19.5995" x2="137.178" y2="36.9886" gradientUnits="userSpaceOnUse">
<stop stop-color="#643B9F"/>
<stop offset="1" stop-color="#44286C"/>
</linearGradient>
<linearGradient id="paint3_linear_44_76" x1="324.5" y1="-0.000765816" x2="114.847" y2="21.7357" gradientUnits="userSpaceOnUse">
<stop stop-color="#643B9F"/>
<stop offset="1" stop-color="#44286C"/>
</linearGradient>
<linearGradient id="paint4_linear_44_76" x1="142.101" y1="182.401" x2="330.788" y2="162.838" gradientUnits="userSpaceOnUse">
<stop stop-color="#643B9F"/>
<stop offset="1" stop-color="#44286C"/>
</linearGradient>
<linearGradient id="paint5_linear_44_76" x1="305.3" y1="19.1993" x2="137.578" y2="36.5885" gradientUnits="userSpaceOnUse">
<stop stop-color="#643B9F"/>
<stop offset="1" stop-color="#44286C"/>
</linearGradient>
<linearGradient id="paint6_linear_44_76" x1="169.206" y1="43.6236" x2="284.829" y2="147.388" gradientUnits="userSpaceOnUse">
<stop stop-color="#00E599"/>
<stop offset="1" stop-color="#00AF92"/>
</linearGradient>
<linearGradient id="paint7_linear_44_76" x1="192.1" y1="0.399137" x2="-17.5527" y2="22.1356" gradientUnits="userSpaceOnUse">
<stop stop-color="#DC42C9"/>
<stop offset="1" stop-color="#952D88"/>
</linearGradient>
<linearGradient id="paint8_linear_44_76" x1="9.70056" y1="182.801" x2="198.388" y2="163.238" gradientUnits="userSpaceOnUse">
<stop stop-color="#DC42C9"/>
<stop offset="1" stop-color="#952D88"/>
</linearGradient>
<linearGradient id="paint9_linear_44_76" x1="172.9" y1="19.5995" x2="5.17802" y2="36.9886" gradientUnits="userSpaceOnUse">
<stop stop-color="#DC42C9"/>
<stop offset="1" stop-color="#952D88"/>
</linearGradient>
<linearGradient id="paint10_linear_44_76" x1="36.8063" y1="44.0237" x2="152.43" y2="147.788" gradientUnits="userSpaceOnUse">
<stop stop-color="#00E599"/>
<stop offset="1" stop-color="#00AF92"/>
</linearGradient>
<linearGradient id="paint11_linear_44_76" x1="52.8508" y1="77.6052" x2="78.2814" y2="77.6052" gradientUnits="userSpaceOnUse">
<stop stop-color="#4750D9"/>
<stop offset="0.41" stop-color="#5C45DC"/>
<stop offset="1" stop-color="#8131E1"/>
</linearGradient>
<linearGradient id="paint12_linear_44_76" x1="65.8887" y1="96.2004" x2="138.95" y2="96.2004" gradientUnits="userSpaceOnUse">
<stop stop-color="#E96161"/>
<stop offset="0.2" stop-color="#E65B76"/>
<stop offset="0.61" stop-color="#DF4AAC"/>
<stop offset="1" stop-color="#D739E6"/>
</linearGradient>
<linearGradient id="paint13_linear_44_76" x1="90.6684" y1="69.6522" x2="94.3861" y2="69.6522" gradientUnits="userSpaceOnUse">
<stop stop-color="#B100D3"/>
<stop offset="0.23" stop-color="#9C00C0"/>
<stop offset="0.69" stop-color="#67008E"/>
<stop offset="1" stop-color="#40006A"/>
</linearGradient>
<linearGradient id="paint14_linear_44_76" x1="61.0552" y1="71.4991" x2="107.94" y2="71.4991" gradientUnits="userSpaceOnUse">
<stop stop-color="#D0D7D3"/>
<stop offset="0.52" stop-color="#D9C5E8"/>
<stop offset="1" stop-color="#E3B1FF"/>
</linearGradient>
<linearGradient id="paint15_linear_44_76" x1="60.902" y1="71.4991" x2="86.3208" y2="71.4991" gradientUnits="userSpaceOnUse">
<stop stop-color="#B277EC"/>
<stop offset="0.77" stop-color="#9336E7"/>
<stop offset="1" stop-color="#8921E6"/>
</linearGradient>
<linearGradient id="paint16_linear_44_76" x1="95.0014" y1="73.9601" x2="107.182" y2="73.9601" gradientUnits="userSpaceOnUse">
<stop stop-opacity="0.5"/>
<stop offset="0.1" stop-color="#201322" stop-opacity="0.59"/>
<stop offset="0.25" stop-color="#4A2C4E" stop-opacity="0.72"/>
<stop offset="0.4" stop-color="#6D4173" stop-opacity="0.82"/>
<stop offset="0.55" stop-color="#885190" stop-opacity="0.9"/>
<stop offset="0.7" stop-color="#9B5DA4" stop-opacity="0.95"/>
<stop offset="0.85" stop-color="#A664B0" stop-opacity="0.99"/>
<stop offset="1" stop-color="#AA66B4"/>
</linearGradient>
<clipPath id="clip0_44_76">
<rect width="325" height="193" fill="white"/>
</clipPath>
</defs>
</svg>
