<svg width="325" height="193" viewBox="0 0 325 193" fill="none" xmlns="http://www.w3.org/2000/svg">
<path d="M324.1 96.3999C324.1 43.3796 281.12 0.399902 228.099 0.399902C175.08 0.399902 132.1 43.3796 132.1 96.3999C132.1 149.417 175.08 192.4 228.099 192.4C281.12 192.4 324.1 149.417 324.1 96.3999Z" fill="url(#paint0_linear_863_122024)"/>
<path d="M141.7 96.3998C141.7 144.118 180.384 182.8 228.102 182.8C275.82 182.8 314.5 144.118 314.5 96.3998C314.5 48.6813 275.82 9.9998 228.102 9.99981C180.384 9.99981 141.7 48.6813 141.7 96.3998V96.3998Z" fill="url(#paint1_linear_863_122024)"/>
<path d="M304.9 96.4001C304.9 53.9839 270.516 19.6001 228.099 19.6001C185.684 19.6001 151.3 53.9839 151.3 96.4001C151.3 138.814 185.684 173.2 228.099 173.2C270.516 173.2 304.9 138.814 304.9 96.4001Z" fill="url(#paint2_linear_863_122024)"/>
<path d="M304.9 96.4001C304.9 53.9839 270.516 19.6001 228.099 19.6001C185.684 19.6001 151.3 53.9839 151.3 96.4001C151.3 138.814 185.684 173.2 228.099 173.2C270.516 173.2 304.9 138.814 304.9 96.4001Z" fill="white" fill-opacity="0.64"/>
<mask id="mask0_863_122024" style="mask-type:alpha" maskUnits="userSpaceOnUse" x="160" y="29" width="136" height="135">
<path d="M295.3 96.3997C295.3 59.2878 265.212 29.1997 228.099 29.1997C190.988 29.1997 160.9 59.2878 160.9 96.3997C160.9 133.512 190.988 163.6 228.099 163.6C265.212 163.6 295.3 133.512 295.3 96.3997Z" fill="url(#paint3_linear_863_122024)"/>
<path d="M295.3 96.3997C295.3 59.2878 265.212 29.1997 228.099 29.1997C190.988 29.1997 160.9 59.2878 160.9 96.3997C160.9 133.512 190.988 163.6 228.099 163.6C265.212 163.6 295.3 133.512 295.3 96.3997Z" fill="white"/>
</mask>
<g mask="url(#mask0_863_122024)">
<g clip-path="url(#clip0_863_122024)">
<rect width="134.4" height="134.4" transform="translate(160.9 29.1992)" fill="white"/>
<path d="M228.1 163.599C265.214 163.599 295.3 133.513 295.3 96.3992C295.3 59.2857 265.214 29.1992 228.1 29.1992C190.987 29.1992 160.9 59.2857 160.9 96.3992C160.9 133.513 190.987 163.599 228.1 163.599Z" fill="white"/>
<path fill-rule="evenodd" clip-rule="evenodd" d="M201.65 74.943C201.65 75.5122 201.668 76.0718 201.704 76.6209C200.506 76.1821 199.221 75.9287 197.872 75.9287C193.437 75.9287 190.167 78.6346 188.253 81.6545C186.338 84.6748 185.387 88.4942 185.387 92.3802C185.387 96.2642 186.337 100.099 188.235 103.135C190.122 106.155 193.386 108.949 197.872 108.949C198.211 108.949 198.545 108.933 198.875 108.901C197.87 111.038 197.085 113.216 196.632 115.41C195.656 120.132 196.213 125.015 199.337 129.408C200.93 131.65 202.832 133.423 205.127 134.498C207.471 135.596 209.833 135.78 211.996 135.458C215.704 134.906 219.161 132.747 221.459 131.312C221.542 131.26 221.623 131.209 221.704 131.159C221.738 131.138 221.772 131.116 221.807 131.095C223.248 130.198 224.352 129.518 225.363 129.036C226.386 128.548 226.847 128.498 226.949 128.498C228.567 128.498 229.501 128.672 230.098 128.843C230.714 129.019 231.185 129.246 232.085 129.704L232.151 129.737C233.131 130.234 234.515 130.937 236.421 131.457C238.358 131.986 240.626 132.277 243.542 132.277C250.81 132.277 256.444 127.826 258.824 121.778C260.604 117.254 260.549 111.987 258.448 106.961C262.411 106.737 265.555 104.375 267.544 101.578C269.655 98.6104 270.812 94.7653 270.812 90.7139C270.812 86.6761 269.663 82.7654 267.628 79.7256C265.648 76.768 262.295 73.9573 257.834 73.9573C256.105 73.9573 254.528 74.381 253.123 75.0727C253.116 74.6861 253.098 74.2961 253.069 73.9028C253.026 69.5925 251.717 65.6431 249.5 62.6406C247.293 59.6528 243.823 57.2007 239.599 57.2007C234.8 57.2007 231.063 60.0641 228.755 63.4253C228.268 64.1361 227.826 64.8908 227.431 65.6815C227.043 64.8942 226.604 64.139 226.119 63.426C223.9 60.1698 220.209 57.2007 215.285 57.2007C210.939 57.2007 207.429 59.8669 205.243 62.9485C202.986 66.1314 201.65 70.3365 201.65 74.943ZM224.321 74.9429C224.321 81.1125 221.529 86.2781 215.286 86.2781C211.112 86.2781 206.908 82.8284 206.908 74.9429C206.908 67.7145 211.112 62.4576 215.286 62.4576C220.543 62.4576 224.321 68.7733 224.321 74.9429ZM197.872 103.692C202.046 103.692 206.579 98.5495 206.579 92.3802C206.579 86.2104 202.046 81.1856 197.872 81.1856C193.698 81.1856 190.644 86.2104 190.644 92.3802C190.644 98.5495 193.698 103.692 197.872 103.692ZM234.464 125.015C236.397 125.997 238.413 127.02 243.542 127.02C253.398 127.02 258.763 115.191 251.427 105.17C244.691 95.9707 236.313 87.5696 226.456 88.2495C219.228 88.7483 213.105 96.135 207.071 105.17C201.814 113.042 199.367 120.377 203.621 126.362C208.479 133.197 213.893 129.827 219.028 126.632C221.793 124.911 224.477 123.241 226.949 123.241C230.968 123.241 232.681 124.111 234.464 125.015ZM239.598 86.4425C243.772 86.4425 248.47 82.0067 247.812 74.1214C247.812 67.386 243.772 62.4576 239.598 62.4576C234.506 62.4576 230.399 68.5359 230.399 75.7642C230.399 81.9338 235.425 86.4425 239.598 86.4425ZM265.555 90.7139C265.555 96.8832 262.007 101.721 257.834 101.721C253.66 101.721 249.784 96.8832 249.784 90.7139C249.784 84.5441 253.66 79.2142 257.834 79.2142C262.007 79.2142 265.555 84.5441 265.555 90.7139Z" fill="#E16B15"/>
</g>
</g>
<path d="M192.1 96.3999C192.1 43.3796 149.12 0.399902 96.0986 0.399902C43.0802 0.399902 0.100098 43.3796 0.100098 96.3999C0.100098 149.417 43.0802 192.4 96.0986 192.4C149.12 192.4 192.1 149.417 192.1 96.3999Z" fill="url(#paint4_linear_863_122024)"/>
<path d="M9.70047 96.3998C9.70048 144.118 48.3841 182.8 96.102 182.8C143.82 182.8 182.5 144.118 182.5 96.3998C182.5 48.6813 143.82 9.9998 96.102 9.99981C48.384 9.99981 9.70047 48.6813 9.70047 96.3998V96.3998Z" fill="url(#paint5_linear_863_122024)"/>
<path d="M172.9 96.4001C172.9 53.9839 138.516 19.6001 96.0991 19.6001C53.6844 19.6001 19.3003 53.9839 19.3003 96.4001C19.3003 138.814 53.6844 173.2 96.0991 173.2C138.516 173.2 172.9 138.814 172.9 96.4001Z" fill="url(#paint6_linear_863_122024)"/>
<path d="M172.9 96.4001C172.9 53.9839 138.516 19.6001 96.0991 19.6001C53.6844 19.6001 19.3003 53.9839 19.3003 96.4001C19.3003 138.814 53.6844 173.2 96.0991 173.2C138.516 173.2 172.9 138.814 172.9 96.4001Z" fill="white" fill-opacity="0.64"/>
<mask id="mask1_863_122024" style="mask-type:alpha" maskUnits="userSpaceOnUse" x="28" y="29" width="136" height="135">
<path d="M163.3 96.3997C163.3 59.2878 133.212 29.1997 96.0991 29.1997C58.9883 29.1997 28.9004 59.2878 28.9004 96.3997C28.9004 133.512 58.9883 163.6 96.0991 163.6C133.212 163.6 163.3 133.512 163.3 96.3997Z" fill="url(#paint7_linear_863_122024)"/>
<path d="M163.3 96.3997C163.3 59.2878 133.212 29.1997 96.0991 29.1997C58.9883 29.1997 28.9004 59.2878 28.9004 96.3997C28.9004 133.512 58.9883 163.6 96.0991 163.6C133.212 163.6 163.3 133.512 163.3 96.3997Z" fill="white"/>
</mask>
<g mask="url(#mask1_863_122024)">
<g clip-path="url(#clip1_863_122024)">
<rect width="134.4" height="134.4" transform="translate(28.9004 29.1992)" fill="white"/>
<path d="M96.1004 163.599C133.214 163.599 163.3 133.513 163.3 96.3992C163.3 59.2857 133.214 29.1992 96.1004 29.1992C58.9869 29.1992 28.9004 59.2857 28.9004 96.3992C28.9004 133.513 58.9869 163.599 96.1004 163.599Z" fill="white"/>
<path fill-rule="evenodd" clip-rule="evenodd" d="M98.249 54.6616L58.3003 69.2939V125.126L94.618 138.137V81.8419L133.885 67.4009L98.249 54.6616Z" fill="#FFC13D"/>
<path fill-rule="evenodd" clip-rule="evenodd" d="M97.5732 83.4482V113.99L133.9 126.979L133.884 70.0474L97.5732 83.4482Z" fill="#E69C00"/>
</g>
</g>
<defs>
<linearGradient id="paint0_linear_863_122024" x1="324.1" y1="0.399137" x2="114.447" y2="22.1356" gradientUnits="userSpaceOnUse">
<stop stop-color="#E16B15"/>
<stop offset="1" stop-color="#99490E"/>
</linearGradient>
<linearGradient id="paint1_linear_863_122024" x1="141.701" y1="182.801" x2="330.388" y2="163.238" gradientUnits="userSpaceOnUse">
<stop stop-color="#E16B15"/>
<stop offset="1" stop-color="#99490E"/>
</linearGradient>
<linearGradient id="paint2_linear_863_122024" x1="304.9" y1="19.5995" x2="137.178" y2="36.9886" gradientUnits="userSpaceOnUse">
<stop stop-color="#E16B15"/>
<stop offset="1" stop-color="#99490E"/>
</linearGradient>
<linearGradient id="paint3_linear_863_122024" x1="168.806" y1="44.0232" x2="284.43" y2="147.788" gradientUnits="userSpaceOnUse">
<stop stop-color="#00E599"/>
<stop offset="1" stop-color="#00AF92"/>
</linearGradient>
<linearGradient id="paint4_linear_863_122024" x1="192.1" y1="0.399137" x2="-17.5527" y2="22.1356" gradientUnits="userSpaceOnUse">
<stop stop-color="#FFC13D"/>
<stop offset="1" stop-color="#AD8329"/>
</linearGradient>
<linearGradient id="paint5_linear_863_122024" x1="9.70056" y1="182.801" x2="198.388" y2="163.238" gradientUnits="userSpaceOnUse">
<stop stop-color="#FFC13D"/>
<stop offset="1" stop-color="#AD8329"/>
</linearGradient>
<linearGradient id="paint6_linear_863_122024" x1="172.9" y1="19.5995" x2="5.17803" y2="36.9886" gradientUnits="userSpaceOnUse">
<stop stop-color="#FFC13D"/>
<stop offset="1" stop-color="#AD8329"/>
</linearGradient>
<linearGradient id="paint7_linear_863_122024" x1="36.8063" y1="44.0232" x2="152.43" y2="147.788" gradientUnits="userSpaceOnUse">
<stop stop-color="#00E599"/>
<stop offset="1" stop-color="#00AF92"/>
</linearGradient>
<clipPath id="clip0_863_122024">
<rect width="134.4" height="134.4" fill="white" transform="translate(160.9 29.1992)"/>
</clipPath>
<clipPath id="clip1_863_122024">
<rect width="134.4" height="134.4" fill="white" transform="translate(28.9004 29.1992)"/>
</clipPath>
</defs>
</svg>
