<svg width="325" height="193" viewBox="0 0 325 193" fill="none" xmlns="http://www.w3.org/2000/svg">
<path d="M324.101 96.3999C324.101 43.3796 281.121 0.399902 228.099 0.399902C175.081 0.399902 132.101 43.3796 132.101 96.3999C132.101 149.417 175.081 192.4 228.099 192.4C281.121 192.4 324.101 149.417 324.101 96.3999Z" fill="url(#paint0_linear_863_121701)"/>
<path d="M141.701 96.3998C141.701 144.118 180.385 182.8 228.103 182.8C275.82 182.8 314.501 144.118 314.501 96.3998C314.501 48.6813 275.82 9.9998 228.102 9.99981C180.385 9.99981 141.701 48.6813 141.701 96.3998V96.3998Z" fill="url(#paint1_linear_863_121701)"/>
<path d="M304.901 96.4001C304.901 53.9839 270.517 19.6001 228.1 19.6001C185.685 19.6001 151.301 53.9839 151.301 96.4001C151.301 138.814 185.685 173.2 228.1 173.2C270.517 173.2 304.901 138.814 304.901 96.4001Z" fill="url(#paint2_linear_863_121701)"/>
<path d="M304.901 96.4001C304.901 53.9839 270.517 19.6001 228.1 19.6001C185.685 19.6001 151.301 53.9839 151.301 96.4001C151.301 138.814 185.685 173.2 228.1 173.2C270.517 173.2 304.901 138.814 304.901 96.4001Z" fill="white" fill-opacity="0.32"/>
<mask id="mask0_863_121701" style="mask-type:alpha" maskUnits="userSpaceOnUse" x="160" y="29" width="136" height="135">
<path d="M295.301 96.4002C295.301 59.2883 265.213 29.2002 228.1 29.2002C190.989 29.2002 160.901 59.2883 160.901 96.4002C160.901 133.512 190.989 163.6 228.1 163.6C265.213 163.6 295.301 133.512 295.301 96.4002Z" fill="url(#paint3_linear_863_121701)"/>
<path d="M295.301 96.4002C295.301 59.2883 265.213 29.2002 228.1 29.2002C190.989 29.2002 160.901 59.2883 160.901 96.4002C160.901 133.512 190.989 163.6 228.1 163.6C265.213 163.6 295.301 133.512 295.301 96.4002Z" fill="white"/>
</mask>
<g mask="url(#mask0_863_121701)">
<g clip-path="url(#clip0_863_121701)">
<rect width="134.4" height="134.4" transform="translate(160.901 29.2002)" fill="white"/>
<rect width="134.4" height="134.4" transform="translate(160.901 29.2002)" fill="url(#paint4_linear_863_121701)"/>
<path d="M233.743 86.0501C233.743 84.9662 234.609 84.0991 235.69 84.0991C236.609 84.0991 237.366 84.7495 237.582 85.6166C237.636 85.7791 237.636 85.8875 237.636 86.0501C237.636 87.0256 236.933 87.7843 236.014 87.9469C235.906 87.9469 235.852 87.9469 235.744 87.9469C234.609 88.0011 233.743 87.134 233.743 86.0501ZM215.252 51.854L214.928 53.8049H221.794C221.794 54.2927 221.578 54.7262 221.308 55.0514C220.983 55.3766 220.551 55.5391 220.064 55.5391H214.603L212.441 67.9495H218.118C218.118 68.4372 217.902 68.8707 217.631 69.1959C217.307 69.5211 216.874 69.6836 216.388 69.6836H212.116L209.954 82.094H214.495C214.495 82.5817 214.279 83.0153 214.009 83.3404C213.684 83.6656 213.252 83.8282 212.765 83.8282H209.683L207.521 96.2385H210.873C210.873 96.7262 210.657 97.1598 210.386 97.4849C210.062 97.8101 209.629 97.9727 209.143 97.9727H207.25L205.033 110.437H207.196C207.196 110.925 206.98 111.358 206.71 111.684C206.385 112.009 205.953 112.171 205.466 112.171H204.763C204.601 112.388 204.601 113.093 204.547 113.418C204.439 113.906 204.385 114.448 204.277 114.935C204.114 115.965 203.898 116.94 203.682 117.97C203.249 119.921 202.709 121.818 202.168 123.769C200.708 129.242 201.844 134.77 205.304 139.214C208.71 143.712 213.955 146.259 219.578 146.259H236.609C243.476 146.259 249.639 142.466 252.721 136.342C254.559 132.711 255.1 128.538 254.289 124.582C253.748 121.98 252.613 119.596 251.099 117.482C249.585 115.315 247.801 113.418 245.963 111.575C245.963 111.575 236.879 102.471 236.825 102.417C236.285 101.875 235.69 101.387 235.257 100.791C235.149 100.628 235.095 100.52 235.041 100.357C234.933 99.7069 235.96 99.3275 236.447 99.1107C237.042 98.894 237.636 98.5688 238.177 98.2437C239.258 97.5391 240.177 96.6178 240.88 95.534C241.313 94.9378 241.529 94.2875 241.854 93.583L241.962 93.4204C241.962 93.4204 242.016 93.312 241.962 93.312C242.016 93.2036 242.07 93.0953 242.07 92.9869C242.178 92.6075 242.232 92.2282 242.34 91.8488C242.34 91.8488 242.34 91.8488 242.34 91.7946C238.285 88.4888 239.853 84.8578 240.177 84.2617C240.123 84.2075 240.069 84.2075 240.069 84.1533L239.907 83.9366C239.799 83.8282 239.637 83.6656 239.529 83.5572C239.475 83.503 239.421 83.4488 239.366 83.4488C239.204 83.2862 238.988 83.1236 238.772 82.9611C238.772 82.9611 238.718 82.9611 238.718 82.9069C237.096 81.7146 235.041 81.0101 232.824 81.1185C232.608 81.1185 232.392 81.1185 232.175 81.1727C229.202 81.4978 226.552 83.3404 225.147 85.9417C222.389 91.0359 224.065 97.4849 227.255 101.929C228.715 103.988 230.499 105.722 232.23 107.457C234.176 109.408 236.176 111.358 238.177 113.309L240.502 115.64L240.448 115.694C240.502 115.694 243.854 120.355 244.124 120.68C245.963 123.389 247.531 125.774 247.098 129.297C246.936 130.489 246.612 131.681 246.017 132.765C244.233 136.342 240.772 138.455 236.825 138.455H219.794C216.55 138.455 213.63 136.992 211.63 134.445C209.683 131.898 209.035 128.646 209.846 125.503C210.819 121.764 211.846 118.241 212.603 114.448C213.09 112.063 213.522 109.733 214.009 107.348C214.603 104.205 215.252 101.062 215.847 97.9185C216.55 94.2875 217.253 90.7107 217.956 87.0798C218.713 83.2862 219.47 79.4927 220.172 75.6991C220.875 72.014 221.578 68.383 222.335 64.6978C222.984 61.4462 223.579 58.2488 224.228 54.9972C224.714 52.5043 225.201 49.9572 225.687 47.4643C225.958 46.0011 226.282 44.4836 226.552 43.0204C226.552 42.9662 226.715 42.2075 226.715 42.2075C220.875 42.5327 216.226 46.4888 215.252 51.854Z" fill="white"/>
<path d="M246.125 82.0398C244.99 82.0398 243.854 82.4733 242.881 83.0695C242.556 83.2862 242.178 83.503 241.854 83.7198C241.367 84.0449 241.043 84.2617 240.664 84.4243C240.556 84.4243 240.232 84.5869 240.069 84.6411C240.015 84.5869 239.961 84.5327 239.961 84.5327C239.691 85.1288 238.123 88.7056 242.124 92.0656C242.124 92.0114 242.124 91.9572 242.124 91.903C242.611 91.6862 243.151 91.5236 243.692 91.4153C244.016 91.3611 244.395 91.3069 244.773 91.3069L248.504 91.1443C249.045 91.1443 249.531 91.2527 250.072 91.3069C250.018 91.2527 249.91 91.1443 249.856 91.0901C249.585 90.8733 249.315 90.6566 249.045 90.4398C248.882 90.3314 248.774 90.2772 248.612 90.1688C247.801 89.7353 246.936 89.4101 246.017 89.1933C245.909 89.1933 245.801 89.1391 245.692 89.1391C245.53 89.0849 245.368 89.0849 245.206 89.0307C244.233 88.8682 243.259 88.8682 242.286 88.8682H242.124C241.962 88.8682 241.8 88.8682 241.637 88.8682C241.583 88.8682 241.529 88.8682 241.475 88.8682C241.637 88.6514 241.8 88.4346 241.962 88.2178C242.34 87.7301 242.719 87.2966 243.205 86.863C244.233 85.8875 245.476 85.1288 246.774 84.5327C248.071 83.9366 249.477 83.6114 250.829 83.503C249.639 82.4191 247.693 82.0398 246.125 82.0398Z" fill="white"/>
</g>
</g>
<path d="M192.1 96.3999C192.1 43.3796 149.12 0.399902 96.0986 0.399902C43.0802 0.399902 0.100098 43.3796 0.100098 96.3999C0.100098 149.417 43.0802 192.4 96.0986 192.4C149.12 192.4 192.1 149.417 192.1 96.3999Z" fill="url(#paint5_linear_863_121701)"/>
<path d="M9.70047 96.3998C9.70048 144.118 48.3841 182.8 96.102 182.8C143.82 182.8 182.5 144.118 182.5 96.3998C182.5 48.6813 143.82 9.9998 96.102 9.99981C48.384 9.99981 9.70047 48.6813 9.70047 96.3998V96.3998Z" fill="url(#paint6_linear_863_121701)"/>
<path d="M172.9 96.4001C172.9 53.9839 138.516 19.6001 96.0991 19.6001C53.6844 19.6001 19.3003 53.9839 19.3003 96.4001C19.3003 138.814 53.6844 173.2 96.0991 173.2C138.516 173.2 172.9 138.814 172.9 96.4001Z" fill="url(#paint7_linear_863_121701)"/>
<path d="M172.9 96.4001C172.9 53.9839 138.516 19.6001 96.0991 19.6001C53.6844 19.6001 19.3003 53.9839 19.3003 96.4001C19.3003 138.814 53.6844 173.2 96.0991 173.2C138.516 173.2 172.9 138.814 172.9 96.4001Z" fill="white" fill-opacity="0.64"/>
<mask id="mask1_863_121701" style="mask-type:alpha" maskUnits="userSpaceOnUse" x="28" y="29" width="136" height="135">
<path d="M163.3 96.4002C163.3 59.2883 133.212 29.2002 96.0991 29.2002C58.9883 29.2002 28.9004 59.2883 28.9004 96.4002C28.9004 133.512 58.9883 163.6 96.0991 163.6C133.212 163.6 163.3 133.512 163.3 96.4002Z" fill="url(#paint8_linear_863_121701)"/>
<path d="M163.3 96.4002C163.3 59.2883 133.212 29.2002 96.0991 29.2002C58.9883 29.2002 28.9004 59.2883 28.9004 96.4002C28.9004 133.512 58.9883 163.6 96.0991 163.6C133.212 163.6 163.3 133.512 163.3 96.4002Z" fill="white"/>
</mask>
<g mask="url(#mask1_863_121701)">
<rect width="134.4" height="134.4" transform="translate(28.9004 29.2002)" fill="white"/>
<path d="M78.2814 71.0005L77.6354 71.6452L62.8351 86.4135L58.3716 90.8675C58.1364 91.2135 57.8374 91.5119 57.4906 91.7465C56.8269 92.1814 56.0174 92.3355 55.2399 92.1751C54.4624 92.0147 53.7805 91.5528 53.3442 90.8909C53.0151 90.3986 52.8431 89.8183 52.8508 89.2265V75.22C52.9725 71.9291 54.3688 68.8137 56.7458 66.5292C59.1228 64.2447 62.2953 62.9694 65.5955 62.9717H78.2814L74.5814 66.7224L70.294 71.0005H78.2814Z" fill="url(#paint9_linear_863_121701)"/>
<path d="M138.95 79.0879V80.0255C138.737 87.9866 135.65 95.6032 130.258 101.475L88.2652 143.377C85.9388 145.452 82.9282 146.599 79.8079 146.6C78.9615 146.584 78.1174 146.505 77.2825 146.366L74.8158 145.604C72.1778 144.69 69.6069 143.593 67.122 142.322L66.5934 142.029C66.3665 141.86 66.1839 141.638 66.0612 141.383C65.9385 141.128 65.8793 140.847 65.8887 140.564C65.8827 140.165 66.0063 139.774 66.241 139.451L113.343 92.3911C113.572 92.1427 113.77 91.8672 113.931 91.5706C114.224 91.0095 114.46 90.4205 114.636 89.8125C114.723 89.4267 114.782 89.0349 114.812 88.6404C114.864 88.3899 114.883 88.1339 114.87 87.8785C114.87 85.7958 114.041 83.7983 112.565 82.3256C111.089 80.8529 109.088 80.0255 107 80.0255H89.7922L101.362 68.4804C101.709 68.2458 102.008 67.9474 102.243 67.6014C102.555 67.1109 102.718 66.5411 102.713 65.9604C102.713 65.1677 102.398 64.4075 101.836 63.847C101.274 63.2865 100.512 62.9716 99.7178 62.9716H75.1682C75.1682 62.9716 77.5174 60.393 78.4571 59.4553C80.5714 57.1698 83.1556 54.2395 85.9747 52.1884C91.6586 48.0167 98.5352 45.7774 105.591 45.8005C109.769 45.8057 113.911 46.5805 117.807 48.086L119.393 48.7307C122.213 50.0258 124.842 51.7019 127.204 53.7121L127.674 54.1223H127.733C131.258 57.2491 134.08 61.085 136.013 65.3777C137.946 69.6705 138.947 74.3229 138.95 79.0293V79.0879Z" fill="url(#paint10_linear_863_121701)"/>
<path d="M104.945 62.9722H75.3444L61.5425 76.7442C61.2758 77.018 61.0963 77.3645 61.0266 77.74C60.9569 78.1154 61.0001 78.5031 61.1508 78.8541C61.3016 79.205 61.5531 79.5036 61.8736 79.7122C62.1942 79.9208 62.5694 80.03 62.9521 80.0261H95.0193L107.412 67.6019C107.767 67.1297 107.954 66.5517 107.94 65.961C107.94 65.1683 107.625 64.4081 107.063 63.8476C106.501 63.2871 105.739 62.9722 104.945 62.9722ZM92.6113 71.5284C92.1073 71.5287 91.623 71.333 91.2612 70.9829C90.8994 70.6328 90.6885 70.1558 90.6732 69.6531C90.6811 69.3009 90.7824 68.9572 90.9668 68.6568V68.6568C91.1161 68.4199 91.3168 68.2196 91.5542 68.0708V68.0708C91.8516 67.8789 92.1984 67.7771 92.5526 67.7777C93.051 67.77 93.5322 67.9601 93.8901 68.3063C94.2481 68.6525 94.4536 69.1264 94.4614 69.6238C94.4691 70.1212 94.2786 70.6012 93.9317 70.9584C93.5847 71.3156 93.1098 71.5207 92.6113 71.5284Z" fill="#E35CC7"/>
<path d="M79.1615 62.9722H75.109L61.4834 76.5098C61.1899 76.7967 60.9892 77.1649 60.9074 77.5667C60.8256 77.9685 60.8663 78.3856 61.0243 78.7641C61.1824 79.1425 61.4505 79.4651 61.794 79.69C62.1376 79.915 62.5408 80.0321 62.9517 80.0261H69.2359L86.3267 62.9722H79.1615Z" fill="#8961D0"/>
<path d="M92.5537 71.5275C93.5917 71.5275 94.4331 70.6879 94.4331 69.6522C94.4331 68.6165 93.5917 67.7769 92.5537 67.7769C91.5157 67.7769 90.6743 68.6165 90.6743 69.6522C90.6743 70.6879 91.5157 71.5275 92.5537 71.5275Z" fill="#8961D0"/>
<path opacity="0.48" d="M92.5537 71.5275C93.5917 71.5275 94.4331 70.6879 94.4331 69.6522C94.4331 68.6165 93.5917 67.7769 92.5537 67.7769C91.5157 67.7769 90.6743 68.6165 90.6743 69.6522C90.6743 70.6879 91.5157 71.5275 92.5537 71.5275Z" fill="url(#paint11_linear_863_121701)"/>
<path opacity="0.48" d="M94.3733 69.6522C94.3736 69.1648 94.1837 68.6965 93.8438 68.3464C93.504 67.9964 93.0409 67.7921 92.5527 67.7769C92.2223 67.7856 91.8993 67.8758 91.6123 68.0395C91.3254 68.2031 91.0835 68.435 90.9082 68.7145C91.2664 68.405 91.7265 68.2381 92.2003 68.2457C92.4394 68.2457 92.6761 68.2927 92.897 68.384C93.1179 68.4753 93.3186 68.6091 93.4877 68.7778C93.6568 68.9465 93.7909 69.1468 93.8824 69.3672C93.9739 69.5876 94.021 69.8239 94.021 70.0624V70.121C94.0323 70.4309 93.9505 70.7371 93.786 71.0001C93.9726 70.8286 94.1213 70.6202 94.2224 70.3881C94.3235 70.1559 94.3749 69.9053 94.3733 69.6522V69.6522Z" fill="#480061"/>
<path opacity="0.75" d="M104.945 62.9722H75.3445L61.6014 76.7442C61.3381 77.0145 61.1596 77.3556 61.0879 77.7256C61.0163 78.0957 61.0545 78.4786 61.1981 78.8273C61.3416 79.1759 61.584 79.4751 61.8957 79.6881C62.2073 79.9011 62.5746 80.0186 62.9522 80.0261H95.0194L107.412 67.6019C107.768 67.1297 107.954 66.5517 107.94 65.961C107.94 65.1683 107.625 64.4081 107.063 63.8476C106.501 63.2871 105.739 62.9722 104.945 62.9722ZM92.5527 71.5284C92.3059 71.5284 92.0615 71.4799 91.8335 71.3857C91.6055 71.2914 91.3983 71.1533 91.2238 70.9792C91.0493 70.805 90.9108 70.5983 90.8164 70.3708C90.722 70.1432 90.6733 69.8994 90.6733 69.6531C90.6813 69.3009 90.7826 68.9572 90.967 68.6568V68.6568C91.1162 68.4199 91.3169 68.2196 91.5543 68.0708V68.0708C91.8517 67.8789 92.1985 67.7771 92.5527 67.7777C93.0409 67.793 93.504 67.9973 93.8439 68.3473C94.1837 68.6974 94.3736 69.1657 94.3734 69.6531C94.3609 70.1366 94.1669 70.5977 93.8296 70.9451C93.4924 71.2924 93.0366 71.5007 92.5527 71.5284V71.5284Z" fill="url(#paint12_linear_863_121701)"/>
<path d="M79.1615 62.9722H75.109L61.4834 76.5098C61.1899 76.7967 60.9892 77.1649 60.9074 77.5667C60.8256 77.9685 60.8663 78.3856 61.0243 78.7641C61.1824 79.1425 61.4505 79.4651 61.794 79.69C62.1376 79.915 62.5408 80.0321 62.9517 80.0261H69.2359L86.3267 62.9722H79.1615Z" fill="url(#paint13_linear_863_121701)"/>
<path opacity="0.43" d="M98.5429 80.0257L107.176 67.8945L95.019 80.0257H98.5429Z" fill="url(#paint14_linear_863_121701)"/>
</g>
<defs>
<linearGradient id="paint0_linear_863_121701" x1="324.101" y1="0.399137" x2="114.448" y2="22.1356" gradientUnits="userSpaceOnUse">
<stop stop-color="#00A9EE"/>
<stop offset="1" stop-color="#0073A1"/>
</linearGradient>
<linearGradient id="paint1_linear_863_121701" x1="141.701" y1="182.801" x2="330.389" y2="163.238" gradientUnits="userSpaceOnUse">
<stop stop-color="#00A9EE"/>
<stop offset="1" stop-color="#0073A1"/>
</linearGradient>
<linearGradient id="paint2_linear_863_121701" x1="304.901" y1="19.5995" x2="137.179" y2="36.9886" gradientUnits="userSpaceOnUse">
<stop stop-color="#00A9EE"/>
<stop offset="1" stop-color="#0073A1"/>
</linearGradient>
<linearGradient id="paint3_linear_863_121701" x1="168.807" y1="44.0237" x2="284.43" y2="147.788" gradientUnits="userSpaceOnUse">
<stop stop-color="#00E599"/>
<stop offset="1" stop-color="#00AF92"/>
</linearGradient>
<linearGradient id="paint4_linear_863_121701" x1="27.6603" y1="15.0974" x2="107.365" y2="120.126" gradientUnits="userSpaceOnUse">
<stop stop-color="#00B3EE"/>
<stop offset="1" stop-color="#009FEE"/>
</linearGradient>
<linearGradient id="paint5_linear_863_121701" x1="192.1" y1="0.399137" x2="-17.5527" y2="22.1356" gradientUnits="userSpaceOnUse">
<stop stop-color="#DC42C9"/>
<stop offset="1" stop-color="#952D88"/>
</linearGradient>
<linearGradient id="paint6_linear_863_121701" x1="9.70056" y1="182.801" x2="198.388" y2="163.238" gradientUnits="userSpaceOnUse">
<stop stop-color="#DC42C9"/>
<stop offset="1" stop-color="#952D88"/>
</linearGradient>
<linearGradient id="paint7_linear_863_121701" x1="172.9" y1="19.5995" x2="5.17803" y2="36.9886" gradientUnits="userSpaceOnUse">
<stop stop-color="#DC42C9"/>
<stop offset="1" stop-color="#952D88"/>
</linearGradient>
<linearGradient id="paint8_linear_863_121701" x1="36.8063" y1="44.0237" x2="152.43" y2="147.788" gradientUnits="userSpaceOnUse">
<stop stop-color="#00E599"/>
<stop offset="1" stop-color="#00AF92"/>
</linearGradient>
<linearGradient id="paint9_linear_863_121701" x1="52.8508" y1="77.6052" x2="78.2814" y2="77.6052" gradientUnits="userSpaceOnUse">
<stop stop-color="#4750D9"/>
<stop offset="0.41" stop-color="#5C45DC"/>
<stop offset="1" stop-color="#8131E1"/>
</linearGradient>
<linearGradient id="paint10_linear_863_121701" x1="65.8887" y1="96.2004" x2="138.95" y2="96.2004" gradientUnits="userSpaceOnUse">
<stop stop-color="#E96161"/>
<stop offset="0.2" stop-color="#E65B76"/>
<stop offset="0.61" stop-color="#DF4AAC"/>
<stop offset="1" stop-color="#D739E6"/>
</linearGradient>
<linearGradient id="paint11_linear_863_121701" x1="90.6684" y1="69.6522" x2="94.3861" y2="69.6522" gradientUnits="userSpaceOnUse">
<stop stop-color="#B100D3"/>
<stop offset="0.23" stop-color="#9C00C0"/>
<stop offset="0.69" stop-color="#67008E"/>
<stop offset="1" stop-color="#40006A"/>
</linearGradient>
<linearGradient id="paint12_linear_863_121701" x1="61.0552" y1="71.4991" x2="107.94" y2="71.4991" gradientUnits="userSpaceOnUse">
<stop stop-color="#D0D7D3"/>
<stop offset="0.52" stop-color="#D9C5E8"/>
<stop offset="1" stop-color="#E3B1FF"/>
</linearGradient>
<linearGradient id="paint13_linear_863_121701" x1="60.902" y1="71.4991" x2="86.3208" y2="71.4991" gradientUnits="userSpaceOnUse">
<stop stop-color="#B277EC"/>
<stop offset="0.77" stop-color="#9336E7"/>
<stop offset="1" stop-color="#8921E6"/>
</linearGradient>
<linearGradient id="paint14_linear_863_121701" x1="95.0014" y1="73.9601" x2="107.182" y2="73.9601" gradientUnits="userSpaceOnUse">
<stop stop-opacity="0.5"/>
<stop offset="0.1" stop-color="#201322" stop-opacity="0.59"/>
<stop offset="0.25" stop-color="#4A2C4E" stop-opacity="0.72"/>
<stop offset="0.4" stop-color="#6D4173" stop-opacity="0.82"/>
<stop offset="0.55" stop-color="#885190" stop-opacity="0.9"/>
<stop offset="0.7" stop-color="#9B5DA4" stop-opacity="0.95"/>
<stop offset="0.85" stop-color="#A664B0" stop-opacity="0.99"/>
<stop offset="1" stop-color="#AA66B4"/>
</linearGradient>
<clipPath id="clip0_863_121701">
<rect width="134.4" height="134.4" fill="white" transform="translate(160.901 29.2002)"/>
</clipPath>
</defs>
</svg>
