<svg width="325" height="193" viewBox="0 0 325 193" fill="none" xmlns="http://www.w3.org/2000/svg" xmlns:xlink="http://www.w3.org/1999/xlink">
<path d="M324.101 96.6001C324.101 43.5798 281.121 0.600098 228.099 0.600098C175.081 0.600098 132.101 43.5798 132.101 96.6001C132.101 149.617 175.081 192.6 228.099 192.6C281.121 192.6 324.101 149.617 324.101 96.6001Z" fill="url(#paint0_linear_863_121650)"/>
<path d="M141.701 96.6C141.701 144.319 180.385 183 228.103 183C275.82 183 314.501 144.319 314.501 96.6C314.501 48.8815 275.82 10.2 228.102 10.2C180.385 10.2 141.701 48.8815 141.701 96.6V96.6Z" fill="url(#paint1_linear_863_121650)"/>
<path d="M304.901 96.6001C304.901 54.1838 270.517 19.8 228.1 19.8C185.685 19.8 151.301 54.1838 151.301 96.6001C151.301 139.014 185.685 173.4 228.1 173.4C270.517 173.4 304.901 139.014 304.901 96.6001Z" fill="url(#paint2_linear_863_121650)"/>
<path d="M304.901 96.6001C304.901 54.1838 270.517 19.8 228.1 19.8C185.685 19.8 151.301 54.1838 151.301 96.6001C151.301 139.014 185.685 173.4 228.1 173.4C270.517 173.4 304.901 139.014 304.901 96.6001Z" fill="white" fill-opacity="0.32"/>
<mask id="mask0_863_121650" style="mask-type:alpha" maskUnits="userSpaceOnUse" x="160" y="29" width="136" height="135">
<path d="M295.3 96.6001C295.3 59.4882 265.212 29.4001 228.099 29.4001C190.988 29.4001 160.9 59.4882 160.9 96.6001C160.9 133.712 190.988 163.8 228.099 163.8C265.212 163.8 295.3 133.712 295.3 96.6001Z" fill="url(#paint3_linear_863_121650)"/>
<path d="M295.3 96.6001C295.3 59.4882 265.212 29.4001 228.099 29.4001C190.988 29.4001 160.9 59.4882 160.9 96.6001C160.9 133.712 190.988 163.8 228.099 163.8C265.212 163.8 295.3 133.712 295.3 96.6001Z" fill="white"/>
</mask>
<g mask="url(#mask0_863_121650)">
<g clip-path="url(#clip0_863_121650)">
<rect width="134.4" height="134.4" transform="translate(160.9 29.4001)" fill="url(#pattern0)"/>
<path d="M228.1 44.3335C199.231 44.3335 175.833 67.7341 175.833 96.5985C175.833 125.463 199.231 148.867 228.1 148.867C256.969 148.867 280.367 125.465 280.367 96.5985C280.367 67.7324 256.967 44.3335 228.1 44.3335ZM226.799 138.336C203.716 138.336 184.981 119.719 184.791 96.6832C184.6 73.5435 203.399 54.4615 226.538 54.3277C230.854 54.2979 235.148 54.9327 239.271 56.21C236.332 55.4329 233.305 55.041 230.265 55.0444C210.846 55.0376 196.26 67.9052 193.766 86.0198C193.705 86.467 193.383 91.4023 193.403 91.8496C193.657 98.64 195.853 106.067 199.43 111.343C204.624 119.003 211.479 123.95 218.444 125.778C235.924 130.368 249.006 120.514 253.335 108.294C254.958 103.719 255.876 94.7755 251.696 87.9376C247.725 81.4521 242.559 77.7503 234.172 77.7503C233.993 77.7503 233.812 77.7503 233.634 77.7604C231.303 77.8207 229.004 78.3178 226.857 79.2259H226.84C224.632 80.3304 222.754 81.9957 221.394 84.0548C220.033 86.1139 219.238 88.4945 219.087 90.958C218.936 93.4214 219.436 95.8812 220.536 98.0906C221.636 100.3 223.297 102.182 225.354 103.546C223.452 101.566 222.378 98.9333 222.352 96.1874C222.326 93.4415 223.35 90.7894 225.214 88.7728C227.078 86.7563 229.641 85.5275 232.381 85.3377C235.12 85.1478 237.829 86.0111 239.953 87.7513C239.953 87.7513 239.953 87.7513 239.963 87.7513C241.225 88.7837 242.236 90.088 242.922 91.5666C244.251 93.9542 244.947 96.6425 244.943 99.3753V99.4702C244.896 107.433 239.398 115.289 227.201 115.348C219.226 115.387 211.181 110.266 207.039 102.279C205.213 98.7524 204.263 94.8381 204.269 90.8669C204.269 90.6619 204.269 90.4569 204.269 90.2519C204.482 81.5419 208.062 72.7286 217.968 67.0411C222.983 64.1609 229.207 63.0021 235.37 62.8056C235.743 62.792 236.115 62.7852 236.487 62.7852C244.889 62.7852 252.35 66.892 256.886 71.0022C258.844 72.7777 261.122 75.1378 262.25 76.6473C267.179 83.2548 268.28 88.0274 269.11 95.4057C269.376 97.7776 269.088 102.635 268.602 104.873C265.684 125.221 247.95 138.336 226.799 138.336Z" fill="white"/>
</g>
</g>
<path d="M192.1 96.6001C192.1 43.5798 149.12 0.600098 96.0986 0.600098C43.0802 0.600098 0.100098 43.5798 0.100098 96.6001C0.100098 149.617 43.0802 192.6 96.0986 192.6C149.12 192.6 192.1 149.617 192.1 96.6001Z" fill="url(#paint4_linear_863_121650)"/>
<path d="M9.70047 96.6C9.70048 144.319 48.3841 183 96.102 183C143.82 183 182.5 144.319 182.5 96.6C182.5 48.8815 143.82 10.2 96.102 10.2C48.384 10.2 9.70047 48.8815 9.70047 96.6V96.6Z" fill="url(#paint5_linear_863_121650)"/>
<path d="M172.9 96.6001C172.9 54.1838 138.516 19.8 96.0991 19.8C53.6844 19.8 19.3003 54.1838 19.3003 96.6001C19.3003 139.014 53.6844 173.4 96.0991 173.4C138.516 173.4 172.9 139.014 172.9 96.6001Z" fill="url(#paint6_linear_863_121650)"/>
<path d="M172.9 96.6001C172.9 54.1838 138.516 19.8 96.0991 19.8C53.6844 19.8 19.3003 54.1838 19.3003 96.6001C19.3003 139.014 53.6844 173.4 96.0991 173.4C138.516 173.4 172.9 139.014 172.9 96.6001Z" fill="white" fill-opacity="0.64"/>
<mask id="mask1_863_121650" style="mask-type:alpha" maskUnits="userSpaceOnUse" x="28" y="29" width="136" height="135">
<path d="M163.3 96.6001C163.3 59.4882 133.212 29.4001 96.0986 29.4001C58.9878 29.4001 28.8999 59.4882 28.8999 96.6001C28.8999 133.712 58.9878 163.8 96.0986 163.8C133.212 163.8 163.3 133.712 163.3 96.6001Z" fill="url(#paint7_linear_863_121650)"/>
<path d="M163.3 96.6001C163.3 59.4882 133.212 29.4001 96.0986 29.4001C58.9878 29.4001 28.8999 59.4882 28.8999 96.6001C28.8999 133.712 58.9878 163.8 96.0986 163.8C133.212 163.8 163.3 133.712 163.3 96.6001Z" fill="white"/>
</mask>
<g mask="url(#mask1_863_121650)">
<rect width="134.4" height="134.4" transform="translate(28.8999 29.4001)" fill="white"/>
<path d="M78.2809 71.2005L77.6349 71.8451L62.8346 86.6135L58.3711 91.0674C58.1359 91.4135 57.8369 91.7118 57.4901 91.9465C56.8265 92.3813 56.0169 92.5355 55.2394 92.375C54.4619 92.2146 53.7801 91.7527 53.3437 91.0909C53.0146 90.5985 52.8426 90.0183 52.8503 89.4265V75.42C52.972 72.1291 54.3683 69.0136 56.7453 66.7292C59.1223 64.4447 62.2948 63.1694 65.595 63.1716H78.2809L74.5809 66.9223L70.2935 71.2005H78.2809Z" fill="url(#paint8_linear_863_121650)"/>
<path d="M138.95 79.2878V80.2255C138.736 88.1866 135.65 95.8031 130.258 101.675L88.2647 143.577C85.9383 145.652 82.9277 146.799 79.8074 146.8C78.961 146.784 78.117 146.705 77.282 146.566L74.8153 145.804C72.1773 144.89 69.6064 143.793 67.1215 142.522L66.5929 142.229C66.366 142.059 66.1834 141.838 66.0607 141.583C65.938 141.328 65.8788 141.047 65.8882 140.764C65.8822 140.365 66.0058 139.974 66.2405 139.65L113.343 92.591C113.572 92.3427 113.769 92.0671 113.93 91.7706C114.223 91.2094 114.459 90.6205 114.635 90.0124C114.723 89.6266 114.782 89.2349 114.811 88.8403C114.863 88.5899 114.883 88.3339 114.87 88.0785C114.87 85.9957 114.041 83.9983 112.565 82.5256C111.089 81.0528 109.087 80.2255 107 80.2255H89.7917L101.362 68.6804C101.709 68.4457 102.008 68.1474 102.243 67.8013C102.554 67.3108 102.717 66.7411 102.713 66.1604C102.713 65.3677 102.397 64.6075 101.835 64.047C101.274 63.4864 100.512 63.1716 99.7173 63.1716H75.1677C75.1677 63.1716 77.5169 60.593 78.4566 59.6553C80.571 57.3697 83.1551 54.4395 85.9742 52.3883C91.6581 48.2167 98.5347 45.9774 105.59 46.0004C109.769 46.0056 113.91 46.7804 117.807 48.286L119.392 48.9306C122.213 50.2257 124.841 51.9019 127.203 53.912L127.673 54.3223H127.732C131.257 57.4491 134.079 61.2849 136.013 65.5777C137.946 69.8704 138.947 74.5229 138.95 79.2292V79.2878Z" fill="url(#paint9_linear_863_121650)"/>
<path d="M104.944 63.1716H75.3439L61.542 76.9437C61.2753 77.2175 61.0958 77.564 61.0261 77.9394C60.9564 78.3149 60.9996 78.7026 61.1504 79.0535C61.3011 79.4045 61.5526 79.7031 61.8731 79.9117C62.1937 80.1202 62.5689 80.2295 62.9516 80.2256H95.0188L107.411 67.8014C107.767 67.3291 107.953 66.7511 107.94 66.1605C107.94 65.3678 107.624 64.6076 107.062 64.047C106.501 63.4865 105.739 63.1716 104.944 63.1716ZM92.6108 71.7279C92.1068 71.7281 91.6226 71.5324 91.2607 71.1823C90.8989 70.8322 90.688 70.3552 90.6727 69.8526C90.6806 69.5004 90.7819 69.1566 90.9664 68.8563V68.8563C91.1156 68.6194 91.3163 68.4191 91.5537 68.2702V68.2702C91.8511 68.0783 92.1979 67.9765 92.5521 67.9772C93.0505 67.9694 93.5317 68.1596 93.8896 68.5058C94.2476 68.852 94.4531 69.3259 94.4609 69.8232C94.4687 70.3206 94.2781 70.8007 93.9312 71.1579C93.5842 71.5151 93.1093 71.7201 92.6108 71.7279Z" fill="#E35CC7"/>
<path d="M79.161 63.1716H75.1086L61.4829 76.7093C61.1894 76.9962 60.9887 77.3643 60.9069 77.7661C60.8251 78.168 60.8658 78.585 61.0238 78.9635C61.1819 79.342 61.45 79.6645 61.7935 79.8895C62.1371 80.1145 62.5403 80.2315 62.9512 80.2256H69.2354L86.3262 63.1716H79.161Z" fill="#8961D0"/>
<path d="M92.5532 71.7277C93.5912 71.7277 94.4326 70.8881 94.4326 69.8524C94.4326 68.8167 93.5912 67.9771 92.5532 67.9771C91.5153 67.9771 90.6738 68.8167 90.6738 69.8524C90.6738 70.8881 91.5153 71.7277 92.5532 71.7277Z" fill="#8961D0"/>
<path opacity="0.48" d="M92.5532 71.7277C93.5912 71.7277 94.4326 70.8881 94.4326 69.8524C94.4326 68.8167 93.5912 67.9771 92.5532 67.9771C91.5153 67.9771 90.6738 68.8167 90.6738 69.8524C90.6738 70.8881 91.5153 71.7277 92.5532 71.7277Z" fill="url(#paint10_linear_863_121650)"/>
<path opacity="0.48" d="M94.3729 69.8524C94.3731 69.365 94.1832 68.8967 93.8433 68.5466C93.5035 68.1966 93.0404 67.9923 92.5522 67.9771C92.2218 67.9858 91.8988 68.076 91.6118 68.2396C91.3249 68.4033 91.083 68.6352 90.9077 68.9147C91.266 68.6052 91.726 68.4383 92.1998 68.4459C92.4389 68.4459 92.6756 68.4929 92.8965 68.5842C93.1174 68.6755 93.3181 68.8093 93.4872 68.978C93.6563 69.1467 93.7904 69.347 93.8819 69.5674C93.9734 69.7878 94.0205 70.024 94.0205 70.2626V70.3212C94.0319 70.6311 93.95 70.9372 93.7855 71.2003C93.9721 71.0288 94.1208 70.8204 94.2219 70.5883C94.323 70.3561 94.3745 70.1055 94.3729 69.8524V69.8524Z" fill="#480061"/>
<path opacity="0.75" d="M104.945 63.1716H75.344L61.6009 76.9437C61.3376 77.2139 61.1591 77.555 61.0874 77.9251C61.0158 78.2952 61.0541 78.6781 61.1976 79.0267C61.3411 79.3754 61.5836 79.6746 61.8952 79.8876C62.2069 80.1006 62.5741 80.218 62.9517 80.2256H95.019L107.411 67.8014C107.767 67.3291 107.953 66.7511 107.94 66.1605C107.94 65.3678 107.624 64.6076 107.063 64.047C106.501 63.4865 105.739 63.1716 104.945 63.1716ZM92.5522 71.7279C92.3054 71.7279 92.0611 71.6794 91.833 71.5851C91.605 71.4909 91.3978 71.3528 91.2233 71.1786C91.0488 71.0045 90.9104 70.7977 90.8159 70.5702C90.7215 70.3427 90.6729 70.0988 90.6729 69.8526C90.6808 69.5004 90.7821 69.1566 90.9665 68.8563V68.8563C91.1157 68.6194 91.3164 68.4191 91.5538 68.2702V68.2702C91.8513 68.0783 92.1981 67.9765 92.5522 67.9772C93.0404 67.9924 93.5035 68.1967 93.8434 68.5468C94.1832 68.8968 94.3732 69.3652 94.3729 69.8526C94.3605 70.336 94.1664 70.7972 93.8291 71.1445C93.4919 71.4919 93.0361 71.7001 92.5522 71.7279V71.7279Z" fill="url(#paint11_linear_863_121650)"/>
<path d="M79.161 63.1716H75.1086L61.4829 76.7093C61.1894 76.9962 60.9887 77.3643 60.9069 77.7661C60.8251 78.168 60.8658 78.585 61.0238 78.9635C61.1819 79.342 61.45 79.6645 61.7935 79.8895C62.1371 80.1145 62.5403 80.2315 62.9512 80.2256H69.2354L86.3262 63.1716H79.161Z" fill="url(#paint12_linear_863_121650)"/>
<path opacity="0.43" d="M98.5424 80.2254L107.176 68.0942L95.0186 80.2254H98.5424Z" fill="url(#paint13_linear_863_121650)"/>
</g>
<defs>
<pattern id="pattern0" patternContentUnits="objectBoundingBox" width="1" height="1">
</pattern>
<linearGradient id="paint0_linear_863_121650" x1="324.101" y1="0.599332" x2="114.448" y2="22.3358" gradientUnits="userSpaceOnUse">
<stop stop-color="#EF5C82"/>
<stop offset="1" stop-color="#A23E58"/>
</linearGradient>
<linearGradient id="paint1_linear_863_121650" x1="141.701" y1="183.001" x2="330.389" y2="163.438" gradientUnits="userSpaceOnUse">
<stop stop-color="#EF5C82"/>
<stop offset="1" stop-color="#A23E58"/>
</linearGradient>
<linearGradient id="paint2_linear_863_121650" x1="304.901" y1="19.7994" x2="137.179" y2="37.1886" gradientUnits="userSpaceOnUse">
<stop stop-color="#EF5C82"/>
<stop offset="1" stop-color="#A23E58"/>
</linearGradient>
<linearGradient id="paint3_linear_863_121650" x1="168.806" y1="44.2237" x2="284.43" y2="147.988" gradientUnits="userSpaceOnUse">
<stop stop-color="#00E599"/>
<stop offset="1" stop-color="#00AF92"/>
</linearGradient>
<linearGradient id="paint4_linear_863_121650" x1="192.1" y1="0.599332" x2="-17.5527" y2="22.3358" gradientUnits="userSpaceOnUse">
<stop stop-color="#DC42C9"/>
<stop offset="1" stop-color="#952D88"/>
</linearGradient>
<linearGradient id="paint5_linear_863_121650" x1="9.70056" y1="183.001" x2="198.388" y2="163.438" gradientUnits="userSpaceOnUse">
<stop stop-color="#DC42C9"/>
<stop offset="1" stop-color="#952D88"/>
</linearGradient>
<linearGradient id="paint6_linear_863_121650" x1="172.9" y1="19.7994" x2="5.17803" y2="37.1886" gradientUnits="userSpaceOnUse">
<stop stop-color="#DC42C9"/>
<stop offset="1" stop-color="#952D88"/>
</linearGradient>
<linearGradient id="paint7_linear_863_121650" x1="36.8058" y1="44.2237" x2="152.429" y2="147.988" gradientUnits="userSpaceOnUse">
<stop stop-color="#00E599"/>
<stop offset="1" stop-color="#00AF92"/>
</linearGradient>
<linearGradient id="paint8_linear_863_121650" x1="52.8503" y1="77.8052" x2="78.2809" y2="77.8052" gradientUnits="userSpaceOnUse">
<stop stop-color="#4750D9"/>
<stop offset="0.41" stop-color="#5C45DC"/>
<stop offset="1" stop-color="#8131E1"/>
</linearGradient>
<linearGradient id="paint9_linear_863_121650" x1="65.8882" y1="96.4003" x2="138.95" y2="96.4003" gradientUnits="userSpaceOnUse">
<stop stop-color="#E96161"/>
<stop offset="0.2" stop-color="#E65B76"/>
<stop offset="0.61" stop-color="#DF4AAC"/>
<stop offset="1" stop-color="#D739E6"/>
</linearGradient>
<linearGradient id="paint10_linear_863_121650" x1="90.668" y1="69.8524" x2="94.3856" y2="69.8524" gradientUnits="userSpaceOnUse">
<stop stop-color="#B100D3"/>
<stop offset="0.23" stop-color="#9C00C0"/>
<stop offset="0.69" stop-color="#67008E"/>
<stop offset="1" stop-color="#40006A"/>
</linearGradient>
<linearGradient id="paint11_linear_863_121650" x1="61.0547" y1="71.6986" x2="107.94" y2="71.6986" gradientUnits="userSpaceOnUse">
<stop stop-color="#D0D7D3"/>
<stop offset="0.52" stop-color="#D9C5E8"/>
<stop offset="1" stop-color="#E3B1FF"/>
</linearGradient>
<linearGradient id="paint12_linear_863_121650" x1="60.9015" y1="71.6986" x2="86.3203" y2="71.6986" gradientUnits="userSpaceOnUse">
<stop stop-color="#B277EC"/>
<stop offset="0.77" stop-color="#9336E7"/>
<stop offset="1" stop-color="#8921E6"/>
</linearGradient>
<linearGradient id="paint13_linear_863_121650" x1="95.0009" y1="74.1598" x2="107.182" y2="74.1598" gradientUnits="userSpaceOnUse">
<stop stop-opacity="0.5"/>
<stop offset="0.1" stop-color="#201322" stop-opacity="0.59"/>
<stop offset="0.25" stop-color="#4A2C4E" stop-opacity="0.72"/>
<stop offset="0.4" stop-color="#6D4173" stop-opacity="0.82"/>
<stop offset="0.55" stop-color="#885190" stop-opacity="0.9"/>
<stop offset="0.7" stop-color="#9B5DA4" stop-opacity="0.95"/>
<stop offset="0.85" stop-color="#A664B0" stop-opacity="0.99"/>
<stop offset="1" stop-color="#AA66B4"/>
</linearGradient>
<clipPath id="clip0_863_121650">
<rect width="134.4" height="134.4" fill="white" transform="translate(160.9 29.4001)"/>
</clipPath>
</defs>
</svg>
