<svg width="325" height="193" viewBox="0 0 325 193" fill="none" xmlns="http://www.w3.org/2000/svg">
<path d="M324.101 96.3999C324.101 43.3796 281.121 0.399902 228.099 0.399902C175.081 0.399902 132.101 43.3796 132.101 96.3999C132.101 149.417 175.081 192.4 228.099 192.4C281.121 192.4 324.101 149.417 324.101 96.3999Z" fill="url(#paint0_linear_863_121684)"/>
<path d="M141.701 96.3998C141.701 144.118 180.385 182.8 228.103 182.8C275.82 182.8 314.501 144.118 314.501 96.3998C314.501 48.6813 275.82 9.9998 228.102 9.99981C180.385 9.99981 141.701 48.6813 141.701 96.3998V96.3998Z" fill="url(#paint1_linear_863_121684)"/>
<path d="M304.901 96.3999C304.901 53.9836 270.517 19.5999 228.1 19.5999C185.685 19.5999 151.301 53.9836 151.301 96.3999C151.301 138.813 185.685 173.2 228.1 173.2C270.517 173.2 304.901 138.813 304.901 96.3999Z" fill="url(#paint2_linear_863_121684)"/>
<path d="M304.901 96.3999C304.901 53.9836 270.517 19.5999 228.1 19.5999C185.685 19.5999 151.301 53.9836 151.301 96.3999C151.301 138.813 185.685 173.2 228.1 173.2C270.517 173.2 304.901 138.813 304.901 96.3999Z" fill="white" fill-opacity="0.64"/>
<mask id="mask0_863_121684" style="mask-type:alpha" maskUnits="userSpaceOnUse" x="160" y="29" width="136" height="135">
<path d="M295.3 96.3999C295.3 59.288 265.212 29.2 228.099 29.2C190.988 29.2 160.9 59.288 160.9 96.3999C160.9 133.512 190.988 163.6 228.099 163.6C265.212 163.6 295.3 133.512 295.3 96.3999Z" fill="url(#paint3_linear_863_121684)"/>
<path d="M295.3 96.3999C295.3 59.288 265.212 29.2 228.099 29.2C190.988 29.2 160.9 59.288 160.9 96.3999C160.9 133.512 190.988 163.6 228.099 163.6C265.212 163.6 295.3 133.512 295.3 96.3999Z" fill="white"/>
</mask>
<g mask="url(#mask0_863_121684)">
<g clip-path="url(#clip0_863_121684)">
<rect width="134.4" height="134.4" transform="translate(160.9 29.2)" fill="white"/>
<path d="M228.1 163.6C265.214 163.6 295.3 133.514 295.3 96.3999C295.3 59.2865 265.214 29.2 228.1 29.2C190.987 29.2 160.9 59.2865 160.9 96.3999C160.9 133.514 190.987 163.6 228.1 163.6Z" fill="white"/>
<path fill-rule="evenodd" clip-rule="evenodd" d="M201.704 76.6201C201.668 76.071 201.65 75.5115 201.65 74.9422C201.65 70.3358 202.986 66.1307 205.243 62.9478C207.429 59.8662 210.939 57.2 215.286 57.2C220.209 57.2 223.899 60.169 226.119 63.4253C226.605 64.1382 227.043 64.8935 227.431 65.6808C227.825 64.8901 228.267 64.1354 228.755 63.4246C231.063 60.0634 234.801 57.2 239.599 57.2C243.823 57.2 247.293 59.652 249.5 62.64C251.717 65.6423 253.026 69.5918 253.069 73.902C253.098 74.2953 253.116 74.6855 253.124 75.072C254.527 74.3802 256.106 73.9565 257.834 73.9565C262.294 73.9565 265.648 76.7672 267.628 79.7249C269.664 82.7646 270.812 86.6754 270.812 90.7131C270.812 94.7646 269.654 98.6097 267.544 101.577C265.555 104.374 262.411 106.736 258.449 106.96C260.549 111.986 260.604 117.253 258.824 121.777C256.445 127.825 250.81 132.276 243.542 132.276C240.626 132.276 238.358 131.985 236.421 131.456C234.515 130.936 233.131 130.234 232.151 129.736L232.085 129.703C231.184 129.246 230.714 129.019 230.098 128.842C229.501 128.671 228.567 128.497 226.949 128.497C226.847 128.497 226.385 128.547 225.363 129.035C224.352 129.517 223.248 130.197 221.806 131.095C221.694 131.164 221.578 131.237 221.459 131.311C219.161 132.746 215.704 134.906 211.996 135.457C209.833 135.78 207.471 135.595 205.127 134.497C202.832 133.422 200.93 131.649 199.337 129.408C196.213 125.014 195.656 120.131 196.632 115.409C197.085 113.215 197.87 111.037 198.875 108.901C198.545 108.932 198.211 108.948 197.872 108.948C193.386 108.948 190.122 106.154 188.235 103.135C186.337 100.098 185.387 96.2634 185.387 92.3795C185.387 88.4934 186.338 84.6741 188.253 81.6537C190.167 78.6339 193.437 75.9279 197.872 75.9279C199.221 75.9279 200.506 76.1814 201.704 76.6201Z" fill="#2B2E34"/>
<path fill-rule="evenodd" clip-rule="evenodd" d="M215.288 86.2779C221.531 86.2779 224.323 81.1122 224.323 74.9426C224.323 68.773 220.545 62.4573 215.288 62.4573C211.114 62.4573 206.91 67.7143 206.91 74.9426C206.91 82.8281 211.114 86.2779 215.288 86.2779ZM206.579 92.38C206.579 98.5493 202.046 103.692 197.872 103.692C193.699 103.692 190.644 98.5493 190.644 92.38C190.644 86.2102 193.699 81.1853 197.872 81.1853C202.046 81.1853 206.579 86.2102 206.579 92.38ZM243.543 127.019C238.415 127.019 236.399 125.996 234.466 125.015C232.683 124.11 230.97 123.241 226.951 123.241C224.478 123.241 221.795 124.911 219.03 126.632C213.895 129.827 208.481 133.197 203.623 126.362C199.369 120.377 201.816 113.042 207.073 105.17C213.107 96.1348 219.23 88.748 226.458 88.2493C236.315 87.5694 244.694 95.9705 251.429 105.17C258.765 115.191 253.4 127.019 243.543 127.019ZM247.814 74.1212C248.471 82.0065 243.774 86.4422 239.601 86.4422C235.427 86.4422 230.4 81.9335 230.4 75.764C230.4 68.5357 234.508 62.4573 239.601 62.4573C243.774 62.4573 247.814 67.3857 247.814 74.1212ZM257.835 101.72C262.009 101.72 265.557 96.8829 265.557 90.7136C265.557 84.5438 262.009 79.2139 257.835 79.2139C253.662 79.2139 249.786 84.5438 249.786 90.7136C249.786 96.8829 253.662 101.72 257.835 101.72Z" fill="#DA652C"/>
</g>
</g>
<path d="M192.1 96.3999C192.1 43.3796 149.12 0.399902 96.0986 0.399902C43.0802 0.399902 0.100098 43.3796 0.100098 96.3999C0.100098 149.417 43.0802 192.4 96.0986 192.4C149.12 192.4 192.1 149.417 192.1 96.3999Z" fill="url(#paint4_linear_863_121684)"/>
<path d="M9.70047 96.3998C9.70048 144.118 48.3841 182.8 96.102 182.8C143.82 182.8 182.5 144.118 182.5 96.3998C182.5 48.6813 143.82 9.9998 96.102 9.99981C48.384 9.99981 9.70047 48.6813 9.70047 96.3998V96.3998Z" fill="url(#paint5_linear_863_121684)"/>
<path d="M172.9 96.3999C172.9 53.9836 138.516 19.5999 96.0991 19.5999C53.6844 19.5999 19.3003 53.9836 19.3003 96.3999C19.3003 138.813 53.6844 173.2 96.0991 173.2C138.516 173.2 172.9 138.813 172.9 96.3999Z" fill="url(#paint6_linear_863_121684)"/>
<path d="M172.9 96.3999C172.9 53.9836 138.516 19.5999 96.0991 19.5999C53.6844 19.5999 19.3003 53.9836 19.3003 96.3999C19.3003 138.813 53.6844 173.2 96.0991 173.2C138.516 173.2 172.9 138.813 172.9 96.3999Z" fill="white" fill-opacity="0.64"/>
<mask id="mask1_863_121684" style="mask-type:alpha" maskUnits="userSpaceOnUse" x="28" y="29" width="136" height="135">
<path d="M163.3 96.3999C163.3 59.288 133.212 29.2 96.0986 29.2C58.9878 29.2 28.8999 59.288 28.8999 96.3999C28.8999 133.512 58.9878 163.6 96.0986 163.6C133.212 163.6 163.3 133.512 163.3 96.3999Z" fill="url(#paint7_linear_863_121684)"/>
<path d="M163.3 96.3999C163.3 59.288 133.212 29.2 96.0986 29.2C58.9878 29.2 28.8999 59.288 28.8999 96.3999C28.8999 133.512 58.9878 163.6 96.0986 163.6C133.212 163.6 163.3 133.512 163.3 96.3999Z" fill="white"/>
</mask>
<g mask="url(#mask1_863_121684)">
<rect width="134.4" height="134.4" transform="translate(28.8999 29.2)" fill="white"/>
<path d="M78.2809 71.0003L77.6349 71.6449L62.8346 86.4133L58.3711 90.8672C58.1359 91.2133 57.8369 91.5116 57.4901 91.7463C56.8265 92.1811 56.0169 92.3353 55.2394 92.1748C54.4619 92.0144 53.7801 91.5525 53.3437 90.8907C53.0146 90.3983 52.8426 89.8181 52.8503 89.2263V75.2198C52.972 71.9289 54.3683 68.8134 56.7453 66.529C59.1223 64.2445 62.2948 62.9692 65.595 62.9714H78.2809L74.5809 66.7221L70.2935 71.0003H78.2809Z" fill="url(#paint8_linear_863_121684)"/>
<path d="M138.95 79.0876V80.0253C138.736 87.9864 135.65 95.6029 130.258 101.475L88.2647 143.377C85.9383 145.452 82.9277 146.599 79.8074 146.6C78.961 146.584 78.117 146.505 77.282 146.366L74.8153 145.604C72.1773 144.69 69.6064 143.593 67.1215 142.322L66.5929 142.029C66.366 141.859 66.1834 141.638 66.0607 141.382C65.938 141.127 65.8788 140.847 65.8882 140.564C65.8822 140.164 66.0058 139.774 66.2405 139.45L113.343 92.3908C113.572 92.1425 113.769 91.8669 113.93 91.5704C114.223 91.0092 114.459 90.4203 114.635 89.8122C114.723 89.4264 114.782 89.0347 114.811 88.6401C114.863 88.3897 114.883 88.1337 114.87 87.8783C114.87 85.7955 114.041 83.7981 112.565 82.3254C111.089 80.8527 109.087 80.0253 107 80.0253H89.7917L101.362 68.4802C101.709 68.2455 102.008 67.9472 102.243 67.6011C102.554 67.1106 102.717 66.5409 102.713 65.9602C102.713 65.1675 102.397 64.4073 101.835 63.8468C101.274 63.2863 100.512 62.9714 99.7173 62.9714H75.1677C75.1677 62.9714 77.5169 60.3928 78.4566 59.4551C80.571 57.1695 83.1551 54.2393 85.9742 52.1881C91.6581 48.0165 98.5347 45.7772 105.59 45.8002C109.769 45.8054 113.91 46.5803 117.807 48.0858L119.392 48.7305C122.213 50.0255 124.841 51.7017 127.203 53.7118L127.673 54.1221H127.732C131.257 57.2489 134.079 61.0847 136.013 65.3775C137.946 69.6702 138.947 74.3227 138.95 79.029V79.0876Z" fill="url(#paint9_linear_863_121684)"/>
<path d="M104.944 62.9714H75.3439L61.542 76.7435C61.2753 77.0173 61.0958 77.3638 61.0261 77.7392C60.9564 78.1147 60.9996 78.5024 61.1504 78.8533C61.3011 79.2043 61.5526 79.5029 61.8731 79.7115C62.1937 79.92 62.5689 80.0293 62.9516 80.0254H95.0188L107.411 67.6012C107.767 67.1289 107.953 66.5509 107.94 65.9603C107.94 65.1676 107.624 64.4074 107.062 63.8468C106.501 63.2863 105.739 62.9714 104.944 62.9714ZM92.6108 71.5277C92.1068 71.5279 91.6226 71.3322 91.2607 70.9821C90.8989 70.632 90.688 70.155 90.6727 69.6524C90.6806 69.3002 90.7819 68.9564 90.9664 68.6561V68.6561C91.1156 68.4192 91.3163 68.2189 91.5537 68.07V68.07C91.8511 67.8781 92.1979 67.7763 92.5521 67.777C93.0505 67.7692 93.5317 67.9594 93.8896 68.3056C94.2476 68.6518 94.4531 69.1257 94.4609 69.6231C94.4687 70.1204 94.2781 70.6005 93.9312 70.9577C93.5842 71.3149 93.1093 71.5199 92.6108 71.5277Z" fill="#E35CC7"/>
<path d="M79.161 62.9714H75.1086L61.4829 76.5091C61.1894 76.796 60.9887 77.1641 60.9069 77.5659C60.8251 77.9678 60.8658 78.3848 61.0238 78.7633C61.1819 79.1418 61.45 79.4644 61.7935 79.6893C62.1371 79.9143 62.5403 80.0313 62.9512 80.0254H69.2354L86.3262 62.9714H79.161Z" fill="#8961D0"/>
<path d="M92.5532 71.5275C93.5912 71.5275 94.4326 70.6879 94.4326 69.6522C94.4326 68.6165 93.5912 67.7769 92.5532 67.7769C91.5153 67.7769 90.6738 68.6165 90.6738 69.6522C90.6738 70.6879 91.5153 71.5275 92.5532 71.5275Z" fill="#8961D0"/>
<path opacity="0.48" d="M92.5532 71.5275C93.5912 71.5275 94.4326 70.6879 94.4326 69.6522C94.4326 68.6165 93.5912 67.7769 92.5532 67.7769C91.5153 67.7769 90.6738 68.6165 90.6738 69.6522C90.6738 70.6879 91.5153 71.5275 92.5532 71.5275Z" fill="url(#paint10_linear_863_121684)"/>
<path opacity="0.48" d="M94.3729 69.6522C94.3731 69.1648 94.1832 68.6965 93.8433 68.3464C93.5035 67.9964 93.0404 67.7921 92.5522 67.7769C92.2218 67.7856 91.8988 67.8758 91.6118 68.0395C91.3249 68.2031 91.083 68.435 90.9077 68.7145C91.266 68.405 91.726 68.2381 92.1998 68.2457C92.4389 68.2457 92.6756 68.2927 92.8965 68.384C93.1174 68.4753 93.3181 68.6091 93.4872 68.7778C93.6563 68.9465 93.7904 69.1468 93.8819 69.3672C93.9734 69.5876 94.0205 69.8239 94.0205 70.0624V70.121C94.0319 70.4309 93.95 70.7371 93.7855 71.0001C93.9721 70.8286 94.1208 70.6202 94.2219 70.3881C94.323 70.1559 94.3745 69.9053 94.3729 69.6522V69.6522Z" fill="#480061"/>
<path opacity="0.75" d="M104.945 62.9714H75.344L61.6009 76.7435C61.3376 77.0137 61.1591 77.3548 61.0874 77.7249C61.0158 78.095 61.0541 78.4779 61.1976 78.8265C61.3411 79.1752 61.5836 79.4744 61.8952 79.6874C62.2069 79.9004 62.5741 80.0178 62.9517 80.0254H95.019L107.411 67.6012C107.767 67.1289 107.953 66.5509 107.94 65.9603C107.94 65.1676 107.624 64.4074 107.063 63.8468C106.501 63.2863 105.739 62.9714 104.945 62.9714ZM92.5522 71.5277C92.3054 71.5277 92.0611 71.4792 91.833 71.3849C91.605 71.2907 91.3978 71.1526 91.2233 70.9784C91.0488 70.8043 90.9104 70.5975 90.8159 70.37C90.7215 70.1425 90.6729 69.8986 90.6729 69.6524C90.6808 69.3002 90.7821 68.9564 90.9665 68.6561V68.6561C91.1157 68.4192 91.3164 68.2189 91.5538 68.07V68.07C91.8513 67.8781 92.1981 67.7763 92.5522 67.777C93.0404 67.7922 93.5035 67.9965 93.8434 68.3466C94.1832 68.6966 94.3732 69.165 94.3729 69.6524C94.3605 70.1358 94.1664 70.597 93.8291 70.9443C93.4919 71.2917 93.0361 71.4999 92.5522 71.5277V71.5277Z" fill="url(#paint11_linear_863_121684)"/>
<path d="M79.161 62.9714H75.1086L61.4829 76.5091C61.1894 76.796 60.9887 77.1641 60.9069 77.5659C60.8251 77.9678 60.8658 78.3848 61.0238 78.7633C61.1819 79.1418 61.45 79.4644 61.7935 79.6893C62.1371 79.9143 62.5403 80.0313 62.9512 80.0254H69.2354L86.3262 62.9714H79.161Z" fill="url(#paint12_linear_863_121684)"/>
<path opacity="0.43" d="M98.5424 80.0252L107.176 67.894L95.0186 80.0252H98.5424Z" fill="url(#paint13_linear_863_121684)"/>
</g>
<defs>
<linearGradient id="paint0_linear_863_121684" x1="324.101" y1="0.399137" x2="114.448" y2="22.1356" gradientUnits="userSpaceOnUse">
<stop stop-color="#DA652C"/>
<stop offset="1" stop-color="#99490E"/>
<stop offset="1" stop-color="#94451E"/>
</linearGradient>
<linearGradient id="paint1_linear_863_121684" x1="141.701" y1="182.801" x2="330.389" y2="163.238" gradientUnits="userSpaceOnUse">
<stop stop-color="#DA652C"/>
<stop offset="1" stop-color="#99490E"/>
<stop offset="1" stop-color="#94451E"/>
</linearGradient>
<linearGradient id="paint2_linear_863_121684" x1="304.901" y1="19.5992" x2="137.179" y2="36.9884" gradientUnits="userSpaceOnUse">
<stop stop-color="#DA652C"/>
<stop offset="1" stop-color="#99490E"/>
<stop offset="1" stop-color="#94451E"/>
</linearGradient>
<linearGradient id="paint3_linear_863_121684" x1="168.806" y1="44.0235" x2="284.43" y2="147.788" gradientUnits="userSpaceOnUse">
<stop stop-color="#00E599"/>
<stop offset="1" stop-color="#00AF92"/>
</linearGradient>
<linearGradient id="paint4_linear_863_121684" x1="192.1" y1="0.399137" x2="-17.5527" y2="22.1356" gradientUnits="userSpaceOnUse">
<stop stop-color="#DC42C9"/>
<stop offset="1" stop-color="#952D88"/>
</linearGradient>
<linearGradient id="paint5_linear_863_121684" x1="9.70056" y1="182.801" x2="198.388" y2="163.238" gradientUnits="userSpaceOnUse">
<stop stop-color="#DC42C9"/>
<stop offset="1" stop-color="#952D88"/>
</linearGradient>
<linearGradient id="paint6_linear_863_121684" x1="172.9" y1="19.5992" x2="5.17803" y2="36.9884" gradientUnits="userSpaceOnUse">
<stop stop-color="#DC42C9"/>
<stop offset="1" stop-color="#952D88"/>
</linearGradient>
<linearGradient id="paint7_linear_863_121684" x1="36.8058" y1="44.0235" x2="152.429" y2="147.788" gradientUnits="userSpaceOnUse">
<stop stop-color="#00E599"/>
<stop offset="1" stop-color="#00AF92"/>
</linearGradient>
<linearGradient id="paint8_linear_863_121684" x1="52.8503" y1="77.605" x2="78.2809" y2="77.605" gradientUnits="userSpaceOnUse">
<stop stop-color="#4750D9"/>
<stop offset="0.41" stop-color="#5C45DC"/>
<stop offset="1" stop-color="#8131E1"/>
</linearGradient>
<linearGradient id="paint9_linear_863_121684" x1="65.8882" y1="96.2001" x2="138.95" y2="96.2001" gradientUnits="userSpaceOnUse">
<stop stop-color="#E96161"/>
<stop offset="0.2" stop-color="#E65B76"/>
<stop offset="0.61" stop-color="#DF4AAC"/>
<stop offset="1" stop-color="#D739E6"/>
</linearGradient>
<linearGradient id="paint10_linear_863_121684" x1="90.668" y1="69.6522" x2="94.3856" y2="69.6522" gradientUnits="userSpaceOnUse">
<stop stop-color="#B100D3"/>
<stop offset="0.23" stop-color="#9C00C0"/>
<stop offset="0.69" stop-color="#67008E"/>
<stop offset="1" stop-color="#40006A"/>
</linearGradient>
<linearGradient id="paint11_linear_863_121684" x1="61.0547" y1="71.4984" x2="107.94" y2="71.4984" gradientUnits="userSpaceOnUse">
<stop stop-color="#D0D7D3"/>
<stop offset="0.52" stop-color="#D9C5E8"/>
<stop offset="1" stop-color="#E3B1FF"/>
</linearGradient>
<linearGradient id="paint12_linear_863_121684" x1="60.9015" y1="71.4984" x2="86.3203" y2="71.4984" gradientUnits="userSpaceOnUse">
<stop stop-color="#B277EC"/>
<stop offset="0.77" stop-color="#9336E7"/>
<stop offset="1" stop-color="#8921E6"/>
</linearGradient>
<linearGradient id="paint13_linear_863_121684" x1="95.0009" y1="73.9596" x2="107.182" y2="73.9596" gradientUnits="userSpaceOnUse">
<stop stop-opacity="0.5"/>
<stop offset="0.1" stop-color="#201322" stop-opacity="0.59"/>
<stop offset="0.25" stop-color="#4A2C4E" stop-opacity="0.72"/>
<stop offset="0.4" stop-color="#6D4173" stop-opacity="0.82"/>
<stop offset="0.55" stop-color="#885190" stop-opacity="0.9"/>
<stop offset="0.7" stop-color="#9B5DA4" stop-opacity="0.95"/>
<stop offset="0.85" stop-color="#A664B0" stop-opacity="0.99"/>
<stop offset="1" stop-color="#AA66B4"/>
</linearGradient>
<clipPath id="clip0_863_121684">
<rect width="134.4" height="134.4" fill="white" transform="translate(160.9 29.2)"/>
</clipPath>
</defs>
</svg>
