<?xml version="1.0" encoding="UTF-8"?>
<svg version="1.1" xmlns="http://www.w3.org/2000/svg" width="1000" height="1000">
<path d="M0 0 C330 0 660 0 1000 0 C1000 330 1000 660 1000 1000 C670 1000 340 1000 0 1000 C0 670 0 340 0 0 Z " fill="#B1B2B4" transform="translate(0,0)"/>
<path d="M0 0 C330 0 660 0 1000 0 C1000 330 1000 660 1000 1000 C670 1000 340 1000 0 1000 C0 670 0 340 0 0 Z M449 29 C447.89124512 29.11827148 446.78249023 29.23654297 445.64013672 29.35839844 C430.14035028 31.0339358 414.97679446 33.6445393 399.75 36.9375 C398.99270599 37.10058655 398.23541199 37.2636731 397.45516968 37.43170166 C346.11088706 48.58119326 295.22018409 68.41321432 251 97 C250.04158203 97.61875 249.08316406 98.2375 248.09570312 98.875 C229.5465258 110.91961483 211.99808741 123.86579101 195 138 C194.37818848 138.51594727 193.75637695 139.03189453 193.11572266 139.56347656 C185.88709957 145.58573595 179.03614097 151.80960206 172.4609375 158.5390625 C170.29600465 160.70399535 168.08492264 162.71041991 165.75 164.6875 C162.41418012 167.53515111 159.60432196 170.63330077 156.7734375 173.9765625 C154.97538083 176.02808972 153.0842574 177.91519541 151.125 179.8125 C147.23529448 183.6499446 143.82306913 187.77192752 140.40625 192.03125 C138.33259927 194.58965025 136.21223319 197.09712865 134.06103516 199.59033203 C117.27666253 219.10746066 102.82274809 240.70504508 90 263 C89.30602191 264.1836127 88.6120108 265.36720605 87.91796875 266.55078125 C65.71213634 304.81127394 48.92913619 346.87598798 39 390 C38.74766602 391.09570312 38.49533203 392.19140625 38.23535156 393.3203125 C34.06580888 411.75082501 31.10214821 430.22518879 29 449 C28.88140625 450.00305176 28.7628125 451.00610352 28.640625 452.03955078 C24.94603504 484.36171507 25.23112906 518.70214085 29 551 C29.11827148 552.10875488 29.23654297 553.21750977 29.35839844 554.35986328 C31.03596013 569.87837605 33.6504357 585.06500136 36.9375 600.3125 C37.10058655 601.07406403 37.2636731 601.83562805 37.43170166 602.62026978 C39.65712112 612.92542688 42.34713189 623.02389466 45.42434692 633.10623169 C46.24979541 635.82177035 47.04547161 638.54590113 47.84375 641.26953125 C51.69221272 654.29384145 51.69221272 654.29384145 56.65625 666.921875 C57.70145646 669.31612701 58.66596805 671.70082105 59.59375 674.140625 C76.13542152 717.40798644 99.92005837 757.99948311 129 794 C129.74765625 794.93070313 130.4953125 795.86140625 131.265625 796.8203125 C133.48989063 799.56464024 135.73780305 802.2868544 138 805 C138.45487793 805.5465625 138.90975586 806.093125 139.37841797 806.65625 C145.47160077 813.95259719 151.73970789 820.89556702 158.5390625 827.5390625 C160.70399535 829.70399535 162.71041991 831.91507736 164.6875 834.25 C167.53515111 837.58581988 170.63330077 840.39567804 173.9765625 843.2265625 C176.02808972 845.02461917 177.91519541 846.9157426 179.8125 848.875 C183.6499446 852.76470552 187.77192752 856.17693087 192.03125 859.59375 C194.58942668 861.66721952 197.09672676 863.78733389 199.58959961 865.93847656 C253.24839423 912.07930102 321.13334815 945.14372103 390 961 C391.64355469 961.37850098 391.64355469 961.37850098 393.3203125 961.76464844 C411.75082501 965.93419112 430.22518879 968.89785179 449 971 C450.00305176 971.11859375 451.00610352 971.2371875 452.03955078 971.359375 C484.36171507 975.05396496 518.70214085 974.76887094 551 971 C552.66313232 970.82259277 552.66313232 970.82259277 554.35986328 970.64160156 C569.87837605 968.96403987 585.06500136 966.3495643 600.3125 963.0625 C601.45484604 962.81787018 601.45484604 962.81787018 602.62026978 962.56829834 C613.572124 960.20322333 624.30171201 957.32454482 635 954 C635.69668793 953.78417267 636.39337585 953.56834534 637.11117554 953.34597778 C659.01466345 946.52645138 680.21733439 938.73029169 701 929 C702.1152002 928.47825195 703.23040039 927.95650391 704.37939453 927.41894531 C747.78506857 906.87756043 787.2837387 879.16784817 822.39941406 846.48291016 C824.1304258 844.87916316 825.8730624 843.28869009 827.6171875 841.69921875 C833.17159391 836.61946028 838.60999426 831.60550689 843.4375 825.8125 C845.15369477 823.82171406 846.98740567 822.01610701 848.875 820.1875 C852.76470552 816.3500554 856.17693087 812.22807248 859.59375 807.96875 C861.66740073 805.41034975 863.78776681 802.90287135 865.93896484 800.40966797 C882.70924444 780.90892693 897.26063 759.3234964 910 737 C910.38285156 736.33436035 910.76570312 735.6687207 911.16015625 734.98291016 C924.56034617 711.60259486 936.23679344 687.37427067 944.99609375 661.859375 C945.88964323 659.31432357 946.88116572 656.85546105 947.9375 654.375 C961.00754524 621.9612878 967.23414375 585.58390771 971 551 C971.10441406 550.10345703 971.20882812 549.20691406 971.31640625 548.28320312 C974.97702082 515.82420933 974.78487635 481.43501972 971 449 C970.82259277 447.33686768 970.82259277 447.33686768 970.64160156 445.64013672 C960.62131148 352.9460792 921.37880456 266.41015892 862 195 C861.48405273 194.37818848 860.96810547 193.75637695 860.43652344 193.11572266 C854.41426405 185.88709957 848.19039794 179.03614097 841.4609375 172.4609375 C839.29600465 170.29600465 837.28958009 168.08492264 835.3125 165.75 C832.46484889 162.41418012 829.36669923 159.60432196 826.0234375 156.7734375 C823.97191028 154.97538083 822.08480459 153.0842574 820.1875 151.125 C816.3500554 147.23529448 812.22807248 143.82306913 807.96875 140.40625 C805.41034975 138.33259927 802.90287135 136.21223319 800.40966797 134.06103516 C780.90892693 117.29075556 759.3234964 102.73937 737 90 C736.00154053 89.42572266 736.00154053 89.42572266 734.98291016 88.83984375 C711.60259486 75.43965383 687.37427067 63.76320656 661.859375 55.00390625 C659.31432357 54.11035677 656.85546105 53.11883428 654.375 52.0625 C621.9612878 38.99245476 585.58390771 32.76585625 551 29 C550.10345703 28.89558594 549.20691406 28.79117187 548.28320312 28.68359375 C515.82420933 25.02297918 481.43501972 25.21512365 449 29 Z " fill="#FEFEFE" transform="translate(0,0)"/>
<path d="M0 0 C2.48797034 -0.00217438 4.9754873 -0.02035081 7.46337891 -0.03930664 C17.77595486 -0.07514308 27.68925546 0.6328561 37.88916016 2.18530273 C38.94627197 2.34063477 40.00338379 2.4959668 41.0925293 2.65600586 C44.03957134 3.1019806 46.96103855 3.62807232 49.88916016 4.18530273 C50.84266357 4.36633545 50.84266357 4.36633545 51.81542969 4.55102539 C97.2616401 13.38393162 138.64954935 36.22005401 171.88916016 68.18530273 C172.42959961 68.70382812 172.97003906 69.22235352 173.52685547 69.7565918 C180.85624157 76.83074681 187.6821504 84.08683991 193.88916016 92.18530273 C194.30343262 92.71784668 194.71770508 93.25039063 195.14453125 93.79907227 C209.38390851 112.18215575 233.88916016 144.09695334 233.88916016 168.18530273 C234.41380859 168.29745117 234.93845703 168.40959961 235.47900391 168.52514648 C249.02805428 171.97440556 261.79776201 179.63189512 271.88916016 189.18530273 C272.67677734 189.92006836 273.46439453 190.65483398 274.27587891 191.41186523 C293.94914551 211.38574202 294.25998947 240.28655488 294.11889648 266.58764648 C293.82122224 288.61263678 290.70095964 310.16923178 280.88916016 330.18530273 C280.43927734 331.11213867 279.98939453 332.03897461 279.52587891 332.99389648 C276.06264969 339.72432307 271.87103491 345.49988078 266.88916016 351.18530273 C266.29619141 351.87366211 265.70322266 352.56202148 265.09228516 353.27124023 C251.78560181 367.65838078 231.32602806 376.44965188 212.01416016 377.62280273 C207.85450331 378.1923401 206.32086531 378.73059135 203.39697266 381.81030273 C201.39895521 384.58565662 199.67385217 387.51396762 197.94970703 390.46459961 C187.14690106 407.99180415 169.23944351 424.82237881 152.88916016 437.18530273 C151.97287842 437.89154785 151.97287842 437.89154785 151.03808594 438.61206055 C134.07733511 451.62473232 115.64260751 462.21119051 95.87695312 470.35620117 C94.0354394 471.12429017 92.21317347 471.93809229 90.39306641 472.75561523 C71.99191006 480.73432321 51.75238545 484.91597966 31.88916016 487.18530273 C31.20120361 487.27811523 30.51324707 487.37092773 29.80444336 487.46655273 C-33.75638947 495.21365609 -97.17659065 475.70208251 -147.36083984 436.68530273 C-153.90721049 431.4994315 -160.09294316 425.97248134 -166.11083984 420.18530273 C-166.6512793 419.66677734 -167.19171875 419.14825195 -167.74853516 418.61401367 C-175.09328327 411.5250316 -181.82438468 404.24022681 -188.11083984 396.18530273 C-188.85205078 395.29842773 -189.59326172 394.41155273 -190.35693359 393.49780273 C-192.11083984 391.18530273 -192.11083984 391.18530273 -192.11083984 389.18530273 C-192.99642578 389.15952148 -193.88201172 389.13374023 -194.79443359 389.10717773 C-214.8948189 388.18686873 -233.26405558 383.07927005 -249.11083984 370.18530273 C-250.26326172 369.29584961 -250.26326172 369.29584961 -251.43896484 368.38842773 C-271.67824028 351.82902056 -280.74535585 324.25522792 -284.11083984 299.18530273 C-284.20582764 298.54665283 -284.30081543 297.90800293 -284.39868164 297.25 C-285.41383821 289.61872965 -285.3099406 281.93168987 -285.29833984 274.24780273 C-285.29743347 273.14506516 -285.29743347 273.14506516 -285.29650879 272.02005005 C-285.23842213 246.01387564 -283.3182502 220.41146732 -264.04833984 200.96655273 C-258.49824461 195.60784009 -252.63897334 190.15897857 -245.14599609 187.87280273 C-239.29306288 185.95610515 -234.66626077 184.08172789 -231.63378906 178.43481445 C-228.96574284 171.79905783 -227.02570047 164.92915429 -224.99708557 158.07852173 C-217.50961829 133.41763986 -202.61978118 109.82454138 -186.11083984 90.18530273 C-185.16918049 89.0396774 -184.22777866 87.89384034 -183.28662109 86.74780273 C-172.76191379 74.07353375 -161.2464178 62.16762124 -148.11083984 52.18530273 C-147.57056152 51.76861328 -147.0302832 51.35192383 -146.47363281 50.92260742 C-136.47640457 43.23760606 -126.00343142 36.52617731 -115.11083984 30.18530273 C-114.49837402 29.82339844 -113.8859082 29.46149414 -113.25488281 29.08862305 C-86.75123624 13.55943288 -56.37569116 5.19010885 -26.11083984 1.18530273 C-25.36640625 1.08145264 -24.62197266 0.97760254 -23.85498047 0.87060547 C-15.93497994 -0.08874971 -7.96571384 -0.00077623 0 0 Z " fill="#010101" transform="translate(497.11083984375,251.814697265625)"/>
<path d="M0 0 C1.11443481 0.00060425 2.22886963 0.0012085 3.3770752 0.00183105 C19.57785671 0.02569768 35.58054426 0.3079625 51.6875 2.1875 C53.35063232 2.36490723 53.35063232 2.36490723 55.04736328 2.54589844 C70.56587605 4.22346013 85.75250136 6.8379357 101 10.125 C101.76156403 10.28808655 102.52312805 10.4511731 103.30776978 10.61920166 C113.61292688 12.84462112 123.71139466 15.53463189 133.79373169 18.61184692 C136.50927035 19.43729541 139.23340113 20.23297161 141.95703125 21.03125 C159.61133158 26.27890779 159.61133158 26.27890779 167.609375 29.84375 C170.00362701 30.88895646 172.38832105 31.85346805 174.828125 32.78125 C218.09548644 49.32292152 258.68698311 73.10755837 294.6875 102.1875 C295.61820313 102.93515625 296.54890625 103.6828125 297.5078125 104.453125 C300.25214024 106.67739063 302.9743544 108.92530305 305.6875 111.1875 C306.2340625 111.64237793 306.780625 112.09725586 307.34375 112.56591797 C314.64009719 118.65910077 321.58306702 124.92720789 328.2265625 131.7265625 C330.39149535 133.89149535 332.60257736 135.89791991 334.9375 137.875 C338.27331988 140.72265111 341.08317804 143.82080077 343.9140625 147.1640625 C345.71211917 149.21558972 347.6032426 151.10269541 349.5625 153 C353.45220552 156.8374446 356.86443087 160.95942752 360.28125 165.21875 C362.35490073 167.77715025 364.47526681 170.28462865 366.62646484 172.77783203 C383.41083747 192.29496066 397.86475191 213.89254508 410.6875 236.1875 C411.38147809 237.3711127 412.0754892 238.55470605 412.76953125 239.73828125 C434.97536366 277.99877394 451.75836381 320.06348798 461.6875 363.1875 C461.93983398 364.28320312 462.19216797 365.37890625 462.45214844 366.5078125 C466.62169112 384.93832501 469.58535179 403.41268879 471.6875 422.1875 C471.80609375 423.19055176 471.9246875 424.19360352 472.046875 425.22705078 C475.74146496 457.54921507 475.45637094 491.88964085 471.6875 524.1875 C471.56922852 525.29625488 471.45095703 526.40500977 471.32910156 527.54736328 C469.65153987 543.06587605 467.0370643 558.25250136 463.75 573.5 C463.58691345 574.26156403 463.4238269 575.02312805 463.25579834 575.80776978 C461.03037888 586.11292688 458.34036811 596.21139466 455.26315308 606.29373169 C454.43770459 609.00927035 453.64202839 611.73340113 452.84375 614.45703125 C447.59609221 632.11133158 447.59609221 632.11133158 444.03125 640.109375 C442.98604354 642.50362701 442.02153195 644.88832105 441.09375 647.328125 C424.55207848 690.59548644 400.76744163 731.18698311 371.6875 767.1875 C370.93984375 768.11820313 370.1921875 769.04890625 369.421875 770.0078125 C367.19760937 772.75214024 364.94969695 775.4743544 362.6875 778.1875 C362.00518311 779.00734375 362.00518311 779.00734375 361.30908203 779.84375 C355.21589923 787.14009719 348.94779211 794.08306702 342.1484375 800.7265625 C339.98350465 802.89149535 337.97708009 805.10257736 336 807.4375 C333.15234889 810.77331988 330.05419923 813.58317804 326.7109375 816.4140625 C324.65941028 818.21211917 322.77230459 820.1032426 320.875 822.0625 C317.0375554 825.95220552 312.91557248 829.36443087 308.65625 832.78125 C306.09807332 834.85471952 303.59077324 836.97483389 301.09790039 839.12597656 C247.54663772 885.17433505 179.53341956 918.65679514 110.6875 934.1875 C109.59904785 934.43693359 108.5105957 934.68636719 107.38916016 934.94335938 C88.95081956 939.11691139 70.47088553 942.08439175 51.6875 944.1875 C50.68444824 944.30609375 49.68139648 944.4246875 48.64794922 944.546875 C16.32578493 948.24146496 -18.01464085 947.95637094 -50.3125 944.1875 C-51.42125488 944.06922852 -52.53000977 943.95095703 -53.67236328 943.82910156 C-151.5198589 933.25172135 -244.73264795 890.14994455 -321.71191406 819.67041016 C-323.4429258 818.06666316 -325.1855624 816.47619009 -326.9296875 814.88671875 C-332.48409391 809.80696028 -337.92249426 804.79300689 -342.75 799 C-344.46619477 797.00921406 -346.29990567 795.20360701 -348.1875 793.375 C-352.07720552 789.5375554 -355.48943087 785.41557248 -358.90625 781.15625 C-360.97990073 778.59784975 -363.10026681 776.09037135 -365.25146484 773.59716797 C-382.02174444 754.09642693 -396.57313 732.5109964 -409.3125 710.1875 C-409.69535156 709.52186035 -410.07820313 708.8562207 -410.47265625 708.17041016 C-423.87284617 684.79009486 -435.54929344 660.56177067 -444.30859375 635.046875 C-445.20214323 632.50182357 -446.19366572 630.04296105 -447.25 627.5625 C-460.32004524 595.1487878 -466.54664375 558.77140771 -470.3125 524.1875 C-470.41691406 523.29095703 -470.52132813 522.39441406 -470.62890625 521.47070312 C-474.28952082 489.01170933 -474.09737635 454.62251972 -470.3125 422.1875 C-470.13509277 420.52436768 -470.13509277 420.52436768 -469.95410156 418.82763672 C-459.93381148 326.1335792 -420.69130456 239.59765892 -361.3125 168.1875 C-360.79655273 167.56568848 -360.28060547 166.94387695 -359.74902344 166.30322266 C-353.72676405 159.07459957 -347.50289794 152.22364097 -340.7734375 145.6484375 C-338.60850465 143.48350465 -336.60208009 141.27242264 -334.625 138.9375 C-331.77734889 135.60168012 -328.67919923 132.79182196 -325.3359375 129.9609375 C-323.28441028 128.16288083 -321.39730459 126.2717574 -319.5 124.3125 C-315.6625554 120.42279448 -311.54057248 117.01056913 -307.28125 113.59375 C-304.72284975 111.52009927 -302.21537135 109.39973319 -299.72216797 107.24853516 C-280.20503934 90.46416253 -258.60745492 76.01024809 -236.3125 63.1875 C-235.1288873 62.49352191 -233.94529395 61.7995108 -232.76171875 61.10546875 C-203.94415631 44.38017545 -173.18118198 30.9180709 -141.3125 21.1875 C-140.39694336 20.90213379 -139.48138672 20.61676758 -138.53808594 20.32275391 C-93.50836919 6.34512807 -47.07809907 -0.04704151 0 0 Z M-49.3125 22.1875 C-51.23167058 22.38509078 -53.1509445 22.58168002 -55.0703125 22.77734375 C-126.1250355 30.42604428 -196.80275998 57.39643196 -255.3125 98.1875 C-255.8993457 98.59564941 -256.48619141 99.00379883 -257.09082031 99.42431641 C-272.95922364 110.50625584 -288.24964002 122.34495922 -302.43359375 135.52734375 C-304.9031011 137.80920875 -307.40927499 140.03400861 -309.9375 142.25 C-314.95385467 146.75248419 -319.72633075 151.49225907 -324.5 156.25 C-325.26070801 157.00611572 -326.02141602 157.76223145 -326.80517578 158.54125977 C-331.51360745 163.26253355 -335.96541946 168.13414172 -340.3125 173.1875 C-341.31026448 174.30928403 -342.31019698 175.42914425 -343.3125 176.546875 C-364.72055111 200.62605493 -383.00903908 227.86309228 -398.3125 256.1875 C-399.04992432 257.53908203 -399.04992432 257.53908203 -399.80224609 258.91796875 C-417.77395886 291.99007156 -431.16699278 326.70804766 -440.3125 363.1875 C-440.56225586 364.18217285 -440.81201172 365.1768457 -441.06933594 366.20166016 C-447.1013369 390.60993035 -450.19231778 415.17733082 -452.3125 440.1875 C-452.40966309 441.22962646 -452.50682617 442.27175293 -452.60693359 443.34545898 C-460.05014962 528.1807497 -438.61771617 615.85011294 -351.5703125 759.49609375 C-350.82523437 760.38425781 -350.08015625 761.27242187 -349.3125 762.1875 C-348.07113281 763.68990234 -348.07113281 763.68990234 -346.8046875 765.22265625 C-337.0912237 776.91831303 -326.65813719 787.91408274 -315.9375 798.6875 C-315.29594971 799.33372314 -314.65439941 799.97994629 -313.9934082 800.64575195 C-309.59658734 805.02782029 -305.01793295 809.14087575 -300.3125 813.1875 C-299.22975044 814.13720251 -298.14767774 815.08767749 -297.06640625 816.0390625 C-254.16708015 853.46003322 -203.33743192 883.44363808 -149.31933594 901.50634766 C-147.29965773 902.19185887 -145.29449257 902.91068148 -143.2890625 903.63671875 C-130.3714753 908.23188994 -117.09806127 911.31581829 -103.74951172 914.39038086 C-101.53450742 914.90408941 -99.32228631 915.43002753 -97.11376953 915.97094727 C-88.41344418 918.07503987 -79.66391674 919.48394298 -70.8125 920.75 C-70.0668277 920.85799927 -69.3211554 920.96599854 -68.55288696 921.07727051 C-13.37353755 929.04839919 46.19438101 929.46610393 100.4453125 915.265625 C103.38658203 914.5016947 106.33457089 913.81439505 109.3046875 913.171875 C140.80247421 906.27537243 173.17622928 894.55906979 201.63574219 879.27441406 C204.07713636 877.98109102 206.54137876 876.73708338 209.0078125 875.4921875 C238.78408044 860.37060277 266.14120824 841.66382778 291.6875 820.1875 C292.24034668 819.7248877 292.79319336 819.26227539 293.36279297 818.78564453 C300.07316213 813.15918766 306.57990658 807.47472853 312.6875 801.1875 C314.57291055 799.30208945 316.52061362 797.58754987 318.5625 795.875 C323.55732133 791.58242088 327.86549451 786.6640805 332.25537109 781.77246094 C333.66396644 780.21354498 335.08806711 778.67073282 336.51953125 777.1328125 C358.70456323 753.28109954 377.65352644 726.4956878 393.6875 698.1875 C394.19522949 697.29836914 394.70295898 696.40923828 395.22607422 695.49316406 C420.78704855 650.54591913 438.4677249 600.94386348 447 549.9375 C447.11724426 549.24441742 447.23448853 548.55133484 447.35528564 547.83724976 C448.22419366 542.63255115 448.97940986 537.41634533 449.6875 532.1875 C449.81953827 531.22923309 449.95157654 530.27096619 450.08761597 529.28366089 C452.48514251 511.44513217 453.22030004 493.80401721 453.13453293 475.81654358 C453.12482341 473.7117196 453.119548 471.60691569 453.11477661 469.5020752 C453.05026986 447.86397274 452.32720628 426.55355279 448.6875 405.1875 C448.5639917 404.45132446 448.4404834 403.71514893 448.31323242 402.95666504 C434.8810391 323.36986694 402.50938082 245.44317899 349.20703125 184.109375 C346.75713657 181.26825683 344.40536655 178.36709478 342.0625 175.4375 C338.54883487 171.11443701 334.7967485 167.18916405 330.80859375 163.3046875 C328.81342462 161.31319272 326.95996099 159.26370737 325.125 157.125 C319.83504749 150.98182935 314.07812444 145.42755911 307.9296875 140.15234375 C305.76586459 138.25617141 303.66223555 136.30447869 301.56274414 134.33764648 C295.18784827 128.38808948 288.5166364 122.95030561 281.59423828 117.65283203 C279.60383479 116.12320312 277.62756864 114.57651202 275.65234375 113.02734375 C218.24263323 68.22844058 149.26186569 38.82893154 77.6875 26.1875 C76.94322754 26.0539209 76.19895508 25.9203418 75.43212891 25.78271484 C69.53733994 24.74816088 63.6260571 23.92690858 57.6875 23.1875 C56.59566406 23.04924805 55.50382812 22.91099609 54.37890625 22.76855469 C20.25528184 18.62924318 -15.16052035 18.19497988 -49.3125 22.1875 Z " fill="#020202" transform="translate(499.3125,26.8125)"/>
<path d="M0 0 C-0.50779774 1.92963142 -1.015642 3.85925061 -1.52368164 5.78881836 C-1.97285288 7.49646203 -2.42123564 9.20431327 -2.86889648 10.91235352 C-3.99629415 15.20964967 -5.13300944 19.50360988 -6.3046875 23.7890625 C-8.81401294 33.02895424 -10.96659197 42.26899347 -12.74438477 51.67944336 C-13.90881032 57.81762064 -13.90881032 57.81762064 -15 60 C-17.16292348 60.6869757 -19.35831435 61.27237109 -21.5625 61.8125 C-22.94849984 62.16830892 -24.33390109 62.52645629 -25.71875 62.88671875 C-26.43289063 63.07153809 -27.14703125 63.25635742 -27.8828125 63.44677734 C-55.12127473 70.56420763 -79.58758935 83.77653246 -101 102 C-101.79809082 102.67844971 -101.79809082 102.67844971 -102.61230469 103.37060547 C-109.88727401 109.63010106 -116.12544832 116.39641361 -122 124 C-122.78890625 124.96164062 -123.5778125 125.92328125 -124.390625 126.9140625 C-156.99202126 167.40950754 -171.7247842 223.31465571 -166.5 274.70703125 C-165.89965518 279.52346513 -165.04051544 284.26034172 -164 289 C-163.84966309 289.69883301 -163.69932617 290.39766602 -163.54443359 291.11767578 C-155.17126391 328.0448322 -130.12904956 356.88163314 -99 377 C-87.23506577 384.31494482 -74.88222854 389.96320696 -62 395 C-60.82179688 395.47179687 -59.64359375 395.94359375 -58.4296875 396.4296875 C0.67827961 418.92704614 71.46376104 414.26058017 128.82080078 388.99755859 C139.77767753 383.98189666 150.24211828 378.07899377 160 371 C160.8048584 370.41726318 160.8048584 370.41726318 161.62597656 369.82275391 C188.23273684 350.33924444 205.1903803 326.29612313 215 295 C215.21672363 294.31373535 215.43344727 293.6274707 215.65673828 292.92041016 C222.85288712 269.63736767 223.67484293 242.82471641 218.44873047 219.0625 C217.99219773 216.9641384 217.58853957 214.86034239 217.19140625 212.75 C208.57976638 168.72670308 185.28106366 124.3929316 149 97 C147.87103381 96.11986854 146.74213083 95.23965602 145.61328125 94.359375 C130.99178626 83.12817129 115.34770201 75.30961369 98.13745117 68.82983398 C96.17033736 68.06613098 94.24728252 67.24175281 92.3203125 66.3828125 C89.08138832 65.03389584 85.97307188 64.11724168 82.5625 63.3125 C80.98662109 62.93544922 80.98662109 62.93544922 79.37890625 62.55078125 C78.59386719 62.36902344 77.80882812 62.18726563 77 62 C75.10334339 55.6897965 73.6472291 49.29846749 72.1875 42.875 C70.04259356 33.48846507 67.85819267 24.11381495 65.5612793 14.76318359 C64.45315435 10.18442435 63.58212751 5.67579838 63 1 C71.09124741 1.45034346 78.54613731 3.25230691 86.3125 5.5 C87.54218506 5.85529785 88.77187012 6.2105957 90.03881836 6.57666016 C112.3290098 13.21173176 134.09445045 23.37292297 153 37 C153.94617188 37.67289062 154.89234375 38.34578125 155.8671875 39.0390625 C172.01336823 50.81678054 186.64319647 64.27315914 199 80 C200.20462891 81.49660156 200.20462891 81.49660156 201.43359375 83.0234375 C237.86342702 128.73384754 253.30282435 187.34180447 247.4609375 245.23046875 C246.94263587 249.42434258 246.2550438 253.57047083 245.44433594 257.71728516 C245.00043073 259.99778718 244.61095594 262.28301868 244.2265625 264.57421875 C235.29264535 314.73832324 204.92888994 362.67033601 165 394 C164.04996094 394.77859375 163.09992188 395.5571875 162.12109375 396.359375 C140.3516634 413.81940343 114.67088584 426.13421608 88 434 C87.30970703 434.20705566 86.61941406 434.41411133 85.90820312 434.62744141 C67.31904845 440.13826224 48.7632164 442.23473073 29.4375 442.25 C28.28190582 442.25101212 28.28190582 442.25101212 27.10296631 442.25204468 C-23.65340073 442.18185403 -72.85209596 425.81169767 -112 393 C-112.8974292 392.25484131 -112.8974292 392.25484131 -113.81298828 391.49462891 C-124.03537231 382.98543321 -133.44363941 374.21898582 -141.76171875 363.7890625 C-143.19104485 362.00801742 -144.64961957 360.24980181 -146.14453125 358.5234375 C-169.71411927 331.0892864 -184.13248338 295.21803397 -191 260 C-191.15098145 259.24074219 -191.30196289 258.48148438 -191.45751953 257.69921875 C-197.81466481 224.17847861 -195.20623961 187.43378196 -185 155 C-184.75411133 154.20754883 -184.50822266 153.41509766 -184.25488281 152.59863281 C-174.85481781 122.81800028 -159.32769095 95.0365394 -137.9921875 72.14453125 C-136.19306211 70.20782568 -134.50290804 68.21851264 -132.8125 66.1875 C-102.35003046 31.57105734 -47.38062747 -0.81690737 0 0 Z " fill="#B9BBBD" transform="translate(473,276)"/>
<path d="M0 0 C0 0.66 0 1.32 0 2 C-0.9590625 2.37125 -0.9590625 2.37125 -1.9375 2.75 C-4.19303909 3.80283433 -4.19303909 3.80283433 -4.62890625 6.078125 C-4.75136719 6.71234375 -4.87382812 7.3465625 -5 8 C-4.27296875 7.80664062 -3.5459375 7.61328125 -2.796875 7.4140625 C14.91476595 2.82720164 32.41842448 1.76624798 50.625 1.75 C51.41580963 1.74899292 52.20661926 1.74798584 53.02139282 1.74694824 C65.26736401 1.757461 76.99377926 2.43829757 89 5 C90.3760923 5.25892989 91.75239394 5.5167498 93.12890625 5.7734375 C111.63067118 9.45712618 129.47910525 17.02358752 146 26 C147.2447782 26.65367148 148.48956989 27.30731726 149.734375 27.9609375 C156.57258389 31.63327533 162.28392485 35.63649328 167.71875 41.21484375 C170.47289801 43.37005889 172.5584654 43.68848178 176 44 C174.02 39.545 174.02 39.545 172 35 C175.24592885 34.43196245 177.34505325 34.62227939 180.21484375 36.27734375 C184.50606805 39.60323112 184.50606805 39.60323112 186 42 C185.76085282 55.78613164 175.30044961 66.81711225 166 76 C165.1853125 76.81339844 164.370625 77.62679687 163.53125 78.46484375 C157.31068346 84.37236229 150.47426036 88.83633261 143 93 C141.85402344 93.64710938 140.70804688 94.29421875 139.52734375 94.9609375 C121.11105012 104.94579403 100.67463472 111.05846987 80 114 C79.2589502 114.11424316 78.51790039 114.22848633 77.75439453 114.34619141 C54.53586689 117.84373797 30.06063283 117.14975126 7 113 C6.21415527 112.86078125 5.42831055 112.7215625 4.61865234 112.578125 C-26.41466991 106.87206192 -55.38663802 94.22286436 -78 72 C-79.12341797 70.94425781 -79.12341797 70.94425781 -80.26953125 69.8671875 C-82 68 -82 68 -83 65 C-83.825 64.195625 -84.65 63.39125 -85.5 62.5625 C-88.81709554 59.16247707 -88.81709554 59.16247707 -89 56 C-77.28689534 39.2432922 -53.53017024 27.07271224 -35.765625 18.05078125 C-33.83288994 17.11569477 -33.83288994 17.11569477 -33 15 C-34.8871875 14.9690625 -34.8871875 14.9690625 -36.8125 14.9375 C-37.52019531 14.92589844 -38.22789062 14.91429687 -38.95703125 14.90234375 C-41.20305461 14.91736783 -41.20305461 14.91736783 -44 16 C-42.35253249 12.14251511 -40.49673814 10.78843206 -36.66796875 8.99609375 C-32.74490313 7.531406 -28.71115731 6.5695682 -24.64526367 5.58129883 C-20.62052537 4.56294317 -17.23158727 3.22747592 -13.625 1.1875 C-8.68865957 -1.52914373 -5.44605584 -1.14191494 0 0 Z " fill="#EFEFF0" transform="translate(453,542)"/>
<path d="M0 0 C-0.50779774 1.92963142 -1.015642 3.85925061 -1.52368164 5.78881836 C-1.97285288 7.49646203 -2.42123564 9.20431327 -2.86889648 10.91235352 C-3.99629415 15.20964967 -5.13300944 19.50360988 -6.3046875 23.7890625 C-8.81401294 33.02895424 -10.96659197 42.26899347 -12.74438477 51.67944336 C-13.90881032 57.81762064 -13.90881032 57.81762064 -15 60 C-17.16292348 60.6869757 -19.35831435 61.27237109 -21.5625 61.8125 C-22.94849984 62.16830892 -24.33390109 62.52645629 -25.71875 62.88671875 C-26.43289063 63.07153809 -27.14703125 63.25635742 -27.8828125 63.44677734 C-55.12127473 70.56420763 -79.58758935 83.77653246 -101 102 C-101.79809082 102.67844971 -101.79809082 102.67844971 -102.61230469 103.37060547 C-109.88727401 109.63010106 -116.12544832 116.39641361 -122 124 C-122.78890625 124.96164062 -123.5778125 125.92328125 -124.390625 126.9140625 C-156.99202126 167.40950754 -171.7247842 223.31465571 -166.5 274.70703125 C-165.89965518 279.52346513 -165.04051544 284.26034172 -164 289 C-163.84966309 289.69883301 -163.69932617 290.39766602 -163.54443359 291.11767578 C-155.17126391 328.0448322 -130.12904956 356.88163314 -99 377 C-87.23506577 384.31494482 -74.88222854 389.96320696 -62 395 C-60.82179688 395.47179687 -59.64359375 395.94359375 -58.4296875 396.4296875 C-28.77569689 407.71643097 3.37849409 410.39596077 34.8125 410.125 C36.8847612 410.11493023 38.95702725 410.10581158 41.02929688 410.09765625 C46.01965497 410.076005 51.00977089 410.04170555 56 410 C54.82024572 415.45830161 51.44133355 417.81537819 47 421 C35.14740122 427.92307758 22.31856258 428.41319366 8.875 428.375 C7.83585953 428.37468277 7.83585953 428.37468277 6.77572632 428.37435913 C-7.07239063 428.33258054 -20.42074021 426.76602109 -34 424 C-35.43255127 423.71116943 -35.43255127 423.71116943 -36.89404297 423.41650391 C-68.83732447 416.79782501 -98.30979592 402.3640626 -123 381 C-123.67417969 380.44699219 -124.34835937 379.89398437 -125.04296875 379.32421875 C-127.8932035 376.97231929 -130.38046526 374.6425058 -132.6875 371.75 C-134.66777794 368.98968637 -134.66777794 368.98968637 -136.82421875 368.18359375 C-139.92290416 366.49795339 -141.90613564 363.98857293 -144.125 361.3125 C-144.60509521 360.73725586 -145.08519043 360.16201172 -145.57983398 359.56933594 C-150.9153896 353.05345623 -155.53861725 346.13363842 -160 339 C-160.41636719 338.34016113 -160.83273437 337.68032227 -161.26171875 337.00048828 C-175.97081226 313.50554007 -185.85740053 287.24154377 -191 260 C-191.22212158 258.87416504 -191.22212158 258.87416504 -191.44873047 257.72558594 C-197.81363306 224.19508726 -195.20986244 187.44529473 -185 155 C-184.75411133 154.20754883 -184.50822266 153.41509766 -184.25488281 152.59863281 C-174.85481781 122.81800028 -159.32769095 95.0365394 -137.9921875 72.14453125 C-136.19306211 70.20782568 -134.50290804 68.21851264 -132.8125 66.1875 C-102.35003046 31.57105734 -47.38062747 -0.81690737 0 0 Z " fill="#FDFDFD" transform="translate(473,276)"/>
<path d="M0 0 C0.66 0.66 1.32 1.32 2 2 C1.175 2.45375 0.35 2.9075 -0.5 3.375 C-1.325 3.91125 -2.15 4.4475 -3 5 C-3.1490712 7.0745356 -3.1490712 7.0745356 -2 9 C-2.86625 8.9175 -3.7325 8.835 -4.625 8.75 C-8.76876845 9.05694581 -10.68729626 10.59076092 -14 13 C-14.66 13 -15.32 13 -16 13 C-15.12920083 17.09510963 -14.35801852 18.71883362 -11.015625 21.34375 C-9.77303855 22.08410697 -8.51677696 22.80184124 -7.25 23.5 C-6.57316162 23.88526855 -5.89632324 24.27053711 -5.19897461 24.66748047 C18.45849632 37.87152197 45.27859211 43.39825926 72 46 C72.33 44.68 72.66 43.36 73 42 C74.65 43.32 76.3 44.64 78 46 C77.71125 44.948125 77.4225 43.89625 77.125 42.8125 C77 39 77 39 79.5625 36.1875 C86.17006929 31.15888233 94.10226923 31.40674323 102 32 C108.24434188 33.08010238 113.17469793 34.6445771 117 40 C117.3125 42.8125 117.3125 42.8125 117 45 C117.66 45 118.32 45 119 45 C119.33 44.01 119.66 43.02 120 42 C120.33 42 120.66 42 121 42 C121 43.65 121 45.3 121 47 C132.39264432 45.50365269 143.6611167 43.83521116 154.8684082 41.27050781 C158.64410522 40.42050998 162.12267347 39.77689986 166 40 C166 39.34 166 38.68 166 38 C165.278125 37.79375 164.55625 37.5875 163.8125 37.375 C159.97296727 35.49789511 158.45481356 33.50687652 156 30 C156 28.68 156 27.36 156 26 C153.69 26.33 151.38 26.66 149 27 C149.391875 26.278125 149.78375 25.55625 150.1875 24.8125 C151.3618754 21.95099762 151.3618754 21.95099762 149.625 19.3125 C148.820625 18.1678125 148.820625 18.1678125 148 17 C148 16.34 148 15.68 148 15 C145.03 15 142.06 15 139 15 C147.33258937 9.44494042 157.24999283 8.90402889 167 10 C171.00572448 11.18500573 174.41837624 12.8678146 178 15 C178.825 15.48082031 179.65 15.96164062 180.5 16.45703125 C185.24024552 19.41188824 188.77778272 22.42653031 192 27 C192 27.66 192 28.32 192 29 C204.94163237 21.68056279 204.94163237 21.68056279 215 11 C216.32 10.67 217.64 10.34 219 10 C217.02 6.04 217.02 6.04 215 2 C218.24592885 1.43196245 220.34505325 1.62227939 223.21484375 3.27734375 C227.50606805 6.60323112 227.50606805 6.60323112 229 9 C228.76085282 22.78613164 218.30044961 33.81711225 209 43 C208.1853125 43.81339844 207.370625 44.62679687 206.53125 45.46484375 C200.31068346 51.37236229 193.47426036 55.83633261 186 60 C184.85402344 60.64710938 183.70804688 61.29421875 182.52734375 61.9609375 C164.11105012 71.94579403 143.67463472 78.05846987 123 81 C122.2589502 81.11424316 121.51790039 81.22848633 120.75439453 81.34619141 C97.53586689 84.84373797 73.06063283 84.14975126 50 80 C49.21415527 79.86078125 48.42831055 79.7215625 47.61865234 79.578125 C16.58533009 73.87206192 -12.38663802 61.22286436 -35 39 C-36.12341797 37.94425781 -36.12341797 37.94425781 -37.26953125 36.8671875 C-39 35 -39 35 -40 32 C-40.825 31.195625 -41.65 30.39125 -42.5 29.5625 C-45.83644218 26.14264677 -45.83644218 26.14264677 -46 23 C-44.515625 20.95703125 -44.515625 20.95703125 -42.25 18.8125 C-41.02216797 17.64847656 -41.02216797 17.64847656 -39.76953125 16.4609375 C-35.29995366 12.48938054 -30.68965333 8.70789413 -26 5 C-25.34 5.33 -24.68 5.66 -24 6 C-24.33 6.99 -24.66 7.98 -25 9 C-20.24702662 8.25697935 -16.37731366 5.33449127 -12.39648438 2.79492188 C-8.10029969 0.20409294 -4.98795285 -0.58284812 0 0 Z " fill="#CED0D1" transform="translate(410,575)"/>
<path d="M0 0 C32.15017115 5.64853641 62.71035807 21.3320972 87 43 C87.95648437 43.84820312 88.91296875 44.69640625 89.8984375 45.5703125 C100.76935084 55.32324524 111.04298713 65.43765642 120 77 C120.56976562 77.70898438 121.13953125 78.41796875 121.7265625 79.1484375 C123.39980922 81.5813177 123.3805348 83.10793554 123 86 C120.49761958 88.50238042 119.54822501 88.41094674 116.0625 88.5625 C101.17052809 88.32953293 83.8774866 79.69463487 72.375 70.75 C59.58794612 60.86909473 45.17890728 54.49304732 30.13745117 48.82983398 C28.17033736 48.06613098 26.24728252 47.24175281 24.3203125 46.3828125 C21.08138832 45.03389584 17.97307188 44.11724168 14.5625 43.3125 C12.98662109 42.93544922 12.98662109 42.93544922 11.37890625 42.55078125 C10.59386719 42.36902344 9.80882812 42.18726563 9 42 C7.03227628 35.44092095 5.48600839 28.79375876 3.9375 22.125 C3.66873047 20.99191406 3.39996094 19.85882813 3.12304688 18.69140625 C1.67390558 12.45395517 0.54872052 6.38141641 0 0 Z " fill="#FDFDFD" transform="translate(541,296)"/>
<path d="M0 0 C10.05066316 3.6218606 18.39374134 10.98238583 24 20 C25.62428687 23.59798429 26.88572003 27.21648441 28 31 C28.495 32.485 28.495 32.485 29 34 C32.53374477 55.95048758 33.56289818 81.35625568 28 103 C27.74259033 104.01803711 27.74259033 104.01803711 27.47998047 105.05664062 C22.60199827 123.66184888 13.70352995 141.38725998 -3 152 C-7.4936328 154.38895684 -12.13779019 156.48885807 -17 158 C-17.99 157.67 -18.98 157.34 -20 157 C-19.72849121 156.36723145 -19.45698242 155.73446289 -19.17724609 155.08251953 C-11.9570092 138.18844853 -5.31376288 121.64855642 -1.3125 103.6875 C-1.12196045 102.83599365 -0.9314209 101.9844873 -0.73510742 101.10717773 C2.9079233 83.79522859 4.5203004 66.79723381 4.375 49.125 C4.37200897 48.17141602 4.36901794 47.21783203 4.36593628 46.23535156 C4.30877202 30.67885608 3.9044044 15.15456156 0 0 Z " fill="#CDCFCF" transform="translate(738,447)"/>
<path d="M0 0 C-0.10393066 1.63146973 -0.10393066 1.63146973 -0.20996094 3.29589844 C-0.88230874 14.28436128 -1.2402209 25.24117375 -1.25 36.25 C-1.25100708 37.0522702 -1.25201416 37.85454041 -1.25305176 38.68112183 C-1.24209084 51.68092692 -0.41673407 64.20446349 2 77 C2.29350362 78.68870921 2.58646691 80.37751241 2.87890625 82.06640625 C4.43202883 90.68023116 6.45664359 99.10631644 8.9375 107.5 C9.28035034 108.66426514 9.28035034 108.66426514 9.63012695 109.85205078 C13.09203848 121.09165209 18.16708081 131.64032847 23.3125 142.1875 C24.39362943 144.40932871 25.47315286 146.63193987 26.55078125 148.85546875 C27.02169189 149.82121826 27.49260254 150.78696777 27.9777832 151.78198242 C29 154 29 154 29 155 C17.54910584 154.77098212 7.16800309 148.07479468 -0.828125 140.30078125 C-23.47892346 116.30560086 -25.95291039 83.06400044 -25.15673828 51.63720703 C-24.4237485 34.62773392 -22.12222829 19.69443138 -10 7 C-2.03577818 0 -2.03577818 0 0 0 Z " fill="#FBFBFB" transform="translate(259,461)"/>
<path d="M0 0 C4.39249301 -0.02494208 8.78494717 -0.04297329 13.17749023 -0.05493164 C14.66805745 -0.05992328 16.15861986 -0.06671894 17.64916992 -0.07543945 C25.49484991 -0.12015168 33.21373172 -0.1148321 41 1 C50.12033899 34.71664373 50.12033899 34.71664373 52.5625 46.25 C52.79598145 47.33438354 52.79598145 47.33438354 53.03417969 48.44067383 C53.82738088 52.36055237 54.05011912 56.01149918 54 60 C53.24130615 59.9285376 52.4826123 59.8570752 51.70092773 59.78344727 C38.16976071 58.68859982 24.62839986 58.8904978 11.0625 58.9375 C8.52929776 58.94252523 5.99609455 58.94708633 3.46289062 58.95117188 C-2.69142761 58.96209596 -8.8457092 58.97875289 -15 59 C-14.68508107 57.0773513 -14.3686228 55.15495469 -14.05151367 53.23266602 C-13.8754509 52.16210464 -13.69938812 51.09154327 -13.51799011 49.98854065 C-12.92924862 46.59180037 -12.17517783 43.27500924 -11.3125 39.9375 C-11.15023926 39.30682617 -10.98797852 38.67615234 -10.82080078 38.02636719 C-10.44363311 36.56310573 -10.06424415 35.10041574 -9.68310547 33.63818359 C-8.86176245 30.46612046 -8.05825294 27.28969592 -7.25390625 24.11328125 C-6.6279992 21.6587534 -6.00169534 19.2043267 -5.375 16.75 C-5.07376221 15.55882568 -4.77252441 14.36765137 -4.4621582 13.14038086 C-4.17300537 12.01639893 -3.88385254 10.89241699 -3.5859375 9.734375 C-3.3286084 8.72600586 -3.0712793 7.71763672 -2.80615234 6.67871094 C-2.07996849 4.26572206 -1.20904615 2.20315075 0 0 Z " fill="#FCFCFC" transform="translate(484,274)"/>
<path d="M0 0 C6.26923954 -0.23862157 11.73261734 0.56657005 17.8125 2.0625 C18.72684814 2.28655518 19.64119629 2.51061035 20.58325195 2.74145508 C47.65634557 9.62238711 70.00630103 22.56556534 90 42 C90.74636719 42.72058594 91.49273438 43.44117188 92.26171875 44.18359375 C119.83425107 72.77544335 139.413941 120.07828297 140.046875 159.953125 C140.03140625 160.62859375 140.0159375 161.3040625 140 162 C138.01342327 159.0201349 137.19194123 156.41979146 136.2512207 152.99829102 C129.45644736 128.35067824 118.81631056 104.51460225 105 83 C104.525625 83.66 104.05125 84.32 103.5625 85 C100.33385141 87.51992085 98.43383137 87.6472755 94.421875 87.4375 C83.01074199 85.37613404 72.59953306 73.97149237 66 65 C61.07436201 57.03707485 56.28614957 48.67496213 58 39 C59.51953125 37.23046875 59.51953125 37.23046875 61 36 C59.48470985 31.42211638 55.69633248 29.35810639 51.875 26.8125 C51.16069824 26.33127686 50.44639648 25.85005371 49.71044922 25.35424805 C34.23962676 15.07373552 17.73361099 6.62304222 0 1 C0 0.67 0 0.34 0 0 Z " fill="#F9F9F9" transform="translate(542,358)"/>
<path d="M0 0 C0.33 0 0.66 0 1 0 C1.7643148 36.87916911 -1.08398588 75.38848668 -27.703125 103.66015625 C-28.46109375 104.43230469 -29.2190625 105.20445312 -30 106 C-31.01320313 107.04994141 -31.01320313 107.04994141 -32.046875 108.12109375 C-45.01271246 120.62386559 -64.77107586 128.06213535 -82.6875 128.125 C-83.780625 128.08375 -84.87375 128.0425 -86 128 C-86.23589844 128.69867187 -86.47179687 129.39734375 -86.71484375 130.1171875 C-88.22709742 133.50941609 -90.26920169 136.23884675 -92.5625 139.125 C-93.01012695 139.69557129 -93.45775391 140.26614258 -93.91894531 140.85400391 C-95.27316254 142.57429045 -96.63634273 144.28719376 -98 146 C-98.71542969 146.91265625 -99.43085937 147.8253125 -100.16796875 148.765625 C-138.56256745 196.88493444 -196.65921268 230.26445464 -258.02636719 237.54003906 C-284.03425642 240.21194692 -312.49469224 240.05294373 -338 234 C-338.80663086 233.81276367 -339.61326172 233.62552734 -340.44433594 233.43261719 C-344.94200774 232.35518567 -349.36019878 231.10506921 -353.76757812 229.70507812 C-356.13411963 228.95764026 -358.511452 228.25298821 -360.890625 227.546875 C-375.28606815 223.14178706 -388.62858774 216.8701394 -402 210 C-403.06105957 209.45690186 -403.06105957 209.45690186 -404.14355469 208.90283203 C-421.29482236 199.98290439 -436.76435168 187.9846368 -451 175 C-450.505 174.01 -450.505 174.01 -450 173 C-449.54753906 173.43828125 -449.09507812 173.8765625 -448.62890625 174.328125 C-418.21035421 202.61910346 -376.52463211 221.18602859 -336 229 C-335.23494141 229.15098145 -334.46988281 229.30196289 -333.68164062 229.45751953 C-319.93243646 232.03341126 -306.19191078 232.28920051 -292.25 232.3125 C-291.38971191 232.31608521 -290.52942383 232.31967041 -289.64306641 232.32336426 C-259.38316297 232.39115336 -227.67607106 227.7653196 -200 215 C-198.63944163 214.41724455 -197.27733201 213.83810337 -195.9140625 213.26171875 C-160.47712109 198.14082153 -126.97176323 174.31294212 -103.0625 143.8125 C-102.62478271 143.25473877 -102.18706543 142.69697754 -101.73608398 142.12231445 C-99.5197032 139.22054178 -97.54149396 136.28282351 -95.70703125 133.125 C-89.74627104 123.16898073 -89.74627104 123.16898073 -84.15625 121.6328125 C-80.53270131 120.93610559 -76.87952685 120.61224619 -73.20800781 120.27490234 C-57.76792594 118.35257459 -43.45574317 110.13314405 -32 100 C-31.08154297 99.22269531 -31.08154297 99.22269531 -30.14453125 98.4296875 C-15.18194278 84.80243301 -8.73177858 63.98612324 -4 45 C-3.81002441 44.26330078 -3.62004883 43.52660156 -3.42431641 42.76757812 C-1.46368431 34.26968524 -1.30455657 25.55379601 -0.875 16.875 C-0.78842761 15.23433966 -0.7011933 13.5937141 -0.61328125 11.953125 C-0.40122179 7.96910997 -0.19812174 3.98473145 0 0 Z " fill="#797A7B" transform="translate(791,507)"/>
<path d="M0 0 C-1.65 6.27 -3.3 12.54 -5 19 C-6.32 18.938125 -7.64 18.87625 -9 18.8125 C-16.50452828 18.83349169 -23.69925278 20.43210654 -31 22 C-32.16619873 22.24145752 -32.16619873 22.24145752 -33.35595703 22.48779297 C-48.69242823 25.69689177 -63.31181047 30.58618066 -78 36 C-78.77666016 36.28520508 -79.55332031 36.57041016 -80.35351562 36.86425781 C-92.86537995 41.51337831 -104.97124057 47.3803056 -116.3984375 54.28515625 C-116.92695313 54.52105469 -117.45546875 54.75695312 -118 55 C-118.66 54.67 -119.32 54.34 -120 54 C-106.46046607 40.83467429 -90.76992777 30.55491728 -74 22 C-73.23574707 21.60828613 -72.47149414 21.21657227 -71.68408203 20.81298828 C-49.87661733 9.76113835 -24.7167685 0 0 0 Z " fill="#B8BABC" transform="translate(473,276)"/>
<path d="M0 0 C5.2639909 2.98506801 9.89039766 7.73369298 11.8125 13.5 C12.50628629 20.54022484 12.37002685 26.81547602 7.8125 32.5 C3.10214426 37.24081062 -1.21062523 38.88752212 -7.875 39.0625 C-14.23810337 38.73656688 -17.91447374 37.39418855 -22.8125 33.3125 C-26.96033657 28.40058827 -30.02785311 23.32071755 -29.6328125 16.64453125 C-28.36989919 10.56260665 -25.61085627 5.14605896 -20.5625 1.4375 C-14.13005288 -2.25520113 -6.91797525 -3.06714918 0 0 Z " fill="#040404" transform="translate(675.1875,238.5)"/>
<path d="M0 0 C5.08979651 2.81093298 9.02870881 6.89862643 10.875 12.4375 C11.45395702 18.8439916 11.65384633 24.99368744 8.3515625 30.68359375 C4.49422546 35.26545706 -1.35525626 39.10010469 -7.39453125 39.640625 C-14.34653464 39.76877253 -18.4208765 38.76430394 -23.8125 34.125 C-28.74911521 28.3878526 -29.68471189 23.79335692 -29.47265625 16.34375 C-28.79522266 10.68070962 -26.39361917 7.67792764 -22.3125 3.6875 C-15.18558147 -1.34326602 -8.18850337 -3.61853863 0 0 Z " fill="#050505" transform="translate(331.125,247.5625)"/>
<path d="M0 0 C4.03240083 2.96091096 7.67993638 6.92237275 9.92578125 11.4140625 C10.62215635 18.83445294 10.49851581 25.2874861 5.92578125 31.4140625 C-0.01773984 37.06040753 -4.76736308 37.87079982 -12.80859375 37.7265625 C-18.7872961 37.15443787 -22.92502041 34.9587023 -26.94921875 30.5390625 C-30.60320729 25.16554994 -32.03888466 19.91029371 -31.07421875 13.4140625 C-28.81924226 6.23054456 -24.09581048 1.74235245 -17.69921875 -1.9609375 C-11.3329196 -3.47672301 -5.77281821 -3.21611916 0 0 Z " fill="#040404" transform="translate(619.07421875,208.5859375)"/>
<path d="M0 0 C3.07960996 2.57827811 5.36907544 4.53739225 6.12109375 8.58203125 C6.13071909 14.69412027 5.1880676 18.21793407 1.6875 23.25 C2.27015625 23.518125 2.8528125 23.78625 3.453125 24.0625 C5.71536601 25.26480991 7.49326318 26.58825913 9.4375 28.25 C10.35789062 29.0234375 10.35789062 29.0234375 11.296875 29.8125 C12.6875 31.25 12.6875 31.25 12.6875 33.25 C9.31402221 34.54586621 6.31850429 35.36156717 2.6875 35.25 C0.04039953 33.44826387 -1.97436504 31.40154724 -4.1953125 29.1015625 C-6.48141569 27.10227668 -7.39611108 26.69018295 -10.375 26.75 C-11.8290625 26.9975 -11.8290625 26.9975 -13.3125 27.25 C-11.8275 33.19 -11.8275 33.19 -10.3125 39.25 C-14.07937864 41.13343932 -15.34208963 41.47057835 -19.3125 41.25 C-21.32453117 34.58691081 -23.32234161 27.91965251 -25.3125 21.25 C-25.64749512 20.13286621 -25.64749512 20.13286621 -25.98925781 18.99316406 C-26.5611412 17.08050145 -27.1246417 15.16533794 -27.6875 13.25 C-28.00460937 12.1775 -28.32171875 11.105 -28.6484375 10 C-29.3125 7.25 -29.3125 7.25 -29.3125 3.25 C-26.4825421 2.4034314 -23.64942438 1.57261914 -20.8125 0.75 C-19.62527344 0.39228516 -19.62527344 0.39228516 -18.4140625 0.02734375 C-12.02012411 -1.80698284 -6.14545941 -3.2466578 0 0 Z " fill="#070707" transform="translate(591.3125,769.75)"/>
<path d="M0 0 C2.97 0.33 5.94 0.66 9 1 C12.465 8.92 12.465 8.92 16 17 C16.66 17 17.32 17 18 17 C19.58070528 15.23947136 21.09166286 13.41580202 22.5625 11.5625 C23.36816406 10.55316406 24.17382812 9.54382813 25.00390625 8.50390625 C25.66261719 7.67761719 26.32132813 6.85132813 27 6 C28.89885096 4.10114904 31.57247903 4.87632494 34.08984375 4.8671875 C36 5 36 5 38 6 C33.53159979 40.93680041 33.53159979 40.93680041 32 44 C29.36 43.67 26.72 43.34 24 43 C24.56565481 35.32153678 25.1876779 27.65656792 26 20 C25.32904297 20.79664063 25.32904297 20.79664063 24.64453125 21.609375 C24.03996094 22.31578125 23.43539062 23.0221875 22.8125 23.75 C22.22082031 24.44609375 21.62914062 25.1421875 21.01953125 25.859375 C18.84348629 28.16589848 16.51360489 30.07246879 14 32 C12.82845707 29.71070947 11.66261926 27.41881638 10.5 25.125 C10.16613281 24.47402344 9.83226562 23.82304687 9.48828125 23.15234375 C7 18.2265625 7 18.2265625 7 16 C6.34 16 5.68 16 5 16 C5.061875 17.010625 5.12375 18.02125 5.1875 19.0625 C5.22408019 25.80544776 3.43427736 32.44330348 2 39 C-1.96 38.505 -1.96 38.505 -6 38 C-4.35554661 25.25328303 -2.54548 12.60102866 0 0 Z " fill="#030303" transform="translate(529,187)"/>
<path d="M0 0 C5.75 1.875 5.75 1.875 8 3 C8.65429688 5.19311523 8.65429688 5.19311523 9.21875 8.05859375 C9.42886719 9.08404297 9.63898438 10.10949219 9.85546875 11.16601562 C10.17451172 12.78540039 10.17451172 12.78540039 10.5 14.4375 C10.92017664 16.5625752 11.34694498 18.68636093 11.78125 20.80859375 C11.96751953 21.75532959 12.15378906 22.70206543 12.34570312 23.67749023 C12.84346351 26.16937772 12.84346351 26.16937772 15 28 C17.64 22.39 20.28 16.78 23 11 C28 12 28 12 31 14 C28.60564599 21.85516139 25.30109532 29.13742138 21.8125 36.5625 C21.24760008 37.77388029 20.68314371 38.98546752 20.11914062 40.19726562 C18.75042601 43.13356791 17.377291 46.06771332 16 49 C12.62537285 48.45276317 10.91765 47.9451 8 46 C7.10864258 43.38623047 7.10864258 43.38623047 6.39453125 40.1171875 C6.00297852 38.36728516 6.00297852 38.36728516 5.60351562 36.58203125 C5.21196289 34.74705078 5.21196289 34.74705078 4.8125 32.875 C4.53986328 31.64394531 4.26722656 30.41289063 3.98632812 29.14453125 C3.31338073 26.09855883 2.65179323 23.05055675 2 20 C0.06793838 22.46808365 -1.52199022 24.82171445 -2.82421875 27.671875 C-3.28344727 28.66767578 -3.28344727 28.66767578 -3.75195312 29.68359375 C-4.06068359 30.36550781 -4.36941406 31.04742188 -4.6875 31.75 C-5.00783203 32.44738281 -5.32816406 33.14476562 -5.65820312 33.86328125 C-6.44306261 35.57357208 -7.22211648 37.28652507 -8 39 C-10.64 38.01 -13.28 37.02 -16 36 C-12.17355428 23.39523762 -6.5875182 11.38940876 0 0 Z " fill="#050505" transform="translate(371,748)"/>
<path d="M0 0 C4.20458377 2.74585062 4.20458377 2.74585062 6 5 C5.9772698 8.01337489 5.6660398 10.12300161 5 13 C4.73443868 14.78960872 4.48389823 16.58149193 4.24609375 18.375 C3.97728517 20.25010374 3.70774384 22.12510257 3.4375 24 C3.29892578 24.96550781 3.16035156 25.93101562 3.01757812 26.92578125 C2.6790295 29.28394751 2.33982318 31.64201713 2 34 C2.80824219 33.16855469 3.61648438 32.33710938 4.44921875 31.48046875 C5.52837417 30.38254541 6.60781647 29.28490401 7.6875 28.1875 C8.21794922 27.64029297 8.74839844 27.09308594 9.29492188 26.52929688 C12.31829509 23.46882706 15.15621305 21.03242909 19 19 C21.475 21.97 21.475 21.97 24 25 C19.94068832 30.02072761 15.58587855 34.32114421 10.73046875 38.57421875 C8.79176409 40.29658727 6.91209337 42.03062343 5.05078125 43.83203125 C4.56246826 44.29762451 4.07415527 44.76321777 3.57104492 45.24291992 C2.18905487 46.56377855 0.81692898 47.89493483 -0.5546875 49.2265625 C-3 51 -3 51 -5.1953125 50.9609375 C-7 50 -7 50 -9 47 C-9.28481989 40.58477103 -7.53014235 33.8256885 -6.5 27.5 C-6.36956299 26.69812256 -6.23912598 25.89624512 -6.10473633 25.07006836 C-5.12234428 19.24468856 -5.12234428 19.24468856 -4 17 C-9.03199967 21.28255291 -13.70893115 25.68592375 -18.140625 30.59375 C-20 32 -20 32 -21.984375 32.03125 C-24.78744255 30.59712242 -26.18542377 28.52744547 -28 26 C-18.72144279 17.27255648 -9.41668389 8.57845635 0 0 Z " fill="#050505" transform="translate(717,273)"/>
<path d="M0 0 C0 2.31 0 4.62 0 7 C-2.23647631 8.11823815 -3.64891529 8.19396061 -6.1328125 8.31640625 C-7.34130859 8.37924805 -7.34130859 8.37924805 -8.57421875 8.44335938 C-9.41597656 8.48267578 -10.25773438 8.52199219 -11.125 8.5625 C-11.97449219 8.60568359 -12.82398438 8.64886719 -13.69921875 8.69335938 C-15.79928223 8.79954236 -17.89961948 8.90028497 -20 9 C-19.67 11.31 -19.34 13.62 -19 16 C-17.700625 15.835 -16.40125 15.67 -15.0625 15.5 C-10.34580713 14.9684362 -5.74361065 14.92470459 -1 15 C-0.90234375 21.15234375 -0.90234375 21.15234375 -1 23 C-3.05922402 25.05922402 -7.21708124 24.41427579 -10.0625 24.5625 C-11.20041992 24.62727539 -11.20041992 24.62727539 -12.36132812 24.69335938 C-14.24065438 24.79973633 -16.12030244 24.90039934 -18 25 C-18 27.31 -18 29.62 -18 32 C-17.32195313 31.9278125 -16.64390625 31.855625 -15.9453125 31.78125 C-9.60387527 31.14886291 -3.37113353 30.87561778 3 31 C3 33.31 3 35.62 3 38 C-6.89117323 40.85322305 -16.76783586 41.06840021 -27 41 C-28.21618838 27.98257939 -29.37739565 15.08304907 -29 2 C-19.59616836 -0.13560299 -9.61045102 -0.1686044 0 0 Z " fill="#090909" transform="translate(541,778)"/>
<path d="M0 0 C0.825 0.48082031 1.65 0.96164062 2.5 1.45703125 C7.02883678 4.2801055 11.32055778 7.25218165 14 12 C14.56600334 14.83106226 14.4812882 17.50300378 14.3125 20.375 C14.28994141 21.11105469 14.26738281 21.84710937 14.24414062 22.60546875 C14.18572927 24.40453842 14.09606337 26.20254753 14 28 C13.34 28 12.68 28 12 28 C11.34 26.02 10.68 24.04 10 22 C9.26394531 22.01160156 8.52789063 22.02320313 7.76953125 22.03515625 C6.30580078 22.04869141 6.30580078 22.04869141 4.8125 22.0625 C3.36810547 22.07990234 3.36810547 22.07990234 1.89453125 22.09765625 C-0.85576513 22.00486622 -3.32479591 21.62111685 -6 21 C-6.495 22.485 -6.495 22.485 -7 24 C-7.33 24 -7.66 24 -8 24 C-8 22.35 -8 20.7 -8 19 C-9.010625 18.773125 -10.02125 18.54625 -11.0625 18.3125 C-14.08071149 17.48051816 -16.06269243 16.32595141 -18.5 14.375 C-21.97472774 11.68819238 -24.59949924 11.55096931 -29 12 C-28.4121875 10.9171875 -28.4121875 10.9171875 -27.8125 9.8125 C-26.6381246 6.95099762 -26.6381246 6.95099762 -28.375 4.3125 C-28.91125 3.549375 -29.4475 2.78625 -30 2 C-30 1.34 -30 0.68 -30 0 C-32.97 0 -35.94 0 -39 0 C-27.21661236 -7.85559176 -11.8478686 -7.05318428 0 0 Z " fill="#0A0A0A" transform="translate(588,590)"/>
<path d="M0 0 C3 1 3 1 5 4 C4.78300008 6.47744068 4.38414288 7.62316583 2.60131836 9.37207031 C2.02003174 9.77006836 1.43874512 10.16806641 0.83984375 10.578125 C0.21142578 11.01640625 -0.41699219 11.4546875 -1.06445312 11.90625 C-2.05348633 12.57140625 -2.05348633 12.57140625 -3.0625 13.25 C-3.72572266 13.70890625 -4.38894531 14.1678125 -5.07226562 14.640625 C-6.70802307 15.77035676 -8.35314234 16.88651173 -10 18 C-9.01 19.65 -8.02 21.3 -7 23 C-3.65291949 21.45158425 -0.75332488 19.50894136 2.25 17.375 C3.14203125 16.74335937 4.0340625 16.11171875 4.953125 15.4609375 C5.62859375 14.97882812 6.3040625 14.49671875 7 14 C9.62187494 15.04874998 10.79371361 15.64931313 12.25 18.125 C12.4975 18.74375 12.745 19.3625 13 20 C11.3970551 21.29318256 9.79259858 22.58449156 8.1875 23.875 C7.29417969 24.59429688 6.40085937 25.31359375 5.48046875 26.0546875 C3 28 3 28 0 30 C0.66 31.65 1.32 33.3 2 35 C6.23957922 34.42567277 9.26458968 31.88654904 12.625 29.4375 C18.73918816 25 18.73918816 25 21 25 C23.29648649 27.5614657 24 28.47967572 24 32 C22.41113281 33.48632812 22.41113281 33.48632812 20.203125 35.03125 C19.4090625 35.59457031 18.615 36.15789063 17.796875 36.73828125 C16.95640625 37.31964844 16.1159375 37.90101563 15.25 38.5 C13.60931752 39.65616844 11.96869067 40.81241581 10.328125 41.96875 C9.5949707 42.47857422 8.86181641 42.98839844 8.10644531 43.51367188 C6.04057258 44.9713716 4.01506447 46.47305673 2 48 C-1.32174121 46.60502076 -2.93575205 45.12381508 -4.98828125 42.18359375 C-5.79628174 41.04301514 -5.79628174 41.04301514 -6.62060547 39.87939453 C-7.17893066 39.07356934 -7.73725586 38.26774414 -8.3125 37.4375 C-9.46583889 35.79704466 -10.62077156 34.15770861 -11.77734375 32.51953125 C-12.60661377 31.34318115 -12.60661377 31.34318115 -13.45263672 30.14306641 C-15.81586901 26.87003815 -18.37763218 23.77362739 -21.0234375 20.7265625 C-22 19 -22 19 -21.79077148 17.07397461 C-20.78539704 14.43715586 -19.64533272 13.66569876 -17.32421875 12.08984375 C-16.57849609 11.57486328 -15.83277344 11.05988281 -15.06445312 10.52929688 C-14.28005859 10.00400391 -13.49566406 9.47871094 -12.6875 8.9375 C-11.14954212 7.8844029 -9.61177559 6.83102629 -8.07421875 5.77734375 C-7.04687622 5.08499634 -7.04687622 5.08499634 -5.9987793 4.37866211 C-3.93954121 3.0048127 -3.93954121 3.0048127 -1.93286133 1.26391602 C-1.29501709 0.84682373 -0.65717285 0.42973145 0 0 Z " fill="#050505" transform="translate(679,717)"/>
<path d="M0 0 C3.125 2.375 3.125 2.375 5 5 C5.3125 7.8125 5.3125 7.8125 5 10 C5.66 10 6.32 10 7 10 C7.33 9.01 7.66 8.02 8 7 C8.8125 8.6875 8.8125 8.6875 9 11 C4.61004437 16.62463065 -1.11600905 18.88554301 -8 20 C-18.81389325 20.76171765 -27.74865626 19.87583312 -37.125 14.0625 C-39.27744693 11.69480838 -39.73696243 10.15645078 -40 7 C-37.03 8.98 -37.03 8.98 -34 11 C-34.28875 9.948125 -34.5775 8.89625 -34.875 7.8125 C-35 4 -35 4 -32.4375 1.1875 C-23.59218398 -5.54413011 -9.63449531 -4.49490395 0 0 Z " fill="#CACCCD" transform="translate(522,610)"/>
<path d="M0 0 C4.39249301 -0.02494208 8.78494717 -0.04297329 13.17749023 -0.05493164 C14.66805745 -0.05992328 16.15861986 -0.06671894 17.64916992 -0.07543945 C25.49484991 -0.12015168 33.21373172 -0.1148321 41 1 C41.67493341 3.22667765 42.33963044 5.45645977 43 7.6875 C43.37125 8.92886719 43.7425 10.17023438 44.125 11.44921875 C44.87703457 14.5010019 45.19034899 16.88898362 45 20 C43.90429688 19.855625 42.80859375 19.71125 41.6796875 19.5625 C26.11560948 17.6847693 10.64661108 17.79618643 -5 18 C-3.9007105 11.68878497 -2.41862058 5.93661416 0 0 Z " fill="#B9BBBD" transform="translate(484,274)"/>
<path d="M0 0 C0 2.31 0 4.62 0 7 C-3.29960141 8.6498007 -6.99127884 8.38258361 -10.625 8.5625 C-11.42679687 8.60568359 -12.22859375 8.64886719 -13.0546875 8.69335938 C-15.0362511 8.79951457 -17.01810271 8.90026855 -19 9 C-19.33 11.31 -19.66 13.62 -20 16 C-13.73 16 -7.46 16 -1 16 C-1 18.31 -1 20.62 -1 23 C-4.61867559 24.2062252 -7.92506251 24.10816918 -11.6875 24.0625 C-12.38939453 24.05798828 -13.09128906 24.05347656 -13.81445312 24.04882812 C-15.54300538 24.03706927 -17.27151365 24.01913454 -19 24 C-19 26.64 -19 29.28 -19 32 C-18.05362671 31.94670532 -18.05362671 31.94670532 -17.08813477 31.89233398 C-14.24652446 31.73532591 -11.404551 31.5863081 -8.5625 31.4375 C-7.56927734 31.38142578 -6.57605469 31.32535156 -5.55273438 31.26757812 C-4.60849609 31.21923828 -3.66425781 31.17089844 -2.69140625 31.12109375 C-1.81685791 31.0739624 -0.94230957 31.02683105 -0.04125977 30.97827148 C2 31 2 31 3 32 C3.04092937 34.33297433 3.04241723 36.66705225 3 39 C-7.01292948 40.09945892 -16.94401799 40.10055982 -27 40 C-27.28894778 36.0350371 -27.57359369 32.06978953 -27.85449219 28.10424805 C-27.99714624 26.10254363 -28.14307106 24.10107316 -28.2890625 22.09960938 C-28.76295127 15.38054364 -29.11829991 8.73570123 -29 2 C-26.12087895 1.04029298 -24.04007775 0.80869571 -21.03515625 0.68359375 C-20.07029297 0.64169922 -19.10542969 0.59980469 -18.11132812 0.55664062 C-17.10521484 0.51732422 -16.09910156 0.47800781 -15.0625 0.4375 C-14.06025391 0.39431641 -13.05800781 0.35113281 -12.02539062 0.30664062 C-8.01113415 0.13792938 -4.01862743 0 0 0 Z " fill="#050505" transform="translate(498,186)"/>
<path d="M0 0 C9 31.07423581 9 31.07423581 9 37 C6.36 37.66 3.72 38.32 1 39 C-0.32 34.38 -1.64 29.76 -3 25 C-10.425 26.485 -10.425 26.485 -18 28 C-17.34 29.918125 -16.68 31.83625 -16 33.8125 C-14 39.625 -14 39.625 -14 43 C-16.64 43.66 -19.28 44.32 -22 45 C-24.73688591 37.26092877 -26.73498222 29.4065444 -28.6875 21.4375 C-29.01073541 20.12947513 -29.33430077 18.82153175 -29.65820312 17.51367188 C-30.44203901 14.34323119 -31.22254936 11.17201136 -32 8 C-28.53785351 5.94835763 -27.40610765 6 -23 6 C-22.01 10.62 -21.02 15.24 -20 20 C-18.2675 19.505 -16.535 19.01 -14.75 18.5 C-11.22812554 17.49375016 -8.70769715 17 -5 17 C-5.2165625 16.26394531 -5.433125 15.52789062 -5.65625 14.76953125 C-5.9346875 13.79371094 -6.213125 12.81789062 -6.5 11.8125 C-6.7784375 10.84957031 -7.056875 9.88664063 -7.34375 8.89453125 C-7.96677608 6.14654124 -8.12302812 3.80401584 -8 1 C-5.07175348 0.02391783 -3.04386724 -0.08226668 0 0 Z " fill="#040404" transform="translate(438,193)"/>
<path d="M0 0 C3.465 1.98 3.465 1.98 7 4 C6.38917443 7.39468921 5.15413328 9.39365557 3.0234375 12.08203125 C2.435625 12.84966797 1.8478125 13.61730469 1.2421875 14.40820312 C0.00010661 16.00757716 -1.25250685 17.59882832 -2.515625 19.18164062 C-6.22889078 24.01021422 -6.22889078 24.01021422 -7 29.94921875 C-6.20364187 32.99283961 -6.20364187 32.99283961 -4.375 35 C-0.58671112 36.595069 1.08322443 36.37087145 5 35 C8.08604126 31.96255782 10.52075972 28.53969657 13 25 C13.680625 24.04738281 14.36125 23.09476563 15.0625 22.11328125 C16.73021442 19.75628969 18.37507505 17.38660852 20 15 C22.9719385 16.12451727 25.33440687 17.22293791 28 19 C26.23559279 22.96252346 23.71146045 26.37342305 21.1875 29.875 C20.76146484 30.47441406 20.33542969 31.07382812 19.89648438 31.69140625 C11.25194159 43.74930103 11.25194159 43.74930103 5 46 C-0.9154043 46.76681167 -5.17275682 45.30605311 -10 42 C-13.97248798 38.2482058 -16.55767626 34.35905995 -17.5625 29 C-17.1817657 18.47381629 -6.35093484 7.92269537 0 0 Z " fill="#060606" transform="translate(324,717)"/>
<path d="M0 0 C0.33 0 0.66 0 1 0 C1.30292969 1.24136719 1.60585938 2.48273438 1.91796875 3.76171875 C2.34023863 5.40387938 2.76346643 7.0457939 3.1875 8.6875 C3.48237305 9.91243164 3.48237305 9.91243164 3.78320312 11.16210938 C5.15455582 16.37324962 6.51879135 19.67181444 11 23 C13.5238279 24.14481851 16.0846466 24.94027665 18.75 25.6875 C21.19863503 26.39995595 23.58842286 27.1618299 26 28 C26.495 28.99 26.495 28.99 27 30 C26.10075806 30.06223755 26.10075806 30.06223755 25.18334961 30.12573242 C18.56815139 30.72618593 11.73410001 31.4401771 6 35 C1.59155538 41.02385028 0.21227679 48.75600035 -1 56 C-1.66 55.67 -2.32 55.34 -3 55 C-3.86227208 51.49066561 -4.58614646 47.9871212 -5.23632812 44.43359375 C-6.31599143 39.24583399 -7.56955879 36.27180279 -12 33 C-14.70895954 31.79470578 -17.45526387 30.96628197 -20.3125 30.1875 C-21.05306641 29.97158203 -21.79363281 29.75566406 -22.55664062 29.53320312 C-24.36694557 29.00763072 -26.18295359 28.50176957 -28 28 C-28 27.34 -28 26.68 -28 26 C-26.24623047 25.63648438 -26.24623047 25.63648438 -24.45703125 25.265625 C-22.90869622 24.92780645 -21.36052764 24.58922437 -19.8125 24.25 C-19.04357422 24.09273438 -18.27464844 23.93546875 -17.48242188 23.7734375 C-12.78380572 22.7248193 -9.29061699 21.72694189 -6 18 C-4.76432466 15.17570297 -3.99239136 12.29950415 -3.25 9.3125 C-1.06885475 1.06885475 -1.06885475 1.06885475 0 0 Z " fill="#F6F6F6" transform="translate(443,383)"/>
<path d="M0 0 C0 2.64 0 5.28 0 8 C-0.67546875 8.03738281 -1.3509375 8.07476563 -2.046875 8.11328125 C-2.93890625 8.17902344 -3.8309375 8.24476563 -4.75 8.3125 C-5.63171875 8.37050781 -6.5134375 8.42851563 -7.421875 8.48828125 C-10.40149427 9.07969053 -11.87695403 9.83231053 -14 12 C-14 13.32 -14 14.64 -14 16 C-12.948125 15.835 -11.89625 15.67 -10.8125 15.5 C4.59829439 13.6837278 4.59829439 13.6837278 8.91015625 16.046875 C11.75687472 18.86869506 12.93451763 21.31898337 13.3125 25.25 C12.9297134 29.84343919 12.06409302 31.5622371 9 35 C1.99253325 40.85238982 -5.22220045 40.56187906 -14 40 C-13.125 33.125 -13.125 33.125 -12 32 C-9.25596619 31.75507797 -6.5130033 31.61614703 -3.76171875 31.4765625 C-0.63834116 30.93759211 0.77088553 30.23421542 3 28 C3.62152321 25.94118324 3.62152321 25.94118324 4 24 C3.39526855 24.06695068 2.79053711 24.13390137 2.16748047 24.20288086 C-0.59426511 24.4865639 -3.35788912 24.71239773 -6.125 24.9375 C-7.07632813 25.04384766 -8.02765625 25.15019531 -9.0078125 25.25976562 C-15.92594297 25.76421264 -15.92594297 25.76421264 -18.9921875 23.58251953 C-21.71607889 20.54651558 -23.28023041 18.09778747 -23.75 14 C-23.34954956 9.08971481 -20.59413699 6.13760689 -17 3 C-11.69326975 -0.82578227 -6.27753571 -0.30158979 0 0 Z " fill="#050506" transform="translate(639,749)"/>
<path d="M0 0 C6.625 -0.125 6.625 -0.125 10 1 C11.0625 3.484375 11.0625 3.484375 12 6.75 C12.33515625 7.91402344 12.6703125 9.07804688 13.015625 10.27734375 C14.48179471 15.82202523 15.78897447 21.39441972 17 27 C18.62568217 23.91702588 20.25042584 20.83355811 21.875 17.75 C22.33519531 16.87730469 22.79539062 16.00460937 23.26953125 15.10546875 C23.71425781 14.26113281 24.15898437 13.41679688 24.6171875 12.546875 C25.02565918 11.77182617 25.43413086 10.99677734 25.85498047 10.19824219 C26.92527926 8.14345108 27.96388167 6.07223667 29 4 C32.3 4 35.6 4 39 4 C37.32811218 8.53798122 35.10225669 12.69166975 32.8125 16.9375 C29.18623311 23.7124279 25.6986869 30.53971188 22.3125 37.4375 C21 40 21 40 20 41 C18.48071962 41.07179964 16.95832518 41.08392007 15.4375 41.0625 C14.61121094 41.05347656 13.78492188 41.04445313 12.93359375 41.03515625 C12.29550781 41.02355469 11.65742188 41.01195312 11 41 C10.71334473 39.92069214 10.71334473 39.92069214 10.42089844 38.81958008 C5.83639149 21.38227145 5.83639149 21.38227145 0.62890625 4.125 C0 2 0 2 0 0 Z " fill="#060606" transform="translate(453,776)"/>
<path d="M0 0 C2.11279297 -0.38818359 2.11279297 -0.38818359 4.7421875 -0.3984375 C5.71583252 -0.40464111 6.68947754 -0.41084473 7.69262695 -0.41723633 C9.26790161 -0.39632935 9.26790161 -0.39632935 10.875 -0.375 C12.49571411 -0.3608606 12.49571411 -0.3608606 14.14916992 -0.34643555 C29.83713662 -0.05717678 52.59355327 1.06236885 66 10 C67.1875 13.625 67.1875 13.625 68 17 C67.16210938 16.49855469 66.32421875 15.99710938 65.4609375 15.48046875 C61.41446058 13.74952659 58.96983815 13.86162057 54.625 14.3125 C53.37976563 14.43238281 52.13453125 14.55226563 50.8515625 14.67578125 C49.91054688 14.78277344 48.96953125 14.88976562 48 15 C48.495 17.97 48.495 17.97 49 21 C46.09197539 18.78071806 44.04687238 17.07030857 42 14 C40.08713548 13.3129293 40.08713548 13.3129293 37.859375 13.05078125 C36.62380859 12.86225586 36.62380859 12.86225586 35.36328125 12.66992188 C34.50089844 12.55197266 33.63851562 12.43402344 32.75 12.3125 C31.47962891 12.11817383 31.47962891 12.11817383 30.18359375 11.91992188 C22.12167199 10.36741088 22.12167199 10.36741088 14.625 12.5 C13.820625 13.2425 13.820625 13.2425 13 14 C12.34 13.67 11.68 13.34 11 13 C11.66 11.35 12.32 9.7 13 8 C5.5839039 6.86850004 0.8815077 7.05078241 -6 10 C-6.99 9.67 -7.98 9.34 -9 9 C-8.51789063 8.60167969 -8.03578125 8.20335937 -7.5390625 7.79296875 C-6.90742188 7.26316406 -6.27578125 6.73335937 -5.625 6.1875 C-4.99851562 5.66542969 -4.37203125 5.14335938 -3.7265625 4.60546875 C-1.7778952 2.91774261 -1.7778952 2.91774261 0 0 Z " fill="#090909" transform="translate(498,546)"/>
<path d="M0 0 C2.97246802 2.54782974 4.41535288 5.45340883 6 9 C6 9.66 6 10.32 6 11 C11.445 11.495 11.445 11.495 17 12 C17 12.99 17 13.98 17 15 C15.989375 15.78375 14.97875 16.5675 13.9375 17.375 C11.36377558 19.73776341 11.01531661 20.71408996 10.82421875 24.28125 C11.09786074 27.55073869 11.47161303 30.76242892 12 34 C7.234375 32.1484375 7.234375 32.1484375 5.125 30.8125 C1.83811293 29.55574906 -0.61930631 30.2289646 -4 31 C-6.74572728 32.47987963 -6.74572728 32.47987963 -9 34 C-9.66 34 -10.32 34 -11 34 C-10.84660156 33.14277344 -10.69320313 32.28554688 -10.53515625 31.40234375 C-9.40397075 24.75923037 -9.40397075 24.75923037 -11.4921875 18.6484375 C-13.39058392 16.7965407 -13.39058392 16.7965407 -15.43359375 15.26953125 C-15.95050781 14.85058594 -16.46742188 14.43164062 -17 14 C-17 13.34 -17 12.68 -17 12 C-11.06 11.505 -11.06 11.505 -5 11 C-4.731875 10.113125 -4.46375 9.22625 -4.1875 8.3125 C-3.08289181 5.23122452 -1.77150856 2.73778595 0 0 Z " fill="#060606" transform="translate(277,680)"/>
<path d="M0 0 C0.66 0 1.32 0 2 0 C2.22171875 0.69867187 2.4434375 1.39734375 2.671875 2.1171875 C3.8565104 5.14745053 4.94613429 7.46311883 7 10 C10.97160092 11.46675509 14.78516548 11.85211107 19 12 C17.59754919 15.29062848 17.04744963 15.97115807 13.8125 17.9375 C12.09298946 19.10247747 12.09298946 19.10247747 11 21 C10.76869933 25.42160807 11.29740444 29.63752029 12 34 C11.00419922 33.42378906 11.00419922 33.42378906 9.98828125 32.8359375 C9.10527344 32.35382812 8.22226562 31.87171875 7.3125 31.375 C6.44238281 30.88773438 5.57226562 30.40046875 4.67578125 29.8984375 C2.02532134 28.72608836 2.02532134 28.72608836 -0.59375 29.75 C-1.3878125 30.1625 -2.181875 30.575 -3 31 C-3.66644531 31.28101563 -4.33289063 31.56203125 -5.01953125 31.8515625 C-5.61121094 32.10679687 -6.20289063 32.36203125 -6.8125 32.625 C-8.3903125 33.305625 -8.3903125 33.305625 -10 34 C-9.84660156 33.14277344 -9.69320312 32.28554688 -9.53515625 31.40234375 C-8.41868251 24.73413081 -8.41868251 24.73413081 -10.4921875 18.578125 C-12.24680519 16.87283391 -13.98359937 15.38281839 -16 14 C-15.67 13.34 -15.34 12.68 -15 12 C-12.49609375 11.5859375 -12.49609375 11.5859375 -9.4375 11.375 C-8.42558594 11.30023437 -7.41367187 11.22546875 -6.37109375 11.1484375 C-5.58863281 11.09945312 -4.80617188 11.05046875 -4 11 C-3.79503906 10.37351562 -3.59007812 9.74703125 -3.37890625 9.1015625 C-3.10949219 8.28429687 -2.84007812 7.46703125 -2.5625 6.625 C-2.29566406 5.81289063 -2.02882813 5.00078125 -1.75390625 4.1640625 C-1 2 -1 2 0 0 Z " fill="#040404" transform="translate(726,680)"/>
<path d="M0 0 C1.92944562 2.38883743 3.02599579 4.08491958 3.9375 7.0625 C7.28511812 11.83031974 12.48485998 12.02523107 18 13 C17.02133662 14.14626322 16.04205413 15.29199788 15.0625 16.4375 C14.51722656 17.07558594 13.97195313 17.71367187 13.41015625 18.37109375 C12.63204305 19.26991149 11.84063472 20.15936528 11 21 C10.92741054 23.18639453 10.91626217 25.37500389 10.9375 27.5625 C10.94652344 28.76003906 10.95554688 29.95757812 10.96484375 31.19140625 C10.97644531 32.11824219 10.98804688 33.04507813 11 34 C10.41992188 33.69964844 9.83984375 33.39929688 9.2421875 33.08984375 C2.87203718 29.9846992 2.87203718 29.9846992 -4 31 C-5.68991979 31.9601817 -7.36209288 32.95355934 -9 34 C-9.66 34 -10.32 34 -11 34 C-10.84660156 33.14277344 -10.69320312 32.28554688 -10.53515625 31.40234375 C-9.41868251 24.73413081 -9.41868251 24.73413081 -11.4921875 18.578125 C-13.24680519 16.87283391 -14.98359937 15.38281839 -17 14 C-16.67 13.34 -16.34 12.68 -16 12 C-13.49609375 11.5859375 -13.49609375 11.5859375 -10.4375 11.375 C-9.42558594 11.30023438 -8.41367188 11.22546875 -7.37109375 11.1484375 C-6.58863281 11.09945313 -5.80617187 11.05046875 -5 11 C-4.731875 10.113125 -4.46375 9.22625 -4.1875 8.3125 C-3.08289181 5.23122452 -1.77150856 2.73778595 0 0 Z " fill="#050505" transform="translate(243,359)"/>
<path d="M0 0 C1.9352244 2.4282084 3.01412797 4.04615137 3.9375 7.0625 C7.28511812 11.83031974 12.48485998 12.02523107 18 13 C17.02133662 14.14626322 16.04205413 15.29199788 15.0625 16.4375 C14.51722656 17.07558594 13.97195313 17.71367187 13.41015625 18.37109375 C12.63204305 19.26991149 11.84063472 20.15936528 11 21 C11.09017996 23.19050021 11.24666208 25.378466 11.4375 27.5625 C11.53933594 28.76003906 11.64117188 29.95757812 11.74609375 31.19140625 C11.87177734 32.58166016 11.87177734 32.58166016 12 34 C8.59687262 32.94124926 5.98646769 31.99097846 3 30 C-1.99853069 29.14310902 -5.76753523 31.64746375 -10 34 C-9.91878906 33.14277344 -9.83757813 32.28554688 -9.75390625 31.40234375 C-9.21710926 24.67738992 -9.21710926 24.67738992 -11.55859375 18.578125 C-13.29457246 16.88755418 -15.01762554 15.39069637 -17 14 C-13.9564499 11.9709666 -13.06362098 11.82860542 -9.625 11.5 C-6.32633943 10.86502129 -5.29970282 10.41476115 -3.30078125 7.6484375 C-2.0638482 5.13204076 -0.96612838 2.63136474 0 0 Z " fill="#040404" transform="translate(758,359)"/>
<path d="M0 0 C1.98 1.32 3.96 2.64 6 4 C4.67461876 7.97614372 2.98769086 10.11189884 0 13 C0 13.66 0 14.32 0 15 C1.55240341 16.39325954 3.17029985 17.71380128 4.8125 19 C10.77754901 23.76429239 16.40029021 28.8118743 22 34 C20.1875 37 20.1875 37 18 40 C14.51386088 40 14.15573322 39.57391406 11.671875 37.33203125 C11.03636719 36.76806641 10.40085937 36.20410156 9.74609375 35.62304688 C9.08738281 35.02556641 8.42867188 34.42808594 7.75 33.8125 C3.00833608 29.55070387 -1.74317925 25.6157666 -7 22 C-9.31 24.64 -11.62 27.28 -14 30 C-15.98 28.68 -17.96 27.36 -20 26 C-19.43384016 22.11649732 -17.66155353 20.24229686 -15 17.4375 C-10.71587091 12.82382252 -6.70575323 8.04896189 -2.75 3.15234375 C-1 1 -1 1 0 0 Z " fill="#050505" transform="translate(274,283)"/>
<path d="M0 0 C2.76390737 2.40339772 3.04065919 3.16263678 4 7 C1.03 8.65 -1.94 10.3 -5 12 C-2.32404288 19.13588564 0.85134618 25.84193175 4.4453125 32.55273438 C5.37051184 34.33209714 6.19341581 36.16382255 7 38 C6 41 6 41 4.125 42.1875 C2 43 2 43 -1 43 C-2.82240475 39.44248328 -4.6311511 35.87819243 -6.4375 32.3125 C-6.95376953 31.30509766 -7.47003906 30.29769531 -8.00195312 29.25976562 C-8.49501953 28.28330078 -8.98808594 27.30683594 -9.49609375 26.30078125 C-9.95169678 25.40528564 -10.4072998 24.50979004 -10.87670898 23.5871582 C-11.981292 21.04308816 -12.56734946 18.73151015 -13 16 C-13.69867188 16.3609375 -14.39734375 16.721875 -15.1171875 17.09375 C-16.02726562 17.5578125 -16.93734375 18.021875 -17.875 18.5 C-18.77992188 18.9640625 -19.68484375 19.428125 -20.6171875 19.90625 C-23 21 -23 21 -25 21 C-28 15.25 -28 15.25 -28 13 C-24.27209617 11.20569714 -20.54246051 9.41502304 -16.8125 7.625 C-15.75740234 7.11710938 -14.70230469 6.60921875 -13.61523438 6.0859375 C-12.59365234 5.59609375 -11.57207031 5.10625 -10.51953125 4.6015625 C-9.11344604 3.92601318 -9.11344604 3.92601318 -7.67895508 3.23681641 C-5.14792635 2.06829444 -2.59797853 1.00952378 0 0 Z " fill="#040404" transform="translate(378,211)"/>
<path d="M0 0 C3.6578218 2.03993908 5.66946174 3.50419262 8 7 C8.61043233 11.23338782 8.45876307 14.94484493 6.75 18.875 C2.75129534 23.73056995 2.75129534 23.73056995 -1.08203125 24.3203125 C-5.1589332 24.52314344 -7.40250195 24.36866901 -10.9375 22.1875 C-14.39828786 18.51696742 -15.4566531 16.14878579 -15.31640625 11.0625 C-14.63037368 6.590584 -12.06342082 3.83954275 -8.625 1.125 C-5.39835874 -0.25784626 -3.48313618 -0.49759088 0 0 Z " fill="#EAEBEB" transform="translate(612,214)"/>
<path d="M0 0 C2.76101146 1.82109266 4.52100548 3.04201097 6 6 C6.57717357 10.73093088 6.43416625 14.14717343 4.25 18.4375 C0.83781526 22.32359928 -0.7108264 22.85444814 -5.875 23.4375 C-9.12458092 23.3646122 -10.89939678 22.71798257 -13.4375 20.6875 C-16.44050329 17.53800875 -16.90840139 15.97094525 -17.3125 11.6875 C-16.85994957 6.34740497 -14.75473544 3.51102219 -10.75 0.0625 C-6.91820209 -1.41796737 -3.90796081 -1.18423055 0 0 Z " fill="#E7E8E8" transform="translate(672,246)"/>
<path d="M0 0 C4.5613976 1.86602629 6.74794145 4.66270205 9 9 C9.55025477 12.42380748 9.78306293 14.71126913 7.94140625 17.7421875 C5.6179791 20.6240645 3.78868328 22.74958434 0.046875 23.2734375 C-4.15148712 23.45907936 -7.07490427 23.45668199 -10.4375 20.75 C-13.5885381 17.36839813 -14.78147047 15.67539309 -15.375 11.125 C-14.89861498 7.15512486 -13.46959574 5.10463464 -11 2 C-7.282644 -0.47823733 -4.30697331 -0.53203788 0 0 Z " fill="#E6E7E7" transform="translate(325,255)"/>
<path d="M0 0 C6.4722386 2.26830792 12.34022155 5.89204914 16.5703125 11.37890625 C16.9375 14.0078125 16.9375 14.0078125 16.5703125 16.37890625 C14.24166916 18.70754959 13.73709179 18.69735662 10.5703125 18.75390625 C1.96856494 18.51918762 -4.55833952 14.78645349 -10.93359375 9.2578125 C-12.75817575 6.96636618 -13.15532834 5.2738684 -13.4296875 2.37890625 C-10.85992311 -2.5893049 -4.54509439 -1.16184889 0 0 Z " fill="#C9CBCB" transform="translate(581.4296875,590.62109375)"/>
<path d="M0 0 C2.09429256 0.38520815 4.11442986 0.95151282 6.16967773 1.50610352 C6.77368408 1.66908936 7.37769043 1.8320752 8 2 C7.42454592 10.32124872 5.21635181 18.08016409 2.9375 26.0625 C2.55599539 27.41843841 2.17513093 28.77455711 1.79492188 30.13085938 C0.86954326 33.42239597 -0.06224752 36.71197151 -1 40 C-3.97 39.34 -6.94 38.68 -10 38 C-9.21823241 32.67529405 -7.94731814 27.52217955 -6.625 22.3125 C-6.29000488 20.98545044 -6.29000488 20.98545044 -5.94824219 19.6315918 C-1.30366668 1.30366668 -1.30366668 1.30366668 0 0 Z " fill="#080808" transform="translate(425,769)"/>
<path d="M0 0 C7.91315348 -0.25466499 15.33568129 0.44812889 23.125 1.8125 C24.14464844 1.97814453 25.16429687 2.14378906 26.21484375 2.31445312 C32.39371437 3.36541636 38.10761388 4.86232562 44 7 C44 7.33 44 7.66 44 8 C46.64 8.33 49.28 8.66 52 9 C52 9.33 52 9.66 52 10 C47.38 10.33 42.76 10.66 38 11 C38.495 13.97 38.495 13.97 39 17 C36.09197539 14.78071806 34.04687238 13.07030857 32 10 C30.08713548 9.3129293 30.08713548 9.3129293 27.859375 9.05078125 C26.62380859 8.86225586 26.62380859 8.86225586 25.36328125 8.66992188 C24.50089844 8.55197266 23.63851562 8.43402344 22.75 8.3125 C21.90308594 8.18294922 21.05617188 8.05339844 20.18359375 7.91992188 C12.12167199 6.36741088 12.12167199 6.36741088 4.625 8.5 C4.08875 8.995 3.5525 9.49 3 10 C2.34 9.67 1.68 9.34 1 9 C1.66 7.35 2.32 5.7 3 4 C1.68 3.67 0.36 3.34 -1 3 C-0.67 2.01 -0.34 1.02 0 0 Z " fill="#1D1D1E" transform="translate(508,550)"/>
<path d="M0 0 C0.59683594 0.42410156 1.19367188 0.84820313 1.80859375 1.28515625 C15.1570836 10.30976677 30.03767494 15.79066127 46.09765625 17.44140625 C46.78005371 17.51576904 47.46245117 17.59013184 48.16552734 17.66674805 C50.08048576 17.86397813 51.99926938 18.02297698 53.91796875 18.1796875 C57 19 57 19 58.92578125 21.5703125 C59.45751953 22.77300781 59.45751953 22.77300781 60 24 C38.32474963 25.50348557 18.48933416 16.47623593 1.6171875 3.515625 C1.08351562 3.01546875 0.54984375 2.5153125 0 2 C0 1.34 0 0.68 0 0 Z " fill="#7E8081" transform="translate(248,622)"/>
<path d="M0 0 C3.125 2.4375 3.125 2.4375 5 5 C5 6.32 5 7.64 5 9 C4.34 9 3.68 9 3 9 C3 8.34 3 7.68 3 7 C2.05125 6.690625 1.1025 6.38125 0.125 6.0625 C-3 5 -3 5 -5 4 C-14.58188401 2.47735712 -24.78137279 2.16742585 -33 8 C-33.66 8 -34.32 8 -35 8 C-34.71711523 4.60538272 -34.25867941 3.25867941 -31.8125 0.8125 C-22.57675152 -5.1394268 -9.78010327 -4.58101491 0 0 Z " fill="#131313" transform="translate(522,610)"/>
<path d="M0 0 C0.66 0.66 1.32 1.32 2 2 C1.175 2.45375 0.35 2.9075 -0.5 3.375 C-1.325 3.91125 -2.15 4.4475 -3 5 C-3.1490712 7.0745356 -3.1490712 7.0745356 -2 9 C-2.86625 8.9175 -3.7325 8.835 -4.625 8.75 C-8.76876845 9.05694581 -10.68729626 10.59076092 -14 13 C-14.66 13 -15.32 13 -16 13 C-16.33 14.32 -16.66 15.64 -17 17 C-17 16.34 -17 15.68 -17 15 C-18.98 15.33 -20.96 15.66 -23 16 C-23 17.65 -23 19.3 -23 21 C-23.66 21.33 -24.32 21.66 -25 22 C-25.8952626 18.91554059 -26.34846559 16.20793322 -26 13 C-20.96004783 5.61795241 -9.01154509 -1.53388002 0 0 Z " fill="#0F0F0F" transform="translate(410,575)"/>
<path d="M0 0 C0.6290625 0.40992188 1.258125 0.81984375 1.90625 1.2421875 C12.80395269 8.10248829 23.15813643 9.65105968 35.98046875 7.5 C41.41386515 6.05328628 44.98182523 3.91243333 49 0 C48.875 2.75 48.875 2.75 48 6 C40.4312578 12.79246095 30.4420324 13.56234346 20.69921875 13.35546875 C13.54810793 12.66829759 5.96808998 10.46489898 1 5 C0.61153028 3.34531569 0.27090383 1.67794517 0 0 Z " fill="#111111" transform="translate(482,617)"/>
<path d="M0 0 C0.5625 2.6875 0.5625 2.6875 0 6 C-2.14853979 9.21952446 -4.50224278 12.25112139 -8 14 C-9.99960012 14.039992 -12.00047242 14.04346799 -14 14 C-15.57544957 6.97107115 -15.57544957 6.97107115 -13 2.625 C-8.70609248 -1.13216908 -5.05443589 -3.36962393 0 0 Z " fill="#BFC1C2" transform="translate(420,611)"/>
<path d="M0 0 C2 2 2 2 2.4375 4.9375 C2 8 2 8 0 9.8125 C-3.74380039 11.29442099 -6.99092331 11.66024774 -11 12 C-12.31626692 8.38026598 -13 5.90432869 -13 2 C-8.49016424 -0.25491788 -4.94576735 -0.32431261 0 0 Z " fill="#98999B" transform="translate(586,777)"/>
<path d="M0 0 C0.33 0 0.66 0 1 0 C1.2475 1.093125 1.495 2.18625 1.75 3.3125 C3.59761461 8.76296311 5.97321712 9.48660856 11 12 C8.03 12.66 5.06 13.32 2 14 C1.34 16.97 0.68 19.94 0 23 C-2 19 -2 19 -2.6875 16.375 C-3.88555094 13.59158119 -3.88555094 13.59158119 -7.625 12.6875 C-8.73875 12.460625 -9.8525 12.23375 -11 12 C-11 11.34 -11 10.68 -11 10 C-9.741875 9.649375 -8.48375 9.29875 -7.1875 8.9375 C-4.65628409 8.0146142 -3.33240554 7.48723939 -1.80078125 5.2421875 C-0.87959475 3.11319905 -0.87959475 3.11319905 0 0 Z " fill="#EAEAEA" transform="translate(358,473)"/>
<path d="M0 0 C1.28463135 0.19807251 1.28463135 0.19807251 2.59521484 0.40014648 C8.48381193 1.34356035 14.31306012 2.47650862 20.125 3.8125 C20.84107422 3.97459961 21.55714844 4.13669922 22.29492188 4.30371094 C27.25002017 5.50002017 27.25002017 5.50002017 29.5 7.75 C26.22583759 8.84138747 25.36347018 8.67114463 22.140625 7.82421875 C21.28009521 7.60540039 20.41956543 7.38658203 19.53295898 7.16113281 C18.61458252 6.92233398 17.69620605 6.68353516 16.75 6.4375 C1.37423844 2.62979548 -13.70177461 1.35947469 -29.5 0.75 C-29.5 0.42 -29.5 0.09 -29.5 -0.25 C-27.85473791 -0.42221435 -26.20874089 -0.58740831 -24.5625 -0.75 C-23.18771484 -0.88921875 -23.18771484 -0.88921875 -21.78515625 -1.03125 C-14.36455664 -1.5253684 -7.34346382 -1.1543896 0 0 Z " fill="#ADADAD" transform="translate(531.5,545.25)"/>
<path d="M0 0 C8.3704272 -0.3333356 16.29906184 -0.02273179 24.5625 1.375 C25.31128418 1.50108643 26.06006836 1.62717285 26.83154297 1.75708008 C31.03150194 2.51371463 34.97659128 3.53809794 39 5 C39 5.33 39 5.66 39 6 C25.67013368 5.67448434 13.03129253 3.78799137 0 1 C0 0.67 0 0.34 0 0 Z " fill="#DDDDDD" transform="translate(510,551)"/>
<path d="M0 0 C2.5 2.3125 2.5 2.3125 2.875 5.0625 C2.75125 5.805 2.6275 6.5475 2.5 7.3125 C1.51 7.8075 1.51 7.8075 0.5 8.3125 C-0.11875 7.673125 -0.7375 7.03375 -1.375 6.375 C-4.73073032 3.11796763 -6.8874987 3.16036362 -11.5234375 3.2109375 C-13.62192113 3.31876472 -15.50469612 3.64739871 -17.5 4.3125 C-16.58486681 2.02466703 -15.84515354 0.57800272 -13.875 -0.9375 C-8.64154277 -2.5901707 -4.83582069 -2.3315564 0 0 Z " fill="#131313" transform="translate(458.5,575.6875)"/>
<path d="M0 0 C5.56818182 0.56818182 5.56818182 0.56818182 7 2 C7.1875 4.9375 7.1875 4.9375 7 8 C5 10 5 10 2.5625 10.3125 C0 10 0 10 -1.875 8.8125 C-3 7 -3 7 -2.8125 4.4375 C-2 2 -2 2 0 0 Z " fill="#ECECEC" transform="translate(575,451)"/>
<path d="M0 0 C4.95 0 9.9 0 15 0 C15.33 0.66 15.66 1.32 16 2 C17.89533342 2.46523063 17.89533342 2.46523063 20.0625 2.625 C21.361875 2.74875 22.66125 2.8725 24 3 C24 3.33 24 3.66 24 4 C19.38 4.33 14.76 4.66 10 5 C10.33 6.98 10.66 8.96 11 11 C8.09197539 8.78071806 6.04687238 7.07030857 4 4 C3.01 3.67 2.02 3.34 1 3 C0.67 2.01 0.34 1.02 0 0 Z " fill="#232323" transform="translate(536,556)"/>
<path d="M0 0 C2.7839183 1.39195915 2.97898997 3.15575779 4 6 C3.154375 5.9175 2.30875 5.835 1.4375 5.75 C-1.89278126 5.99220227 -2.95953655 6.35161357 -5.6875 8 C-9 10 -9 10 -12 10 C-12.66 9.67 -13.32 9.34 -14 9 C-5.21656051 2.11146497 -5.21656051 2.11146497 0 0 Z " fill="#212121" transform="translate(404,578)"/>
<path d="M0 0 C2.04224637 0.11514149 4.08380159 0.24257326 6.125 0.375 C7.26195312 0.44460938 8.39890625 0.51421875 9.5703125 0.5859375 C12.95393616 0.99443876 15.81612441 1.80967569 19 3 C19 3.66 19 4.32 19 5 C16.39533457 4.69127671 13.79132309 4.37818277 11.1875 4.0625 C10.44951172 3.97548828 9.71152344 3.88847656 8.95117188 3.79882812 C5.83266879 3.41783454 2.98891878 2.99630626 0 2 C0 1.34 0 0.68 0 0 Z " fill="#0C0C0C" transform="translate(518,554)"/>
<path d="M0 0 C0 0.66 0 1.32 0 2 C-1.64333504 3.03789581 -3.31243867 4.03567924 -5 5 C-7.5654594 7.5654594 -7.54046087 9.47686668 -8 13 C-8.99 12.67 -9.98 12.34 -11 12 C-10.76291095 5.95422917 -10.76291095 5.95422917 -8.73828125 3.421875 C-5.60054577 0.67141669 -4.25119369 0 0 0 Z " fill="#181919" transform="translate(416,610)"/>
<path d="M0 0 C0.66 0.33 1.32 0.66 2 1 C2.44502402 4.0409975 2.44836964 6.20932666 0.91015625 8.921875 C-1.87774145 12.50103279 -3.3444861 13.84140793 -7.875 14.9375 C-8.90625 14.958125 -9.9375 14.97875 -11 15 C-9 13 -9 13 -6.5625 11.625 C-3.87689142 9.92193114 -2.56938464 8.74642312 -1 6 C-0.27954633 2.84881675 -0.27954633 2.84881675 0 0 Z " fill="#161616" transform="translate(418,610)"/>
<path d="M0 0 C1.67542976 0.28604898 3.34385343 0.61781233 5 1 C5.5625 2.9375 5.5625 2.9375 6 5 C5 6 5 6 2.4375 6.0625 C1.2309375 6.0315625 1.2309375 6.0315625 0 6 C-0.38218767 4.34385343 -0.71395102 2.67542976 -1 1 C-0.67 0.67 -0.34 0.34 0 0 Z " fill="#1C1C1C" transform="translate(472,555)"/>
<path d="M0 0 C0.66 0 1.32 0 2 0 C2 1.32 2 2.64 2 4 C3.32 4.66 4.64 5.32 6 6 C5.38125 6.103125 4.7625 6.20625 4.125 6.3125 C1.63473516 6.87525373 1.63473516 6.87525373 0 10 C-0.33 9.01 -0.66 8.02 -1 7 C-1.66 6.67 -2.32 6.34 -3 6 C-3 5.34 -3 4.68 -3 4 C-2.01 4 -1.02 4 0 4 C0 2.68 0 1.36 0 0 Z " fill="#C8C8C8" transform="translate(616,486)"/>
<path d="M0 0 C10.11764706 8.23529412 10.11764706 8.23529412 12 12 C8.49397258 11.41953188 6.79150498 10.19876969 4.3125 7.6875 C3.71050781 7.09324219 3.10851562 6.49898437 2.48828125 5.88671875 C0.91421835 3.89125318 0.41108176 2.48293385 0 0 Z " fill="#C5C5C6" transform="translate(337,644)"/>
<path d="M0 0 C0.66 0.33 1.32 0.66 2 1 C0.42210402 2.15330947 -1.1625482 3.29737927 -2.75 4.4375 C-3.63171875 5.07558594 -4.5134375 5.71367188 -5.421875 6.37109375 C-7.72699125 7.8275081 -9.34349572 8.55931821 -12 9 C-8.33494586 5.00175912 -4.88887148 2.39831431 0 0 Z " fill="#A9ABAB" transform="translate(402,579)"/>
<path d="M0 0 C-0.66 1.32 -1.32 2.64 -2 4 C-2 3.34 -2 2.68 -2 2 C-4.97 2 -7.94 2 -11 2 C-7.06425135 -0.62383243 -4.54354105 -1.51451368 0 0 Z " fill="#363637" transform="translate(560,588)"/>
<path d="M0 0 C3.35595828 0.59927826 5.37801226 1.84622436 8 4 C7.67 4.99 7.34 5.98 7 7 C5.83040013 6.02433888 4.66438823 5.044375 3.5 4.0625 C2.8503125 3.51722656 2.200625 2.97195313 1.53125 2.41015625 C1.0259375 1.94480469 0.520625 1.47945312 0 1 C0 0.67 0 0.34 0 0 Z " fill="#AFB1B2" transform="translate(347,656)"/>
</svg>
