<svg width="24" height="24" viewBox="0 0 24 24" fill="none" xmlns="http://www.w3.org/2000/svg">
<path d="M12 24C18.6274 24 24 18.6274 24 12C24 5.37258 18.6274 0 12 0C5.37258 0 0 5.37258 0 12C0 18.6274 5.37258 24 12 24Z" fill="#FAFAFA"/>
<path d="M14.0705 11.2227L12.9977 13.0831L11.9245 14.9435L10.8503 16.8L9.77718 14.941L10.85 13.0806L11.9243 11.2216L10.2947 8.4H12.4404L12.9977 9.36346L14.0705 11.2227ZM8.14736 8.4H6L8.70294 13.0817L9.77718 11.2227L8.14736 8.4ZM17.2664 9.36346L16.7094 8.4H14.5635L16.1936 11.2227L15.1191 13.0831L14.0462 14.9435L15.1191 16.8L16.1936 14.941L17.2664 13.0806L18.3393 11.2216L17.2664 9.36346Z" fill="black"/>
</svg>
